<svg xmlns="http://www.w3.org/2000/svg" width="76" height="76" viewBox="0 0 76 76"><path fill="#fff" d="M14.3 51.9c-.2 0-.3 0-.3-.2-.2-.5-.3-.9-.7-1.4h.2c.3.3.7.9.9 1.2-.1.1-.1.4-.1.4zm51.4-15.7v2.9c-.2.3-.2.5-.2.7 0 .2-.2.3-.2.5-.2.3-.3.5-.5.9l-.3.3c.2.3.3.5.5.7-.2 0-.5 0-.5.5-.2.5.3.3.5.7h-.3c-.5-.2-1-.3-1 .5l-.2.2c-.2.3-.2.5-.3.7.2.2.3.2.3.3 0 0 0 .3-.2.3-.5.2-.5.5-.7 1-.2.3-.2.7-.3 1-.5.9-1.2 1.9-1.7 2.8.3.2.3.2.5.2.5 0 .7.3.5.7-.2.3-.3.5-.7.9l-1.7 1.7H59c.7-1 1.2-2.1 1.7-3.1-.2.2-.3.5-.5.7-.5.9-1 1.7-1.6 2.8-.2.2-.2.3-.2.5 0 .3 0 .5-.2.7 0 .2-.2.3-.3.5.5-.2.9-1 1.7-.7-.7 1.4-5.5 5.7-7.3 6.4.3-.5.5-1 1.2-1.4.7-.2 1.2-.5 1.7-.9-.2 0-.5.2-.7.2-.3.2-.9.3-1.2.5-.7.3-1 1-1.9 1.2l-.2.2c-.3.2-.7.5-1.2.7-.9.2-.9.3-.5.9-.5.2-.9.3-1.6.5.3-.3.5-.5.7-.9.2-.3.5-.5.9-.7l1-.5c.9-.9 1.9-1.6 2.8-2.4.5-.7 1.2-1.2 1.7-1.9.3-.3.7-1 1-1.6.3-.5.5-1 .7-1.4.2-.2.3-.5.5-.7.5-.3.9-.9.9-1.4.2-.7.3-1.4.9-1.9.5-.5.9-1.2.5-1.9-.2-.2 0-.5.2-.7.3-.3.3-.7.5-1.2.2-.3.3-1 .7-1.4.3-.5.7-.9.9-1.4.2-.7.3-1.6.3-2.2 0-2.6.2-5.2 0-7.8 0-.7-.3-1.2-.7-1.9-.2-.2-.3-.5-.3-.9 0-.7-.2-1.4-.2-2.1h-.2c-.2 1.2-.2 2.4-.3 3.6l.3.3c.2.2.5.3.5.5.2.3.2.7.2 1V36c.2 1.2 0 2.4-.3 3.6 0 .3-.2.7-.2 1 0 1.7-.3 3.6-1.2 5.2-.2.5-.5.9-.9 1.4-1.4 2.1-2.6 4-4 5.9 0 .2-.2.2-.3.3 0-.3.2-.7.2-1h-.2c-.3.3-.5.7-.9 1-.2-.9.3-1.7 0-2.4-.2.3-.2.5-.2.7-.2.9-.2 1.7-.9 2.6-.7.9-1.6 1.6-2.4 2.1-.5.3-.7.2-.7-.3-.2-.7-.3-1.6 0-2.2.2-.3.2-.7.2-1-.2-1.2-.2-2.6-.2-3.8-.2 1-.3 1.2-1.2 1.4-.2-.9-.2-1.6-.2-2.4-.2.9-.2 1.7-.3 2.6-.2 0-.2.2-.3.2-.2 0-.3-.2-.3-.3-.2-.5-.2-1-.2-1.6-.2.3-.3.9-.3 1.2 0 .7 0 1.6-.2 2.2s-.5 1.6-.7 2.4c-.2.5-.7 1-1.4.9-.2 0-.3-.2-.5-.2-.2.5-.2.9-.3 1.4-.2.3-.2.5-.5.3-.3 0-.5.2-.5.3-.2.5-.3 1-.3 1.6 0 .3-.2.7-.5.7-.5 0-1 .2-1.6.2-1 0-1.9.2-2.8.2-1 0-1 .2-1 1-.2-.2-.3-.5-.5-.5-.2-.2-.3.2-.7.2h-.2c-.2.2-.5.3-.5.5-.2.5-.3 1.2-.5 1.7-.3-.2-.9-.2-1-.7 0-.2-.3-.2-.5-.2-1.4.3-2.1-.5-2.9-1-.5.1-.5-.1-.5-.1-.2-.2-.3-.2-.3-.2-.3.7-1 .3-1.6.3-.7 0-1-.5-.9-1v-.3c.2-.3 0-.5-.3-.5s-.7-.3-1-.7c-.3-.7-1-1.2-1-2.1v-.2c-.5-.5-.9-1.2-1.6-1.6-.7-.5-1-1-1.6-1.6-1.4-1.6-2.4-3.5-3.1-5.7-.3-1-.3-2.1-.7-3.1 0-.5-.3-.9.2-1.2-.3-.2-.3-.3-.5-.3-.3 0-.5-.3-.2-.7v-.3c-.5-1-.7-2.1-.7-3.1.2-.7.2-1.4.2-2.1-.5 2.8-.7 5.5 0 8.3h-.2c-.2-.2-.5-.3-.7-.5 0 .2.2.3.3.5.3.2.5.5.7 1 .3 1.4.5 2.6.9 3.8.2.2.2.3.2.5-.3-.2-.7-.3-.9-.3v.2c.2.2.5.3.7.5.9.3.9 1 1 1.7 0 .2-.2.2-.2.3-.2 0-.2-.2-.3-.2s-.2-.2-.2-.2c0 .2-.2.2-.2.3l-.2-.2c-.5-.3-.5-.7-1.2-.7h-.2c-.2-.3-.3-.9-.5-1.2 0-.2-.2-.3-.2-.5v.9h-.2c-.5-.3-.7-1-.9-1.7-.2-.5-.2-.9-.3-1.4-.2-.3-.3-.9-.5-1.2-.3-1.2-.7-2.6-1-3.6.2 2.1 1 4.3 1.6 6.6-.3-.2-.5-.3-.7-.7-1-2.2-1.7-4.7-2.1-7.1-.2-1-.2-1.9-.3-2.9v-2.4c.2-1.9.2-4 1.4-5.7-.2.2-.3.2-.5.3.2-1.2 1.7-5.2 2.6-6.6l.2.2c.2-.3.2-1 .5-1.4 4.5-7.1 10.7-11.2 19-12.8 1-.2 2.1-.2 3.1-.3h3.1c.9.2 1.9.2 2.8.3 9 1.6 15.7 6.4 20.2 14 .3.9.7 1.7 1 2.4.9 2.1 1.6 4.2 1.6 5.9.2 1.3.2 2.3.4 3.4zm-51 11.2c-.2-.2-.3-.2-.5-.2-.2.5 0 1.2.5 1.6v-1.4zM19 29.3c-.3.3-.5.7-.9 1 .5.2.7-.2.9-1zm6.9 26.8c-.5-.9-.9-1.4-1.6-1.9 0 .2-.2.2-.2.2.2.3.3.9.5 1.2 0 .2.3.3.5.5h.8zm.2-28.2c-.3.5-.5 1-.7 1.6-.2.3-.4.5-.7.5H24c-.5 0-1.2-.2-1.6-.2.2.5.2 1.2.3 1.7.2-.2.2-.3.3-.3.2-.2.5-.2.7-.2v.7c0 .2-.2.3-.2.5-.2.2 0 .2 0 .3h.2c.3-.7.7-1.4 1.6-1.9.2.5.2 1 .3 1.6.3-1.4.5-2.8.5-4.3zm.5-2.3c-.3.3-.7.7-.5 1.2-.2-.2-.2 0 0 0 .1-.5.3-.8.5-1.2zm6.6 16.6c-1.2-.5-1.7-1.7-2.9-2.1.6.9 2.5 2.3 2.9 2.1zm1 .7c-.3-.2-.5-.3-.9-.5l-.2.2c.3.2.5.3.9.5l.2-.2zm9.2 8.7c-.2-1.2-.2-2.4-.3-3.5h-.2c0 .3-.2.5-.2.9-.3 1.4 0 2.8-.3 4.2 0 .2.2.3.2.5.8-.7.8-1.4.8-2.1zM32.3 64.2c-.9-.7-1.7-.9-2.8-.9v.2c.7.5 1.6.9 2.2 1.4v.2c-2.6-1-5.4-2.2-8-3.3 3.5 2.2 7.1 3.6 11.1 4-.3-.3-.3-.3-.5-.3-.8-.2-1.5-.8-2-1.3zm-12.5-7.3c-.3-.7-.9-1.2-1.6-1.6-.2-.2-.5-.2-.7-.3h1v-.2c-.3-.3-.3-.9-.9-1 0 .2 0 .2-.2.3-.2-.5-.5-.7-1.4-.5v.5l-1.9-1.9c1.9 3.5 4.7 6.4 8 8.7 0-.7-.2-.7-.7-1.4-.5-.8-1-1.7-1.6-2.6z"/></svg>