<svg width="420" height="408" viewBox="0 0 420 408" xmlns="http://www.w3.org/2000/svg" xmlns:xlink="http://www.w3.org/1999/xlink"><svg width="54" height="41.5" viewBox="-2 -2 54 41.5" x="249" y="192"><path fill="#fff" d="M8.7.1h3.8l8.7 37.4-1.9-.1-8.2-35.2H10L1.8 37.3H0L8.7.1zm-2.8 25h9.3L18 37.3h-1.8l-2.4-10.4-6.5-.1-2.4 10.4-1.9.1 2.9-12.2zM10.6 5L15 23.9H6.2C6.2 24 10.6 5 10.6 5zm2.1 17.1L10.5 13l-2.1 9.1h4.3zM15.6 0l8.9 35.5h1L34.4.2l1.9-.2-9.4 37.4h-3.7L13.9.2l1.7-.2zm3.2.4l6.2 25L31.4.3l1.8-.1L25 32.6 16.9.2l1.9.2zM37.5.1h3.8L50 37.5l-1.9-.1L40 2.2h-1.1l-8.2 35.1h-1.8L37.5.1zm-2.8 25H44l2.9 12.2h-1.8l-2.4-10.4-6.5-.1-2.4 10.3-1.9.1 2.8-12.1zM39.4 5l4.4 18.9-8.8.1 4.4-19zm2.1 17.1L39.4 13l-2.1 9.1h4.2z"/></svg><svg width="73" height="84" viewBox="-2 -2 73 84" x="232" y="238"><path fill="#7d6d70" d="M55.1 59.4l-.7-.6.8-1c.7-.1 1.3-.4 1.8-.9.3.3.6.7.8 1 .5.6.9 1 1.1 1.3 1.1 1.2 2.1 2.4 3 3.4l5.8-3.4V20.7L58 15c-1 1.1-2.4 2.6-3.4 3.8-.3-.1-.7-.2-1-.2l-2.2-1.4.1-.1c.8-.8 2.6-2.3 4-3.7l-21-12-20.9 12.1c.9.8 1.9 1.7 2.8 2.5l.1.1h-.1c-.3.2-.6.4-.8.7l-1.4 1.6-.7-.7c-.9-.9-1.7-1.8-2.5-2.6l-9.9 5.7v38.6L7 62.7c.9-1.1 1.9-2.2 3-3.4.3-.3 1-1.1 1.7-1.9l.5-.6 1 1.7c0 .4 0 .8.1 1.3-.8.7-1.3 1.2-1.5 1.3-1.1.9-2.1 1.8-3 2.6l25.6 14.9L60 63.7c-.9-.8-2-1.7-3-2.6-.2-.2-1-.9-1.9-1.7zm-4.9 4.1l-4.4 3.2c-.4.3-.9.5-1.5.5-.5 0-1.1-.2-1.5-.5-.2.1-.3.1-.5.2l-5.4.7h-.3c-.4.4-1 .6-1.7.6h-.3l-5.4-.6c-.8-.1-1.5-.6-1.9-1.2L22.5 65c-.2 0-.3-.1-.5-.2-.4.2-.8.3-1.2.3-.6 0-1.3-.2-1.7-.7l-4-3.7c-.7-.6-.9-1.6-.7-2.5l-2.6-4.3c-.1-.1-.1-.3-.2-.4-.8-.2-1.5-.7-1.8-1.5l-2.1-5c-.4-1-.2-1.9.3-2.6l-.6-5.1c0-.3 0-.5.1-.7-.7-.6-1-1.7-.7-2.6l1.6-5.2c.2-.8.9-1.4 1.6-1.7 0-.1.1-.3.1-.4l2.2-4.6c-.3-.8-.1-1.8.5-2.5l3.6-4.1c.5-.5 1.2-.9 1.9-.9.3 0 .7.1 1 .2.1-.1.3-.2.5-.3l4.4-1.6c.2-.9.9-1.6 1.9-1.8l5.3-1.2c.2 0 .4-.1.5-.1.7 0 1.4.3 1.8.8h.3l5.7.4c.2 0 .4.1.5.1.5-.4 1-.6 1.7-.6.4 0 .8.1 1.1.3l4.9 2.4c.8.4 1.4 1.3 1.4 2.1l3.9 2.4h.1c.8 0 1.6.4 2.1 1.1l3 4.5c.6.7.6 1.7.3 2.5l1.6 4.8c0 .1.1.3.1.4.7.4 1.3 1 1.4 1.9l.9 5.4c.1.7-.1 1.4-.4 1.9-.2.3-.5.5-.8.7.1.3.1.6 0 .9L60 48.6c.1.2.2.4.2.6.1.7 0 1.4-.4 1.9l-3 4.5c-.5.7-1.3 1.1-2.1 1.2 0 .1-.1.2-.2.3l-3.2 4c0 .9-.3 1.9-1.1 2.4z"/><path fill="#fff" d="M69 60V20l-10.2-5.9c.1-.1.1-.2.2-.2 6-6.7 9.8-11.6 9.8-11.7l-.1-.1s-4.9 3.8-11.6 9.8c-.2.2-.5.4-.8.7L34.5 0 12.7 12.6c-.1-.1-.3-.2-.4-.4l-.4-.3C5.2 5.9.3 2.1.3 2.1l-.1.1S4 7.1 10 13.9c.1.1.1.2.2.2L.3 19.9 0 20v40l6.2 3.6c-3.7 4.4-6 7.3-6 7.3l.1.1s3.1-2.4 7.7-6.4L34.5 80l26.6-15.4c4.6 4 7.6 6.3 7.7 6.4l.1-.1s-2.3-2.9-6-7.3l5.9-3.4.2-.2zm-1.2-.7L62 62.7c-.9-1.1-1.9-2.2-3-3.4-.2-.2-.6-.7-1.1-1.3-.3-.3-.6-.7-.8-1-.5.5-1.1.8-1.8.9l-.8 1 .7.6c.9.8 1.8 1.5 2 1.7 1.1.9 2.1 1.8 3 2.6L34.5 78.6 8.9 63.8c.9-.8 2-1.7 3-2.6.2-.1.7-.6 1.5-1.3-.1-.5-.2-.9-.1-1.3l-1-1.7-.5.6c-.8.8-1.5 1.6-1.7 1.9-1.1 1.2-2.1 2.4-3 3.4l-5.8-3.4V20.7L11 15c.7.8 1.6 1.7 2.5 2.6l.7.7 1.4-1.6c.2-.2.4-.4.8-.7h.1-.1c-.9-.8-1.9-1.7-2.8-2.5L34.5 1.4l20.9 12.1c-1.5 1.3-3.2 2.9-4 3.7l-.1.1 2.2 1.4c.3 0 .6.1 1 .2 1.1-1.2 2.4-2.6 3.4-3.8l9.8 5.7.1 38.5zm-9.3-34.1l-3-4.5c-.5-.7-1.3-1.1-2.1-1.1h-.1l-3.9-2.4c-.1-.9-.6-1.7-1.4-2.1l-5-2.5c-.3-.2-.7-.3-1.1-.3-.6 0-1.2.2-1.7.6-.2-.1-.3-.1-.5-.1l-5.7-.4h-.3c-.5-.5-1.1-.8-1.8-.8-.2 0-.4 0-.5.1L26 13c-1 .2-1.7 1-1.9 1.8l-4.4 1.6c-.2.1-.3.2-.5.3-.3-.1-.6-.2-1-.2-.7 0-1.4.3-1.9.9l-3.6 4.1c-.6.7-.8 1.7-.5 2.5L10 28.6v.4c-.8.3-1.4.9-1.6 1.7l-1.6 5.2c-.3 1 0 2 .7 2.6-.1.2-.1.5-.1.7l.6 5.2c-.5.7-.7 1.7-.4 2.5l2.1 5c.3.8 1 1.3 1.8 1.5 0 .1.1.3.2.4l2.6 4.3c-.2.9 0 1.8.7 2.5l4 3.7c.5.4 1.1.7 1.7.7.4 0 .8-.1 1.2-.3.1.1.3.2.5.2l4.9 1.3c.4.6 1.1 1.1 1.9 1.2l5.4.6h.3c.6 0 1.2-.2 1.7-.6h.3l5.4-.7c.2 0 .4-.1.5-.2.4.3.9.5 1.5.5.5 0 1-.2 1.5-.5l4.4-3.2c.8-.6 1.1-1.5 1-2.3l3.2-4c.1-.1.1-.2.2-.3.9 0 1.6-.4 2.1-1.2l3-4.5c.4-.6.5-1.3.4-1.9 0-.2-.1-.4-.2-.6l1.5-4.8c.1-.3.1-.6 0-.9.3-.2.6-.4.8-.7.4-.5.6-1.2.4-1.9l-.9-5.4c-.1-.8-.7-1.5-1.4-1.9 0-.1 0-.3-.1-.4l-1.6-4.8c.4-.7.4-1.7-.1-2.5zm-6.1-2.8h.4c.4-.1.7-.3.9-.7.2-.3.2-.5.2-.8.2.1.5.3.6.5l3 4.5c.1.2.2.5.2.7-.4-.2-.8-.2-1.2-.1s-.7.4-.9.8c-.1.2-.1.4-.2.6-.1-.1-.3-.2-.4-.4L52 23c-.1-.2-.2-.4-.2-.6h.6zm-11.2-7.8c0-.3 0-.5-.2-.8.2-.2.5-.3.8-.3.2 0 .4 0 .6.1l4.9 2.4c.2.1.4.3.5.4h-.5c-.4.1-.7.3-1 .7-.2.3-.3.8-.2 1.2 0 .1.1.2.1.3-.1 0-.2-.1-.2-.1l-4.9-2.4c-.2-.1-.4-.3-.6-.5.5-.2.7-.6.7-1zm-14.9-.5l5.3-1.2h.3c.3 0 .6.1.8.3-.2.3-.3.6-.3.9 0 .4.1.9.4 1.2l.1.1c-.2.2-.4.3-.7.4L26.9 17h-.3c.1-.1.1-.2.1-.2.2-.4.2-.8 0-1.2-.2-.5-.7-.9-1.2-1 .3-.3.5-.5.8-.5zm-12.7 8.1l3.6-4.1c.3-.3.7-.5 1.1-.5.2 0 .3 0 .4.1 0 .2 0 .4.1.7.1.4.4.7.8.9h.1c0 .3-.1.5-.3.7l-3.6 4.1c-.1.1-.3.2-.4.3 0-.2 0-.4-.1-.6-.1-.4-.4-.7-.8-.9-.4-.2-.8-.2-1.2-.1.1-.1.2-.4.3-.6zm-5.7 14L9.4 31c.1-.4.4-.7.8-.9.1.2.3.4.6.5.2.1.4.1.7.1.2 0 .4 0 .5-.1v.1c.2.3.2.7.1 1.1L10.5 37c-.1.4-.4.7-.7.9-.3-.2-.7-.3-1.1-.3-.2 0-.3.1-.4.1-.4-.3-.6-.9-.4-1.5zm5.5 15.3s0 .1 0 0c0 .1 0 .1 0 0-.4 0-.8 0-1.2.2-.2.1-.4.3-.5.6-.4-.1-.7-.4-.9-.8l-2.1-5c-.1-.2-.1-.5-.1-.7.3.2.6.3.9.3h.2c.4 0 .8-.3 1-.6.1-.2.2-.3.3-.5.1.1.2.3.3.4l2.1 5c.1.4.1.8 0 1.1zm8.7 10.7c-.4.2-.6.5-.7.9-.1.2-.1.5 0 .7-.2.1-.4.1-.6.1-.4 0-.7-.1-1-.4l-4-3.7c-.2-.2-.3-.4-.4-.6h.4c.3 0 .5-.1.8-.2.3-.2.6-.6.7-1 0-.2.1-.4 0-.6.2.1.3.2.4.3l4 3.7c.2.3.4.5.4.8zM35.5 65c-.2.3-.4.7-.3 1.1 0 .3.1.5.3.7-.2.1-.4.1-.6.1h-.2l-5.4-.6c-.2 0-.3-.1-.5-.1.3-.2.6-.5.7-.9s0-.8-.2-1.2c-.1-.2-.3-.4-.4-.5.2-.1.4-.1.6-.1h.2l5.4.6c.4 0 .7.2.9.5-.2.1-.3.3-.5.4zm14-2.4l-4.4 3.2c-.2.2-.5.3-.8.3s-.5-.1-.7-.2c.1-.2.1-.4.1-.7 0-.4-.2-.8-.6-1H43c.1-.3.3-.5.5-.6l4.4-3.2c.1-.1.3-.2.5-.2-.1.2-.1.4-.1.6 0 .4.2.8.6 1 .3.2.6.3.9.3h.2l-.5.5zm2.6-7.4l-3 3.7h-.4c-.5 0-1 .2-1.5.5l-4.4 3.2c-.5.3-.8.8-.9 1.3l-4.7.6c-.1-.1-.2-.3-.3-.4-.4-.5-1-.9-1.7-1l-5.4-.6h-.3c-.7 0-1.4.3-1.9.8L23.3 62c-.1-.5-.3-1-.8-1.4l-4-3.7c-.5-.4-1.1-.7-1.7-.7h-.1l-2.4-4c.1-.1.1-.2.2-.3.3-.6.3-1.3 0-2l-2.1-5c-.3-.6-.8-1.1-1.4-1.4l-.5-4.5v-.1c.6-.3 1-.9 1.2-1.5l1.6-5.2c.2-.7.1-1.4-.2-2-.1-.1-.1-.2-.2-.3l2-4.2c.7 0 1.3-.4 1.8-.9l3.6-4.1c.4-.4.6-.9.6-1.5l4.5-1.6c.4.2.8.4 1.3.4.2 0 .4 0 .6-.1l5.3-1.2c.7-.1 1.2-.5 1.6-1.1l5.5.3h.1c.2.5.7.9 1.2 1.2l4.9 2.4c.4.2.7.3 1.1.3.3 0 .6-.1.9-.2l3.2 2c-.1.6 0 1.3.4 1.9l3 4.5c.4.6 1 1 1.6 1.1l1.4 4.4c-.1.1-.2.2-.2.3-.4.6-.6 1.2-.4 1.9l.9 5.4c.1.7.5 1.2.9 1.6 0 0 0 .1-.1.2L57 47.3c-.7.1-1.2.5-1.6 1.1l-3 4.5c-.4.7-.5 1.5-.3 2.3zm6.6-4.6l-3 4.5c-.2.4-.6.6-1.1.6-.1-.3-.3-.5-.5-.7-.3-.2-.6-.3-1-.3-.1-.4 0-.8.2-1.1l3-4.6c.1-.1.2-.3.4-.4 0 .2.1.4.2.6.2.4.5.6.9.8.2 0 .3.1.5.1s.5-.1.7-.2c-.1.3-.1.5-.3.7zm.1-16c.2 0 .3 0 .5-.1.3-.1.5-.2.6-.4.3.2.6.6.7 1l.9 5.4c.1.4 0 .7-.2 1.1-.1.2-.3.4-.6.5-.1-.1-.2-.1-.3-.1-.4-.1-.7-.1-1 0-.3-.2-.6-.6-.6-1l-.9-5.4c-.1-.4.1-.8.3-1.1.1.1.3.1.6.1zM40.3 24.5c-.4-.5-.7-1.1-1.1-1.6-.2-1.2-.1-2.7-1.3-3.4-1.5-1.2-3.4-1-5.2-1-1 1-2.3 1.8-3 3-1.4 2.7-.2 6.6 2.7 7.6 1.9 1.1 4-.1 5.9-.7.8-1.3 1.4-2.6 2-3.9zm-2.5.9c-1.1 1.4-3.1 1.2-4.7 1.4-1.1-1.5-2.4-3.6-.7-5.2 1.4-1.9 3.8-.8 5.5 0 .3 1.3.9 2.8-.1 3.8zm-4.1 5.3c-1-.2-2.1-.5-3.1-.7 1.2 2.2.9 4.8.9 7.2-1.4 0-2.8.1-4.2.1-.8-1.5-1.5-3.3-3.2-3.8-3.2-1.8-7.8.7-7.8 4.4-.2 3.5 3.9 5.9 7 4.8 2.1-.4 3.2-2.3 4-4.1 1.4.1 2.9 0 4.3 0 0 2.2-.4 4.6.8 6.6 2.3-4.5.9-9.7 1.3-14.5zM23.4 41.1c-1.1.3-2.4.4-3.5 0-2.5-1.4-2.2-5.5.3-6.8 1.6-.6 3.6.1 4.4 1.6.9 1.7.5 4.2-1.2 5.2zm22.1-8c-2.1.4-3.1 2.4-4 4.1h-4.1c-.2-2.5-.5-5.3 1.3-7.5-1.2.4-2.4.8-3.5 1.1.4 4.8-.9 9.9 1.3 14.3 1.4-1.9.9-4.4.9-6.6h4.3c.8 1.6 1.7 3.4 3.6 3.9 3.1 1.4 7.2-.7 7.5-4.1.1-3.6-3.9-6.5-7.3-5.2zm4.8 6.2c-.8 2.8-5.6 2.9-6.3.1-.9-1.9.1-4.5 2.2-5.1 2.9-1.1 5.2 2.5 4.1 5zm-6 5.1c1.6.2 3.3-.2 4.5 1.2-.4-.2-1.3-.5-1.7-.7-.5 0-1.5 0-2-.1-.1.5-.8 1.2 0 1.5 1.2 0 2.4-.1 3.6-.2.9 1.2 2 2.2 3.5 2.3-.4.1-1.2.4-1.7.6.2.3.7 1 1 1.3-.4-.1-1.2-.3-1.6-.3l.2 1.3h1.4c-.6 1.3-1.1 2.6-1.7 3.9.4-.3 1.2-.9 1.6-1.1-1.5 1.6-2.9 3.4-4.8 4.5.9-1.2 1.9-2.2 2.9-3.3-.1-2.1-.3-5.4-2.9-5.9-6.9-.3-13.9-.4-20.8-.2-1.5.1-3.4-.3-4.5.9-1.5 1.5-1.3 3.7-1.7 5.6-.5-1.3-1-2.7-1.5-4 1.9-.5 1.3-3.1-.6-2.8 1.2-.7 2.4-1.5 3.2-2.6 7.4-.2 14.8-.4 22.3-.1.8-.2 1-1.3 1.3-1.8z"/></svg><svg width="102" height="96" viewBox="-2 -2 102 96" x="147"><path fill="#7d6d70" d="M49.3 6.9c-12.9 13-25.8 26-38.7 39.1 12.9 13 25.8 26.1 38.7 39.1C62.2 72.1 75.1 59 87.9 46 75 32.9 62.2 19.9 49.3 6.9z"/><path fill="#fff" d="M36.9 3.2c1.2-1 2.3-2.1 3.4-3.2-.2 2.6-.4 5.3-1.3 7.8-.6 1.7-1.6 3.3-3.1 4.3l-3 2.1c.1-2.2 0-4.6.7-6.7.6-1.8 1.9-3.1 3.3-4.3zM57.7 0c1.2 1.2 2.5 2.4 3.7 3.6 1.2 1.1 2.5 2.4 3 4 .7 2.1.6 4.4.7 6.6-1.1-.8-2.2-1.5-3.3-2.3-2-1.6-2.9-4.1-3.4-6.5-.4-1.8-.5-3.6-.7-5.4zm-8.4 4.4C35.6 18.3 21.9 32.1 8.2 46c13.7 13.8 27.4 27.7 41.1 41.6C63 73.7 76.7 59.8 90.4 46 76.7 32.1 63 18.3 49.3 4.4zM10.6 46C23.5 33 36.4 19.9 49.3 6.9c12.9 13 25.7 26 38.6 39.1-12.8 13-25.7 26.1-38.6 39.1C36.4 72.1 23.5 59 10.6 46zM29 12.2c.7-.8 1.3-1.7 2-2.6.2 2.2.4 4.5-.5 6.6-.6 1.3-1.7 2-2.7 3C18.9 28.1 10 37.1 1.2 46c7.4 7.5 14.9 15 22.3 22.5 1.9 1.9 3.8 3.9 5.8 5.8 1 .9 1.5 2.2 1.6 3.5.2 1.5.1 3.1 0 4.6-.6-.9-1.3-1.7-1.9-2.6-.6-.8-1.2-1.6-1.4-2.6-.2-1.1-.1-2.2.1-3.3C18.4 64.6 9.2 55.3 0 46l27.6-27.9c-.1-1.1-.3-2.2-.1-3.3.3-1 .8-1.9 1.5-2.6zm38.1-2.6c.6.8 1.2 1.7 1.9 2.5.6.8 1.2 1.6 1.5 2.6.3 1.1.1 2.3 0 3.4C79.6 27.4 88.8 36.7 98 46L70.4 73.9c.1 1.1.3 2.2.1 3.3-.2 1-.8 1.8-1.4 2.6-.7.8-1.3 1.7-2 2.6-.2-2.2-.4-4.5.5-6.6.6-1.3 1.7-2 2.7-3L96.8 46C88.9 38 81 30 73 22c-1.4-1.4-2.8-2.9-4.2-4.2-1-.9-1.5-2.1-1.7-3.4-.3-1.6-.1-3.2 0-4.8zm-36.5 18c2.3.1 4.3 1.6 6 3.1 4.3 4.2 8.5 8.4 12.8 12.5 4.3-4.2 8.5-8.4 12.8-12.6 1.6-1.5 3.6-2.9 5.9-3 .1 1.2-.5 2.3-1 3.3-.7 1.2-1.7 2.4-2.7 3.4-4 3.9-8 7.9-12 11.8 2 2 4 3.9 6 5.9.3-.1.7-.1.9-.4.5-.5 1-.9 1.4-1.4.1-.3 0-.7 0-1l.9-.9 2.1 2.1-.9.9c-.4 0-.8-.1-1.1.2-.8.7-1.5 1.5-2.3 2.2.3 1.2 1.3 1.9 1.9 2.9 1.4 1.5 2.9 2.9 4.4 4.3.2-.2.5-.4.7-.7l1.7 1.7c-.5.6-.7 1.3-.5 2.1-.7-.1-1.5 0-2 .5-.6-.6-1.2-1.1-1.8-1.7l.7-.7c-1.4-1.3-2.7-2.7-4.1-4-.4-.4-.9-.6-1.2-.9-.6-.5-1.2-1-2-1.2-.8.7-1.5 1.5-2.3 2.2-.3.3-.2.7-.2 1.1l-.9.9c-.7-.7-1.4-1.4-2.2-2.1l.9-.9c.4 0 .9.2 1.2-.2.6-.7 1.5-1.2 1.8-2.2-2-2-4-3.9-6-5.9-2 2-4 4-6.1 6 .1.3.2.6.4.8.5.5 1 1 1.6 1.4h1l.9.9-2.1 2.1-.9-.9c0-.4.1-.8-.2-1.1-.7-.8-1.5-1.5-2.3-2.2-1.2.3-2 1.3-3 1.9-1.5 1.4-2.9 2.9-4.4 4.3.2.2.5.4.7.7-.6.6-1.2 1.2-1.8 1.7-.6-.5-1.3-.7-2.1-.5.1-.7 0-1.4-.5-2l1.7-1.7c.2.2.5.4.7.7 1.5-1.4 2.9-2.9 4.4-4.3.6-1 1.7-1.7 1.9-2.9-.7-.8-1.5-1.5-2.2-2.2-.3-.3-.8-.2-1.1-.2l-.9-.9 2.1-2.1.9.9c0 .4-.2.9.1 1.2.7.7 1.3 1.5 2.2 1.8 2-2 4-4 6-5.9-4.3-4.2-8.6-8.4-12.9-12.7-1.5-2-3-3.9-3-6.1zm2.3 50.2c1.8 1.3 3.9 2.3 5 4.2 1.8 3 2.1 6.6 2.4 9.9-1.2-1.2-2.5-2.4-3.7-3.6-1.2-1.1-2.5-2.4-3-4-.7-2-.6-4.3-.7-6.5zm28.6 2.6c1.1-.9 2.4-1.7 3.6-2.5-.1 2.5.1 5.1-1 7.4-.6 1.4-1.7 2.4-2.8 3.4-1.2 1.1-2.4 2.2-3.6 3.4.2-2.4.4-4.9 1.1-7.3.6-1.7 1.4-3.3 2.7-4.4z"/></svg><svg width="93" height="96" viewBox="-2 -2 93 96" x="249"><path fill="#7d6d70" d="M65.5 16.7c-7.8-5.6-17.8-7.9-27.3-6.2-14.5 2.4-26.7 14.6-29.2 29-2 10.9 1.3 22.7 8.9 30.8C25 78.1 35.6 82.5 46.2 82c10.2-.4 20-5.5 26.4-13.4 6-7.3 8.9-17.1 7.8-26.5-1.1-10.1-6.7-19.5-14.9-25.4z"/><path fill="#fff" d="M26.4 2.6c1.6-1 3.3-1.7 5-2.6-1.2 3.9-3.7 8-8.2 8.5.8-2.1 1.2-4.6 3.2-5.9zM57.7 0c1.7.9 3.4 1.6 5.1 2.6 1.9 1.3 2.4 3.8 3.1 5.8-4.6-.4-7-4.5-8.2-8.4zM22.8 1.8c-.7 3.8-1.4 7.8-4 10.8-1.5 1.7-3.7 2.4-5.6 3.6C1.1 28.4-2.2 48.2 5 63.7 7 68 9.6 72 12.8 75.4c1.9 1.5 4.5 2 6 4 2.6 3 3.3 7 4 10.8-2.1-1.8-4.5-3.2-6.6-5.1-2.1-1.9-2.5-4.8-2.9-7.4C4.7 69.3-.3 57.3 0 45.3c.1-11.5 5.1-22.8 13.3-30.9.4-2.6.8-5.5 2.9-7.4 2-1.9 4.5-3.4 6.6-5.2zm43.4 0c2.2 1.8 4.6 3.3 6.7 5.2 2 1.9 2.4 4.7 2.8 7.3 8.2 8.1 13.2 19.4 13.3 30.9.3 12.1-4.7 24-13.3 32.5-.4 2.6-.8 5.4-2.8 7.2-2.1 1.9-4.6 3.4-6.7 5.2.7-3.8 1.5-7.9 4.1-10.9 1.8-2.2 5.1-2.5 6.9-4.9 6.5-7.4 10.4-17.1 10.6-27C88.2 36 84 24.7 76.3 16.5c-1.8-1.6-4.4-2.1-6-4-2.7-2.8-3.4-6.9-4.1-10.7zM81.9 39C80 28.5 73.3 19 64.1 13.5 55.8 8.3 45.3 6.7 35.8 9c-8.4 2-16.1 7-21.4 13.8-6.1 7.8-8.9 18-7.6 27.7C8 60.7 13.6 70.3 21.9 76.4c8.2 6.2 18.9 8.8 29 7 10.3-1.7 19.8-7.9 25.5-16.7 5.3-8 7.3-18.2 5.5-27.7zm-9.3 29.6c-6.4 7.9-16.2 13-26.4 13.4-10.6.5-21.2-3.9-28.3-11.7C10.3 62.2 7 50.4 9 39.5c2.5-14.5 14.6-26.6 29.1-29 9.4-1.7 19.5.6 27.3 6.2 8.3 5.9 13.8 15.3 14.9 25.4 1.1 9.4-1.7 19.1-7.7 26.5zM27.3 29.1h16.9c-2.8 4.2-5.6 8.4-8.4 12.7-2.9-4.2-5.7-8.5-8.5-12.7zm17.5 0h16.9c-2.8 4.2-5.6 8.5-8.4 12.7-2.9-4.2-5.7-8.5-8.5-12.7zm-7 16.9c2.2-3.4 4.5-6.7 6.7-10.1 2.3 3.4 4.5 6.7 6.7 10.1-2.2 3.4-4.5 6.7-6.7 10.1-2.3-3.4-4.5-6.7-6.7-10.1zM27.3 62.9c2.8-4.2 5.6-8.5 8.4-12.7 2.8 4.2 5.6 8.4 8.4 12.7H27.3zm25.9-12.7c2.8 4.2 5.6 8.4 8.4 12.7H44.7c2.9-4.2 5.7-8.5 8.5-12.7zm-30 33.3c4.5.5 7 4.5 8.2 8.5-1.7-.9-3.4-1.6-5-2.6-2-1.3-2.4-3.8-3.2-5.9zM57.7 92c1.2-3.9 3.7-8 8.2-8.5-.7 2.1-1.2 4.6-3.2 5.8-1.6 1.1-3.4 1.8-5 2.7z"/></svg><svg width="147" height="142" viewBox="-2 -2 147 142"><ellipse fill="#7d6e70" cx="71.5" cy="69" rx="71.5" ry="69"/><g fill="#fff"><path d="M137.9 73c-.3-3 .1-6.1-.3-9.1-.1-1.1-1.1-1.4-2-1.7-.8-.3-1.5-.7-2.2-1.2.6-.4 1.1-.8 1.7-1.1 0-.2.1-.5.2-.6-2 1-4.1 2-6.4 2.2-2.5.5-3.7-2.4-4.9-4.1-1.7-3.7-.3-7.9-.9-11.9-.4-1.3-1-2.6-1.6-3.9-.9.9-2 1.7-2.6 2.9-2.2 4.2-4.7 8.3-7.7 12-3.3 1-6 3.1-9.3 4.3-1.9 1.4-4 2.5-6.2 3.5v1.2c-.8.7-1.5 1.6-2 2.5-.2-.4-.5-.7-.7-1-.8 1.2-1.8 2.2-2.9 3.1 0 .3.1 1 .1 1.3 0-.3-.1-1-.2-1.3-1.6.8-3.3 1.3-5 1.8-2.8 1-5.4 2.5-8.1 3.8 0 .4.1 1.3.1 1.7.3-.1 1-.2 1.3-.3-.1.5-.3.9-.4 1.4 1.6 1.8 3.2 3.5 5 5l.9-.9c.7.4 1.5.8 2.2 1.2 0-.8-.1-1.5-.1-2.3 1.1-.5 2.3-.6 3.2.4.3-1.9 2.6-1.5 3.3-.2.2-.7.1-1.8 1.1-1.7.9-.4 1.5.6 2.1 1.1v-2c1.2-.4 2.1.4 2.9 1.2.3-.8.8-1.4 1.3-1.9.3.2 1 .6 1.3.8.1.2.3.5.5.6-.2-.2-.6-.5-.8-.7-.3.2-.6.3-.9.5.8 1 1.4 2.3 1.2 3.6-.4 1-1.2 1.9-2.1 2.4-.6-.4-1.1-.9-1.7-1.3-.1.8.3 2-.7 2.3-1.1.3-1.7-.9-2.5-1.5 0 .7 0 1.4-.1 2.1-1.2.6-1.9-.6-2.7-1.3-.1-.1-.4-.2-.5-.3 0 .7 1 2.1-.3 2-1-.6-1.9-1.4-2.8-2.1.1.6.2 1.7.2 2.3-.4-.1-1.3-.3-1.8-.5.1 1.5-.1 3.2.9 4.5.7.9 1.5 2.3 2.8 1.9 2.8-.7 5.6-1.7 8.5-2.1 1.8-.3 3.4.5 5.1 1.1 2.2.8 4.8.5 6.9 1.6-.6-2.7-3.9-2.8-5.1-5.1 1.2.9 2.5 1.5 3.8 2.2 1.6.8 1.6 2.9 2.8 4 1.8 1.7 2.7 4.1 3.4 6.4.1-.1.3-.2.4-.2-.1-1-.2-1.9-.3-2.9 1.1.9 2.1 2 2.8 3.2.5.7 1.1 1.4 1.7 2.1.6-1.2 1.4-2.4 1.7-3.7.2-1.7-.6-3.4-1.2-5 .6 1.1 1.1 2.3 1.6 3.4l.7-.3c1.7-.9 3.5-1.1 5.3-1.5-.3-.9-.8-1.9-.6-2.9.4-1.6 1.6-2.8 2.6-4-1.7.3-3.6 1.3-5.2.3-1.5-1-2-3-3.2-4.3-.9-.8-2-1.1-3.1-1.7 1.5.1 3.1.4 4 1.7 1.2 1.4 1.6 3.6 3.5 4.1 1.8.2 4.1-.4 4.9-2.2.9-1.8 2.2-3.3 3.6-4.8-3.9-1.5-8.2-1.8-12.1-3.3 2.9.2 5.7 1 8.6 1.4 1.7.2 3.4.9 4.9 1.8-.3-1.9-1.3-3.9-3.2-4.6-4.8-2.8-10.7-1.5-15.7-3.6 5.2 1.4 10.9.2 15.8 2.6 1.2.5 2.1 1.3 3 2.2.2-2.1.5-4.2 1.5-6.1-2.6-1.4-5.2-2.8-7.5-4.7v-.4c3.1 1.4 5.2 3.8 8.2 4.6zm-55.7 8.2c.5-.3 1.6-.4 1.7.3-.2.9-2.1.6-1.7-.3zm.5-7.5c.3-.5.8-.6 1.4-.2 1.1 1.2-1.3 1.3-1.4.2zm2-.7c.1-.7 1.4-.6 1.8-.3-.1.7-1.3.6-1.8.3zM88 89.8c.4-.8 1-1.5 1.9-1.7-.5.7-1.2 1.2-1.9 1.7zm2.7-.4c-.2-.6.7-1 1.1-1.3 1.6-.5-.2 2.1-1.1 1.3zm28.2-39.6c-.9 1.2-1.8 2.5-2.9 3.5.4-1.5 1.4-2.8 2.9-3.5zm-15.4 12l-.9-.3c2.7.1 5.5.5 8.1-.4.8-.3 1.5-.5 2.3-.7-1.6.8-3.2 1.8-5.1 1.9-1.3-.1-2.5-.2-3.7-.4-.4.3-.7.5-1.1.8 1.7.3 3.4.8 5 1.3-2.7.6-5-1.2-7.6-1.3 1-.1 2.1-.3 3-.9zM91.9 71c.9-.7 2.2-.7 3.2-.1-1.1.1-2.2.1-3.2.1zm3-3.4c.8-.9 1.7-1.8 3-1.7-.9.7-1.9 1.3-3 1.7zm2.3 5c.8.1 1.8.2 2.3 1-.7.6-2.5 0-2.3-1zm-.5-1.7c.6-1.1 1.3-2.3 2.5-2.9 1.1-.2 2.2.3 3.2.6-1.7 1.2-3.8 1.6-5.7 2.3zm5.8-3.5c1.2.2 2.2.8 3.2 1.6 0 .2.1.5.1.6-1.1-.7-2.3-1.4-3.3-2.2zm2.9 19.3c1.4 1.3 3 2.2 4.5 3.2-1.7-.8-3.6-1.5-4.5-3.2zm3.1-19.7c2.7.1 5.3-.6 7.9-1-2.4 1.4-5.3 1.2-7.9 1zm3.3 1c1.6-.3 3.1-.5 4.7-.6-1.3.9-3.1.7-4.7.6zm8.5 14.8c1.6-.3 3.7-.5 4.7 1.1-1.5-.8-3.1-1-4.7-1.1zm2.6-1.3c1.7-.1 3.6.5 4.6 1.9-.8-.6-1.7-1.1-2.6-1.6-3 .1-5.9.9-8.9.5-.9 0-1.4-.7-2-1.2 2.7 1.7 5.9.5 8.9.4zm-1.6-29.1c-.4 2.2-2.2 4-4.3 4.7 1.3-1.1 2.7-2.2 3.3-3.8.9-2.2 1.1-4.6 1.3-7 .9 2 .1 4.1-.3 6.1zm8.2 13.6c-1.4 0-2.9-.6-4.3 0h-.2l-.2-.1c1.1-.8 2.7-.2 4-.4 2.6-.3 4.5 2 5.9 3.8-1.6-1.3-3-3.1-5.2-3.3zm-70.4 6.2c-2.7-1.3-6-1.5-8.1-3.8-1.6-1.4-2.4-3.7-4.5-4.5.8 1.1 1.7 2.1 2.3 3.3l-2.4-2.7v-1c-2.7-.4-4.5-2.6-6.9-3.5-2.8-1-5.2-3-8.1-3.7-3.1-3.6-5.7-7.8-7.9-12.1-.6-1.2-1.7-2-2.7-2.8-.6 1.5-1.3 2.9-1.5 4.5-.4 3.1.4 6.3-.2 9.4-.5 2.4-2.3 4.2-3.9 5.9-3 .2-5.7-1.1-8.4-2.2.7.7 1.4 1.3 2.1 1.9-1.2.8-2.6 1.3-4 1.9-.9 3.2-.3 6.6-.5 9.9 3-.8 5-3.4 7.8-4.6-2.2 2.1-5 3.5-7.7 4.9 1 1.9 1.4 4 1.5 6.1 1.2-1 2.6-2 4.1-2.5 4.8-2 10.1-.7 15-2.3-4.9 2.3-10.8.8-15.6 3.5-2.1.7-3.1 2.7-3.8 4.7 4.4-2.1 9.3-2 13.9-3.1-4 1.7-8.4 1.9-12.4 3.5 1.4 1.4 2.7 2.8 3.6 4.6.3.8 1 1.3 1.7 1.8 0 .2-.1.7-.1.9 1.8 1.6 3.1 4.2 1.7 6.5 2.1.5 4.4.7 6.2 2 .6-2.2 2-4.1 3.7-5.7-1.5 1.7-3.1 3.6-3.3 5.9-.4 1.8 1 3.3 1.7 4.9 1.6-1.7 2.5-4 4.5-5.4-.1 1.1-.2 2.3-.3 3.4 1.2-2.1 1.7-4.6 3.5-6.4 1.2-1.1 1.5-2.7 2.5-4 1.5-1 3.2-1.6 4.5-2.8-1.2 2.4-4.5 2.6-5.2 5.3 2.2-1 4.7-.8 7-1.6 1.5-.5 3-1.2 4.6-1.1 3.4.3 6.6 1.8 10 2.2 2.2-1.3 3.1-3.9 2.9-6.4-.4.1-1.3.3-1.7.4 0-.8.1-1.5.1-2.3-1.1.9-2.1 1.8-3.5 2.3.1-.6.3-1.7.4-2.3-1 .7-1.9 2.3-3.4 1.6 0-.7-.1-1.4 0-2.2-.9 1-2 2.2-3.3 1.1 0-.5.1-1.4.2-1.9-.6.4-1.2 1.1-2 1.3-.9-.6-1.7-1.4-2-2.5-.1-1.6.7-3.2 2-4.2.2.4.5 1.1.7 1.5.6-.5 1.2-1 1.7-1.6.3.1 1 .4 1.3.6 0 .4-.1 1.3-.1 1.7.8-1 1.9-1.3 3.2-.8v1.5c1-1.3 3.3-1.8 3.6.3l1-1c.7.2 1.4.3 2.1.5v2.4c.7-.4 1.4-.8 2-1.1.2.2.7.7 1 .9 1.6-1.2 2.9-2.7 4.3-4.1.7-.6.6-1.5.5-2.3.3.1 1 .3 1.3.4 0-.6 0-1.2-.2-1.8-2.1-1.2-4.3-2.2-6.5-3.2zm-4.7 17.1c-.5.3-1.1-.4-1.5-.7-1-1.6 2.1-.5 1.5.7zm-2.2.1c-.9-.5-1.8-1.1-2.6-1.8 1.1.3 2 .9 2.6 1.8zM43.9 68c.9.7 1.4 1.6 2 2.5-1.9-.6-4.1-.9-5.7-2.3 1.2-.1 2.6-1.1 3.7-.2zm-1.7-5.5c-2.7.1-5.2 2.1-8 1.3 2.7-.5 5.2-1.8 8-1.3zm-8.6-1.2c1.8.2 3.7.1 5.6.2-1.8.5-3.7.7-5.5.4-1.6-.4-3-1.2-4.5-2 1.5.5 2.9 1.1 4.4 1.4zm-7.1-8.4c-1.4-.8-2.2-2.3-3.2-3.5 1.5.7 2.6 2 3.2 3.5zM12.7 66.4h3c0-.3.1-.8.2-1-1.4.1-2.9.1-4.2.5-1.6.5-2.7 1.7-4 2.7 1.4-1.9 3.5-3.8 6.1-3.6 1.4.1 2.9-.4 4.3-.1-.5 0-1.6.1-2.1.1l.9.9c1.1-.4 2.2-.8 3.4-1.1-2.2 1.7-5 2.3-7.6 1.6zm8.4-13.9c-.5-2.1-1.1-4.4-.4-6.5.2 2.5.4 5.1 1.4 7.4.6 1.5 2 2.4 3 3.5-1.9-.9-3.5-2.4-4-4.4zm-1.3 34.1c-.9 1.4-1.6 3.4-3.5 3.8-1.3 0-2.6 0-3.7-.7 1.5 0 3.1.7 4.4-.2 1.3-1.1 1.7-3 2.9-4.1.9-1 2.3-1.1 3.5-1.4l.1.2c-1.4.5-3 1-3.7 2.4zm2-4.7c-.3.2-.6.5-1 .7l1.3-.1.7.3c-1.9.2-4-.3-5.7 1 .7-1.3 2.2-1.7 3.6-1.5 0-.2-.1-.7-.2-.9-1.1.4-2.3.2-3.5.4-.8.3-1.6.8-2.4 1.2 2.4-2.7 6.3-1.8 9.5-1.2 1.6.3 3-.3 4.4-1-1.7 1.9-4.5 1.8-6.7 1.1zm3.8-15.1c1.2.2 2.5.4 3.7.5v-.5c-1.2 0-2.7-.1-3.3-1.3 1.9.3 3.7.8 5.6.9.7.1 1.6-.1 2 .6l-3 .3c.1.2.2.7.3.9-1.7.1-4 .2-5.3-1.4zm7 22.6c1.7-.8 3.3-1.8 4.6-3.3-.9 1.9-2.7 2.8-4.6 3.3zm4-20.2c.7-1.2 2-1.8 3.4-2.2-1 1-2.1 1.7-3.4 2.2zm4.4 9.3c.4-.3.9-.9 1.5-.6.5 1.1-2.6 2.4-1.5.6zm2-5.2c0-.1.2-.4.2-.5.3-.1 1-.2 1.3-.3.1.1.4.3.5.4-.3.6-1.3.8-2 .4zm1.7-7.8c1.1.3 2.2.9 2.9 1.8-1.1-.4-2.1-1-2.9-1.8zm2.9 5.2c1-.3 2.3-.8 3.1.2-1.1-.1-2.1-.1-3.1-.2zm7.8 1.6c1-.1 2-.1 3-.1-.6 1.3-2.2 1.1-3 .1zm3.3.9c.4-.4 1.8-.1 1.1.6-.5.9-2.5.2-1.1-.6zm-.1 7.9c.7-.1 1.3-.1 2-.1-.5.7-1.4.3-2 .1zm-4.7-25.3c1.6 2.4 6.1.3 5.5-2.5-.6-1.4-2.6-1.5-3.8-.8-1.2.6-2.2 1.9-1.7 3.3zM46 44c-4.2-.3-8.9-.2-12.4 2.3 4.1 1.5 9.6 1.6 12.4-2.3zm-5.2 9.9c5.2.8 10.5-1.4 13.9-5.3-2.9-.4-6.1-.9-8.9.3-1.9 1.5-3.5 3.3-5 5zm68.5-7.5c-.6-.8-1.5-1-2.4-1.4-3.2-1.1-6.7-1.3-10-.8 3 3.5 8.2 3.6 12.4 2.2zm-24.9 9.5c1.2 1.2 3.5 1.5 4.6 0 .8-2.5-2.8-4.7-4.8-3.3-1.2.8-.8 2.5.2 3.3zm17.9-2c-2.7-4.7-8.7-6.7-13.9-5.8 3 4.4 8.5 6.8 13.9 5.8z"/><path d="M142.8 64.7c-1.1-14.3-7.2-28.1-16.6-38.9-10.8-12.5-25.7-21.3-41.8-24.6-9.1-1.8-18.6-1.6-27.7.5C38.6 5.8 22.2 17 12 32.3 4.4 43.1 0 56.1 0 69.2-.1 77.7 1.8 86 4.8 93.8c3.7 9.3 9.5 17.6 16.7 24.6 6.6 6 13.9 11.4 22.2 14.8 3.5 1.4 7.1 2.4 10.8 3.2 2.9.6 5.8.9 8.7 1.3 1.9.2 3.9.2 5.9.2 4.4 0 9.6 0 13.9-.6 10.2-1.1 20-5 28.4-10.7 10.9-7.3 19.6-17.6 25.2-29.4 4.7-10.1 7.2-21.3 6.2-32.5zm-15.2-33.8c-4.3.2-8.5.7-12.7 1.2 2-2.9 4-5.8 6.2-8.6 2.1 2.5 4.4 4.9 6.5 7.4zM95.7 9.5c1.4-1.2 3.5-1.1 5.1-.3 1.8.9 3.5 2.1 5.4 2.9v.3c-5.8 2.5-11.7 4.9-17.7 6.7 2.3-3.3 4.1-7 7.2-9.6zm-1 10.6c-3.3 6.7-9.8 11.1-16.7 13.7 4-6.2 9.8-11.3 16.7-13.7zM45 7.4c3.6 3.5 6.9 7.4 9.4 11.7-5.9-2-11.8-4.2-17.7-6.3 2.6-1.9 5.5-3.7 8.3-5.4zm20 26.4c-6.9-2.5-13.5-7-16.8-13.9 6.9 2.7 12.7 7.8 16.8 13.9zm-43.1-10c2.3 2.5 4.3 5.3 6.3 8-2.4-.2-4.7 0-7.1-.4l.3-.1c-1.5.1-3 0-4.5-.3-.4 0-1.1.1-1.5.1 2-2.5 4.1-5 6.5-7.3zm46.5 90c-.4 5.4-.3 11.1-3.2 15.9-.6 1.1-1.5 2-2.7 2.4-4.7 1.8-10.3.6-14.1-2.7-1.1-.9-2.1-2.2-2.1-3.8-.1-2.8 1.8-5.1 2.6-7.7-2.5 1.4-4.2 3.8-6.4 5.5 2.1-4.4 3.4-9.5 7.1-13.1 3.1-2.2 7.1-1 10.5 0 .7.1 1.5.2 2.2.3-2-1.9-4.5-3.2-6.6-5-2 .9-3.9 1.9-5.9 2.9-1.2-1.1-2.2-2.5-3.6-3.2-.1 1.6.2 3.2-.2 4.7-1.1 3-2.5 5.9-3.7 8.9-5.2-2.9-10.7-6.7-12.4-12.8-1.6 3.1.1 6.7 1.5 9.5-2.2-1.4-4.6-2.5-6.7-4.1-2.4-2.5-1.9-6.4-3.8-9.2-1 2.4-.9 5.2.4 7.4 1.8 2.9 4.6 5.2 7.2 7.4 2.1.6 4.3.9 6.2 2.2 4.6 3.1 7.2 8.1 10.6 12.2-9.3-4.4-17.8-10.4-24.8-17.9-6.3-6.8-11.1-15-14-23.7-.1-.5-.4-.9-.3-1.4C3 79.1 2.6 69 4.1 59.3c1-6.9 3.3-13.6 6.6-19.8 1.1-1.9 2.6-4 4.9-4.4 5.4-1.3 11.2-1 16.5.6 4 1.1 7.5 3.3 11.4 4.6 5.4 2 11.2 3.3 16.1 6.5 6.2 4.6 8.8 12.5 9.2 20 .2 6.1 0 12.2 0 18.3-.3 9.5-.3 19.1-.4 28.7zm-9.1-71.2c-3.6-1.8-7.5-3.2-10.4-6-.1-.2-.2-.6-.2-.8-2.5-2.3-4.4-5.7-7.7-7 1.6 3.2 3.6 6.2 5.5 9.2-5.6-2.2-11.5-4.2-16.3-8-2.5-2-4.4-4.8-5.4-7.8 1.5-4.3 6.5-7.9 11.2-6.2 4 1.4 8.7 2 11.7 5.2 1.5 1.9 2.4 4.2 3.6 6.3-1.7.1-3.4.2-5.2.4l.5.5c6 1.8 11.6 4.5 17 7.6 1.8 1 3 2.6 3.7 4.5 1.2 3.4 1.2 7.1 1.9 10.6-3.1-3.2-6-6.6-9.9-8.5zm-.7-23.8c5.7 3.2 9.6 9 11.4 15.2-4.3-4.8-8.2-9.8-11.4-15.2zm17.7-8.6c.7-1.6 1.5-3.1 1.9-4.7-3.1 2.1-4.7 5.8-6.9 8.6-2-3-3.7-6.3-6.3-8.8.8 4 3 7.6 3.9 11.5 1.2 3.5 1.5 7.2 1.3 10.9-.7-.6-1.1-1.5-1.5-2.3-2-3.4-4.2-6.8-6.2-10.2-.3-.5-.7-.9-1.2-1.3.2 1.9.9 3.8 1.2 5.7-5.7-2.5-10.1-7.4-12.8-12.9 5.1-1.7 10.5-3.1 16-3.3 3.8-.5 7.7-.4 11.5 0C82.7 3.6 88 4.8 93 6.7c-2.6 5.5-7 10.5-12.8 12.9.5-1.9 1.1-3.7 1.2-5.7-.5.4-1 .9-1.3 1.5-2.5 4.2-5.1 8.4-7.5 12.7-.6-6.2 1.3-12.3 3.7-17.9zm8.1 8.6c-3.4 5.4-7.2 10.7-11.7 15.3 2.1-6.2 5.8-12.2 11.7-15.3zm-8.6 21.4c.4-1.1 1-2.2 2-3 5.1-4 11.2-6.3 17.3-8.3.7-.3 1.8-.1 1.9-1.1-1.8-.3-3.7-.4-5.5-.7 1.9-2.9 3.3-6.6 6.8-8.1 3.7-1.5 7.5-3.3 11.6-3.5 2.2-.1 4.1 1.3 5.7 2.5.5.5.9.9 1.3 1.5 1.2 1.3 1.3 3.4.4 4.9-1.2 2.2-2.8 4.2-4.8 5.7-4.6 3.8-10.5 5.5-15.9 7.7 1.9-3.2 4.4-6.1 5.6-9.6-4.9 2.4-6.8 8.2-11.4 11.1-1 .6-2.1 1-3.3 1-3 .4-5.2-2.3-8-2.8.7 1.5 2.1 2.4 3.2 3.5-1.3 4.5-5.9 6.6-9 9.7.8-3.4.7-7.1 2.1-10.5zm64 34.7c-.4 7.6-2.7 15.2-5.9 22.1-7 15.6-20.8 27.2-35.9 34.6 3.6-4.4 6.3-9.9 11.5-12.8 2-1.3 4.7-.9 6.4-2.7 2.5-2.2 5.3-4.5 6.6-7.6.8-2 .8-4.5-.4-6.4-.5 1.3-.9 2.6-1.2 3.9-.6 1.8-.9 3.7-2.1 5.2-2.1 1.9-4.8 3.1-7.3 4.6.9-1.8 2.1-3.5 2.2-5.5.1-1.7 0-3.9-1.6-5-.1 1.7.1 3.5-.1 5.2-.3.4-.8.7-1.2 1.1-3.4 2.4-6.5 5.3-10 7.5-1.2-3.2-2.7-6.2-3.9-9.3-.2-1.4.1-2.9 0-4.4-1.3.6-2.3 1.8-3.5 2.6-3-.4-6.5-2.5-9.2-.4-1.3 1-3.1 1.8-3.8 3.4 3.4-1 6.8-2.6 10.4-1.9 2.3.4 3.8 2.3 5 4.1 2 3.2 3.2 6.8 4.7 10.3-2.2-1.7-3.7-4.1-6.1-5.4.5 2.7 2.6 5.1 2.4 8-1.3 4.1-5.9 6.1-9.9 6.6-1.8.3-3.6.3-5.3-.1-2.8-.8-4.5-3.4-5.3-6-1.9-6-1.5-12.3-1.8-18.4-.2-4.4-.2-8.8 0-13.1.3-8.3-.3-16.6-.1-24.9.1-4.5.5-9.1 2.1-13.4 1.7-4.4 4.7-8.6 8.8-11 5.8-3.4 12.7-4.2 18.7-7.2 4.2-2.1 8.7-3.7 13.4-4.2 2.9-.5 5.9-.3 8.7.3 2.9.1 5.3 2.3 6.6 4.8 2.5 4.8 4.6 9.9 5.5 15.3.6 1.6.8 3.4 1 5.1l.2.1c.1 1.3.4 2.6.4 4 .3 3.6.4 7.3 0 10.9z"/><path d="M38.3 23.7c-2.1 1.1-4.2 2.7-4.9 5 5.2.5 11.1-1.7 13.7-6.3-3.1-.1-6.1 0-8.8 1.3zm10.3 11.9c3.3 2.2 7.8 1.3 10.9-.8-3.3-1.8-7.8-1.4-10.9.8zm12.9 1.7c-1.4-.2-2 1.4-2.8 2.2.4.9 1 1.7 1.8 2.3 1.2-.4 2.4-1.2 2.8-2.5.5-1.1-.7-2.2-1.8-2zM37.6 19.1c-3.9-1.2-8.2-.5-11.6 1.7.1.1.4.3.5.4 4 1.2 8.4.5 12-1.5-.2-.1-.7-.4-.9-.6zM89.9 8c-4.1-1.8-8.7.1-11.7 3.1 4 1.4 8.7-.2 11.7-3.1zm27 13v-.6c-3.5-1.8-7.6-2.4-11.4-1.4-.2.2-.7.5-1 .7 3.8 2.1 8.3 2.7 12.4 1.3zM100 26.5c2.9 1.9 6.5 2.6 9.9 2.2-2.5-5-8.6-6.9-13.9-6.3.8 1.9 2.4 3.1 4 4.1zm-5.7 9.4c-2.9-2.7-7.4-2.7-10.8-1.2 0 .1.1.4.1.6 3.4 1.5 7.3 2.1 10.7.6zm-41-28.1c0 .1-.1.2-.1.3 2.9 2.8 7.4 4.2 11.3 3.1-2.5-3.4-7.3-4.5-11.2-3.4zm41.5 57c-.5.2-1.3 1.7-.3 1.4l.7-.7c.3-.6.2-.8-.4-.7z"/></g></svg><svg width="82" height="96" viewBox="-2 -2 82 96" x="249" y="96"><path fill="#fff" d="M19.4 12.5c.5-2.8.7-6.1 3-8.2 1.9-1.6 4-2.9 6-4.4-.8 3.2-1.5 6.5-3.6 9.1-1.3 1.8-3.5 2.6-5.4 3.5zm0 66.9c.5 2.7.7 5.9 2.8 8 1.9 1.8 4.2 3 6.3 4.6-.7-3.1-1.4-6.3-3.4-8.9-1.5-1.9-3.8-2.7-5.7-3.7zm39.1-66.8c-.6-2.8-.7-6.1-3-8.2-1.9-1.7-4-3-6-4.5.7 3.1 1.4 6.5 3.6 9.1 1.3 1.8 3.6 2.6 5.4 3.6zM15.1 77.3C10.3 74.6 5.5 71.8.7 69V22.9c4.9-2.9 9.8-5.7 14.8-8.5 2-1.2 2.2-3.8 2.8-5.8-2.2 1.3-4.3 3.1-4.5 5.9-4.6 2.7-9.2 5.3-13.8 8v46.8c4.6 2.7 9.2 5.3 13.8 8 .1 2.7 2.3 4.5 4.5 5.9-.6-2-.9-4.8-3.2-5.9zm62.8-54.7c-4.5-2.7-9.2-5.3-13.8-8-.2-2.7-2.3-4.5-4.5-5.9.6 2 .8 4.7 2.9 5.8 4.9 2.8 9.8 5.6 14.7 8.5v46c-4.8 2.8-9.6 5.6-14.5 8.3-2.2 1.1-2.5 3.8-3.1 5.9 2.2-1.4 4.3-3.1 4.5-5.9 4.6-2.7 9.2-5.3 13.8-8V22.6zm-25 60.5c-2 2.6-2.6 5.8-3.4 8.9 2.1-1.6 4.3-2.8 6.3-4.6 2.1-2.1 2.2-5.3 2.8-8-2.1 1-4.3 1.8-5.7 3.7zM73.2 66c-11.4 6.7-22.9 13.3-34.3 20C27.5 79.2 16 72.6 4.6 66V26C16 19.3 27.5 12.7 38.9 6c11.4 6.7 22.9 13.3 34.3 20v40zM55.7 25.8H22.3v33.1c-.1 2.1 1.6 3.5 3 4.7 4.2 3.2 8.9 5.3 13.7 7.4 4.7-2.2 9.5-4.3 13.6-7.4 1.4-1.2 3.2-2.7 3.1-4.7V25.8zm-1.8 14.3V27.4H24v12.7c5-2.4 10-4.9 14.9-7.3l15 7.3zM26 62c3.8 3.3 8.5 5.3 13 7.3 4.5-2.1 9.2-4 13-7.3 1.3-1 1.8-2.4 2.1-3.9-5-2.5-10.1-5.1-15.2-7.6-5 2.5-10.1 5.1-15.1 7.6.4 1.6.9 3 2.2 3.9zm24-16l-1.1-2.3-1.2 2.3-2.6.3 1.9 1.8-.4 2.4 2.3-1.2 2.2 1.2-.4-2.4 1.9-1.8L50 46zm-20.2 0l-1.1-2.3-1.1 2.3-2.6.3 1.9 1.8-.4 2.4 2.3-1.2 2.2 1.2-.4-2.4 1.9-1.8-2.7-.3zm10.3-5.6l-1.2-2.2-1.1 2.2-2.5.4 1.9 1.7-.5 2.5 2.2-1.2 2.3 1.2-.4-2.5 1.9-1.7-2.6-.4z"/><path fill="#7d6d70" d="M38.9 7.9C28 14.2 17.1 20.6 6.1 26.9c0 12.8-.1 25.4.1 38.2 11 6.3 21.8 12.7 32.7 19 11-6.4 21.8-12.7 32.8-19.1V26.9c-10.9-6.3-21.8-12.7-32.8-19zm13.8 57c-4.3 3-9 5.2-13.8 7.3-4.9-2.2-9.8-4.4-14.2-7.6-1.8-1.4-3.9-3.3-3.7-5.8V24.6h35.8v34.2c.2 2.8-2.1 4.6-4.1 6.1z"/></svg><svg width="73" height="84" viewBox="-2 -2 73 84" x="159" y="238"><path fill="#7d6d70" d="M55.1 59.4l-.7-.6.8-1c.7-.1 1.3-.4 1.8-.9.3.3.6.7.8 1 .5.6.9 1 1.1 1.3 1.1 1.2 2.1 2.4 3 3.4l5.8-3.4V20.7L58 15c-1 1.1-2.4 2.6-3.4 3.8-.3-.1-.7-.2-1-.2l-2.2-1.4.1-.1c.8-.8 2.6-2.3 4-3.7l-21-12-20.9 12.1c.9.8 1.9 1.7 2.8 2.5l.1.1h-.1c-.3.2-.6.4-.8.7l-1.4 1.6-.7-.7c-.9-.9-1.7-1.8-2.5-2.6l-9.9 5.7v38.6L7 62.7c.9-1.1 1.9-2.2 3-3.4.3-.3 1-1.1 1.7-1.9l.5-.6 1 1.7c0 .4 0 .8.1 1.3-.8.7-1.3 1.2-1.5 1.3-1.1.9-2.1 1.8-3 2.6l25.6 14.9L60 63.7c-.9-.8-2-1.7-3-2.6-.2-.2-1-.9-1.9-1.7zm-4.9 4.1l-4.4 3.2c-.4.3-.9.5-1.5.5-.5 0-1.1-.2-1.5-.5-.2.1-.3.1-.5.2l-5.4.7h-.3c-.4.4-1 .6-1.7.6h-.3l-5.4-.6c-.8-.1-1.5-.6-1.9-1.2L22.5 65c-.2 0-.3-.1-.5-.2-.4.2-.8.3-1.2.3-.6 0-1.3-.2-1.7-.7l-4-3.7c-.7-.6-.9-1.6-.7-2.5l-2.6-4.3c-.1-.1-.1-.3-.2-.4-.8-.2-1.5-.7-1.8-1.5l-2.1-5c-.4-1-.2-1.9.3-2.6l-.6-5.1c0-.3 0-.5.1-.7-.7-.6-1-1.7-.7-2.6l1.6-5.2c.2-.8.9-1.4 1.6-1.7 0-.1.1-.3.1-.4l2.2-4.6c-.3-.8-.1-1.8.5-2.5l3.6-4.1c.5-.5 1.2-.9 1.9-.9.3 0 .7.1 1 .2.1-.1.3-.2.5-.3l4.4-1.6c.2-.9.9-1.6 1.9-1.8l5.3-1.2c.2 0 .4-.1.5-.1.7 0 1.4.3 1.8.8h.3l5.7.4c.2 0 .4.1.5.1.5-.4 1-.6 1.7-.6.4 0 .8.1 1.1.3l4.9 2.4c.8.4 1.4 1.3 1.4 2.1l3.9 2.4h.1c.8 0 1.6.4 2.1 1.1l3 4.5c.6.7.6 1.7.3 2.5l1.6 4.8c0 .1.1.3.1.4.7.4 1.3 1 1.4 1.9l.9 5.4c.1.7-.1 1.4-.4 1.9-.2.3-.5.5-.8.7.1.3.1.6 0 .9L60 48.6c.1.2.2.4.2.6.1.7 0 1.4-.4 1.9l-3 4.5c-.5.7-1.3 1.1-2.1 1.2 0 .1-.1.2-.2.3l-3.2 4c0 .9-.3 1.9-1.1 2.4z"/><path fill="#fff" d="M69 60V20l-10.2-5.9c.1-.1.1-.2.2-.2 6-6.7 9.8-11.6 9.8-11.7l-.1-.1s-4.9 3.8-11.6 9.8c-.2.2-.5.4-.8.7L34.5 0 12.7 12.6c-.1-.1-.3-.2-.4-.4l-.4-.3C5.2 5.9.3 2.1.3 2.1l-.1.1S4 7.1 10 13.9c.1.1.1.2.2.2L.3 19.9 0 20v40l6.2 3.6c-3.7 4.4-6 7.3-6 7.3l.1.1s3.1-2.4 7.7-6.4L34.5 80l26.6-15.4c4.6 4 7.6 6.3 7.7 6.4l.1-.1s-2.3-2.9-6-7.3l5.9-3.4.2-.2zm-1.2-.7L62 62.7c-.9-1.1-1.9-2.2-3-3.4-.2-.2-.6-.7-1.1-1.3-.3-.3-.6-.7-.8-1-.5.5-1.1.8-1.8.9l-.8 1 .7.6c.9.8 1.8 1.5 2 1.7 1.1.9 2.1 1.8 3 2.6L34.5 78.6 8.9 63.8c.9-.8 2-1.7 3-2.6.2-.1.7-.6 1.5-1.3-.1-.5-.2-.9-.1-1.3l-1-1.7-.5.6c-.8.8-1.5 1.6-1.7 1.9-1.1 1.2-2.1 2.4-3 3.4l-5.8-3.4V20.7L11 15c.7.8 1.6 1.7 2.5 2.6l.7.7 1.4-1.6c.2-.2.4-.4.8-.7h.1-.1c-.9-.8-1.9-1.7-2.8-2.5L34.5 1.4l20.9 12.1c-1.5 1.3-3.2 2.9-4 3.7l-.1.1 2.2 1.4c.3 0 .6.1 1 .2 1.1-1.2 2.4-2.6 3.4-3.8l9.8 5.7v38.5zM20 29.2c.1 0 2.7.2 2.7 2.4v18.7c-.1.1-.2.2-.2.4 0 .1 0 .2.1.2.4.3 1.5 1.8 1.5 2h.2c0-.1.6-.9.9-1.4.5-.6.6-.8.6-.9 0-.1-.1-.3-.2-.4V44h4.2v6.3c-.1.1-.2.2-.2.4 0 .1 0 .2.1.3.4.3 1.5 1.8 1.5 2h.1c0-.1.7-1.1 1.3-2 .2-.1.2-.2.2-.4 0-.1-.1-.3-.2-.4V44h4.2v6.3c-.1.1-.2.2-.2.4 0 .1 0 .2.1.3.4.3 1.5 1.8 1.5 2h.1c0-.1.5-.8.8-1.2.5-.8.7-1 .7-1.1 0-.1-.1-.3-.2-.4V44h4.2v6.3c-.1.1-.2.2-.2.4 0 .1 0 .2.1.3.4.3 1.5 1.8 1.5 2h.1c0-.1.5-.7.8-1.2.5-.8.7-1 .7-1.1 0-.1-.1-.3-.2-.4V31.6c0-2.2 2.6-2.4 2.7-2.4H49v-2.3H20v2.3zm19.3 0h4.2v5.1h-4.2v-5.1zm0 7.9h4.2v4.2h-4.2v-4.2zm-6.9-7.9h4.2v5.1h-4.2v-5.1zm0 7.9h4.2v4.2h-4.2v-4.2zm-2.7 4.2h-4.2v-4.2h4.2v4.2zm-4.2-12.1h4.2v5.1h-4.2v-5.1zm33-4l-3-4.5c-.5-.7-1.3-1.1-2.1-1.1h-.1l-3.9-2.4c-.1-.9-.6-1.7-1.4-2.1l-5-2.5c-.3-.2-.7-.3-1.1-.3-.6 0-1.2.2-1.7.6-.2-.1-.3-.1-.5-.1l-5.7-.4h-.3c-.5-.5-1.1-.8-1.8-.8-.2 0-.4 0-.5.1L26 13c-1 .2-1.7 1-1.9 1.8l-4.4 1.6c-.2.1-.3.2-.5.3-.3-.1-.6-.2-1-.2-.7 0-1.4.3-1.9.9l-3.6 4.1c-.6.7-.8 1.7-.5 2.5L10 28.6v.4c-.8.3-1.4.9-1.6 1.7l-1.6 5.2c-.3 1 0 2 .7 2.6-.1.2-.1.5-.1.7l.6 5.2c-.5.7-.7 1.7-.4 2.5l2.1 5c.3.8 1 1.3 1.8 1.5 0 .1.1.3.2.4l2.6 4.3c-.2.9 0 1.8.7 2.5l4 3.7c.5.4 1.1.7 1.7.7.4 0 .8-.1 1.2-.3.1.1.3.2.5.2l4.9 1.3c.4.6 1.1 1.1 1.9 1.2l5.4.6h.3c.6 0 1.2-.2 1.7-.6h.3l5.4-.7c.2 0 .4-.1.5-.2.4.3.9.5 1.5.5.5 0 1-.2 1.5-.5l4.4-3.2c.8-.6 1.1-1.5 1-2.3l3.2-4c.1-.1.1-.2.2-.3.9 0 1.6-.4 2.1-1.2l3-4.5c.4-.6.5-1.3.4-1.9 0-.2-.1-.4-.2-.6l1.5-4.8c.1-.3.1-.6 0-.9.3-.2.6-.4.8-.7.4-.5.6-1.2.4-1.9l-.9-5.4c-.1-.8-.7-1.5-1.4-1.9 0-.1 0-.3-.1-.4l-1.6-4.8c.4-.7.4-1.7-.1-2.5zm-6.1-2.8h.4c.4-.1.7-.3.9-.7.2-.3.2-.5.2-.8.2.1.5.3.6.5l3 4.5c.1.2.2.5.2.7-.4-.2-.8-.2-1.2-.1-.4.1-.7.4-.9.8-.1.2-.1.4-.2.6-.1-.1-.3-.2-.4-.4L52 23c-.1-.2-.2-.4-.2-.6h.6zm-11.2-7.8c0-.3 0-.5-.2-.8.2-.2.5-.3.8-.3.2 0 .4 0 .6.1l4.9 2.4c.2.1.4.3.5.4h-.5c-.4.1-.7.3-1 .7-.2.3-.3.8-.2 1.2 0 .1.1.2.1.3-.1 0-.2-.1-.2-.1l-4.9-2.4c-.2-.1-.4-.3-.6-.5.5-.2.7-.6.7-1zm-14.9-.5l5.3-1.2h.3c.3 0 .6.1.8.3-.2.3-.3.6-.3.9 0 .4.1.9.4 1.2l.1.1c-.2.2-.4.3-.7.4L26.9 17h-.3c.1-.1.1-.2.1-.2.2-.4.2-.8 0-1.2-.2-.5-.7-.9-1.2-1 .3-.3.5-.5.8-.5zm-12.7 8.1l3.6-4.1c.3-.3.7-.5 1.1-.5.2 0 .3 0 .4.1 0 .2 0 .4.1.7.1.4.4.7.8.9h.1c0 .3-.1.5-.3.7l-3.6 4.1c-.1.1-.3.2-.4.3 0-.2 0-.4-.1-.6-.1-.4-.4-.7-.8-.9-.4-.2-.8-.2-1.2-.1.1-.1.2-.4.3-.6zm-5.7 14L9.4 31c.1-.4.4-.7.8-.9.1.2.3.4.6.5.2.1.4.1.7.1.2 0 .4 0 .5-.1v.1c.2.3.2.7.1 1.1L10.5 37c-.1.4-.4.7-.7.9-.3-.2-.7-.3-1.1-.3-.2 0-.3.1-.4.1-.4-.3-.6-.9-.4-1.5zm5.5 15.3s0 .1 0 0c0 .1 0 .1 0 0-.4 0-.8 0-1.2.2-.2.1-.4.3-.5.6-.4-.1-.7-.4-.9-.8l-2.1-5c-.1-.2-.1-.5-.1-.7.3.2.6.3.9.3h.2c.4 0 .8-.3 1-.6.1-.2.2-.3.3-.5.1.1.2.3.3.4l2.1 5c.1.4.1.8 0 1.1zm8.7 10.7c-.4.2-.6.5-.7.9-.1.2-.1.5 0 .7-.2.1-.4.1-.6.1-.4 0-.7-.1-1-.4l-4-3.7c-.2-.2-.3-.4-.4-.6h.4c.3 0 .5-.1.8-.2.3-.2.6-.6.7-1 0-.2.1-.4 0-.6.2.1.3.2.4.3l4 3.7c.2.3.4.5.4.8zM35.5 65c-.2.3-.4.7-.3 1.1 0 .3.1.5.3.7-.2.1-.4.1-.6.1h-.2l-5.4-.6c-.2 0-.3-.1-.5-.1.3-.2.6-.5.7-.9.1-.4 0-.8-.2-1.2-.1-.2-.3-.4-.4-.5.2-.1.4-.1.6-.1h.2l5.4.6c.4 0 .7.2.9.5-.2.1-.3.3-.5.4zm14-2.4l-4.4 3.2c-.2.2-.5.3-.8.3-.3 0-.5-.1-.7-.2.1-.2.1-.4.1-.7 0-.4-.2-.8-.6-1H43c.1-.3.3-.5.5-.6l4.4-3.2c.1-.1.3-.2.5-.2-.1.2-.1.4-.1.6 0 .4.2.8.6 1 .3.2.6.3.9.3h.2l-.5.5zm2.6-7.4l-.1.1-2.9 3.6h-.4c-.5 0-1 .2-1.5.5l-4.4 3.2c-.5.3-.8.8-.9 1.3l-4.7.6c-.1-.1-.2-.3-.3-.4-.4-.5-1-.9-1.7-1l-5.4-.6h-.3c-.7 0-1.4.3-1.9.8L23.3 62c-.1-.5-.3-1-.8-1.4l-4-3.7c-.5-.4-1.1-.7-1.7-.7h-.1l-2.4-4c.1-.1.1-.2.2-.3.3-.6.3-1.3 0-2l-2.1-5c-.3-.6-.8-1.1-1.4-1.4l-.5-4.5v-.1c.6-.3 1-.9 1.2-1.5l1.6-5.2c.2-.7.1-1.4-.2-2-.1-.1-.1-.2-.2-.3l2-4.2c.7 0 1.3-.4 1.8-.9l3.6-4.1c.4-.4.6-.9.6-1.5l4.5-1.6c.4.2.8.4 1.3.4.2 0 .4 0 .6-.1l5.3-1.2c.7-.1 1.2-.5 1.6-1.1l5.5.3h.1c.2.5.7.9 1.2 1.2l4.9 2.4c.4.2.7.3 1.1.3.3 0 .6-.1.9-.2l3.2 2c-.1.6 0 1.3.4 1.9l3 4.5c.4.6 1 1 1.6 1.1l1.4 4.4c-.1.1-.2.2-.2.3-.4.6-.6 1.2-.4 1.9l.9 5.4c.1.7.5 1.2.9 1.6 0 0 0 .1-.1.2L57 47.3c-.7.1-1.2.5-1.6 1.1l-3 4.5c-.4.7-.5 1.5-.3 2.3zm6.6-4.6l-3 4.5c-.2.4-.6.6-1.1.6-.1-.3-.3-.5-.5-.7-.3-.2-.6-.3-1-.3-.1-.4 0-.8.2-1.1l3-4.6c.1-.1.2-.3.4-.4 0 .2.1.4.2.6.2.4.5.6.9.8.2 0 .3.1.5.1s.5-.1.7-.2c-.1.3-.1.5-.3.7zm.1-16c.2 0 .3 0 .5-.1.3-.1.5-.2.6-.4.3.2.6.6.7 1l.9 5.4c.1.4 0 .7-.2 1.1-.1.2-.3.4-.6.5-.1-.1-.2-.1-.3-.1-.4-.1-.7-.1-1 0-.3-.2-.6-.6-.6-1l-.9-5.4c-.1-.4.1-.8.3-1.1.1.1.3.1.6.1z"/></svg><svg width="73" height="85" viewBox="-2 -2 73 85" x="86" y="238"><path fill="#7d6d70" d="M36.9 3.4v1.4h-1v4.9c.1.2.2.3.2.5 0 .9.2 2.1.5 2.6h3.2s.1 0 .4-.4V12h2.3v4.1h-2.3v-.3l-.1-.1c-.1-.1-.2-.3-.3-.3h-2.1v.3h-.6v7.1H37c-.9-.1-1.7-.2-2.5-.2-.9 0-1.7.1-2.6.2h-.1v-7.1h-.4v-.3h-2.1l-.3.3-.1.1v.4h-2.4V12h2.2v.3l.1.1c.2.2.3.3.4.3h3.2c.3-.4.5-1.7.5-2.6 0-.2.1-.4.2-.5V4.7h-1V3.3l-31 17.9v38.5L32.7 78c-.8-2.7-.8-5.9-.8-6.1v-9.8c.9-.4 1.8-.7 2.6-.8.8.1 1.6.3 2.5.7v9.8c0 .2 0 3.4-.8 6.1l31.5-18.2V21.2L36.9 3.4zm-2.4 20.2c5 0 8.4 2.2 10.5 4 2.3 2.1 3.3 4.1 3.4 4.3 0 .1.2.3.5.4.5.3 1.1.6 1.4 1.4.2.6.2 1.9.2 3.2 0 1.4 0 2.8.2 3.7.1.5.3 1 .5 1.5.4 1.2.9 2.5.6 4.1-.3 2.2-3.1 3.5-3.1 3.5s-.2 0-.3-.1c-.1-.1-.2-.3-.2-.5 0-.3.2-.6.5-1.1.4-.6.8-1.3.8-1.9 0-.6-.4-1.4-1-1.7-.6-.3-1.4-.2-2.3.4-2.5 1.5-2.7 2.8-2.8 4V50c0 1.2 0 2.4-.3 2.7-.1.1-.1.1-.2.1h-.3c-.7.1-1.1 0-1.4-2.1-.4-2.5-2.9-4-6.5-4-3.7 0-6.2 1.5-6.5 4-.3 1.9-.7 2.1-1.1 2.1h-.6c-.1 0-.1 0-.2-.1-.3-.3-.3-1.3-.3-2.5v-.6c.2-.1.3-.3.5-.4.2-.1.5-.4.7-.6-.1.1-.2.1-.3.2-.1.1-.2.1-.3.2-.1 0-.2.1-.2.2-.1 0-.2.1-.2.2l-.1.1v-.7c0-.8-.2-1.7-1-2.6h.1s.1 0 .1-.1l.1-.1h-.1c-.1 0-.2.1-.3.1v.1l-.1-.1c-.4-.4-1-.9-1.6-1.3-.3-.2-.6-.3-.9-.4-.2-.1-.3-.1-.5-.1h-.1c-.7 0-1.1.4-1.4.8 0 0-.1 0-.1.1v.1h.1v.1c-.1.2-.2.5-.2.8 0 .6.4 1.3.8 1.9.3.5.5.8.5 1.1 0 .2-.1.4-.2.5-.1.1-.3.1-.3.1s-1.6-.7-2.5-2.1h-.1l-.2-.3h.3v-.2c-.1 0-.1-.1-.1-.3h-.1l.1-.1s-.1 0-.1-.1.1-.1.1-.1v-.1l.1-.1v-.1s.1-.1.2-.1h.1c.1 0 .1-.1.2-.1.1-.1.1-.1.2-.1h.1v.2h.1l-.1-.1c.1 0 .1-.1.2-.1.1-.1.2-.1.3-.2.1 0 .2-.1.3-.2l.3-.3s.1 0 .1-.1.1-.2.2-.3c0 0 0-.1.1-.1v-.1c-.1 0-.2 0-.2.1l-.1.1c-.2.3-.5.4-.7.6-.3.2-.7.4-1.2.4h-.1c-.2 0-.3 0-.3-.2l-.1.1s-.1 0-.1-.1v-.1l.1-.1s-.1 0-.1-.1 0-.1.1-.1c0 0 .1-.1.1-.2 0 0 0-.1.1-.1 0-.1.1-.1.2-.2l.2-.2s0-.1.1-.1c-.1 0-.1 0-.2.1-.1.2-.2.2-.2.2h-.1v.1h-.1c0-.2.1-.3.1-.6v-.2c.1-.5.3-.9.4-1.4.2-.5.3-1 .5-1.5.2-.9.2-2.3.2-3.7 0-1.3 0-2.5.2-3.2.1 0 .2-.1.3-.1 0 0 .1 0 .1-.1l.1-.1c.3-.1.6-.3.9-.4.3-.1.6-.3.8-.5h.1l.3-.3.3-.3.1-.1.3-.3s.1-.1 0-.2h-.2c-.1.1-.2.2-.3.2-.2.1-.4.3-.6.5-.1 0-.1 0-.2.1-.1 0-.3.1-.4.2l-.1.1c-.1.1-.2.2-.4.2-.2.1-.3.2-.5.3-.1 0-.2.1-.3.2-.1.1-.2.1-.3.2l-.2.1.1-.2c.3-.6.9-1 1.3-1.2.3-.1.5-.3.5-.4 0 0 0-.1.1-.1h.1c.2-.2.4-.3.5-.5l.1-.1s0-.1.1-.1c-.1-.1 0-.1 0-.2 0 0 .1-.1.1 0 .1 0 .2 0 .3-.2h-.1c-.1.1-.1.1-.2.1s-.2.1-.3.1l-.2.1.1-.1c.9-2.6 5-7.6 12.6-7.6zM23.2 51c-.1-.4-.1-.6-.1-.8 0-.8 0-1.9.6-1.9 0 0 .9.1 1.1 2.1-.1.1-.3.2-.4.3l-.1.1c-.2.2-.3.2-.4.2h-.1l-.6.3-.1.1v-.3c.2-.2.5-.4.7-.6-.2.1-.4.3-.6.5zm6.2 19.8l-4.8-.9c-.2 0-.3-.1-.5-.2-.4.3-.8.4-1.2.4-.6.1-1.3-.1-1.8-.5L17 66.3c-.7-.6-1-1.5-.9-2.4l-2.9-4c-.1-.1-.1-.2-.2-.3-.8-.1-1.5-.6-1.9-1.3l-2.4-4.7c-.3-.9-.2-1.8.3-2.6l-.9-4.8v-.7c-.3-.2-.5-.4-.6-.7-.4-.6-.5-1.2-.3-1.9l1.1-5.2c.2-.8.7-1.5 1.5-1.8 0-.1 0-.2.1-.3l1.8-4.6c-.4-.9-.3-1.8.3-2.5l3.2-4.2c.4-.6 1.1-.9 1.8-1 .3 0 .6 0 1 .1.1-.1.3-.2.4-.3l4.1-1.9c.2-1 .8-1.7 1.7-2l5.1-1.5h.1v1.2l-4.8 1.5c-.2.1-.5.2-.6.5.5.1 1 .4 1.2.9.2.4.2 1-.1 1.4.1 0 .2 0 .3-.1l4-1.2v1.2l-3.7.9c-.2.1-.4.1-.6.1-.4 0-.9-.1-1.3-.3l-4.2 1.9c0 .6-.2 1.1-.5 1.5L16 31.5c-.4.5-1 .9-1.7 1l-1.6 4.2c.5.6.7 1.4.6 2.2L12.1 44c-.1.6-.5 1.2-1.1 1.6l.8 4.4c.7.2 1.2.7 1.5 1.3l2.4 4.7c.3.6.4 1.3.1 1.9 0 .1-.1.2-.1.2s0 .1-.1.1l2.6 3.6h.1c.6-.1 1.3.1 1.8.5l4.1 3.3c.4.3.7.8.8 1.3l4.2.8v3.1zm5.1-10.7c-2.4.2-4.2 1.4-5.6 2.4-.1.1-.2.2-.3.2h-.4v-.1c0-.1 0-.1.1-.1H28c-.1 0-.2 0-.3-.1-.1-.1-.1-.1-.2-.1s-.2.1-.2.1l-.1.1H27c-.1-.1-.1-.2-.1-.3 0-.1 0-.2.1-.3l.1-.1.1-.1s.1 0 .1-.1c.1-.1.2-.1.4-.2l.1-.1.2-.2c0-.1.1-.2 0-.2 0-.1-.1-.1-.2-.1h-.4c-.1.1-.2.1-.3.1v-.1c.1-.1.2-.1.4-.1.3-.1.6-.3.8-.4h.1c.1 0 .2-.1.3-.1.1-.1.2-.1.3-.1l.1-.1c.1 0 .1-.1.2-.1.1-.1.2-.1.3-.2.1-.1.2-.1.3-.2.1-.1.2-.1.3-.2l.1-.1c.1 0 .1-.1.2-.1.2-.1.4-.2.6-.4.1-.1.2-.1.3-.2.2-.1.2-.1.1-.3v-.1c-.1 0-.3 0-.4.1H31c-.1 0-.2.1-.2.1-.3.1-.6.3-.9.4-.1 0-.1.1-.2.1-.2.2-.4.3-.6.3H29c-.4.2-.8.5-1.1.7-.1.1-.3.1-.4.2-.3.2-.6.2-.9.2-.3 0-.5.1-.7.3l-.1.1v-.1c0-.1 0-.1-.1-.1h-.2c-.1 0-.1.1-.2.1-.2.1-.4.2-.6.2h-.2l-.5.3v-.1c0-.1-.1-.2-.1-.3v-.1h.2l.1-.1s0-.1.1-.1h.2l.1-.1c.1 0 .1-.1.2-.1h-.1c-.1 0-.2.1-.3.1-.1 0-.2 0-.2.1H24l-.1.1h-.1v-.1c-.3-1.3-.5-2.7-.5-3.5 0-.8-.1-2.2-.2-3.6 0-.4 0-.7-.1-1.1.1-.1.3-.2.4-.4.2-.2.4-.3.6-.5.2-.2.4-.3.6-.5h.1v1.2c-.1 3.5.1 5.2.4 5.5.2.2.6.3 1 .2.3-.1.4-.3.5-.7.1-1.1 1.9-2.8 3.3-3.4.3-.1.5-.2.8-.3 1.1-.4 2.1-.8 3.8-.8 1.6 0 2.7.4 3.8.8.2.1.5.2.8.3 1.3.4 3.1 2.1 3.3 3.4.1.5.4.7.6.7.3.1.7 0 .9-.2.4-.4.5-2.5.4-5.5-.1-3.4 1.1-3.6 1.1-3.6.3 0 .5.2.6.7.1.4.1.8.1 1.2 0 .4-.1 1.6-.1 2.9-.1 1.4-.1 2.9-.2 3.8 0 1.5-.5 4.7-1.4 5.5-.6.5-1.3 1.1-2.1 1.1-.4 0-.9-.1-1.4-.5-.2-.1-.4-.3-.6-.4-1.6-1-3.3-2.2-5.8-2.5zm27-15.2c-.2.3-.4.5-.8.8.1.3.1.6.1.8l-1.1 4.8c.5.8.5 1.8.1 2.5l-2.6 4.6c-.4.8-1.2 1.2-2 1.3 0 .1 0 .1-.1.2L52.3 64c.2.9-.1 1.8-.8 2.4l-4.1 3.4c-.4.3-.9.5-1.4.6-.5 0-1.1-.1-1.5-.4-.1.1-.3.2-.4.2l-4.4.9v-3l3.8-.8c.1-.6.4-1 .8-1.4l4.1-3.4c.4-.3.9-.5 1.4-.6h.4l2.5-3.7.1-.1c-.3-.7-.3-1.5.1-2.2l2.6-4.6c.3-.6.9-1 1.5-1.2l1-4.3v-.1c-.6-.4-.9-.9-1.1-1.5l-1.2-5.1c-.2-.7 0-1.3.3-1.9 0-.1.1-.1.2-.2l.1-.1-1.7-4.1c-.7-.1-1.3-.4-1.7-.9l-3.3-4.2c-.4-.5-.6-1.2-.5-1.8l-3.2-1.6c-.3.1-.6.2-.9.2-.4 0-.8 0-1.1-.2l-4.2-1.7v-1.2l4.6 1.9h.2c-.3-.4-.3-1-.1-1.4.3-.5.8-.8 1.3-.8-.1-.2-.3-.3-.5-.4l-4.9-2c-.2-.1-.4-.1-.6-.1h-.1v-1.2h.1c.4 0 .8 0 1.1.2l4.9 2c.8.3 1.4 1.1 1.5 2l3.9 2h.2c.8-.1 1.7.3 2.2 1l3.3 4.2c.6.7.7 1.6.3 2.5l1.9 4.6v.2c.8.3 1.4 1 1.6 1.8l1.2 5.2c.2.6.1 1.3-.3 1.8z"/><path fill="#fff" d="M69 20.6L36.9 2v-.8h-.4c-.6 0-1.1-.3-1.4-.8L35 .3l-.4-.3-.4.2-.1.1c-.3.5-.9.9-1.5.9h-.5V2L.3 20.4l-.3.2v39.9l33.4 19.3c.2.5.5.9.8 1.2 0 0 .2.1.3.1.1 0 .4-.1.4-.1.3-.3.6-.7.8-1.2L69 60.4V20.6zm-1.1 39.2L36.3 78c.8-2.7.8-5.9.8-6.1v-9.8c-.9-.4-1.7-.7-2.5-.7-.9.1-1.7.3-2.6.8V72c0 .2.1 3.4.8 6.1L1.1 59.8V21.2l31-17.9v1.4h1v4.9c0 .2-.1.3-.1.5 0 .9-.2 2.1-.5 2.6h-3.2s-.2-.1-.4-.3l-.1-.1V12h-2.2v4.1H29v-.4l.1-.1.3-.3h2.1v.3h.4v7.1h.1c.9-.1 1.7-.2 2.6-.2.8 0 1.6.1 2.5.2h.1v-7.1h.6v-.3h2.1c.1 0 .2.3.3.3l.1.1v.3h2.3v-4h-2.3v.3c-.3.3-.4.3-.4.4h-3.2c-.3-.4-.5-1.6-.5-2.6 0-.2-.1-.4-.2-.5V4.7h1V3.3l31 17.9v38.6zm-27.1 3.1c.5.3 1 .5 1.4.5.9 0 1.6-.5 2.1-1.1.9-.9 1.4-4 1.4-5.5 0-.8.1-2.4.2-3.8.1-1.3.1-2.5.1-2.9 0-.4 0-.9-.1-1.2-.1-.4-.3-.7-.6-.7 0 0-1.2.2-1.1 3.6.1 3 0 5.1-.4 5.5-.2.2-.5.3-.9.2-.2-.1-.5-.2-.6-.7-.3-1.2-2.1-2.9-3.3-3.4-.3-.1-.5-.2-.8-.3-1.1-.4-2.1-.8-3.8-.8-1.6 0-2.7.4-3.8.8-.2.1-.5.2-.8.3-1.4.5-3.2 2.3-3.3 3.4-.1.4-.2.6-.5.7-.4.1-.8 0-1-.2-.4-.3-.5-2-.4-5.5v-1.2h-.1c-.2.2-.4.3-.6.5-.2.2-.4.3-.6.5-.1.1-.3.2-.4.4 0 .3 0 .7.1 1.1.1 1.4.1 2.8.2 3.6 0 .8.2 2.2.5 3.5v.1h.1s.1 0 .1-.1h.2c.1 0 .2-.1.2-.1.1 0 .2-.1.3-.1h.1c-.1 0-.1.1-.2.1s-.1 0-.1.1h-.2c-.1 0-.1.1-.1.1s0 .1-.1.1h-.2v.1c0 .1.1.2.1.3v.1h.3c.2 0 .4-.1.6-.2.1 0 .1-.1.2-.1h.2l.1.1v.1l.1-.1c.2-.1.4-.3.7-.3.3 0 .6 0 .9-.2.1-.1.3-.1.4-.2.4-.2.8-.4 1.1-.7h.1l.6-.3c0-.1.1-.1.2-.1.3-.1.6-.2.9-.4.1 0 .2-.1.2-.1h.1c.1-.1.3-.1.4-.1v.1c.1.2.1.2-.1.3-.1.1-.2.1-.3.2-.2.1-.4.3-.6.4-.1 0-.1.1-.2.1l-.1.1c-.1.1-.2.1-.3.2-.1.1-.2.1-.3.2-.1.1-.2.1-.3.2-.1 0-.1.1-.2.1s-.1.1-.1.1c-.1 0-.2.1-.3.1-.1.1-.2.1-.3.1h-.1c-.2.1-.5.3-.8.4-.1 0-.3.1-.4.1v.1c.1 0 .2-.1.3-.1h.4c.1 0 .2 0 .2.1v.2c0 .1-.1.1-.2.2l-.1.1c-.1 0-.3.1-.4.2 0 0-.1 0-.1.1l.3.1-.1.1c-.1 0-.1.1-.1.3 0 .1 0 .2.1.3h.2l.1-.1c.1-.1.1-.1.2-.1s.2 0 .2.1c.1.1.2.1.3.1h.3l-.1.1v.1h.4c.1-.1.2-.1.3-.2 1.4-1 3.2-2.2 5.6-2.4 2.4.2 4.2 1.4 5.6 2.4.4 0 .6.1.8.2zM23.4 53l.2-.2h.1s0 .1.1.1c-.2 0-.3 0-.4.1zm.7 6zm0 0zm2.4-.5zm0 0zm0 .1zm1.2-.9zm.6-.2zm0 1.6zm0 0zm-6.9-28.4l-.1.1.1-.1h.4c.1 0 .1 0 .2-.1h.1c-.1.1-.1.2-.3.2h-.1v.2s0 .1-.1.1c0 0 0 .1-.1.1l-.5.5h-.1c0 .1-.1.1-.1.1 0 .1-.2.3-.5.4-.4.2-1 .5-1.3 1.2l-.1.2.2-.1c.1 0 .2-.1.3-.2.1-.1.2-.1.3-.2.2-.1.4-.2.5-.3.1-.1.2-.2.4-.2l.1-.1c.1-.1.3-.2.4-.2 0-.1.1-.1.2-.1.2-.2.4-.3.6-.5.1-.1.2-.2.3-.2h.2v.2l-.3.3c-.1 0-.1 0-.1.1l-.3.3-.3.3h-.1c-.2.2-.5.4-.8.5-.3.1-.6.3-.9.4l-.1.1s-.1 0-.1.1c-.1 0-.2.1-.3.1-.2.6-.2 1.9-.2 3.2 0 1.4 0 2.8-.2 3.7-.1.5-.3 1-.5 1.5-.2.4-.3.9-.4 1.4v.2c-.1.2-.1.4-.1.6h.1v-.1h.1s.2 0 .2-.2c0-.1.1-.1.2-.1 0 0 0 .1-.1.1 0 .1-.1.2-.2.2l-.2.2s0 .1-.1.1c0 .1-.1.1-.1.2l-.1.1.1.1-.1.1c-.1 0-.1.1 0 .1l.1.1c.1 0 .1 0 .1-.1.1.1.2.2.3.2h.1c.5 0 .9-.2 1.2-.4.2-.2.5-.4.7-.6l.1-.1c.1-.1.1-.2.2-.1v.1s0 .1-.1.1c-.1.1-.2.2-.2.3l-.1.1-.3.3c0 .1-.2.1-.3.2 0 .1-.2.2-.3.2-.1 0-.1.1-.2.1 0 .1 0 .1.1.1h-.1v-.2h-.1c-.1 0-.1.1-.2.1-.1.1-.1.1-.2.1h-.1c-.1 0-.1 0-.2.1v.1l-.1.1v.1l-.1.1c0 .1.1.1.1.1l-.1.1h.1c0 .2.1.2.1.3v.2h-.3l.2.3h.1c.9 1.3 2.5 2.1 2.5 2.1s.2 0 .3-.1c.1-.1.2-.3.2-.5 0-.3-.2-.6-.5-1.1-.4-.6-.8-1.3-.8-1.9 0-.3.1-.5.2-.8v-.1h-.1v-.1c.1 0 .1 0 .1-.1.2-.4.6-.8 1.4-.8h.1c.2 0 .3 0 .5.1.3.1.6.2.9.4.7.4 1.2.8 1.6 1.3l.1.1v-.1c0-.1.2-.1.3-.1h.1l-.1.1s-.1 0-.1.1h-.1c.8.9 1 1.8 1 2.6v.7l.1-.1c.1 0 .2-.1.2-.2s.1-.1.2-.2.2-.1.3-.2c.1-.1.2-.2.3-.2-.1.2-.4.4-.7.6-.2.1-.3.3-.5.4v.6c0 1.1 0 2.2.3 2.5.1.1.1.1.2.1h.6c.4 0 .9-.3 1.1-2.1.4-2.5 2.9-4 6.5-4 3.7 0 6.2 1.5 6.5 4 .3 2.1.8 2.2 1.4 2.1h.3c.1 0 .1 0 .2-.1.3-.3.3-1.6.3-2.7v-1.2c.1-1.2.3-2.5 2.8-4 .9-.6 1.7-.7 2.3-.4.6.3 1 1.1 1 1.7 0 .6-.4 1.3-.8 1.9-.3.5-.5.8-.5 1.1 0 .2.1.4.2.5.1.1.3.1.3.1s2.8-1.2 3.1-3.5c.2-1.6-.2-2.9-.6-4.1-.2-.5-.3-1-.5-1.5-.2-.9-.2-2.3-.2-3.7 0-1.3 0-2.6-.2-3.2-.3-.8-.9-1.2-1.4-1.4-.3-.1-.5-.3-.5-.4-.1-.2-1.1-2.3-3.4-4.3-2-1.8-5.5-4-10.5-4-7.1.4-11.2 5.4-12.6 7.5zm-3.1 12.4zm-.1 4.3H18h.2c-.1-.1-.1-.1 0 0-.1-.1 0-.1 0 0zm0-.6s0-.1 0 0c0-.1 0-.1 0 0 0-.1 0-.1 0 0 0-.1 0-.1 0 0 0-.1 0-.1 0 0zm.6-.8v.1h-.1l-.1.1c-.1 0-.1.1-.1.2v-.2c.1 0 .2 0 .2-.1.1 0 .1-.1.1-.1.1-.1.1-.1 0 0 0-.1 0-.1.1-.1 0 0 0 .1-.1.1zm.2-.4zm.7-.1s0 .1-.1.1l.1-.1h-.2c-.1 0-.1 0-.1.1s0 .1-.1.1-.1.1-.1.1h-.1.1c.1-.1.2-.1.2-.3 0-.1 0-.2.2-.2h.2v.1c-.2 0-.2 0-.1.1 0-.1 0 0 0 0zm-.2-10.3c-.1.1-.1.1 0 0-.1.1-.1 0 0 0zm.8 8.8s-.1-.1 0 0v-.1h.1l-.1.1zm.2-2.5l-.1.1-.5.5c-.3.2-.6.4-1 .7.1-.1.2-.1.2-.2.3-.3.6-.5.9-.7.1-.1.2-.1.2-.2l.1-.1s.1 0 .1-.1c.1 0 .2-.1.2-.2h.1c-.1 0-.1.1-.2.2zm.3-.3l.1-.1h.1c-.1 0-.1 0-.2.1zm5.3 9c-.1-.1-.1-.1 0 0-.1-.1-.1-.1 0 0zm-3-19.2c0 .1 0 .1 0 0 0 .1 0 .1 0 0zm-.1 0s.1 0 0 0c0 .1 0 .1 0 0 0 .1 0 .1 0 0zm-.3.3c.1-.1.1-.1 0 0 .1-.1.1-.1 0 0 .1 0 .1 0 .1.1h-.1v-.1zm-1.5 9.5c0 .1 0 .1 0 0 0 .1 0 .1 0 0-.1 0-.1 0 0 0zm.3 0s-.1 0 0 0c-.1 0-.1 0 0 0-.1-.1-.1-.1 0 0v-.1.1c0-.1 0-.1 0 0zm.2-.3c0 .1 0 .1 0 0 0 .1 0 0 0 0zm.3 3.2c0-.1.1-.1.2-.2 0 .1-.1.2-.2.2zm.3.5l.1-.1c-.1 0-.1.1-.1.1zm.2-.2zm1.6-3.1c-.1 0-.1-.1-.1-.1v-.2l.2-.2-.1.1v.1c.1.1.2.1.2 0 .1 0 .1 0 .2-.1h.1s0 .1-.1.1-.2.1-.3.1l-.1.2zm.2.2l-.1.1c0-.1 0-.1.1-.1zm.4-.1s-.1 0-.1.1c-.1 0-.1.1-.2 0l.1-.1c.1-.1.1-.1.2 0 0-.1 0-.1 0 0zm0-.6l-.1-.1v-.1c.1 0 .1.1.1.2zm0 4.3zm.6-3.8c0-.1-.1-.1-.1-.1.1 0 .1 0 .1.1zm.1 4s-.1.1-.1.2v.1c0-.1 0-.2.1-.3zm.4.2l-.3.3v.1c0 .1-.1.1-.1.2 0 0-.1.1-.2.1.2-.1.2-.2.1-.4v-.1l.1-.1c.2-.2.3-.2.4-.1 0-.1 0-.1 0 0 .1-.1.1-.1 0 0zm-.1-.6c.1 0 .1 0 0 0 .1.1.1.1 0 0 .1.1.1.1 0 0 .1 0 .1 0 0 0zm-.5-5.3c0-.1 0-.1.1-.2.1 0 .1 0 .2-.1.2-.1.3-.1.5-.2.1 0 .2 0 .3-.1-.4.3-.7.4-1.1.6zm1.2 2.1s-.1.1 0 0c-.1.1-.2.1-.2.1v-.2c0-.1 0-.1-.1-.1 0-.1.1-.1.1-.2v-.1h.1c.1 0 .1 0 .1.1l-.1.1s-.1 0-.1.1c.1.2.1.2.2.2zm0-1.2c-.1 0-.1.1-.2.1.1-.1.2-.1.2-.1.1-.1.1-.1 0 0 .1-.1.1-.1 0 0 .1-.1.1-.1 0 0 .1 0 .1 0 0 0zm.2 4zm.2 5.3c.1 0 .1-.1.1-.1h.1c0 .1-.1.1-.2.1zm.2-8.9h-.4c0-.1 0-.2.1-.2.3 0 .4-.1.6-.3 0 .2-.1.4-.3.5zm.1-1.3h.3c0 .1 0 .1-.1.1-.2.1-.2 0-.2-.1zm.2 11.5zm.1-10.8l-.1-.1c.1 0 .1 0 .1.1zm.1 10.8h-.1c.1-.1 0-.3 0-.4v-.1s.1 0 .1-.1c0 .1 0 .2.1.3.1.2.1.2-.1.3zM29 48c-.1.1-.2.2-.3.2l-.3.3c-.2.1-.2.1-.4 0h.2c.1 0 .1-.1.1-.2l.1-.1c.1-.1.3-.2.4-.3v.2c0-.2.1-.1.2-.1zm-1-8.4s0-.1 0 0c.1 0 .1 0 .1-.1h.1v.1s0 .1-.1.1c0 0 0 .1-.1 0 .1 0 .1 0 0-.1zm10.3-8.4c.1-.1.3-.2.6-.2 1.1 0 5.4.9 6.6 1.6 1.2.8 2.4 1.8 2.1 3.8 0 0 0 .5-.2.9-.2.6-.6.9-1.1.9-1.4.1-5.9-.7-6.7-1.1-.7-.4-1.4-.9-1.4-3.2 0-.5 0-.9-.1-1.3.1-.6 0-1.1.2-1.4zm-6.7 8.1c0-1.7 1.5-5.6 3-5.6 1.4 0 2.9 3.8 3 5.6 0 1.1-.2 2.5-.9 2.8-.4.2-.9 0-1.5-.5 0 0-.1-.2-.3-.2-.2 0-.4 0-.7.2-.7.5-1.2.6-1.6.4-1-.5-1-2.2-1-2.7zm-1.5-8.2c.3 0 .5.1.6.2.2.2.2.7.1 1.6 0 .4 0 .8-.1 1.3-.1 2.3-.7 2.8-1.4 3.2-.4.2-1.7.5-3.3.8h-.1c-.1 0-.2.1-.2.1-.2.1-.4.2-.7.3-.1 0-.1.1-.1.1s-.1 0-.1.1c-.2.1-.3.2-.5.3-.1.1-.3.1-.4.2-.2.1-.4.2-.6.4-.1.1-.2.2-.4.2 0 .1 0 .1-.1.1h-.2c-.2-.1-.2.1-.3.1v.1c-.1 0-.1.1-.1.1-.1.1-.2.1-.3.2.1-.1.2-.2.2-.4 0-.1.1-.1.1-.1h.1v-.1s0-.1.1-.1v.1c.1-.1.3-.2.5-.3 0 0 .1 0 .1-.1h.1c.1 0 .2-.1.3-.2.1-.1.2-.2.3-.2h.1c.1-.1.3-.2.5-.3.1 0 .2-.1.3-.2.2-.1.4-.2.6-.4v-.1c-1.2.2-2.2.3-2.7.3s-.9-.3-1.1-.9c-.2-.5-.2-.9-.2-.9-.4-2 .8-3.1 2.1-3.8 1.4-.8 5.7-1.7 6.8-1.7zm-7.4 8.2l.1-.1c.1 0 0 0-.1.1.1 0 .1 0 0 0zm.4-.2c0-.1 0-.1 0 0 0-.1 0-.1 0 0 0-.1 0 0 0 0zm0 12c.2-.2.5-.4.7-.6-.2.1-.5.3-.7.5v.1-.9c0-.8 0-1.9.6-1.9 0 0 .9.1 1.1 2.1-.1.1-.3.2-.4.3l-.1.1c-.2.2-.3.2-.4.2h-.1l-.6.3-.1.1v-.3zm16.6-33.7l-.1 1.2h.1c.2 0 .4 0 .6.1l4.9 2c.2.1.3.2.5.4-.5 0-1.1.3-1.3.8-.2.4-.2 1 .1 1.4h-.2l-4.6-1.9v1.2l4.2 1.7c.4.1.7.2 1.1.2.3 0 .6-.1.9-.2l3.2 1.6c-.1.7.1 1.3.5 1.8l3.3 4.2c.4.5 1 .9 1.7.9l1.7 4.1-.1.1c-.1 0-.2.1-.2.1-.4.6-.5 1.3-.3 1.9l1.2 5.1c.1.6.5 1.1 1.1 1.5v.1L57 50c-.7.2-1.2.6-1.5 1.2L52.8 56c-.4.7-.4 1.5-.1 2.2 0 0-.1 0-.1.1L50.1 62h-.4c-.5 0-1 .2-1.4.6L44.2 66c-.4.3-.7.8-.8 1.4l-3.8.8v3l4.4-.9c.2 0 .3-.1.4-.2.5.3 1 .4 1.5.4s1-.2 1.4-.6l4.1-3.4c.7-.6 1-1.5.8-2.4L55 60c0-.1.1-.1.1-.2.9-.1 1.6-.6 2-1.3l2.6-4.6c.4-.8.4-1.7-.1-2.5l1.1-4.8c.1-.3 0-.5-.1-.8.3-.2.6-.5.8-.8.4-.6.5-1.3.3-1.9l-1.2-5.2c-.2-.8-.8-1.4-1.6-1.8 0-.1 0-.2-.1-.4l-1.9-4.6c.4-.9.2-1.8-.3-2.5l-3.3-4.2c-.5-.7-1.4-1-2.2-1h-.2l-3.9-2c-.1-.9-.7-1.7-1.5-2l-4.9-2c-.2.1-.6 0-.9 0zm11 48.2l-4 3.4c-.2.2-.5.3-.8.3-.2 0-.5 0-.7-.2.1-.2.1-.4 0-.6-.1-.4-.3-.7-.7-1 .1-.3.2-.5.4-.7l4.1-3.4c.1-.1.3-.2.5-.2-.1.6.1 1.2.6 1.5.3.2.7.3 1.1.2-.2.3-.3.5-.5.7zm8.1-12.3l-2.6 4.6c-.2.4-.6.6-1 .7-.1-.3-.3-.5-.5-.7-.2-.2-.5-.2-.8-.2h-.1c-.1-.4-.1-.8.1-1.1l2.6-4.6c.1-.1.2-.3.3-.4.1.6.5 1.1 1.1 1.2.4.1.8 0 1.1-.2 0 .3-.1.5-.2.7zM57 37.7c.4.1.8.1 1.1 0 .2-.1.4-.2.6-.4.4.2.7.5.8.9l1.2 5.1c.1.6-.2 1.2-.7 1.5h-.1s-.1-.1-.2-.1c-.3-.1-.6 0-1 .1-.4-.2-.6-.5-.7-.9l-1.2-5.1c-.1-.4 0-.8.2-1.1zm-5.2-12.1c.1-.2.2-.5.1-.8.3.1.5.2.7.4l3.3 4.2.3.6c-.4-.1-.8-.1-1.1 0-.6.2-.9.8-.9 1.4-.2-.1-.3-.2-.4-.3L50.4 27c-.1-.2-.2-.4-.2-.6.6.1 1.3-.2 1.6-.8zm-27.5 40l-4.1-3.3c-.5-.4-1.1-.6-1.8-.5h-.1l-2.6-3.6s0-.1.1-.1c0-.1.1-.1.1-.2.2-.6.2-1.3-.1-1.9l-2.4-4.7c-.3-.6-.8-1-1.5-1.3l-.9-4.4c.6-.4 1-.9 1.1-1.6l1.1-5.2c.2-.8-.1-1.5-.6-2.2l1.6-4.2c.7-.1 1.3-.4 1.7-1l3.2-4.2c.3-.4.5-.9.5-1.5l4.2-1.9c.4.2.9.3 1.3.3.2 0 .4 0 .6-.1l3.7-1.1v-1.2l-4 1.2c-.2.1-.3.1-.4.1.3-.4.3-.9.1-1.4-.2-.5-.7-.8-1.2-.9.2-.2.4-.4.6-.5l4.8-1.5v-1.2h-.1L24.1 19c-.9.3-1.6 1-1.7 2l-4.1 1.9c-.1.1-.3.2-.4.3-.3-.1-.7-.2-1-.1-.7.1-1.4.4-1.8 1l-3.2 4.2c-.5.7-.6 1.7-.3 2.5l-1.8 4.6c0 .1-.1.2-.1.3-.8.3-1.3 1-1.5 1.8l-1.1 5.2c-.1.7 0 1.3.3 1.9.2.2.4.5.6.7 0 .2-.1.4 0 .7l1 5c-.5.8-.6 1.7-.2 2.5l2.4 4.7c.4.7 1.1 1.2 1.9 1.3 0 .1.1.2.2.3l2.9 4c-.1.9.2 1.8.9 2.4l4.1 3.3c.5.4 1.1.6 1.8.5.4 0 .8-.2 1.2-.4.2.1.3.2.5.2l4.8.9v-3l-4.3-.7c-.2-.6-.5-1-.9-1.4zM12.9 29.1l3.2-4.2c.2-.3.6-.5 1-.5h.4c0 .2 0 .4.1.6.2.4.5.6.9.8 0 .3-.1.5-.2.7L15 30.8c-.1.1-.2.3-.4.3 0-.6-.4-1.2-.9-1.4-.2-.1-.3-.1-.5-.1s-.4 0-.6.1c0-.2.1-.4.3-.6zM9.3 44.4c-.2 0-.3.1-.4.2-.4-.3-.7-.9-.6-1.4L9.4 38c.1-.4.4-.7.7-.9.2.2.4.4.6.4.4.1.8.1 1.1 0 .2.3.3.7.3 1.1L11 43.7c-.1.4-.3.7-.6.9-.2-.2-.5-.2-.8-.2h-.3zm5.4 13.2c-.4-.1-.8 0-1.1.3-.2.1-.3.3-.5.6-.4-.1-.8-.3-.9-.7L9.9 53c-.1-.2-.1-.4-.1-.7.3.2.7.3 1.1.2.6-.1 1-.6 1.2-1.2.1.1.2.3.3.4l2.4 4.7c.1.4.1.8-.1 1.2zm8.7 10.6v.6c-.2.1-.4.2-.6.2-.3 0-.7-.1-1-.3l-4.1-3.3c-.2-.1-.3-.3-.4-.6.4.1.8 0 1.1-.3.5-.3.7-1 .6-1.6.2.1.3.1.5.2l4.1 3.3c.2.2.3.4.4.7-.3.3-.5.7-.6 1.1z"/></svg><svg width="39" height="42" viewBox="-2 -2 39 42" x="78" y="366"><path fill="#FFF" d="M16.6 0h2c7.1.5 13.7 5.8 15.6 12.8 1.4 6.1.5 12.5.7 18.6h-6.4V38h-4.6v-1.8h-1.5V38h-4.1v-1.8h-1.5V38h-4.1v-1.8h-1.5V38H6.6v-6.1H0c.1-5.4-.2-10.9.3-16.3C1.1 7.2 8.4.4 16.6 0z"/></svg><svg width="39" height="42" viewBox="-2 -2 39 42" x="39" y="366"><path fill="#FFF" d="M34.2 12.8C32.2 5.8 25.7.5 18.6 0h-2C8.4.4 1.1 7.2.3 15.6-.2 21 .1 26.5 0 31.9h6.5V38h4.7v-1.8h1.5V38h4.1v-1.8h1.5V38h4.1v-1.8h1.5V38h4.6v-6.5h6.4c-.2-6.2.7-12.6-.7-18.7zm-10.5-.6c-.5.1-1.3.2-1.6.2 0 2 .5 4.3-.9 5.9-.2-1.8-.2-3.8-.2-5.8-.4 0-1.2-.1-1.5-.1.8-1.1 1.5-2.4 2.1-3.6.5 1.2 1.2 2.4 2.1 3.4zm-6.4-6.5c.5 1.3 1.1 2.6 2.1 3.4-.5.1-1.3.2-1.8.4v10c.1.9-.5 1.7-.9 2.5-.1-4.2-.1-8.3 0-12.5l-1.5-.2c.8-1.1 1.5-2.3 2.1-3.6zm-4.3 3c.5 1.3 1.3 2.5 2.2 3.6-.5.1-1.3.2-1.6.2 0 1.8 0 3.6-.1 5.2-1.2-1.3-1.1-3.7-.9-5.3-.4 0-1.2-.1-1.5-.1.6-1.1 1.3-2.3 1.9-3.6zm5.3 22.4c.6-.2 1.6-.8 2.2-1.1 0 1.2.1 2.4.1 3.6-.6-.9-1.3-1.8-2.3-2.5zm10.1-5.5c-4.7 2.6-10.5 3.7-14 8l.4-4.3c-2.7-1.2-5.6-1.9-8.1-3.6-2.1-1.7-2.3-4.6-2.5-7.1.6.8 1.2 1.7 1.9 2.4-.1-2.4-.9-4.8-1.2-7.1 1.2 2.5 3 4.6 5.1 6.3-1.2-3.4-2.3-6.9-3.9-10.1 3.4 4.4 7 8.7 10.5 13.1-1.1 1.2-2 2.6-2.7 4.2.2.6.6 1.2.9 1.8.1-.6.4-1.9.5-2.5 4.6-5.3 9.1-10.8 13.3-16.4-1.4 3.3-2.7 6.6-3.7 10.1 2.1-1.7 4-3.8 5.1-6.3-.2 2.5-.8 5-1.2 7.4.5-.7 1.5-2 2-2.7-.1 2.2-.2 5.3-2.4 6.8z"/></svg><svg width="39" height="42" viewBox="-2 -2 39 42" y="366"><path fill="#FFF" d="M34.2 12.8C32.2 5.8 25.7.5 18.6 0h-2C8.4.4 1.1 7.2.3 15.6-.2 21 .1 26.5 0 31.9h6.5V38h4.7v-1.8h1.5V38h4.1v-1.8h1.5V38h4.1v-1.8h1.5V38h4.6v-6.5h6.4c-.2-6.2.7-12.6-.7-18.7zM18 3.8l10.6 10.8.2.2h-6.2l-.2-.2-4.4-4.5V3.8zM25.7 19l.2.2-3.2 3.2-.2-.2 3.2-3.2zm-3.3 2.9v-6.3l3.2 3.2-3.2 3.1zm3.3-3.4l-3.2-3.2.1-.1h6.2l-.2.2-2.9 3.1zM18 20.2l4.2-4.3v6.2l.1.1-4.3 4.4v-6.4zM6 16.4l2.7 2.7L6 21.9v-5.5zm3.5 2.4l3.2-3.2v6.3c-.1 0-3.2-3.1-3.2-3.1zm2.9 3.3l-.2.2L9 19.1l.4-.1 3 3.1zm0-6.8l-3 3.2-2.9-3-.2-.2h6.1zM6 28.6V23l2.7 2.7c0 .1-2.7 2.9-2.7 2.9zm0-5.9v-.4l2.9-3 3.2 3.2-3.2 3.2c0 .1-2.9-3-2.9-3zM17.1 34l-7.9-8.1 3.2-3.2 4.9 5V34h-.2zm0-7.5l-4.2-4.4.1-.1v-6.2l4.2 4.3v6.4h-.1zm0-16.4l-4.4 4.5-.2.2H6.1l.2-.2L16.9 3.8v6.3h.2zM18 34v-6.3l4.9-5 3.2 3.2C26 25.9 18 34 18 34zm11.1-5.4l-2.7-2.7 2.7-2.7v5.4zm0-5.9l-2.9 3-3.2-3.1 3.2-3.2 2.9 3v.3zm0-.9l-2.7-2.7 2.7-2.7v5.4z"/></svg><svg width="39" height="42" viewBox="-2 -2 39 42" x="342" y="252"><path fill="#FFF" d="M26.2 10.2c.1 3.8.5 7.7-.6 11.5-1.6 3.3-4.6 5.6-7.2 8l-.7.5.1-24.1c2.8 1.3 5.6 2.8 8.4 4.1zm8.7 21.3h-6.4V38h-4.6v-1.8h-1.5V38h-4.1v-1.8h-1.5V38h-4.1v-1.8h-1.5V38H6.6v-6.1H0c.1-5.4-.2-10.9.3-16.3C1.1 7.2 8.4.4 16.6 0h2c7.1.5 13.7 5.8 15.6 12.8 1.4 6.1.5 12.5.7 18.7zM27.3 9.9c-3.3-1.5-6.4-3.2-9.7-4.7-3.4 1.5-6.7 3.2-10 4.7-.1 2.7-.1 5.5 0 8.2.1 2.1.2 4.4 1.4 6.2 2.2 3.3 5.6 5.7 8.5 8.2.4-.2.4-.2.8-.6 3-2.6 6.4-5.2 8.3-9 1.2-4.3.8-8.6.7-13z"/></svg><svg width="39" height="42" viewBox="-2 -2 39 42" x="186" y="96"><path fill="#FFF" d="M34.2 12.8C32.2 5.8 25.7.5 18.6 0h-2C8.4.4 1.1 7.2.3 15.6-.2 21 .1 26.5 0 31.9h6.5V38h4.7v-1.8h1.5V38h4.1v-1.8h1.5V38h4.1v-1.8h1.5V38h4.6v-6.5h6.4c-.2-6.2.7-12.6-.7-18.7zM25.3 22h-1.6l4.3 4.3c-2.3.1-4.7.1-6.9.2-.4-.4-.7-.6-.9-.9v6.6c-1.8-1.7-3.4-3.4-5-5.2-.6-.5-.2-1.3-.4-1.9-1.6 1.2-2.8 2.8-4.4 4.2 0-2.4-.1-4.8-.1-7 .4-.4.6-.7.9-1.1H4.6c1.9-1.8 3.6-3.6 5.5-5.3h1.6c-1.4-1.4-2.9-2.8-4.3-4.4 2.3-.1 4.7-.1 6.9-.2l.9.9V5.3c1.5 1.4 2.8 3 4.2 4.4.5.5 1.1.9 1.2 1.7 1.5-1.4 2.8-2.8 4.3-4.3 0 2.7.1 5.5.1 8.1-.4.4-.6.7-.9.9h6.7c-1.8 2.3-3.6 4.1-5.5 5.9zM22 19.9c-.8.5-1.8.8-2.6 1.2-1.2.4-1.9 1.5-2.8 2.3-.5-1.2-.9-2.3-1.5-3.4-.6-.7-1.3-1.3-1.9-2 1.2-.6 2.3-1.1 3.5-1.7.7-.6 1.3-1.3 2-1.9.5 1.1.9 2.3 1.5 3.4.4.8 1.1 1.4 1.8 2.1z"/></svg><svg width="39" height="42" viewBox="-2 -2 39 42" x="195" y="324"><path fill="#FFF" d="M34.2 12.8C32.2 5.8 25.7.5 18.6 0h-2C8.4.4 1.1 7.2.3 15.6-.2 21 .1 26.5 0 31.9h6.5V38h4.7v-1.8h1.5V38h4.1v-1.8h1.5V38h4.1v-1.8h1.5V38h4.6v-6.5h6.4c-.2-6.2.7-12.6-.7-18.7zm-11.9-1.3h2.1v6.8h-2.1v-6.8zm-3.8 0h2.1v6.8h-1.3l-.8-1.2v-5.6zm-1.7-6.9h1.5v5h-1.5v-5zm1.3 13.9v2.1h-7.4v-2.1h7.4zm-3.5-7h2.1v5.8h-2.1v-5.8zM4.9 26.4L4.3 25l4.6-2 .6 1.4c0 .1-4.6 2-4.6 2zm4-11.9l-4.6-1.9.6-1.4 4.6 1.9-.6 1.4zm1.9-3h2.1v5.8h-2.1v-5.8zm7.7 21.2H17v-5h1.5v5zm5.9-11v3.9H10.8v-3.9h8.9v-2.1h4.8v2.1zm6 4.7l-4.6-1.9.6-1.4L31 25l-.6 1.4zm-4-11.9l-.6-1.4 4.6-1.9.6 1.4c-.1 0-4.6 1.9-4.6 1.9z"/></svg><svg width="39" height="42" viewBox="-2 -2 39 42" x="184" y="194"><path fill="#FFF" d="M25 19.5c.6 3.2-.8 6.9-3.9 8.3-3.4 1.9-8.1.2-9.7-3.3-1.9-3.7-.1-8.6 3.6-10.1 2.3-1.1 5-.5 7.1.8.4-.4 1.1-1.2 1.4-1.5v4.4h-4.1c.5-.5 1.3-1.3 1.6-1.8-1.6-.8-3.6-1.3-5.4-.5-3.3 1.2-4.4 5.5-2.9 8.4 2.1 3.8 7.9 3.8 10-.1.7-1.4.7-3.1.5-4.6.7-.1 1.4-.1 1.8 0zm9.9 12h-6.4V38h-4.6v-1.8h-1.5V38h-4.1v-1.8h-1.5V38h-4.1v-1.8h-1.5V38H6.6v-6.1H0c.1-5.4-.2-10.9.3-16.3C1.1 7.2 8.4.4 16.6 0h2c7.1.5 13.7 5.8 15.6 12.8 1.4 6.1.5 12.5.7 18.7zM14.7 9.3h6.7V5.9h-6.7v3.4zm-4.4-3.4c.5 1.2.9 2.3 1.4 3.3h2.2V5.9h-3.6zm16.4 9.7c-1.9-1.7-2.9-4.2-5.3-5.5h-7c-2.2 1.3-3.3 3.9-5.1 5.5-.1 3.4 0 6.9 0 10.3l3.9 4.6h9.9l3.9-4.6c-.3-3.3-.3-6.9-.3-10.3z"/></svg><svg width="39" height="42" viewBox="-2 -2 39 42" x="342"><path fill="#FFF" d="M18.8 19h-2.5c.1-.4.4-.7.5-.9 0-.1.1-.2.1-.4.2-.5.5-.8.6-1.3l1.3 2.6zm16.1 12.5h-6.4V38h-4.6v-1.8h-1.5V38h-4.1v-1.8h-1.5V38h-4.1v-1.8h-1.5V38H6.6v-6.1H0c.1-5.4-.2-10.9.3-16.3C1.1 7.2 8.4.4 16.6 0h2c7.1.5 13.7 5.8 15.6 12.8 1.4 6.1.5 12.5.7 18.7zm-6.1-1.9c-1.1-1.4-2-2.7-3.2-4.2 1.8-2 2.9-4.6 2.9-7.6 0-6.2-5-11.3-11.1-11.3-2.8 0-5.4 1.1-7.4 2.9C8.8 8.2 7.4 7 5.9 5.8c1.2 1.5 2.3 3 3.5 4.5-1.8 2-2.9 4.6-2.9 7.5 0 6.2 5 11.3 11.1 11.3 2.8 0 5.4-1.1 7.4-2.8 1.2 1.1 2.4 2.2 3.8 3.3zm-5.2-4.5l.8.8c-1.9 1.7-4.2 2.6-6.9 2.6C11.7 28.5 7 23.8 7 17.8c0-2.7 1.1-5.2 2.7-7.1l.8.8c-.6.7-1.2 1.5-1.5 2.4l5 2.1c.1-.2.2-.4.4-.5l.5.5c-.2.4-.5.8-.6 1.3v1.2c.2 1.4 1.3 2.5 2.7 2.7h1.2c.5-.1.9-.2 1.3-.5l.5.5c-.1.1-.4.2-.5.2l2.1 5.1c.6-.4 1.3-.8 2-1.4zm-14.8-4l5-2.1c-.1-.4-.2-.8-.2-1.2 0-.5.1-.8.2-1.2l-5-2.1c-.4 1.1-.6 2.1-.6 3.3s.2 2.3.6 3.3zm4.9 5.4l2.1-5.1c-.7-.4-1.4-.9-1.8-1.8l-5 2.1c.9 2.2 2.6 3.8 4.7 4.8zm7.1.2l-2.1-5.1c-.4.1-.8.2-1.2.2-.5 0-.8-.1-1.2-.2l-2.1 5.1c1.1.4 2.1.6 3.3.6 1.2 0 2.2-.2 3.3-.6zm7.2-8.9c0 2.7-1.1 5.2-2.7 7.1l-.8-.8c.6-.7 1.2-1.5 1.5-2.4l-5-2.1c-.1.2-.2.4-.4.5l-.5-.5c.1-.1.1-.2.2-.4.1-.1.1-.4.2-.6 0-.1.1-.4.1-.5V17c0-.1-.1-.4-.1-.5-.1-.2-.1-.4-.2-.6-.4-.6-.8-1.1-1.4-1.4-.4-.1-.6-.2-.9-.4h-1.2c-.1 0-.4.1-.5.1-.2.1-.4.1-.6.2-.1 0-.2.1-.2.2l-.5-.5c.1-.1.4-.2.5-.2l-2.1-5.1c-.7.6-1.4 1.1-2.1 1.7l-.8-.8c1.9-1.7 4.2-2.6 6.9-2.6 6 0 10.6 4.8 10.6 10.7zm-7.2-8.9c-1.1-.4-2.1-.6-3.3-.6-1.2 0-2.2.2-3.3.6l2.1 5.1c.4-.1.8-.2 1.2-.2s.8.1 1.2.2l2.1-5.1zm5.2 5c-.9-2.1-2.6-3.8-4.7-4.8l-2.1 5.1c.7.4 1.4.9 1.8 1.8l5-2.1zm.3 7.2c.4-1.1.6-2.1.6-3.3s-.2-2.3-.6-3.3l-5 2.1c.1.4.2.8.2 1.2 0 .5-.1.8-.2 1.2l5 2.1z"/></svg><svg width="39" height="42" viewBox="-2 -2 39 42" x="342" y="42"><path fill="#FFF" d="M34.2 12.8C32.2 5.8 25.7.5 18.6 0h-2C8.4.4 1.1 7.2.3 15.6-.2 21 .1 26.5 0 31.9h6.5V38H11v-1.8h1.5V38h4.1v-1.8h1.5V38h4.1v-1.8h1.5V38h4.6v-6.5h6.4c0-6.2.9-12.6-.5-18.7zm-24.3 12c.9-1.1 2-2.3 2.9-3.3 1.1 1.1 2 2.1 3 3.2-1.1 1.1-2 2.3-3 3.3-.9-1-1.9-2.1-2.9-3.2zm7.3 7.3L14 28.9l3.2-3.2 3.2 3.2c-1.2 1-2.2 2.1-3.2 3.2zm4.2-4.1c-1.1-1.1-2-2.1-3-3.3 1.1-1.1 2-2.1 3-3.2 1.1 1.1 2 2.1 3 3.2-1 1.2-2 2.3-3 3.3zm4.9-12c-.2 1.1-.6 2-.8 3.1H8.9c-.2-1.1-.6-2-.8-3.1-.8-2.4-1.4-4.8-.4-7.1.5.8.9 1.7 1.5 2.6-.2.6-.5 1.1-.7 1.7 1.9 1.8 4.6 1.1 6.7.2.5-1.1.2-2.1.2-3.2-.2-.1-.7-.2-.9-.4.9-1.8 1.8-3.4 2.7-5.2C18 6.4 19 8 19.9 9.8l-.9.5c0 1.1-.1 2.1.1 3.2 2.1.8 4.8 1.5 6.8-.2-.2-.6-.5-1.1-.7-1.7.5-.8 1.1-1.8 1.6-2.6.9 2.2.2 4.7-.5 7z"/></svg><svg width="39" height="42" viewBox="-2 -2 39 42" x="342" y="84"><path fill="#FFF" d="M34.2 12.8C32.2 5.8 25.7.5 18.6 0h-2C8.4.4 1.1 7.2.3 15.6-.2 21 .1 26.5 0 31.9h6.5V38h4.7v-1.8h1.5V38h4.1v-1.8h1.5V38h4.1v-1.8h1.5V38h4.6v-6.5h6.4c-.2-6.2.7-12.6-.7-18.7zM21.3 32.1h-8.1L9.4 14.2l3.7-7.4h8.1l3.7 7.4-3.6 17.9zM13.6 7.6l-3.5 6.8 3.6 17h7l3.6-17-3.5-6.8h-7.2zm6.5 23h-5.8l-3.4-16.1L14 8.3h6.4l3.2 6.2-3.5 16.1z"/></svg><svg width="39" height="42" viewBox="-2 -2 39 42" x="342" y="126"><path fill="#FFF" d="M34.2 12.8C32.2 5.8 25.7.5 18.6 0h-2C8.4.4 1.1 7.2.3 15.6-.2 21 .1 26.5 0 31.9h6.5V38h4.7v-1.8h1.5V38h4.1v-1.8h1.5V38h4.1v-1.8h1.5V38h4.6v-6.5h6.4c-.2-6.2.7-12.6-.7-18.7zm-4.5 12.6l2.5 1.2c-.5-.1-.9-.1-1.5-.2h-1.1c-1.8.1-3.4.7-4.9 1.9s-2.6 2.6-3.3 4.2l-.4 1c-.1.5-.2 1-.2 1.5l-.4-2.7-.6-4.2c-.8.2-1.5.4-2.3.4-.8 0-1.5-.1-2.2-.2l-.6 4.2-.4 2.7c0-.5-.1-.9-.2-1.5l-.4-1.1a9.7 9.7 0 0 0-3.3-4.2c-1.5-1.1-3.3-1.7-4.9-1.9h-.9c-.5 0-1.1.1-1.5.2l2.5-1.2 3.6-1.9c-.8-1.3-1.3-2.7-1.4-4.4l-4.1.7-2.7.5c.5-.2.9-.5 1.3-.7.2-.2.6-.5.8-.6C4.3 18 5.4 16.5 6 14.7s.6-3.7.2-5.3c-.1-.5-.2-.9-.3-1.2-.1-.5-.4-1-.6-1.3l1.9 2 2.9 3c.9-1.2 2.2-2.1 3.6-2.7l-1.9-3.7L10.5 3l1.1 1c.2.2.6.5.8.6 1.4 1 3.2 1.4 5 1.4 1.9 0 3.6-.6 5-1.4.4-.2.6-.3.8-.6l1.1-1L23 5.5l-1.9 3.7c1.4.6 2.7 1.5 3.6 2.7l2.9-3 1.9-2c-.2.5-.5 1-.6 1.4l-.4 1.1c-.4 1.7-.4 3.6.2 5.3.6 1.8 1.6 3.3 2.9 4.4.2.2.6.5.8.6.5.2.8.5 1.3.7l-2.5-.4-4.1-.7c-.1 1.5-.6 3.1-1.4 4.4 0-.1 4 1.7 4 1.7zm-9.4-14.2c1.2.5 2.3 1.3 3 2.3l-.8.8-.8.8c-.6-.8-1.5-1.5-2.6-1.9l.6-1.1.6-.9zM22.9 22l-1.1-.6c.6-.8.9-1.9.9-3l1.2.2 1.2.2c-.1 1.3-.5 2.6-1.2 3.7l-1-.5zm-3.5 3.9c-.6.1-1.2.2-1.9.2s-1.3-.1-1.9-.2l.1-1.2.2-1.2c.5.1 1.1.2 1.5.2.6 0 1.1-.1 1.5-.2l.2 1.2.3 1.2zm-7.7-12.4c.8-1.1 1.9-1.8 3-2.3l.6 1.1.6 1.1c-1.1.4-1.9 1-2.6 1.9l-.8-.8-.8-1zm.6 4.9c0 1.1.4 2.1.9 3l-1 .6-1.1.6c-.7-1.1-1.1-2.4-1.2-3.7l1.2-.2c0-.1 1.2-.3 1.2-.3zm2.3-9.6l-1.3-2.5c1.3.5 2.7.8 4.2.8s2.9-.4 4.2-1l-1.3 2.5-1.1 2.1-.6 1.1-.6 1.2-.7 1.4-.7-1.4-.6-1.2-.6-1.1-.9-1.9zm12.8 9.4l-2.3-.4-1.2-.2-1.2-.2-1.5-.2 1.1-1.1.8-.9.8-.8 1.6-1.8 2-2c-.1 1.4 0 2.9.5 4.4.5 1.4 1.2 2.7 2.1 3.8 0-.2-2.7-.6-2.7-.6zm-1.9 6.3l2.5 1.3c-1.4.4-2.7.9-4 1.8-1.3.8-2.2 2-2.9 3.2l-.4-2.9-.4-2.4-.2-1.2-.2-1.3v-1.4l1.3.7 1.1.6 1.1.6 2.1 1zm-11.6-2.3l1.3-.7-.2 1.4-.2 1.3-.2 1.2-.4 2.4-.4 2.8c-.7-1.2-1.6-2.4-2.9-3.2s-2.6-1.4-4-1.8l2.5-1.3 2.1-1.1 1.1-.6c-.1.1 1.3-.4 1.3-.4zm-4-4.4l-2.3.4-2.7.5c.9-1.1 1.6-2.4 2.1-3.8s.6-3 .5-4.4l2 2 1.6 1.8.8.8.8.9 1.1 1.1-1.5.2-1.2.2c0 .1-1.2.3-1.2.3zm10.5.6c-1.4.4-2.6 1.5-2.9 3-.2-1.4-1.4-2.6-2.9-3 .5-.1.8-.4 1.3-.6.6-.4 1.2-1 1.4-1.7.1-.2.2-.5.2-.7 0 .2.1.5.2.7.4.7.8 1.3 1.4 1.7.5.2.9.5 1.3.6z"/></svg><svg width="39" height="42" viewBox="-2 -2 39 42" x="342" y="168"><path fill="#FFF" d="M34.2 12.8C32.2 5.8 25.7.5 18.6 0h-2C8.4.4 1.1 7.2.3 15.6-.2 21 .1 26.5 0 31.9h6.5V38h4.7v-1.8h1.5V38h4.1v-1.8h1.5V38h4.1v-1.8h1.5V38h4.6v-6.5h6.4c-.2-6.2.7-12.6-.7-18.7zm-3.1 5.8c-1.1.4-3.4.6-4.3.1-.7-.1-1.3-.5-2-.4-.4.7-2-.4-2.5.5 0 .1.1.2.2.4.9.8 1.1 2.3 1.3 3.4.4 0 .6.6.5 1 .2-.1.6.4.5.6.2-.1.6.4.5.6.8.6 1.5 1.3 2.2 2 .5 0 .2.6-.1.6.1.7.5 1.3.6 2 .2-.2.1.4.1.6-.5.1-.8-.4-.7-.8-.5-.2-.7-.9-.6-1.4-.4 0-.5-.5-.2-.7-.8-.7-1.8-1.4-2.1-2.5-.6-.2-.9-1.1-1.1-1.7 0-.1-.1-.2-.1-.4-.3.2-.5-.3-.3-.5-.1-.2-.4-.4-.4-.7-.2.1-.5-.4-.2-.6-.5-.1-.6-1.9-1.1-1 0 0 .1.1.1.2.2 0 .5.5.2.7.1.4.2.6.4.9.8 1.2.6 3.4-.6 4.5-.2.5-.6.8-.9 1.2.2.2-.1.7-.5.6-.1.2-.2.4-.4.6-.2.5-.6 1.1-1.1 1.1l-.4.4c-.2.4-.8.5-.9 0-.1 0-.2-.1-.2-.1-.7-.2-1.2-.8-1.5-1.5l-.1-.1c-.5-.4-.9-.8-1.1-1.4-1.2-1.1-2-3.2-1.1-4.8 0-.1.1-.2.1-.4l.1-.1c-.1-.2 0-.7.2-.7.1-.2.1-.6.4-.7.2-.7-.1-.5-.6-.2.1.2 0 .8-.2.8-.2.5-.4.8-.6 1.2-.1.5-.4 1.2-.7 1.4l.1.1c0 .5-.4.9-.7 1.2l-.1.1c.1.2-.2.6-.5.5-.1.6-.7.9-1.1 1.4-.5.5-.4 1.3-.9 1.7 0 .4-.7 1.7-.9.9.1-.8.8-1.7.4-2.4-.2-.2.1-.6.4-.5.6-.7 1.2-1.5 2-1.9.1-.1.2-.4.4-.5.1-.5.4-1.1.8-1.2-.2-.2 0-.7.2-.6 0-.5.2-1.4.5-1.5-.1-.2-.1-1 .2-1-.1-.4.2-.8.6-.9-.2-1-1.4-.4-2.1-.5.2.2-.4.1-.5.1-.5-.4-.9 0-1.4.1-1.4.6-3.6.5-5 0-.3.2-.3-.5 0-.3 1.5-.1 3.4-.2 5.3-.6.1-.7 1.1-.1 1.5-.2.9-.2 2.2.8 2.9-.1.1-.4-.4-.4-.4-.6-.8-.5-1.9-.6-2.9-.4-.5-.2-1.4 0-1.3-.8-.6-.2-1.4-.6-1.3-1.4-.6-.1-.7-.9-.9-1.3-.1-.2-.2-.3-.2-.5-.2.1-.7-.4-.5-.6-.1-.1-.2-.4-.4-.6-.5-.1-.1-1.4.2-.5.2.2.5.5.6.8.4.1.7.5.8.8.1.1.2.2.4.2.9.5 1.5 1.3 1.9 2.3.5-.1.9.1 1.4.1l.2-.2c.2-.4.9 1.1 1.6.4-.2-.4.6-.5.4 0 .4.4 1.2.8.8 0-.4.1-.8-.4-.8-.7-.4-.4-.7-1.1-.7-1.7-.1-.2-.2-.4-.4-.6-.8-.7-.9-2.3-.1-3 0-.1.1-.2.2-.2.1-.4.2-1.1.7-1.3-.2-.2 0-.7.2-.6 0-.4-.1-1.2.4-1.2-.1-.8-.1-1.9.5-2.6.9-.4.2 1.2.4 1.7-.4 1.1-.1 2.6-.8 3.3.2.2 0 .7-.2.6.1.4-.1.8-.5.9-.5 1.2.6 1.9.8 3 .4-.4.4-1.3 1.3-1.2.1 0 .2-.1.2-.1.4-.4.8-.5 1.2-.5.1.5-.5.7-.9.7-.1.1-.4.1-.5.2-.1.2-.5.8 0 .8 0 0 .1-.1.2-.1 0-.6.9-.2 1.3-.5.8-.2 2.2 0 2.8.4.1 0 .2.1.4.2.4 0 .5-.1.5-.5 0 0-.1-.1-.1-.2-.2.1-.6-.1-.6-.4-.4.1-.9-.1-.9-.6 0 .1 1.3 0 1.2.2.4.1.8.1.9.5H21c-.5 1.3.4.6.7.5-.2-.1 0-.7.2-.6 0-.2.2-.4.4-.5 0-.5.1-1.1 0-1.5-.2-.2-.5-.5-.5-.7-.2.1-.5-.4-.2-.6-.7-1.2-.8-3.1-.8-4.5-.6 0 0-1.3.5-.5v.1c.5.7.5 1.8.5 2.6.5.2.6 1.2.6 1.7.5.1.6.8.6 1.2.7.4.9 1.9.2 2.4-.1.2-.2.5-.5.6 0 .1 0 .2-.1.2 0 .7-.6 1.2-.7 1.9.1.1.4.2.4.4.4 1.3 1.3-.7 2 .1h1.1c.2-.1.4-.2.6-.4 0-.6.5-1.4 1.1-1.4.5-.6 1.1-1.3 1.6-1.7.1-.1.1-.4.2-.5 0-.4.4-.7.7-.6 0 .4.1.7-.4.8.2.2 0 .7-.2.6 0 .2-.2.4-.4.5 0 .5-.4.7-.7.9-.4.5-.6 1-.8 1.4.1.6-.6.8-1.1.9-.8 1.3-2.6.4-3.9 1 0 .5-.9.5-.7 1.1 1.4.5 2.7-.2 4.1 0 1.8.8 3.7.6 5.6.8.1.5.3 1.2 0 1z"/></svg><svg width="39" height="42" viewBox="-2 -2 39 42" x="342" y="210"><path fill="#FFF" d="M6.9 10.5c0-.1.1-.2.1-.4l1.8-2c.2-.1.3-.3.6-.3h.2v.4c.1.2.2.4.4.6 0 .1 0 .2-.1.4l-1.8 2c-.1 0-.2.1-.2.1v-.4c0-.2-.1-.4-.4-.5-.2-.1-.4-.1-.6.1zm-2 7.6c.1-.1.4-.2.4-.5l.8-2.6c.1-.2.1-.5 0-.6h-.6c-.2 0-.4-.1-.4-.2-.1.1-.4.2-.4.5L4 17.3c-.1.2 0 .6.2.7h.2c.4-.1.6-.1.5.1zm.8 3.5c0 .1-.1.1-.1.2-.1.1-.4.4-.5.4H5c-.1 0-.4 0-.5-.1v.4L5.6 25c.1.2.2.4.5.4 0-.1.1-.2.2-.4h.6v-.6l-1.1-2.5c.1 0-.1-.2-.1-.3zM9.1 28s-.1-.1-.2-.1v.4c0 .2-.2.4-.4.5-.1 0-.2.1-.4.1H8c0 .1.1.2.2.4l2 1.9c.1.1.4.2.5.2h.3V31c0-.2.1-.4.4-.5 0-.1-.1-.2-.2-.4-.1.1-2.1-2.1-2.1-2.1zm4.5-21.2c.1.2.1.4 0 .6v.1h.1l2.7-.6c.1 0 .2-.1.4-.2-.2-.2-.4-.5-.4-.6 0-.1 0-.4.1-.5-.1-.1-.2-.1-.4-.1H16l-2.7.6c-.1 0-.2.1-.4.2.3 0 .5.2.7.5zm14 6c0 .1.1.1.2.2 0-.1 0-.2.1-.4s.2-.4.5-.4h.6c0-.1 0-.2-.1-.4l-1.5-2.3c0-.1-.2-.2-.4-.2 0 .1 0 .2-.1.4s-.2.4-.5.4h-.6c0 .1 0 .2.1.4 0 .1 1.7 2.3 1.7 2.3zM15.1 31h-.4l.2.2c.1.2.1.4.1.6 0 .2-.2.4-.4.5h.4l2.7.4h.5c-.2-.2-.2-.3-.2-.4 0-.2 0-.4.1-.6.1 0 .1-.1.2-.2-.1-.1-.2-.2-.5-.2.1-.1-2.7-.3-2.7-.3zm8.1-22.8l.1-.1c0-.2 0-.5.1-.6.1-.2.4-.4.5-.4h.2l-.2-.2-2.5-1.2H21c-.1 0-.4 0-.4.1.1.1.1.2.1.4-.1.2-.2.5-.5.6.4.1.5.2.6.2l2.4 1.2zm6.8 7.9c0 .1-.1.1-.4.2H29c0 .2-.2.4 0 .7l.5 2.7c0 .2.1.4.4.5h.6c.1 0 .2-.1.4-.2.1-.2.1-.4.1-.6l-.5-2.7c-.1-.3-.4-.4-.5-.6zm4.9 15.4h-6.4V38h-4.6v-1.8h-1.5V38h-4.1v-1.8h-1.5V38h-4.1v-1.8h-1.5V38H6.6v-6.1H0c.1-5.4-.2-10.9.3-16.3C1.1 7.2 8.4.4 16.6 0h2c7.1.5 13.7 5.8 15.6 12.8 1.4 6.1.5 12.5.7 18.7zm-3.5-12.3l-.5-2.7c0-.4-.4-.7-.7-.9v-.2l-.8-2.4c.2-.4.2-.8 0-1.3l-1.5-2.3c-.2-.4-.7-.6-1.1-.6l-2-1.2c0-.5-.4-.8-.7-1.1l-2.5-1.3c-.1-.1-.4-.1-.6-.1-.4 0-.6.1-.8.4H20l-2.8-.2h-.1c-.4-.4-.7-.5-1.1-.5h-.2l-2.7.7c-.5.1-.8.5-.9 1l-2.2.7c-.1 0-.1.1-.2.1h-.4c-.4-.1-.7.1-1 .4l-1.9 2c-.2.4-.4.8-.2 1.3l-1.1 2.4v.2c-.4.1-.7.5-.8.8L3.6 17c-.1.5 0 1.1.4 1.3v.4l.2 2.6c-.2.4-.3.9-.2 1.4l1 2.5c.1.4.5.7.9.7 0 0 0 .1.1.2l1.3 2.1c-.1.5 0 1 .4 1.3l2 1.9c.2.2.6.4.8.4.2 0 .4 0 .6-.1 0 0 .1.1.2.1l2.5.7c.2.4.6.6.9.6l2.8.1h.1c.4 0 .6-.1.8-.4h.1l2.7-.4c.1 0 .2 0 .2-.1.2.1.5.2.7.2.2 0 .5-.1.7-.2l2.2-1.7c.4-.4.6-.7.5-1.2l1.6-2s0-.1.1-.1c.5 0 .8-.2 1.1-.6l1.5-2.3c.2-.4.2-.7.2-.9 0-.1 0-.2-.1-.4l.7-2.4v-.5c.1-.1.4-.2.4-.4.4.2.5-.2.4-.6zm-2.4.4c.1.4.2.6.5.8v.1l-.8 2.3c-.4.1-.6.2-.8.6l-1.6 2.3c-.3.3-.4.8-.3 1.1l-1.4 1.8h-.2c-.2 0-.5.1-.7.2l-2.2 1.7c-.2.3-.5.5-.5.7l-2.3.4c0-.1-.1-.2-.1-.2-.1-.2-.5-.5-.8-.5l-2.7-.4H15c-.4 0-.7.1-.9.4l-2.3-.7c0-.2-.1-.5-.4-.7l-2-1.9c-.2-.2-.5-.4-.8-.4l-1.2-2c.1 0 .1-.1.1-.1.1-.4.1-.7 0-1.1l-1.1-2.5c-.1-.4-.4-.6-.7-.7l-.2-2.3c.2-.1.5-.4.6-.7l.8-2.6c.1-.4 0-.7-.1-1.1-.1 0-.1-.1-.1-.1l1.1-2.1c.4 0 .6-.2.8-.5l1.8-2.1c.2-.1.4-.4.4-.7l2.1-.7c.1.1.3.2.5.2h.4l2.7-.6c.4-.1.6-.2.8-.6L20 7c.1.2.4.5.6.6L23 8.8c.2.1.4.1.6.1.1 0 .4-.1.5-.1l1.6 1.1c-.1.2 0 .6.1.8l1.5 2.3c.2.4.5.6.8.6l.7 2.3c-.1 0-.1.1-.1.1-.2.2-.4.6-.2 1 0-.1.5 2.6.5 2.6zm-13.8-6.7h4.6v-2.3h-4.6v2.3zm-3-2.2c.4.8.6 1.5.9 2.3h1.5v-2.3h-2.4zm11.3 13.5c-.1-2.3-.1-4.8-.1-7-1.3-1.1-2-2.8-3.5-3.7h-4.8c-1.5.8-2.2 2.6-3.5 3.7-.1 2.4 0 4.6 0 7l2.6 3.1h6.7c-.1 0 2.6-3.1 2.6-3.1zm1 6c-.2-.1-.4-.4-.4-.5v-.4c-.1 0-.2 0-.2.1l-2.2 1.7c-.1 0-.2.1-.2.4.2.1.4.4.4.5v.4c.1 0 .2.1.4.1s.4 0 .4-.1l2.2-1.7.2-.2H25c-.1-.2-.2-.3-.5-.3zm4.5-6.1c-.2-.1-.4-.2-.5-.4 0-.1-.1-.2-.1-.4-.1 0-.1.1-.2.2L26.6 26c-.1.1-.1.4-.1.6.2 0 .4 0 .5.1.1.1.2.2.2.4.2 0 .5-.1.6-.4l1.5-2.3c.1-.1.1-.2.1-.4-.1 0-.2.1-.4.1.2.1.1 0 0 0z"/></svg><svg width="39" height="42" viewBox="-2 -2 39 42" x="117" y="366"><path fill="#FFF" d="M34.2 12.8C32.2 5.8 25.7.5 18.6 0h-2C8.4.4 1.1 7.2.3 15.6-.2 21 .1 26.5 0 31.9h6.5V38h4.7v-1.8h1.5V38h4.1v-1.8h1.5V38h4.1v-1.8h1.5V38h4.6v-6.5h6.4c-.2-6.2.7-12.6-.7-18.7zM16.8 4.5h2v11.9c-.7.7-1.3 1.5-2 2.3V4.5zM8.4 20.1c-1.9-1.3-2.3-3.8-3.2-5.8.7.5 2 1.4 2.6 1.9-.9-1.9-2-3.8-3.2-5.7 2.1 1.8 4.2 3.6 6.5 4.9C9.6 12.2 7.5 9.5 5.2 7c4.2 2.6 7.8 5.8 11.1 9.6.1.5.2 1.4.2 1.9-1.1 1.4-1.5 3-1.8 4.6-2.1-.9-4.4-1.6-6.3-3zm22.1-5.9c-.8 2-1.3 4.5-3.2 5.7-2.7 1.5-5.6 2.5-8.3 4.3-.4 1.4-.2 2.8-.2 4.4.6 0 1.6.1 2.2.1-.9 2-2 4-3.2 5.9-1.2-1.8-2.3-3.8-3.2-5.8.6 0 1.6-.1 2.1-.2 0-.8 0-2.5-.1-3.3l-2 2c.4-2.3 0-4.8 1.4-6.6 4.2-5.2 8.6-10.2 14.4-13.5-2.5 2.5-4.4 5.2-6.2 8.2 2.3-1.4 4.4-3.1 6.5-4.9-1.2 1.9-2.1 3.8-3.2 5.8 1.1-.5 2.4-1.6 3-2.1zM21 27.3c-.7-.9-.8-1.7-1.8-2.6.6-.2 1.1-.6 1.5-.9.2 1.1.3 2.3.3 3.5z"/></svg><svg width="39" height="42" viewBox="-2 -2 39 42" y="324"><path fill="#FFF" d="M34.2 12.8C32.2 5.8 25.7.5 18.6 0h-2C8.4.4 1.1 7.2.3 15.6-.2 21 .1 26.5 0 31.9h6.5V38h4.7v-1.8h1.5V38h4.1v-1.8h1.5V38h4.1v-1.8h1.5V38h4.6v-6.5h6.4c-.2-6.2.7-12.6-.7-18.7zm-7.3 12.6c-6.2.1-12.5.1-18.7 0v-.8H27l-.1.8zm.5-3.2l-.6 2H8.2c-.1-.5-.4-1.5-.6-2-.7-2.6-2-5.3-.7-8.1.5.9 1.1 1.8 1.6 2.7-1.1.7-.6 2.4.6 2.5 2.1.4 4.3.4 6.2-.8.5-1.1.5-2.1 0-3.3l-.1.2c-.1-.2-.4-.8-.5-1.1l2.8-5 2.8 5-.5.9-.2-.2c-.5 1.1-.5 2.3 0 3.3 1.9 1.1 4.1 1.2 6.1.8 1.3-.1 1.8-1.8.7-2.6.6-1 1.2-1.8 1.6-2.7 1.3 3.1.1 5.8-.6 8.4z"/></svg><svg width="39" height="42" viewBox="-2 -2 39 42" x="39" y="324"><path fill="#FFF" d="M34.2 12.8C32.2 5.8 25.7.5 18.6 0h-2C8.4.4 1.1 7.2.3 15.6-.2 21 .1 26.5 0 31.9h6.5V38h4.7v-1.8h1.5V38h4.1v-1.8h1.5V38h4.1v-1.8h1.5V38h4.6v-6.5h6.4c-.2-6.2.7-12.6-.7-18.7zM5.9 25.6C2.7 21 3.4 14.1 7.4 10.2c2.3-2.6 5.8-3.6 9.2-3.7-5.3 1.1-9.8 5.5-10.2 11-.9 6.5 4.1 12.8 10.3 13.6-4.2.1-8.5-1.8-10.8-5.5zm11.6 2.5c-2.2-1.5-4.6-3.1-6.1-5.5-.4-3.3 0-6.8-.1-10.2h12.4c-.1 3.3.2 6.8-.1 10.2-1.4 2.5-3.9 4-6.1 5.5zm12.2-3.4c-2.1 4.2-6.8 6.4-11.2 6.8.2-1.3 2.2-.9 3.2-1.4 6-2.5 8.6-10.3 6-16.2-1.6-3.9-5.4-6.4-9.3-7.4 3.2.2 6.5 1.1 8.9 3.3 4 3.7 5 10.1 2.4 14.9zM13 14.6c0 2.1-.1 4.4.4 6.5.8 1.9 2.6 3.1 4.1 4.4 1.5-1.3 3.4-2.5 4.3-4.4.5-2.1.4-4.4.4-6.5-3.2-.9-6.2-1.1-9.2 0zm8 6.5c-.8 1.5-2.3 2.5-3.5 3.7V14.2c1.3.2 2.6.5 3.9.8-.1 2 .1 4.1-.4 6.1z"/></svg><svg width="39" height="42" viewBox="-2 -2 39 42" x="78" y="324"><path fill="#FFF" d="M34.2 12.8C32.2 5.8 25.7.5 18.6 0h-2C8.4.4 1.1 7.2.3 15.6-.2 21 .1 26.5 0 31.9h6.5V38h4.7v-1.8h1.5V38h4.1v-1.8h1.5V38h4.1v-1.8h1.5V38h4.6v-6.5h6.4c-.2-6.2.7-12.6-.7-18.7zm-13.9 8.7c-3.2 3.3-6.4 6.5-9.6 9.7-1.4-.8-4.1-3.2-5.3-5.5 3.2-3.2 6.3-6.5 9.5-9.9-2.8-3-5.6-6.1-8.2-9.3 3 2.7 6 5.6 8.9 8.3.9-.7 2.1-1.1 3.3-1.5 3-2.5 6-5.7 10-6.3-.5 1.8-1.2 3.4-2.2 5-1.1 1.5-2.2 3.1-3.5 4.4-.9 1.2-1.1 2.9-2.1 4 2.7 3.1 5.5 6.1 8.2 9.1-3-2.2-5.9-5.2-9-8z"/></svg><svg width="39" height="42" viewBox="-2 -2 39 42" x="117" y="324"><path fill="#FFF" d="M34.2 12.8C32.2 5.8 25.7.5 18.6 0h-2C8.4.4 1.1 7.2.3 15.6-.2 21 .1 26.5 0 31.9h6.5V38h4.7v-1.8h1.5V38h4.1v-1.8h1.5V38h4.1v-1.8h1.5V38h4.6v-6.5h6.4c-.2-6.2.7-12.6-.7-18.7zm-5.7 13.1l-7-1.5.2 7.2-4.2-5.7-4.3 5.7.2-7.2-7 1.5 4.8-5.3-6.3-3.3 7-1-2.5-6.8 6.1 3.8 2.1-6.9 2.2 6.9 6-3.8-2.8 6.6 7 1-6.3 3.3 4.8 5.5z"/></svg><svg width="39" height="42" viewBox="-2 -2 39 42" x="156" y="324"><path fill="#FFF" d="M12 24.3c.2-1.5-.9-2.8-2.3-3.1.5.6 1.3.9 1.3 1.8.2 1.2-.8 2.6-2.1 2.4-1.5-.1-2-2.3-1.3-3.3.8-1.5 3.3-1.8 4.4-.5.8.8.7 2.1.5 3.2-.5 1.4-2.1 2.3-3.5 2l-.5-.2c1.6.6 3.3-.6 3.5-2.3zm13.8-2.2c-.4-.6-.5-1.2-.8-1.8-.4.4-.7.7-1.1.9-.6.4-1.2.5-1.8.8.4.4.7.6.9 1.1.4.6.5 1.2.8 1.8.5-.4.8-.9 1.4-1.2.5-.2.9-.4 1.4-.6-.2-.3-.6-.5-.8-1zM20.3 7.7l-1.1-.6c.2.7.5 1.3.8 1.9.2-.3.3-.8.3-1.3zm-5.1 5.8c-.4.8-.1 1.9.5 2.6-1.1-.4-2.1-1.1-2.7-2-.8-1.3-.8-3.1-.4-4.5l.4-.8-6.3 3.8v4c.4-.2.8-.4 1.3-.6 1.2-.2 2.6-.4 3.6.2-1.8-.1-3.5 0-4.9 1.1v1.4c.1-.1.4-.2.5-.4 1.9-1.1 4.3-1 6.1.5 1.4 1.1 2.3 2.9 2.2 4.6 0 2.1-1.2 4.2-2.9 5.3l5.1 3 6.5-3.9-1.1-1.1c-.2-.2-.1-.7-.1-.9-.8.6-1.5 1.5-2.3 2.1 0-1.2-.1-2.5-.1-3.7.1-.2.4-.4.5-.5h-3.5l2.9-2.9h.8l-2.3-2c1.2-.1 2.5-.1 3.6-.1l.5.5v-3.6c.8.7 1.5 1.5 2.2 2.3.2.2.6.5.6 1 .8-.7 1.5-1.5 2.2-2.3 0 1.4.1 2.9.1 4.3l-.5.5h.5v-8.9l-7.1-4c.4.7.6 1.4.9 2.1.5 1.2.2 2.5-.2 3.6-.6 1.3-2 2-3.3 2.3.8-.7 1.1-1.9.6-3-.6-1.1-1.3-2.1-2-3.1-.6.9-1.4 2-1.9 3.1zm13.2 11.6v-.8h-.8l.8.8zm-14.7-3.3c.7 1.8.1 3.9-1.3 5.2-.5.4-1.1.7-1.6.8l.4.2c2.2-.9 3.6-3.8 2.5-6.2zm12 5.3l.7-.4h-.1l-.5-.5c-.1.3-.1.5-.1.9zm-19.8-10v-5l.4-.2 7.6-4.5c.6-.8 1.3-1.5 2-2.1.6-.5 1.2-1.1 1.9-1.5l-.1-.1-13.2 7.6v7.1c.3-.5.8-.9 1.4-1.3zm23.3 8.3v.5c.2.2.5.4.6.6-.6 0-1.2 0-1.8.1L25.7 28v1.7l4.9-2.8v-4.6c-.5.5-.9.9-1.4 1.3v1.8zm5.7 6.1h-6.4V38h-4.6v-1.8h-1.5V38h-4.1v-1.8h-1.5V38h-4.1v-1.8h-1.5V38H6.6v-6.1H0c.1-5.4-.2-10.9.3-16.3C1.1 7.2 8.4.4 16.6 0h2c7.1.5 13.7 5.8 15.6 12.8 1.4 6.1.5 12.5.7 18.7zm-3.5-20.7l-.5-.2-11.7-7c.1-.5.2-.8.4-1.3-.5.2-.8.5-1.2.8l-.6-.4-.4-.2-.5.2L4 10.6l-.4.2v8.8c-.4.6-.6 1.2-.7 1.9-.4 1.7-.1 3.6.7 5v.7l.5.2.6.5c.8.8 1.8 1.4 2.8 1.7l9.6 5.7.5.2.5-.2 13.1-7.7.5-.2V10.8h-.3zM19 5.9V6l1.4.8c0 .1.1.1.1.2l8.3 4.9.5.2v9.3h1.4V11.3L19.3 4.5c-.3.5-.3 1-.3 1.4zm-1 26.8l-.5.2-.5-.2-5.6-3.3c-.6.2-1.3.4-2 .5l7.9 4.8 8.2-4.9-1.1-1.1c.1-.1-6.4 4-6.4 4zm-8.5-4.6H9c-2 0-3.9-1.5-4.3-3.4-.5-1.8 0-3.8 1.2-5.1v-1.4c-.6.6-1.1 1.3-1.4 2v5.3c.9 1.9 3 3.2 5.1 3h.5l-.6-.4z"/></svg><svg width="39" height="42" viewBox="-2 -2 39 42" x="147" y="96"><path fill="#FFF" d="M5.9 21.9L7 24.4v.6h-.7c-.1.1-.2.2-.2.4-.2 0-.4-.1-.5-.4l-1.1-2.5v-.4c.1.1.4.1.5.1h.1c.1 0 .4-.2.5-.4 0-.1.1-.1.1-.2 0 .1.2.3.2.3zm-1-3.8c.1-.1.4-.2.4-.5l.8-2.6c.1-.2.1-.5 0-.6h-.6c-.2 0-.4-.1-.4-.2-.1.1-.4.2-.4.5L4 17.3c-.1.2 0 .6.2.7h.2c.4-.1.6-.1.5.1zm19.6 12.1c-.2-.1-.4-.4-.4-.5v-.4c-.1 0-.2 0-.2.1l-2.2 1.7c-.1 0-.2.1-.2.4.2.1.4.4.4.5v.4c.1 0 .2.1.4.1.1 0 .4 0 .4-.1l2.2-1.7.2-.2H25c-.1-.2-.2-.3-.5-.3zm-9.4.8h-.4l.2.2c.1.2.1.4.1.6 0 .2-.2.4-.4.5h.4l2.7.4h.5c-.2-.2-.2-.3-.2-.4 0-.2 0-.4.1-.6.1 0 .1-.1.2-.2-.1-.1-.2-.2-.5-.2.1-.1-2.7-.3-2.7-.3zM13.6 6.8c.1.2.1.4 0 .6v.1h.1l2.7-.6c.1 0 .2-.1.4-.2-.2-.2-.4-.5-.4-.6 0-.1 0-.4.1-.5-.1-.1-.2-.1-.4-.1H16l-2.7.6c-.1 0-.2.1-.4.2.3 0 .5.2.7.5zm9.6 1.4h.1v-.1c0-.2 0-.5.1-.6.1-.2.4-.4.5-.4h.2l-.2-.2-2.5-1.2H21c-.1 0-.4 0-.4.1.1.1.1.2.1.4-.1.2-.2.5-.5.6.4.1.5.2.6.2l2.4 1.2zm4.4 4.6c0 .1.1.1.2.2 0-.1 0-.2.1-.4s.2-.4.5-.4h.6c0-.1 0-.2-.1-.4l-1.5-2.3c0-.1-.2-.2-.4-.2 0 .1 0 .2-.1.4s-.2.4-.5.4h-.6c0 .1 0 .2.1.4 0 .1 1.7 2.3 1.7 2.3zM29 24.1c-.2-.1-.4-.2-.5-.4 0-.1-.1-.2-.1-.4-.1 0-.1.1-.2.2L26.6 26c-.1.1-.1.4-.1.6.2 0 .4 0 .5.1.1.1.2.2.2.4.2 0 .5-.1.6-.4l1.5-2.3c.1-.1.1-.2.1-.4-.1.1-.2.2-.4.1.2.1.1 0 0 0zM7.5 10.5c.2.1.4.2.4.5v.4s.1-.1.2-.1l1.8-2v-.5l-.3-.6v-.4h-.2c-.3 0-.4.2-.6.3l-1.8 2c0 .1-.1.2-.1.4.2-.2.4-.2.6 0zM9.1 28s-.1-.1-.2-.1v.4c0 .2-.2.4-.4.5-.1 0-.2.1-.4.1H8c0 .1.1.2.2.4l2 1.9c.1.1.4.2.5.2h.3V31c0-.2.1-.4.4-.5 0-.1-.1-.2-.2-.4-.1.1-2.1-2.1-2.1-2.1zm25.8 3.5h-6.4V38h-4.6v-1.8h-1.5V38h-4.1v-1.8h-1.5V38h-4.1v-1.8h-1.5V38H6.6v-6.1H0c.1-5.4-.2-10.9.3-16.3C1.1 7.2 8.4.4 16.6 0h2c7.1.5 13.7 5.8 15.6 12.8 1.4 6.1.5 12.5.7 18.7zm-3.5-12.3l-.5-2.7c0-.4-.4-.7-.7-.9v-.2l-.8-2.4c.2-.4.2-.8 0-1.3l-1.5-2.3c-.2-.4-.7-.6-1.1-.6l-2-1.2c0-.5-.4-.8-.7-1.1l-2.5-1.3c-.1-.1-.4-.1-.6-.1-.4 0-.6.1-.8.4H20l-2.8-.2h-.1c-.4-.4-.7-.5-1.1-.5h-.2l-2.7.7c-.5.1-.8.5-.9 1l-2.2.7c-.1 0-.1.1-.2.1h-.4c-.4-.1-.7.1-1 .4l-1.9 2c-.2.4-.4.8-.2 1.3l-1.1 2.4v.2c-.4.1-.7.5-.8.8L3.6 17c-.1.5 0 1.1.4 1.3v.4l.2 2.6c-.2.4-.3.9-.2 1.4l1 2.5c.1.4.5.7.9.7 0 0 0 .1.1.2l1.3 2.1c-.1.5 0 1 .4 1.3l2 1.9c.2.2.6.4.8.4.2 0 .4 0 .6-.1 0 0 .1.1.2.1l2.5.7c.2.4.6.6.9.6l2.8.1h.1c.4 0 .6-.1.8-.4h.1l2.7-.4c.1 0 .2 0 .2-.1.2.1.5.2.7.2.2 0 .5-.1.7-.2l2.2-1.7c.4-.4.6-.7.5-1.2l1.6-2s0-.1.1-.1c.5 0 .8-.2 1.1-.6l1.5-2.3c.2-.4.2-.7.2-.9 0-.1 0-.2-.1-.4l.7-2.4v-.5c.1-.1.4-.2.4-.4.4.2.5-.2.4-.6zm-2.4.4c.1.4.2.6.5.8v.1l-.8 2.3c-.4.1-.6.2-.8.6l-1.6 2.3c-.3.3-.4.8-.3 1.1l-1.4 1.8h-.2c-.2 0-.5.1-.7.2l-2.2 1.7c-.2.3-.5.5-.5.7l-2.3.4c0-.1-.1-.2-.1-.2-.1-.2-.5-.5-.8-.5l-2.7-.4H15c-.4 0-.7.1-.9.4l-2.3-.7c0-.2-.1-.5-.4-.7l-2-1.9c-.2-.2-.5-.4-.8-.4l-1.2-2c.1 0 .1-.1.1-.1.1-.4.1-.7 0-1.1l-1.1-2.5c-.1-.4-.4-.6-.7-.7l-.2-2.3c.2-.1.5-.4.6-.7l.8-2.6c.1-.4 0-.7-.1-1.1-.1 0-.1-.1-.1-.1l1.1-2.1c.4 0 .6-.2.8-.5l1.8-2.1c.2-.1.4-.4.4-.7l2.1-.7c.1.1.3.2.5.2h.4l2.7-.6c.4-.1.6-.2.8-.6L20 7c.1.2.4.5.6.6L23 8.8c.2.1.4.1.6.1.1 0 .4-.1.5-.1l1.6 1.1c-.1.2 0 .6.1.8l1.5 2.3c.2.4.5.6.8.6l.7 2.3c-.1 0-.1.1-.1.1-.2.2-.4.6-.2 1 0-.1.5 2.6.5 2.6zm-16.7 3.1l-.4-.9L9 22.9l.4.9 2.9-1.1zm0-7.3l-2.9-1.2-.4 1 2.9 1.2.4-1zm5.7 2.7l.5.7h.8v-4.3H18v3.6zm-.9-4.8h.9v-3.2h-.9v3.2zm-1.6 4.9h1.3v-3.7h-1.3v3.7zm-2.4 0h1.3v-3.7h-1.3v3.7zm0 2.1h4.7V19h-4.7v1.3zm4.9 4.4h-.9v3.2h.9v-3.2zm3.8-5.1h-3v1.3h-5.6v2.5h8.6v-3.8zm0-5.1h-1.3v4.3h1.3v-4.3zm4.1 8.5L23 21.9l-.4.9 2.9 1.2.4-1zm0-7.8l-.4-.9-2.9 1.2.4.9 2.9-1.2zm4.1.9c0 .1-.1.1-.4.2H29c0 .2-.2.4 0 .7l.5 2.7c0 .2.1.4.4.5h.6c.1 0 .2-.1.4-.2.1-.2.1-.4.1-.6l-.5-2.7c-.1-.3-.4-.4-.5-.6z"/></svg><svg width="39" height="42" viewBox="-2 -2 39 42" x="234" y="324"><path fill="#FFF" d="M34.2 12.8C32.2 5.8 25.7.5 18.6 0h-2C8.4.4 1.1 7.2.3 15.6-.2 21 .1 26.5 0 31.9h6.5V38h4.7v-1.8h1.5V38h4.1v-1.8h1.5V38h4.1v-1.8h1.5V38h4.6v-6.5h6.4c-.2-6.2.7-12.6-.7-18.7zm-17 17c-6.4 0-11.7-5.3-11.7-11.9S10.8 6.1 17.2 6.1 28.9 11.4 28.9 18s-5.3 11.8-11.7 11.8zm3.4-16.7c-1.8.4-3.2 1.7-3.5 3.3-.4-1.7-1.6-3-3.5-3.3 1.8-.4 3.2-1.7 3.5-3.3.3 1.6 1.7 2.9 3.5 3.3zm-5.8 8c-1.8.4-3.2 1.7-3.5 3.3-.4-1.7-1.6-3-3.5-3.3 1.8-.4 3.2-1.7 3.5-3.3.4 1.7 1.8 3.1 3.5 3.3zm11.6 0c-1.8.4-3.2 1.7-3.5 3.3-.4-1.7-1.6-3-3.5-3.3 1.8-.4 3.2-1.7 3.5-3.3.3 1.7 1.7 3.1 3.5 3.3z"/></svg><svg width="39" height="42" viewBox="-2 -2 39 42" x="273" y="324"><path fill="#FFF" d="M16.4 16.2c-.4.4-.6.8-1.1 1.2-.4-.6-.7-1.2-1.1-1.7 0-.1.2-.4.5-.2.2-.2.4-.5.6-.7.4.3.7.9 1.1 1.4zm2.2-3.1v-.4c-.2-.4-.6-.7-.7-1.1-.1-.1-.1-.4-.2-.5-.1.6-.6 1.1-.8 1.7.4.5.6 1.1 1.1 1.5 0-.4.2-.9.6-1.2zm-2.4 5.5c.4.6.6 1.1.8 1.7.1.6.5 1.2.5 1.9h.1c0-.6.4-1.2.5-1.8h.1c.2-.6.7-1.2.9-1.8-.6-.2-1.1-.7-1.5-1.1-.4.4-.8.9-1.4 1.1zm18.7 12.9h-6.4V38h-4.6v-1.8h-1.5V38h-4.1v-1.8h-1.5V38h-4.1v-1.8h-1.5V38H6.6v-6.1H0c.1-5.4-.2-10.9.3-16.3C1.1 7.2 8.4.4 16.6 0h2c7.1.5 13.7 5.8 15.6 12.8 1.4 6.1.5 12.5.7 18.7zm-5.7-20.3c-.1-.2-.2-.4-.5-.2-.1.2-.2 0-.5 0-.2.2-.6.4-.9.6 0-.2.2-.4.4-.5-.2 0-.4.1-.6.2-.1.1-.5.4-.6.1-.9.7-2 1.3-2.9 2-.4.4-.7.7-1.2 1.1-.4-.4-.6-.8-.8-1.3-.6-.4-.7-.9-.6-1.5v-1.1c-.1-.5-.1-.8-.2-1.3-.1-.2 0-.6 0-1s-.1-.7-.1-1.1-.1-.7 0-1v.1c0-.1-.1-.2-.1-.4v.4c.1.2.1.4 0 .6-.1.5-.1.9-.4 1.3-.1.8-.2 1.7-.3 2.4l-.1.1c-.2-.4-.4-.7-.6-1.1-.5-.7-.6-1.7-.9-2.5-.1-.8-.1-1.8-.4-2.6-.1-.2 0-.6 0-.8 0-.2.1-.7-.2-.6-.1.9-.1 1.8-.4 2.7.1.2.1.4 0 .6-.1.8-.5 1.7-.7 2.4-.2.6-.6 1.1-.8 1.7h-.1c-.5-1.2-.4-2.6-.6-3.8-.1-.2-.1-.4-.1-.6v-.3c0 .1-.1.2-.1.4 0 .7-.1 1.4-.2 2.1v1c0 .4-.1.6-.2.8v.1c0 1.1.4 2.5-.6 3.2-.2.2-.5.6-.8.8-.4-.2-.6-.6-.8-.8-.4-.4-.7-.7-1.2-1.1L9 11.1c-.5-.2-.6.2-.8 0-.5-.1-.7-.1-1.1-.2-.5-.1-.8-.6-1.3-.5.5.4 1.2.6 1.6 1.1.6.1.9.6 1.3 1.1 0 .1 0 .4-.1.5-.4 0-.5-.5-.7-.6-.2-.2-.5-.1-.8-.1 0 .5.6.7.8 1.1.1.1 0 .2-.1.2.4.5.8.7 1.1 1.3.4.4.6.7.8 1.1.4.5.7.8 1.1 1.3.4.5.7.9 1.1 1.5 0 0 0 .1.1.1.5.8.9 1.7 1.5 2.5.4.6.6 1.1.9 1.7l.1.1c.1.1.1.2.1.4l.1.1c.2.4.4.6.5.9.1.1.1.2.1.5.1.2.1.5.2.7 0 .1 0 .1.1.2.1.5.4 1.1.5 1.5.1.1.1.4.1.6.4 1.1.5 2.1.6 3.3v.5c0 .1.1.4.1.5.1.1.1.4.1.6v.7c0 .1 0 .4.1.5.2-.1.1-.6.2-.8v-1.1h.1v1.4c.1.4 0 .8.1 1.2v.1c0-.4.1-.6.1-.9 0-.8.1-1.8.4-2.6.1-.5.1-1.1.2-1.5.1-.4.2-.7.2-1.1 0-.1 0-.4.1-.5l.4-1.1c0-.2.1-.4.2-.6 0-.1.1-.2.1-.5s.1-.4.1-.5c0-.1.1-.4.1-.5s.1-.2.1-.5c0 0 0-.1.1-.1.2-.5.6-1.1.9-1.5l.1-.1c.4-.7.8-1.3 1.2-2 .1-.1.1-.2.2-.4s.2-.4.4-.5c.5-.7.9-1.5 1.5-2.1.1-.2.4-.5.5-.6l.4-.4c.2-.4.6-.6.8-1 .6-.7 1.1-1.4 1.8-1.9 0 0 0-.1-.1-.1V14l.7-.7c-.2-.1 0-.5-.4-.5-.1.1-.2.2-.5.2.1-.2.1-.4 0-.6.4-.4.7-.5 1.1-.8.5-.2.8-.3 1-.4zm-9.9 4.7c.6.1.5.8.8 1.2 0 .1 0 .4.2.2l1.1-1.4c-.4-.4-.8-.7-1.3-1.2-.4.4-.6.7-.8 1.2z"/></svg><svg width="39" height="42" viewBox="-2 -2 39 42" x="312" y="324"><path fill="#FFF" d="M5.9 21.9L7 24.4v.6h-.7c-.1.1-.2.2-.2.4-.2 0-.4-.1-.5-.4l-1.1-2.5v-.4c.1.1.4.1.5.1h.1c.1 0 .4-.2.5-.4 0-.1.1-.1.1-.2 0 .1.2.3.2.3zm18.6 8.3c-.2-.1-.4-.4-.4-.5v-.4c-.1 0-.2 0-.2.1l-2.2 1.7c-.1 0-.2.1-.2.4.2.1.4.4.4.5v.4c.1 0 .2.1.4.1s.4 0 .4-.1l2.2-1.7.2-.2H25c-.1-.2-.2-.3-.5-.3zm-9.4.8h-.4l.2.2c.1.2.1.4.1.6 0 .2-.2.4-.4.5h.4l2.7.4h.5c-.2-.2-.2-.3-.2-.4 0-.2 0-.4.1-.6.1 0 .1-.1.2-.2-.1-.1-.2-.2-.5-.2.1-.1-2.7-.3-2.7-.3zm-6-3s-.1-.1-.2-.1v.4c0 .2-.2.4-.4.5-.1 0-.2.1-.4.1H8c0 .1.1.2.2.4l2 1.9c.1.1.4.2.5.2h.3V31c0-.2.1-.4.4-.5 0-.1-.1-.2-.2-.4-.1.1-2.1-2.1-2.1-2.1zm-4.2-9.9c.1-.1.4-.2.4-.5l.8-2.6c.1-.2.1-.5 0-.6h-.6c-.2 0-.4-.1-.4-.2-.1.1-.4.2-.4.5L4 17.3c-.1.2 0 .6.2.7h.2c.4-.1.6-.1.5.1zm22.7-5.3c0 .1.1.1.2.2 0-.1 0-.2.1-.4s.2-.4.5-.4h.6c0-.1 0-.2-.1-.4l-1.5-2.3c0-.1-.2-.2-.4-.2 0 .1 0 .2-.1.4s-.2.4-.5.4h-.6c0 .1 0 .2.1.4 0 .1 1.7 2.3 1.7 2.3zm-14-6c.1.2.1.4 0 .6v.1h.1l2.7-.6c.1 0 .2-.1.4-.2-.2-.2-.4-.5-.4-.6 0-.1 0-.4.1-.5-.1-.1-.2-.1-.4-.1H16l-2.7.6c-.1 0-.2.1-.4.2.3 0 .5.2.7.5zm9.6 1.4l.1-.1c0-.2 0-.5.1-.6.1-.2.4-.4.5-.4h.2l-.2-.2-2.5-1.2H21c-.1 0-.4 0-.4.1.1.1.1.2.1.4-.1.2-.2.5-.5.6.4.1.5.2.6.2l2.4 1.2zM7.5 10.5c.2.1.4.2.4.5v.4s.1-.1.2-.1l1.8-2v-.5l-.3-.6v-.4h-.2c-.3 0-.4.2-.6.3l-1.8 2c0 .1-.1.2-.1.4.2-.2.4-.2.6 0zM30 16.2c0 .1-.1.1-.4.2H29c0 .1-.2.3 0 .6l.5 2.7c0 .2.1.4.4.5h.6c.1 0 .2-.1.4-.2.1-.2.1-.4.1-.6l-.5-2.7c-.1-.3-.4-.4-.5-.5zm-1 3.4c.1.4.2.6.5.8v.1l-.8 2.3c-.4.1-.6.2-.8.6l-1.6 2.3c-.3.3-.4.8-.3 1.1l-1.4 1.8h-.2c-.2 0-.5.1-.7.2l-2.2 1.7c-.2.3-.5.5-.5.7l-2.3.4c0-.1-.1-.2-.1-.2-.1-.2-.5-.5-.8-.5l-2.7-.4H15c-.4 0-.7.1-.9.4l-2.3-.7c0-.2-.1-.5-.4-.7l-2-1.9c-.2-.2-.5-.4-.8-.4l-1.2-2c.1 0 .1-.1.1-.1.1-.4.1-.7 0-1.1l-1.1-2.5c-.1-.4-.4-.6-.7-.7l-.2-2.3c.2-.1.5-.4.6-.7l.8-2.6c.1-.4 0-.7-.1-1.1-.1 0-.1-.1-.1-.1l1.1-2.1c.4 0 .6-.2.8-.5l1.8-2.1c.2-.1.4-.4.4-.7l2.1-.7c.1.1.3.2.5.2h.4l2.7-.6c.4-.1.6-.2.8-.6L20 7c.1.2.4.5.6.6L23 8.8c.2.1.4.1.6.1.1 0 .4-.1.5-.1l1.6 1.1c-.1.2 0 .6.1.8l1.5 2.3c.2.4.5.6.8.6l.7 2.3c-.1 0-.1.1-.1.1-.2.2-.4.6-.2 1l.5 2.6zm-.9-1h-3.6c-.1-3.7-3-6.6-6.7-6.8V8.2h-.6v3.7c-3.6.1-6.5 3.1-6.7 6.8H6.9v.6h3.6c.1 3.7 3 6.6 6.7 6.8v3.7h.6v-3.6c3.6-.1 6.5-3.1 6.7-6.8H28v-.7l.1-.1zm.9 5.5c-.2-.1-.4-.2-.5-.4 0-.1-.1-.2-.1-.4-.1 0-.1.1-.2.2L26.6 26c-.1.1-.1.4-.1.6.2 0 .4 0 .5.1.1.1.2.2.2.4.2 0 .5-.1.6-.4l1.5-2.3c.1-.1.1-.2.1-.4-.1 0-.2.1-.4.1.2.1.1 0 0 0zm5.9 7.4h-6.4V38h-4.6v-1.8h-1.5V38h-4.1v-1.8h-1.5V38h-4.1v-1.8h-1.5V38H6.6v-6.1H0c.1-5.4-.2-10.9.3-16.3C1.1 7.2 8.4.4 16.6 0h2c7.1.5 13.7 5.8 15.6 12.8 1.4 6.1.5 12.5.7 18.7zm-3.5-12.3l-.5-2.7c0-.4-.4-.7-.7-.9v-.2l-.8-2.4c.2-.4.2-.8 0-1.3l-1.5-2.3c-.2-.4-.7-.6-1.1-.6l-2-1.2c0-.5-.4-.8-.7-1.1l-2.5-1.3c-.1-.1-.4-.1-.6-.1-.4 0-.6.1-.8.4H20l-2.8-.2h-.1c-.4-.4-.7-.5-1.1-.5h-.2l-2.7.7c-.5.1-.8.5-.9 1l-2.2.7c-.1 0-.1.1-.2.1h-.4c-.4-.1-.7.1-1 .4l-1.9 2c-.2.4-.4.8-.2 1.3l-1.1 2.4v.2c-.4.1-.7.5-.8.8L3.6 17c-.1.5 0 1.1.4 1.3v.4l.2 2.6c-.2.4-.3.9-.2 1.4l1 2.5c.1.4.5.7.9.7 0 0 0 .1.1.2l1.3 2.1c-.1.5 0 1 .4 1.3l2 1.9c.2.2.6.4.8.4.2 0 .4 0 .6-.1 0 0 .1.1.2.1l2.5.7c.2.4.6.6.9.6l2.8.1h.1c.4 0 .6-.1.8-.4h.1l2.7-.4c.1 0 .2 0 .2-.1.2.1.5.2.7.2.2 0 .5-.1.7-.2l2.2-1.7c.4-.4.6-.7.5-1.2l1.6-2s0-.1.1-.1c.5 0 .8-.2 1.1-.6l1.5-2.3c.2-.4.2-.7.2-.9 0-.1 0-.2-.1-.4l.7-2.4v-.5c.1-.1.4-.2.4-.4.4.2.5-.2.4-.6zm-8.6-.6h-.6v.5H24c-.1 3.3-2.8 6.1-6.1 6.2v-1.5h-.5v1.8c-3.3-.1-6-2.8-6.1-6.2h1.5v-.5H11c.1-3.3 2.8-6.1 6.1-6.2v1.5h.5v-1.8c3.3.1 6 2.8 6.1 6.2h-.9zM21 19c0-2-1.5-3.6-3.5-3.6S14 17 14 19s1.5 3.6 3.5 3.6S21 21 21 19zm-3.5-1.2c-.7 0-1.2.5-1.2 1.2s.5 1.2 1.2 1.2 1.2-.5 1.2-1.2-.6-1.2-1.2-1.2z"/></svg><svg width="39" height="42" viewBox="-2 -2 39 42" x="381"><path fill="#FFF" d="M34.2 12.8C32.2 5.8 25.7.5 18.6 0h-2C8.4.4 1.1 7.2.3 15.6-.2 21 .1 26.5 0 31.9h6.5V38h4.7v-1.8h1.5V38h4.1v-1.8h1.5V38h4.1v-1.8h1.5V38h4.6v-6.5h6.4c-.2-6.2.7-12.6-.7-18.7zM20.9 31H14V12.8l3.5-7.7 3.4 7.7V31z"/></svg><svg width="39" height="42" viewBox="-2 -2 39 42" x="381" y="42"><path fill="#FFF" d="M34.2 12.8C32.2 5.8 25.7.5 18.6 0h-2C8.4.4 1.1 7.2.3 15.6-.2 21 .1 26.5 0 31.9h6.5V38h4.7v-1.8h1.5V38h4.1v-1.8h1.5V38h4.1v-1.8h1.5V38h4.6v-6.5h6.4c-.2-6.2.7-12.6-.7-18.7zM26.3 28c-1.2 2.5-3.7 3.8-6.3 4.4 1.5-1.3 2-3.8 1.2-5.6-1.1-2.1-2.5-4-3.9-5.9-1.4 2-2.9 4-4 6.4-.7 1.7-.2 3.6.9 5-2.1-.7-4.1-1.9-5.3-3.9-1.5-2.6-1.5-5.8-.6-8.6 1.2-3.4 3.6-6.2 6.2-8.6 2.3-2 4.8-3.8 7.4-5.3-.7 2.3-1.4 4.5-1.2 6.9.4 2.1.9 4.2 2.1 5.9.4-1.5.5-3.1.6-4.5 1.2 2.3 2.2 4.7 3.3 7.1 1 2 .5 4.6-.4 6.7z"/></svg><svg width="39" height="42" viewBox="-2 -2 39 42" x="381" y="84"><path fill="#FFF" d="M34.2 12.8C32.2 5.8 25.7.5 18.6 0h-2C8.4.4 1.1 7.2.3 15.6-.2 21 .1 26.5 0 31.9h6.5V38h4.7v-1.8h1.5V38h4.1v-1.8h1.5V38h4.1v-1.8h1.5V38h4.6v-6.5h6.4c-.2-6.2.7-12.6-.7-18.7zm-17.8.7v16.3h-6V13.5l3-6.3 3 6.3zm8.2 0v16.3h-6V13.5l3-6.3c.1 0 3 6.3 3 6.3z"/></svg><svg width="39" height="42" viewBox="-2 -2 39 42" x="381" y="126"><path fill="#FFF" d="M4.6 17.9h-.3c-.2-.1-.4-.5-.2-.7l.7-2.6c0-.2.2-.4.4-.5 0 .1.1.2.4.2h.6c.1.1.1.4 0 .6l-.8 2.6c0 .2-.2.4-.4.5 0-.1-.2-.1-.4-.1zm23-5.1c0 .1.1.1.2.2 0-.1 0-.2.1-.4s.2-.4.5-.4h.6c0-.1 0-.2-.1-.4l-1.5-2.3c0-.1-.2-.2-.4-.2 0 .1 0 .2-.1.4s-.2.4-.5.4h-.6c0 .1 0 .2.1.4 0 .1 1.7 2.3 1.7 2.3zM9.1 28s-.1-.1-.2-.1v.4c0 .2-.2.4-.4.5-.1 0-.2.1-.4.1H8c0 .1.1.2.2.4l2 1.9c.1.1.4.2.5.2h.3V31c0-.2.1-.4.4-.5 0-.1-.1-.2-.2-.4-.1.1-2.1-2.1-2.1-2.1zm-3.4-6.4c0 .1-.1.1-.1.2-.1.1-.4.4-.5.4H5c-.1 0-.4 0-.5-.1v.4L5.6 25c.1.2.2.4.5.4 0-.1.1-.2.2-.4h.6v-.6l-1.1-2.5c.1 0-.1-.2-.1-.3zm9.4 9.4h-.4l.2.2c.1.2.1.4.1.6 0 .2-.2.4-.4.5h.4l2.7.4h.5c-.2-.2-.2-.3-.2-.4 0-.2 0-.4.1-.6.1 0 .1-.1.2-.2-.1-.1-.2-.2-.5-.2.1-.1-2.7-.3-2.7-.3zm8.1-22.8c.1-.4.1-.6.2-.7.1-.2.4-.4.5-.4h.2l-.2-.2-2.5-1.2H21c-.1 0-.4 0-.4.1.1.1.1.2.1.4-.1.2-.2.5-.5.6.4.1.5.2.6.2l2.4 1.2zM7.5 10.5c.2.1.4.2.4.5v.4s.1-.1.2-.1l1.8-2v-.5l-.3-.6v-.4h-.2c-.3 0-.4.2-.6.3l-1.8 2c0 .1-.1.2-.1.4.2-.2.4-.2.6 0zm6.1-3.7c.1.2.1.4 0 .6v.1h.1l2.7-.6c.1 0 .2-.1.4-.2-.2-.2-.4-.5-.4-.6 0-.1 0-.4.1-.5-.1-.1-.2-.1-.4-.1H16l-2.7.6c-.1 0-.2.1-.4.2.3 0 .5.2.7.5zM30 16.2c0 .1-.1.1-.4.2H29c0 .1-.2.3 0 .6l.5 2.7c0 .2.1.4.4.5h.6c.1 0 .2-.1.4-.2.1-.2.1-.4.1-.6l-.5-2.7c-.1-.3-.4-.4-.5-.5zm-5.5 14c-.2-.1-.4-.4-.4-.5v-.4c-.1 0-.2 0-.2.1l-2.2 1.7c-.1 0-.2.1-.2.4.2.1.4.4.4.5v.4c.1 0 .2.1.4.1.1 0 .4 0 .4-.1l2.2-1.7.2-.2H25c-.1-.2-.2-.3-.5-.3zM29 19.6c.1.4.2.6.5.8v.1l-.8 2.3c-.4.1-.6.2-.8.6l-1.6 2.3c-.3.3-.4.8-.3 1.1l-1.4 1.8h-.2c-.2 0-.5.1-.7.2l-2.2 1.7c-.2.3-.5.5-.5.7l-2.3.4c0-.1-.1-.2-.1-.2-.1-.2-.5-.5-.8-.5l-2.7-.4H15c-.4 0-.7.1-.9.4l-2.3-.7c0-.2-.1-.5-.4-.7l-2-1.9c-.2-.2-.5-.4-.8-.4l-1.2-2c.1 0 .1-.1.1-.1.1-.4.1-.7 0-1.1l-1.1-2.5c-.1-.4-.4-.6-.7-.7l-.2-2.3c.2-.1.5-.4.6-.7l.8-2.6c.1-.4 0-.7-.1-1.1-.1 0-.1-.1-.1-.1l1.1-2.1c.4 0 .6-.2.8-.5l1.8-2.1c.2-.1.4-.4.4-.7l2.1-.7c.1.1.3.2.5.2h.4l2.7-.6c.4-.1.6-.2.8-.6L20 7c.1.2.4.5.6.6L23 8.8c.2.1.4.1.6.1.1 0 .4-.1.5-.1l1.6 1.1c-.1.2 0 .6.1.8l1.5 2.3c.2.4.5.6.8.6l.7 2.3c-.1 0-.1.1-.1.1-.2.2-.4.6-.2 1l.5 2.6zM24.8 21c.4-4.9-4.2-7.7-7-10.9V14c-1.3-1.2-2.6-2.3-3.9-3.4v3.8c-1.3-1.1-2.5-2.1-3.7-3.2.1 3.7-.2 7.5.1 11.2.4 3 3 5.5 6.1 5.5 2.2 0 4.8.5 6.9-.6 2.2-1.4 1.3-4.3 1.5-6.3zm4.2 3.1c-.2-.1-.4-.2-.5-.4 0-.1-.1-.2-.1-.4-.1 0-.1.1-.2.2L26.6 26c-.1.1-.1.4-.1.6.2 0 .4 0 .5.1.1.1.2.2.2.4.2 0 .5-.1.6-.4l1.5-2.3c.1-.1.1-.2.1-.4-.1.1-.2.2-.4.1.2.1.1 0 0 0zm5.9 7.4h-6.4V38h-4.6v-1.8h-1.5V38h-4.1v-1.8h-1.5V38h-4.1v-1.8h-1.5V38H6.6v-6.1H0c.1-5.4-.2-10.9.3-16.3C1.1 7.2 8.4.4 16.6 0h2c7.1.5 13.7 5.8 15.6 12.8 1.4 6.1.5 12.5.7 18.7zm-3.5-12.3l-.5-2.7c0-.4-.4-.7-.7-.9v-.2l-.8-2.4c.2-.4.2-.8 0-1.3l-1.5-2.3c-.2-.4-.7-.6-1.1-.6l-2-1.2c0-.5-.4-.8-.7-1.1l-2.5-1.3c-.1-.1-.4-.1-.6-.1-.4 0-.6.1-.8.4H20l-2.8-.2h-.1c-.4-.4-.7-.5-1.1-.5h-.2l-2.7.7c-.5.1-.8.5-.9 1l-2.2.7c-.1 0-.1.1-.2.1h-.4c-.4-.1-.7.1-1 .4l-1.9 2c-.2.4-.4.8-.2 1.3l-1.1 2.4v.2c-.4.1-.7.5-.8.8L3.6 17c-.1.5 0 1.1.4 1.3v.4l.2 2.6c-.2.4-.3.9-.2 1.4l1 2.5c.1.4.5.7.9.7 0 0 0 .1.1.2l1.3 2.1c-.1.5 0 1 .4 1.3l2 1.9c.2.2.6.4.8.4.2 0 .4 0 .6-.1 0 0 .1.1.2.1l2.5.7c.2.4.6.6.9.6l2.8.1h.1c.4 0 .6-.1.8-.4h.1l2.7-.4c.1 0 .2 0 .2-.1.2.1.5.2.7.2.2 0 .5-.1.7-.2l2.2-1.7c.4-.4.6-.7.5-1.2l1.6-2s0-.1.1-.1c.5 0 .8-.2 1.1-.6l1.5-2.3c.2-.4.2-.7.2-.9 0-.1 0-.2-.1-.4l.7-2.4v-.5c.1-.1.4-.2.4-.4.4.2.5-.2.4-.6zm-11.7-4.5v3.6c-1.3-1.2-2.6-2.3-3.9-3.4v3.8c-1.3-1.1-2.5-2.1-3.7-3.2.2 3.4-1.1 8.3 2.7 10.2 2.6.6 5.5.9 7.9-.2.4-2.1.4-4.4 0-6.4-.6-1.9-1.9-3.1-3-4.4z"/></svg><svg width="39" height="42" viewBox="-2 -2 39 42" x="381" y="168"><path fill="#FFF" d="M18.2 25.7c-1.9 0-3.5-.7-4.9-1.8l10.6-10.8c1.2 1.3 1.8 3.1 1.8 5 .1 4.1-3.3 7.6-7.5 7.6zm-6.5-4l-.4.4-1.1 1.1-.5.5c.5.7 1.1 1.4 1.8 2l1.9-1.9c-.8-.5-1.2-1.2-1.7-2.1zm23.2 9.8h-6.4V38h-4.6v-1.8h-1.5V38h-4.1v-1.8h-1.5V38h-4.1v-1.8h-1.5V38H6.6v-6.1H0c.1-5.4-.2-10.9.3-16.3C1.1 7.2 8.4.4 16.6 0h2c7.1.5 13.7 5.8 15.6 12.8 1.4 6.1.5 12.5.7 18.7zM29.7 7.1l-1.9-1.9-4 4-1.8 2-10.3 10.5-.4-.7c-.5-.9-.7-2-.7-3.2 0-1 .1-1.8.5-2.6s.8-1.7 1.4-2.4c.5-.6 1.1-1.1 1.6-1.4.7-.5 1.5-.8 2.5-1.1v3.4c1.2-1.2 2.2-2.3 3.4-3.3l1.3-1.3-1.4-1.4c-1.1-1.1-2.1-2.1-3.2-3.3l-.1 3.2h-.1c-.2 0-.6.1-.8.2-4.3 1.2-7.5 5.2-7.5 10 0 2.1.6 4.2 1.8 5.7l-4.2 4.3 1.9 1.9 4.1-4.2c1.8 1.7 4.1 2.6 6.7 2.6 5.6 0 10.2-4.6 10.2-10.3 0-2.6-.9-5-2.6-6.8l3.6-3.9z"/></svg><svg width="39" height="42" viewBox="-2 -2 39 42" x="381" y="210"><path fill="#FFF" d="M34.2 12.8C32.2 5.8 25.7.5 18.6 0h-2C8.4.4 1.1 7.2.3 15.6-.2 21 .1 26.5 0 31.9h6.5V38h4.7v-1.8h1.5V38h4.1v-1.8h1.5V38h4.1v-1.8h1.5V38h4.6v-6.5h6.4c-.2-6.2.7-12.6-.7-18.7zm-8 15.6c-3.5 3.8-9.3 5.1-14 3-4.1-1.9-7-6.3-6.9-10.8 0-3.6 1.8-6.9 4.4-9 3.3-2.6 8.1-2.9 11.6-.8 4 2.3 6 7.4 4.6 11.8-1.1 3.7-4.6 6.5-8.4 6.6-2.3.2-4.6-.7-6.4-2-2.7-2.5-3.6-6.5-2.5-10-2.6 5.5 2 12.7 7.9 12.8 5.3.6 10.3-3.7 11-8.9.6-4.6-1.5-9.5-5.1-12.2-2.7-2.1-6.3-2.5-9.7-2.1 2.1-1.2 4.7-1 7-.5 4.8 1.3 8.6 5.5 9.7 10.3.8 3.9-.2 8.7-3.2 11.8zM11 22.8c-.5-2-.6-4.4.8-6.1 2.2-2.6 6.9-2.3 8.5.8 1.4 2.3.6 6.3-2.5 6.4-2.5.5-4.3-2.1-4-4.5 0-1.7 1.5-2.5 2.5-3.4-2.7.4-5.1 3-4.6 5.8.4 3.3 4.2 5.7 7.1 4.2.5-.1.9-.4 1.4-.5-2.8 2.6-7.8.9-9.2-2.7z"/></svg><svg width="39" height="42" viewBox="-2 -2 39 42" x="381" y="252"><path fill="#FFF" d="M34.2 12.8C32.2 5.8 25.7.5 18.6 0h-2C8.4.4 1.1 7.2.3 15.6-.2 21 .1 26.5 0 31.9h6.5V38h4.7v-1.8h1.5V38h4.1v-1.8h1.5V38h4.1v-1.8h1.5V38h4.6v-6.5h6.4c-.2-6.2.7-12.6-.7-18.7zm-21.6 9.1L6 28.6v-6.3l6.7-6.8v6.4zm4.5-11.8l-4.4 4.5H6.4L17.1 3.8v6.3zm12 12.6L18 34v-6.3l11.1-11.3v6.3zm-.5-7.1L18 26.4v-6.2l4.4-4.5.5-.5-.5-.5-4.4-4.5V3.8l10.6 10.8.5.5-.5.5z"/></svg><svg width="39" height="42" viewBox="-2 -2 39 42" x="381" y="294"><path fill="#FFF" d="M34.2 12.8C32.2 5.8 25.7.5 18.6 0h-2C8.4.4 1.1 7.2.3 15.6-.2 21 .1 26.5 0 31.9h6.5V38h4.7v-1.8h1.5V38h4.1v-1.8h1.5V38h4.1v-1.8h1.5V38h4.6v-6.5h6.4c-.2-6.2.7-12.6-.7-18.7zM27 11.3c0 .5-.1.9-.1 1.4v1.1c-.2.2-.5.4-.7.6v.8c-.2 1.3-1.9 2.1-2.7 3.2-.1.7 0 1.4-.1 2.1h-.6c-.2-1.8-1.6-3.1-2.3-4.8.5-.1.9 0 1.4-.2.9-.5 1.4-1.4.5-2.1-.8.1-1.8.2-2.6.5-1.1 1.2-1.6 2.8-3.2 3.7-2 3.8-3.6 7.7-5.5 11.6-.1.2-.1.5 0 .7.7 1.4-.8 1.8-1.6 2.5-.2.2-.5.5-.8.4 0-.2 0-.6-.1-.8-.1-.4-.1-.7-.1-1.1V30c.4-.2.7-.4 1.1-.6 1.8-3.7 3.5-7.4 5.1-11 .6-.7-.6-1.8.4-2.1.7-.2.4-1.1.5-1.7 0-.9.4-1.9 0-2.7-.8-.8-1.9-1.7-2.7-2.5-.1-.2-.5-.1-.7 0-.4.1-.7.1-.9-.1.2-.5.7-.7 1.1-1.1 1.6.1 3-1 4.6-1.2h.9c.2.7.4 1.4.7 2 .5-.4 1.1-.7 1.4-1.3-.4-.2-.8-.1-.6-.6 1.1-.5 2.1-1.1 3.3-1.4h1.5c.9.8 1.5 2.3 2.5 3.2-.1.1.3 0 .5 0h1.5c-.4.7-1.8 1.2-1.7 2.4z"/></svg><svg width="86" height="86" viewBox="-2 -2 86 86" y="238"><path fill="#7D6D70" d="M62.6 23.4L41 1.8c-6.2 6.1-12.3 12.3-18.5 18.5L1.8 41l18.5 18.5L41 80.2l18.6-18.6L80.2 41 62.6 23.4z"/><path fill="#FFF" d="M78.7 37.7C66.1 25.1 53.6 12.5 41 0L8.6 32.4 0 41l41 41 41-41-3.3-3.3zM59.6 61.6L41 80.2 20.3 59.5 1.8 41l20.7-20.7C28.7 14.1 34.8 7.9 41 1.8l21.6 21.6L80.2 41c-6.9 6.9-13.8 13.7-20.6 20.6zM40.7 18.8h.7v6.8c1.8 1.2 3.7 2.3 5.5 3.5-.1.2-.2.4-.4.6-1.8-1.1-3.7-2.3-5.5-3.5-1.8 1.1-3.7 2.3-5.5 3.5-.1-.2-.2-.4-.4-.6 1.8-1.2 3.7-2.3 5.6-3.5v-6.8zm-14.5 7.4h.7V33c1.8 1.1 3.7 2.3 5.5 3.5l-.3.6c-1.8-1.1-3.6-2.2-5.4-3.4-.1-.1-.3 0-.4.1-1.8 1.1-3.5 2.2-5.3 3.3-.1-.2-.2-.4-.4-.6 1.9-1.2 3.7-2.3 5.6-3.5.1-2.3 0-4.5 0-6.8zm28.9 0h.7V33c1.8 1.1 3.7 2.3 5.5 3.5-.1.2-.2.4-.4.6-1.5-1-3.1-1.9-4.6-2.9-.3-.2-.6-.4-.9-.5-1.9 1.1-3.7 2.3-5.5 3.4l-.3-.6c1.9-1.2 3.7-2.3 5.6-3.5-.1-2.3-.1-4.6-.1-6.8zm-14.4 8.4c0-.4.4-.2.7-.2v6.8c1.8 1.2 3.7 2.3 5.5 3.5l-.3.6c-1.9-1.1-3.7-2.3-5.5-3.5-1.9 1.1-3.7 2.3-5.5 3.5l-.3-.6c1.9-1.2 3.7-2.3 5.6-3.5-.2-2.2-.2-4.4-.2-6.6zm-14.5 7.1h.7v6.8c1.8 1.2 3.7 2.3 5.5 3.5-.1.2-.2.4-.3.5-1.9-1.1-3.7-2.3-5.5-3.4-.3.1-.5.3-.8.5-1.6 1-3.1 2-4.7 2.9-.1-.2-.2-.4-.3-.5 1.8-1.2 3.7-2.3 5.6-3.5-.2-2.3-.2-4.5-.2-6.8zm28.9 0h.7v6.8c1.8 1.2 3.7 2.3 5.5 3.5-.1.2-.2.4-.3.5-1.4-.8-2.7-1.7-4.1-2.6-.5-.3-.9-.6-1.4-.9-1.9 1.1-3.7 2.3-5.5 3.4-.1-.2-.2-.4-.3-.5 1.8-1.2 3.7-2.3 5.6-3.5-.2-2.2-.2-4.4-.2-6.7zm-14.4 8.2h.7v6.8c1.8 1.1 3.7 2.3 5.5 3.4l-.3.6c-1.9-1.1-3.7-2.3-5.5-3.5-1.9 1.1-3.7 2.3-5.5 3.5l-.3-.6c1.9-1.2 3.7-2.3 5.6-3.5-.2-2.1-.2-4.4-.2-6.7z"/></svg><svg width="54" height="52" viewBox="-2 -2 54 52" x="184" y="142"><path fill="#515251" d="M25 48L0 24 25 0l25 24z"/><path d="M25 37L11.4 24 25 11l13.6 13z"/><path fill="#FFF" d="M25 35.5L13 24l12-11.5L37 24z"/></svg><svg width="102" height="96" viewBox="-2 -2 102 96" y="142"><path fill="#7d6d70" d="M67.9 25.7l20 20.3-20 20.3c-.3-.7-.6-1.4-.9-2 4.7-4.6 7.5-11.1 7.6-17.7.8-.2 1.7-.3 2.5-.5.3.1.3-.3 0-.4-.8-.2-1.7-.3-2.5-.5-.2-6.5-2.9-12.9-7.5-17.6.2-.6.5-1.3.8-1.9zM23.4 46.6c-.8-.2-1.7-.3-2.5-.5-.2 0-.3-.4 0-.5.8-.2 1.7-.3 2.5-.5.2-6.6 2.9-13 7.5-17.6-.2-.5-.4-.9-.6-1.4-6.6 6.7-13.1 13.3-19.7 19.9 6.6 6.6 13.1 13.3 19.7 19.9.2-.5.5-1.1.7-1.6-4.7-4.6-7.4-11.1-7.6-17.7zm24.9-26.7c.2-.9.2-1.8.5-2.6h.4c.2.8.3 1.7.5 2.6 5.6.2 11.1 2.2 15.4 5.8.7-.3 1.3-.6 2-.9-5.9-6-11.8-12-17.8-17.9-6 6-12 12.1-17.9 18.1.5.2 1 .5 1.5.7 4.3-3.6 9.8-5.7 15.4-5.8zm16.5 46.4c-4.3 3.4-9.7 5.3-15.1 5.5-.2.8-.2 1.8-.5 2.6h-.4c-.3-.8-.3-1.8-.6-2.6-5.4-.2-10.8-2.1-15-5.5-.5.3-1.1.5-1.7.8 5.9 6 11.9 12 17.8 18 5.9-5.9 11.8-11.9 17.6-17.8-.7-.4-1.4-.7-2.1-1z"/><path fill="#fff" d="M37.9 82c1.8 3 2.1 6.6 2.4 10-1.3-1.3-2.6-2.6-4-3.8-1.2-1.1-2.3-2.4-2.8-4-.6-2-.6-4.2-.6-6.4 1.7 1.3 3.8 2.3 5 4.2zm-8.8-7.8c-1.8-1.7-3.5-3.5-5.3-5.3L1.2 46l26.4-26.7c1-1 2.2-1.8 2.8-3.2.9-2.1.7-4.3.5-6.5l-2.1 2.7c-.6.8-1.2 1.7-1.3 2.7-.2 1 0 2 .1 3-.2.3-.4.5-.6.7L0 46c9.2 9.3 18.4 18.6 27.5 27.9.1.8-.2 1.5-.1 2.3 0 1.2.5 2.3 1.2 3.2.8 1 1.6 2 2.3 3 .1-1.7.3-3.4-.1-5.1-.3-1.2-.8-2.3-1.7-3.1zm36.1-60c-.1-2.1 0-4.3-.6-6.4-.5-1.6-1.6-2.9-2.8-4-1.4-1.3-2.7-2.5-4-3.8.2 3.4.5 7 2.4 10 1.2 1.9 3.3 2.9 5 4.2zM38.9 7.9c.9-2.5 1.1-5.2 1.3-7.9-.9 1-1.9 1.9-2.9 2.8-1.5 1.4-3.1 2.7-3.8 4.8-.7 2.1-.6 4.4-.7 6.6 1-.6 2-1.3 3-2 1.5-1.1 2.5-2.6 3.1-4.3zM62 33c-1.8.2-3.3 1.4-4.6 2.6-2.8 2.8-5.6 5.7-8.4 8.5-2.9-3-5.9-6-8.8-8.9-1.2-1.1-2.6-2.1-4.2-2.2.1 2.5 2.2 4.2 4 5.7 2.3 2.4 4.7 4.8 7.1 7.2-1.2 1.3-2.5 2.6-3.8 3.9-.7-.2-1-.8-1.5-1.2-.3-.2-.1-.6-.2-.9l-.6-.6-1.5 1.5.7.7c.3.1.6 0 .8.2l1.6 1.6c-.1.5-.4.9-.7 1.3-1.1 1.5-2.5 2.7-3.7 4l-.5-.5c-.4.5-.8.9-1.2 1.3.4.4.5 1 .4 1.5.5-.1 1 0 1.4.3l1.2-1.2-.5-.5 3-3c.7-.5 1.3-1.2 2.2-1.4.5.6 1 1.1 1.5 1.6.2.2.1.6.2.9l.6.6 1.5-1.5-.6-.6c-.3 0-.6.1-.8 0-.6-.4-1.1-.9-1.4-1.6 1.2-1.3 2.5-2.6 3.8-3.9 1.2 1.3 2.5 2.6 3.8 3.9-.2.6-.7 1-1.2 1.5-.2.2-.6.1-.9.1l-.6.6 1.5 1.5.6-.6c0-.3 0-.6.1-.8.5-.6 1.1-1.1 1.6-1.7.9.2 1.5.9 2.2 1.4l3 3-.5.5 1.2 1.2c.4-.3.9-.4 1.4-.3-.1-.5.1-1.1.4-1.5L60.4 56l-.5.5-3-3c-.5-.7-1.2-1.3-1.4-2.2.6-.5 1.1-1.1 1.6-1.6.2-.3.5-.2.8-.2l.7-.7-1.5-1.5-.6.6c0 .3.1.7-.1.9-.5.4-.9 1-1.5 1.2-1.2-1.3-2.5-2.6-3.8-3.9 2.4-2.4 4.8-4.9 7.2-7.3 1.6-1.6 3.5-3.3 3.7-5.8zm36 13c-9.2-9.3-18.4-18.6-27.6-28 .2-1.6.4-3.3-.5-4.7-.8-1.3-1.9-2.5-2.8-3.8-.2 1.7-.3 3.4 0 5 .2 1.3.8 2.5 1.7 3.3 1.9 1.7 3.6 3.5 5.3 5.2 7.5 7.7 15.1 15.3 22.7 23-8.8 8.9-17.6 17.8-26.4 26.6-.9 1-2.2 1.8-2.8 3.2-.9 2-.7 4.3-.5 6.5.5-.8 1.1-1.6 1.7-2.3.7-.8 1.3-1.6 1.6-2.6.3-1.1.1-2.3 0-3.5L98 46zM60.1 82c-1.8 3-2.1 6.6-2.4 10 1.3-1.3 2.6-2.5 3.9-3.7 1.1-1 2.2-2.1 2.7-3.5.8-2.3.7-4.7.8-7-1.7 1.3-3.8 2.3-5 4.2zm30.3-36C76.7 59.8 63 73.7 49.3 87.6 35.6 73.7 21.9 59.8 8.2 46 21.9 32.1 35.6 18.3 49.3 4.4 63 18.3 76.7 32.1 90.4 46zM67.9 66.3l20-20.3c-6.7-6.8-13.3-13.6-20-20.3-.3.6-.6 1.3-.8 1.9 4.6 4.7 7.3 11.1 7.5 17.6.8.2 1.7.3 2.5.5.3.1.3.5 0 .4-.8.2-1.7.3-2.5.5-.1 6.6-2.9 13.1-7.6 17.7.3.7.6 1.3.9 2zm2.5-21.6c-.4-5.4-2.8-10.6-6.7-14.3-.6.4-1.3.9-2 1.3-.1 0-.2-.1-.3-.1v-.2c.4-.8.9-1.4 1.3-2.1-3.8-3.2-8.7-5-13.7-5s-9.9 1.8-13.7 5c.4.7.9 1.4 1.3 2.1 0 .1-.1.2-.2.3-.8-.4-1.5-1-2.2-1.4-4.4 4.1-6.9 10.2-6.7 16.3.2 5.8 2.8 11.5 7 15.4.7-.4 1.2-.9 1.9-1.2 0 .1.1.2.2.3-.3.6-.7 1.2-1.1 1.8 3.6 3 8.3 4.7 13.1 4.8 5 .1 10-1.6 13.9-4.6-.3-.5-.6-.9-.9-1.4-.2-.2-.4-.6 0-.7.7.3 1.3.8 1.9 1.2 4.7-4.4 7.4-11 6.9-17.5zm-7.4 19c-3.6 2.9-8.1 4.6-12.7 4.9-.1.7-.3 1.4-.4 2.1 5.2-.1 10.2-2 14.2-5.3-.3-.6-.7-1.1-1.1-1.7zm-15.4 4.9c-4.6-.2-9.1-2-12.7-4.9-.4.5-.7 1.1-1.1 1.7 4.1 3.3 9.1 5.2 14.2 5.3-.1-.7-.3-1.4-.4-2.1zM24.5 46.9c.2 6.3 2.9 12.4 7.4 16.8.6-.4 1.2-.8 1.7-1.2-4.1-3.9-6.7-9.5-7-15.2-.7-.1-1.4-.3-2.1-.4zm2.1-2.3c.3-5.6 2.8-11 6.8-14.9l-1.8-1.2c-4.3 4.4-6.9 10.4-7.1 16.5.7-.1 1.4-.3 2.1-.4zm8.2-16.2c3.6-3 8.2-4.9 12.9-5.1.1-.7.3-1.4.4-2.1-5.3.2-10.4 2.1-14.4 5.5.3.5.7 1.1 1.1 1.7zm15.5-5.1c4.7.3 9.3 2.1 12.9 5.1.4-.5.7-1.1 1.1-1.7-4-3.4-9.1-5.3-14.4-5.5.1.7.3 1.4.4 2.1zm21.1 21.3c.7.2 1.4.3 2.1.4-.2-6.1-2.8-12.1-7.1-16.5l-1.8 1.2c4 3.9 6.5 9.3 6.8 14.9zm-7.1 17.9l1.8 1.2c4.5-4.4 7.2-10.5 7.3-16.8-.7.1-1.4.3-2.1.4-.3 5.7-2.8 11.3-7 15.2zM31.4 25c.5.2 1 .5 1.5.7 4.3-3.6 9.8-5.7 15.4-5.8.2-.9.2-1.8.5-2.6h.4c.2.8.3 1.7.5 2.6 5.6.2 11.1 2.2 15.4 5.8.7-.3 1.3-.6 2-.9-5.9-6-11.8-12-17.8-17.9-6 6-12 12.1-17.9 18.1zm-1.1 40.9c.2-.5.5-1.1.7-1.6-4.7-4.6-7.4-11.1-7.6-17.7-.8-.2-1.7-.3-2.5-.5-.2 0-.3-.4 0-.5.8-.2 1.7-.3 2.5-.5.2-6.6 2.9-13 7.5-17.6-.2-.5-.4-.9-.6-1.4-6.6 6.7-13.1 13.3-19.7 19.9 6.6 6.6 13.1 13.3 19.7 19.9zm36.6 1.4c-.7-.3-1.4-.7-2.1-1-4.3 3.4-9.7 5.3-15.1 5.5-.2.8-.2 1.8-.5 2.6h-.4c-.3-.8-.3-1.8-.6-2.6-5.4-.2-10.8-2.1-15-5.5-.5.3-1.1.5-1.7.8 5.9 6 11.9 12 17.8 18 5.9-5.9 11.8-11.9 17.6-17.8z"/></svg><svg width="82" height="96" viewBox="-2 -2 82 96" x="102" y="142"><path fill="#7d6d70" d="M39 7.9C28 14.2 17.1 20.6 6.2 27v38.2C17.1 71.5 28 77.9 39 84.2c11-6.4 21.9-12.7 32.9-19.1V26.9c-11-6.3-22-12.7-32.9-19zm18.5 53.6c0 2.6-2.1 4.5-4 6-4.4 3.4-9.5 5.9-14.5 8.2-5.1-2.3-10.3-4.8-14.7-8.3-1.8-1.5-3.7-3.3-3.8-5.8v-38h37v37.9z"/><path fill="#fff" d="M22.4 4.4c1.9-1.6 4.1-2.8 6-4.4-.7 3.2-1.4 6.5-3.5 9.1-1.4 1.8-3.6 2.5-5.5 3.5.5-2.8.7-6.2 3-8.2zM49.6 0c1.9 1.5 4.1 2.7 5.9 4.3 2.3 2.1 2.6 5.4 3.1 8.3-2-1-4.2-1.8-5.6-3.6-2-2.6-2.7-5.9-3.4-9zM39 6.1c-11.5 6.7-22.9 13.3-34.4 20v40C16.1 72.7 27.5 79.3 39 86c11.4-6.7 22.9-13.3 34.3-20V26.1C61.9 19.4 50.5 12.8 39 6.1zm32.8 59C60.9 71.5 50 77.9 39 84.2 28 77.9 17.1 71.5 6.2 65.1V26.9C17.1 20.6 28 14.2 39 7.9 49.9 14.2 60.9 20.6 71.8 27v38.1zm-58-50.5c.1-2.8 2.3-4.5 4.4-5.9-.5 2.1-.8 4.8-3 5.9C10.3 17.3 5.5 20.2.7 23v46.1c4.9 2.9 9.9 5.7 14.8 8.5 2 1.2 2.2 3.7 2.7 5.7-2.1-1.4-4.4-3-4.4-5.8-4.5-2.6-9.2-5.3-13.8-8V22.6c4.6-2.7 9.2-5.4 13.8-8zm46-5.9c2.1 1.4 4.4 3.1 4.4 5.8 4.6 2.7 9.2 5.4 13.9 8v46.9c-4.6 2.7-9.3 5.3-13.9 8.1 0 2.8-2.3 4.5-4.4 5.8.5-2.1.8-4.8 3-5.9 4.9-2.7 9.7-5.6 14.5-8.4V22.9c-4.9-2.8-9.8-5.7-14.7-8.5-2.1-1-2.3-3.6-2.8-5.7zm-39.3 15v38c0 2.5 2 4.3 3.8 5.8 4.4 3.5 9.6 6 14.7 8.3 5.1-2.3 10.1-4.8 14.5-8.2 1.9-1.5 4-3.4 4-6V23.8c-12.3-.1-24.7-.1-37-.1zm35.6 37.8c0 2-1.7 3.4-3.1 4.7-4.2 3.3-9.1 5.7-13.9 8-4.8-2.2-9.5-4.5-13.6-7.7-1.7-1.4-3.7-3.1-3.4-5.6V25.2h34.1c-.1 12-.1 24.2-.1 36.3zM23.6 26.7h30.7v4.4H23.6v-4.4zm0 7.3v27h30.7V34H23.6zm26.9 2.6c-2.4 3-4.7 6.1-7.1 9.1-1.5-1.9-2.9-3.8-4.4-5.6-1.5 1.9-2.9 3.8-4.4 5.6-2.4-3-4.7-6.1-7.1-9.1h23zm-7.8 11c-1.2 1.6-2.5 3.2-3.7 4.8-1.3-1.6-2.5-3.2-3.7-4.8 1.3-1.6 2.5-3.2 3.7-4.8 1.3 1.5 2.5 3.1 3.7 4.8zM27.5 58.5c2.4-3 4.7-6.1 7.1-9.1 1.5 1.9 2.9 3.8 4.4 5.6 1.5-1.9 2.9-3.8 4.4-5.6 2.4 3 4.7 6.1 7.1 9.1h-23zM25 64.1c9.3-.1 18.6 0 28 0-4 3.8-9 6.2-14 8.5-4.9-2.3-10-4.7-14-8.5zm-5.6 15.4c1.9 1 4 1.7 5.4 3.4 2.1 2.6 2.9 5.9 3.5 9.1-2-1.5-4.2-2.7-6.1-4.4-2.1-2.1-2.3-5.3-2.8-8.1zM53.1 83c1.4-1.8 3.6-2.5 5.5-3.5-.5 2.8-.7 6.1-3 8.2-1.9 1.6-4 2.9-6 4.3.7-3.1 1.4-6.4 3.5-9z"/></svg></svg>