<svg width="369" height="349" viewBox="0 0 369 349" xmlns="http://www.w3.org/2000/svg" xmlns:xlink="http://www.w3.org/1999/xlink"><svg width="102" height="96" viewBox="-2 -2 102 96"><path fill="#7d6d70" d="M49.3 6.9c-12.9 13-25.8 26-38.7 39.1 12.9 13 25.8 26.1 38.7 39.1C62.2 72.1 75.1 59 87.9 46 75 32.9 62.2 19.9 49.3 6.9z"/><path fill="#fff" d="M36.9 3.2c1.2-1 2.3-2.1 3.4-3.2-.2 2.6-.4 5.3-1.3 7.8-.6 1.7-1.6 3.3-3.1 4.3l-3 2.1c.1-2.2 0-4.6.7-6.7.6-1.8 1.9-3.1 3.3-4.3zM57.7 0c1.2 1.2 2.5 2.4 3.7 3.6 1.2 1.1 2.5 2.4 3 4 .7 2.1.6 4.4.7 6.6-1.1-.8-2.2-1.5-3.3-2.3-2-1.6-2.9-4.1-3.4-6.5-.4-1.8-.5-3.6-.7-5.4zm-8.4 4.4C35.6 18.3 21.9 32.1 8.2 46c13.7 13.8 27.4 27.7 41.1 41.6C63 73.7 76.7 59.8 90.4 46 76.7 32.1 63 18.3 49.3 4.4zM10.6 46C23.5 33 36.4 19.9 49.3 6.9c12.9 13 25.7 26 38.6 39.1-12.8 13-25.7 26.1-38.6 39.1C36.4 72.1 23.5 59 10.6 46zM29 12.2c.7-.8 1.3-1.7 2-2.6.2 2.2.4 4.5-.5 6.6-.6 1.3-1.7 2-2.7 3C18.9 28.1 10 37.1 1.2 46c7.4 7.5 14.9 15 22.3 22.5 1.9 1.9 3.8 3.9 5.8 5.8 1 .9 1.5 2.2 1.6 3.5.2 1.5.1 3.1 0 4.6-.6-.9-1.3-1.7-1.9-2.6-.6-.8-1.2-1.6-1.4-2.6-.2-1.1-.1-2.2.1-3.3C18.4 64.6 9.2 55.3 0 46l27.6-27.9c-.1-1.1-.3-2.2-.1-3.3.3-1 .8-1.9 1.5-2.6zm38.1-2.6c.6.8 1.2 1.7 1.9 2.5.6.8 1.2 1.6 1.5 2.6.3 1.1.1 2.3 0 3.4C79.6 27.4 88.8 36.7 98 46L70.4 73.9c.1 1.1.3 2.2.1 3.3-.2 1-.8 1.8-1.4 2.6-.7.8-1.3 1.7-2 2.6-.2-2.2-.4-4.5.5-6.6.6-1.3 1.7-2 2.7-3L96.8 46C88.9 38 81 30 73 22c-1.4-1.4-2.8-2.9-4.2-4.2-1-.9-1.5-2.1-1.7-3.4-.3-1.6-.1-3.2 0-4.8zm-36.5 18c2.3.1 4.3 1.6 6 3.1 4.3 4.2 8.5 8.4 12.8 12.5 4.3-4.2 8.5-8.4 12.8-12.6 1.6-1.5 3.6-2.9 5.9-3 .1 1.2-.5 2.3-1 3.3-.7 1.2-1.7 2.4-2.7 3.4-4 3.9-8 7.9-12 11.8 2 2 4 3.9 6 5.9.3-.1.7-.1.9-.4.5-.5 1-.9 1.4-1.4.1-.3 0-.7 0-1l.9-.9 2.1 2.1-.9.9c-.4 0-.8-.1-1.1.2-.8.7-1.5 1.5-2.3 2.2.3 1.2 1.3 1.9 1.9 2.9 1.4 1.5 2.9 2.9 4.4 4.3.2-.2.5-.4.7-.7l1.7 1.7c-.5.6-.7 1.3-.5 2.1-.7-.1-1.5 0-2 .5-.6-.6-1.2-1.1-1.8-1.7l.7-.7c-1.4-1.3-2.7-2.7-4.1-4-.4-.4-.9-.6-1.2-.9-.6-.5-1.2-1-2-1.2-.8.7-1.5 1.5-2.3 2.2-.3.3-.2.7-.2 1.1l-.9.9c-.7-.7-1.4-1.4-2.2-2.1l.9-.9c.4 0 .9.2 1.2-.2.6-.7 1.5-1.2 1.8-2.2-2-2-4-3.9-6-5.9-2 2-4 4-6.1 6 .1.3.2.6.4.8.5.5 1 1 1.6 1.4h1l.9.9-2.1 2.1-.9-.9c0-.4.1-.8-.2-1.1-.7-.8-1.5-1.5-2.3-2.2-1.2.3-2 1.3-3 1.9-1.5 1.4-2.9 2.9-4.4 4.3.2.2.5.4.7.7-.6.6-1.2 1.2-1.8 1.7-.6-.5-1.3-.7-2.1-.5.1-.7 0-1.4-.5-2l1.7-1.7c.2.2.5.4.7.7 1.5-1.4 2.9-2.9 4.4-4.3.6-1 1.7-1.7 1.9-2.9-.7-.8-1.5-1.5-2.2-2.2-.3-.3-.8-.2-1.1-.2l-.9-.9 2.1-2.1.9.9c0 .4-.2.9.1 1.2.7.7 1.3 1.5 2.2 1.8 2-2 4-4 6-5.9-4.3-4.2-8.6-8.4-12.9-12.7-1.5-2-3-3.9-3-6.1zm2.3 50.2c1.8 1.3 3.9 2.3 5 4.2 1.8 3 2.1 6.6 2.4 9.9-1.2-1.2-2.5-2.4-3.7-3.6-1.2-1.1-2.5-2.4-3-4-.7-2-.6-4.3-.7-6.5zm28.6 2.6c1.1-.9 2.4-1.7 3.6-2.5-.1 2.5.1 5.1-1 7.4-.6 1.4-1.7 2.4-2.8 3.4-1.2 1.1-2.4 2.2-3.6 3.4.2-2.4.4-4.9 1.1-7.3.6-1.7 1.4-3.3 2.7-4.4z"/></svg><svg width="93" height="96" viewBox="-2 -2 93 96" x="204"><path fill="#7d6d70" d="M65.5 16.7c-7.8-5.6-17.8-7.9-27.3-6.2-14.5 2.4-26.7 14.6-29.2 29-2 10.9 1.3 22.7 8.9 30.8C25 78.1 35.6 82.5 46.2 82c10.2-.4 20-5.5 26.4-13.4 6-7.3 8.9-17.1 7.8-26.5-1.1-10.1-6.7-19.5-14.9-25.4z"/><path fill="#fff" d="M26.4 2.6c1.6-1 3.3-1.7 5-2.6-1.2 3.9-3.7 8-8.2 8.5.8-2.1 1.2-4.6 3.2-5.9zM57.7 0c1.7.9 3.4 1.6 5.1 2.6 1.9 1.3 2.4 3.8 3.1 5.8-4.6-.4-7-4.5-8.2-8.4zM22.8 1.8c-.7 3.8-1.4 7.8-4 10.8-1.5 1.7-3.7 2.4-5.6 3.6C1.1 28.4-2.2 48.2 5 63.7 7 68 9.6 72 12.8 75.4c1.9 1.5 4.5 2 6 4 2.6 3 3.3 7 4 10.8-2.1-1.8-4.5-3.2-6.6-5.1-2.1-1.9-2.5-4.8-2.9-7.4C4.7 69.3-.3 57.3 0 45.3c.1-11.5 5.1-22.8 13.3-30.9.4-2.6.8-5.5 2.9-7.4 2-1.9 4.5-3.4 6.6-5.2zm43.4 0c2.2 1.8 4.6 3.3 6.7 5.2 2 1.9 2.4 4.7 2.8 7.3 8.2 8.1 13.2 19.4 13.3 30.9.3 12.1-4.7 24-13.3 32.5-.4 2.6-.8 5.4-2.8 7.2-2.1 1.9-4.6 3.4-6.7 5.2.7-3.8 1.5-7.9 4.1-10.9 1.8-2.2 5.1-2.5 6.9-4.9 6.5-7.4 10.4-17.1 10.6-27C88.2 36 84 24.7 76.3 16.5c-1.8-1.6-4.4-2.1-6-4-2.7-2.8-3.4-6.9-4.1-10.7zM81.9 39C80 28.5 73.3 19 64.1 13.5 55.8 8.3 45.3 6.7 35.8 9c-8.4 2-16.1 7-21.4 13.8-6.1 7.8-8.9 18-7.6 27.7C8 60.7 13.6 70.3 21.9 76.4c8.2 6.2 18.9 8.8 29 7 10.3-1.7 19.8-7.9 25.5-16.7 5.3-8 7.3-18.2 5.5-27.7zm-9.3 29.6c-6.4 7.9-16.2 13-26.4 13.4-10.6.5-21.2-3.9-28.3-11.7C10.3 62.2 7 50.4 9 39.5c2.5-14.5 14.6-26.6 29.1-29 9.4-1.7 19.5.6 27.3 6.2 8.3 5.9 13.8 15.3 14.9 25.4 1.1 9.4-1.7 19.1-7.7 26.5zM27.3 29.1h16.9c-2.8 4.2-5.6 8.4-8.4 12.7-2.9-4.2-5.7-8.5-8.5-12.7zm17.5 0h16.9c-2.8 4.2-5.6 8.5-8.4 12.7-2.9-4.2-5.7-8.5-8.5-12.7zm-7 16.9c2.2-3.4 4.5-6.7 6.7-10.1 2.3 3.4 4.5 6.7 6.7 10.1-2.2 3.4-4.5 6.7-6.7 10.1-2.3-3.4-4.5-6.7-6.7-10.1zM27.3 62.9c2.8-4.2 5.6-8.5 8.4-12.7 2.8 4.2 5.6 8.4 8.4 12.7H27.3zm25.9-12.7c2.8 4.2 5.6 8.4 8.4 12.7H44.7c2.9-4.2 5.7-8.5 8.5-12.7zm-30 33.3c4.5.5 7 4.5 8.2 8.5-1.7-.9-3.4-1.6-5-2.6-2-1.3-2.4-3.8-3.2-5.9zM57.7 92c1.2-3.9 3.7-8 8.2-8.5-.7 2.1-1.2 4.6-3.2 5.8-1.6 1.1-3.4 1.8-5 2.7z"/></svg><svg width="82" height="96" viewBox="-2 -2 82 96" y="96"><path fill="#fff" d="M19.4 12.5c.5-2.8.7-6.1 3-8.2 1.9-1.6 4-2.9 6-4.4-.8 3.2-1.5 6.5-3.6 9.1-1.3 1.8-3.5 2.6-5.4 3.5zm0 66.9c.5 2.7.7 5.9 2.8 8 1.9 1.8 4.2 3 6.3 4.6-.7-3.1-1.4-6.3-3.4-8.9-1.5-1.9-3.8-2.7-5.7-3.7zm39.1-66.8c-.6-2.8-.7-6.1-3-8.2-1.9-1.7-4-3-6-4.5.7 3.1 1.4 6.5 3.6 9.1 1.3 1.8 3.6 2.6 5.4 3.6zM15.1 77.3C10.3 74.6 5.5 71.8.7 69V22.9c4.9-2.9 9.8-5.7 14.8-8.5 2-1.2 2.2-3.8 2.8-5.8-2.2 1.3-4.3 3.1-4.5 5.9-4.6 2.7-9.2 5.3-13.8 8v46.8c4.6 2.7 9.2 5.3 13.8 8 .1 2.7 2.3 4.5 4.5 5.9-.6-2-.9-4.8-3.2-5.9zm62.8-54.7c-4.5-2.7-9.2-5.3-13.8-8-.2-2.7-2.3-4.5-4.5-5.9.6 2 .8 4.7 2.9 5.8 4.9 2.8 9.8 5.6 14.7 8.5v46c-4.8 2.8-9.6 5.6-14.5 8.3-2.2 1.1-2.5 3.8-3.1 5.9 2.2-1.4 4.3-3.1 4.5-5.9 4.6-2.7 9.2-5.3 13.8-8V22.6zm-25 60.5c-2 2.6-2.6 5.8-3.4 8.9 2.1-1.6 4.3-2.8 6.3-4.6 2.1-2.1 2.2-5.3 2.8-8-2.1 1-4.3 1.8-5.7 3.7zM73.2 66c-11.4 6.7-22.9 13.3-34.3 20C27.5 79.2 16 72.6 4.6 66V26C16 19.3 27.5 12.7 38.9 6c11.4 6.7 22.9 13.3 34.3 20v40zM55.7 25.8H22.3v33.1c-.1 2.1 1.6 3.5 3 4.7 4.2 3.2 8.9 5.3 13.7 7.4 4.7-2.2 9.5-4.3 13.6-7.4 1.4-1.2 3.2-2.7 3.1-4.7V25.8zm-1.8 14.3V27.4H24v12.7c5-2.4 10-4.9 14.9-7.3l15 7.3zM26 62c3.8 3.3 8.5 5.3 13 7.3 4.5-2.1 9.2-4 13-7.3 1.3-1 1.8-2.4 2.1-3.9-5-2.5-10.1-5.1-15.2-7.6-5 2.5-10.1 5.1-15.1 7.6.4 1.6.9 3 2.2 3.9zm24-16l-1.1-2.3-1.2 2.3-2.6.3 1.9 1.8-.4 2.4 2.3-1.2 2.2 1.2-.4-2.4 1.9-1.8L50 46zm-20.2 0l-1.1-2.3-1.1 2.3-2.6.3 1.9 1.8-.4 2.4 2.3-1.2 2.2 1.2-.4-2.4 1.9-1.8-2.7-.3zm10.3-5.6l-1.2-2.2-1.1 2.2-2.5.4 1.9 1.7-.5 2.5 2.2-1.2 2.3 1.2-.4-2.5 1.9-1.7-2.6-.4z"/><path fill="#7d6d70" d="M38.9 7.9C28 14.2 17.1 20.6 6.1 26.9c0 12.8-.1 25.4.1 38.2 11 6.3 21.8 12.7 32.7 19 11-6.4 21.8-12.7 32.8-19.1V26.9c-10.9-6.3-21.8-12.7-32.8-19zm13.8 57c-4.3 3-9 5.2-13.8 7.3-4.9-2.2-9.8-4.4-14.2-7.6-1.8-1.4-3.9-3.3-3.7-5.8V24.6h35.8v34.2c.2 2.8-2.1 4.6-4.1 6.1z"/></svg><svg width="73" height="84" viewBox="-2 -2 73 84" x="73" y="192"><path fill="#7d6d70" d="M55.1 59.4l-.7-.6.8-1c.7-.1 1.3-.4 1.8-.9.3.3.6.7.8 1 .5.6.9 1 1.1 1.3 1.1 1.2 2.1 2.4 3 3.4l5.8-3.4V20.7L58 15c-1 1.1-2.4 2.6-3.4 3.8-.3-.1-.7-.2-1-.2l-2.2-1.4.1-.1c.8-.8 2.6-2.3 4-3.7l-21-12-20.9 12.1c.9.8 1.9 1.7 2.8 2.5l.1.1h-.1c-.3.2-.6.4-.8.7l-1.4 1.6-.7-.7c-.9-.9-1.7-1.8-2.5-2.6l-9.9 5.7v38.6L7 62.7c.9-1.1 1.9-2.2 3-3.4.3-.3 1-1.1 1.7-1.9l.5-.6 1 1.7c0 .4 0 .8.1 1.3-.8.7-1.3 1.2-1.5 1.3-1.1.9-2.1 1.8-3 2.6l25.6 14.9L60 63.7c-.9-.8-2-1.7-3-2.6-.2-.2-1-.9-1.9-1.7zm-4.9 4.1l-4.4 3.2c-.4.3-.9.5-1.5.5-.5 0-1.1-.2-1.5-.5-.2.1-.3.1-.5.2l-5.4.7h-.3c-.4.4-1 .6-1.7.6h-.3l-5.4-.6c-.8-.1-1.5-.6-1.9-1.2L22.5 65c-.2 0-.3-.1-.5-.2-.4.2-.8.3-1.2.3-.6 0-1.3-.2-1.7-.7l-4-3.7c-.7-.6-.9-1.6-.7-2.5l-2.6-4.3c-.1-.1-.1-.3-.2-.4-.8-.2-1.5-.7-1.8-1.5l-2.1-5c-.4-1-.2-1.9.3-2.6l-.6-5.1c0-.3 0-.5.1-.7-.7-.6-1-1.7-.7-2.6l1.6-5.2c.2-.8.9-1.4 1.6-1.7 0-.1.1-.3.1-.4l2.2-4.6c-.3-.8-.1-1.8.5-2.5l3.6-4.1c.5-.5 1.2-.9 1.9-.9.3 0 .7.1 1 .2.1-.1.3-.2.5-.3l4.4-1.6c.2-.9.9-1.6 1.9-1.8l5.3-1.2c.2 0 .4-.1.5-.1.7 0 1.4.3 1.8.8h.3l5.7.4c.2 0 .4.1.5.1.5-.4 1-.6 1.7-.6.4 0 .8.1 1.1.3l4.9 2.4c.8.4 1.4 1.3 1.4 2.1l3.9 2.4h.1c.8 0 1.6.4 2.1 1.1l3 4.5c.6.7.6 1.7.3 2.5l1.6 4.8c0 .1.1.3.1.4.7.4 1.3 1 1.4 1.9l.9 5.4c.1.7-.1 1.4-.4 1.9-.2.3-.5.5-.8.7.1.3.1.6 0 .9L60 48.6c.1.2.2.4.2.6.1.7 0 1.4-.4 1.9l-3 4.5c-.5.7-1.3 1.1-2.1 1.2 0 .1-.1.2-.2.3l-3.2 4c0 .9-.3 1.9-1.1 2.4z"/><path fill="#fff" d="M69 60V20l-10.2-5.9c.1-.1.1-.2.2-.2 6-6.7 9.8-11.6 9.8-11.7l-.1-.1s-4.9 3.8-11.6 9.8c-.2.2-.5.4-.8.7L34.5 0 12.7 12.6c-.1-.1-.3-.2-.4-.4l-.4-.3C5.2 5.9.3 2.1.3 2.1l-.1.1S4 7.1 10 13.9c.1.1.1.2.2.2L.3 19.9 0 20v40l6.2 3.6c-3.7 4.4-6 7.3-6 7.3l.1.1s3.1-2.4 7.7-6.4L34.5 80l26.6-15.4c4.6 4 7.6 6.3 7.7 6.4l.1-.1s-2.3-2.9-6-7.3l5.9-3.4.2-.2zm-1.2-.7L62 62.7c-.9-1.1-1.9-2.2-3-3.4-.2-.2-.6-.7-1.1-1.3-.3-.3-.6-.7-.8-1-.5.5-1.1.8-1.8.9l-.8 1 .7.6c.9.8 1.8 1.5 2 1.7 1.1.9 2.1 1.8 3 2.6L34.5 78.6 8.9 63.8c.9-.8 2-1.7 3-2.6.2-.1.7-.6 1.5-1.3-.1-.5-.2-.9-.1-1.3l-1-1.7-.5.6c-.8.8-1.5 1.6-1.7 1.9-1.1 1.2-2.1 2.4-3 3.4l-5.8-3.4V20.7L11 15c.7.8 1.6 1.7 2.5 2.6l.7.7 1.4-1.6c.2-.2.4-.4.8-.7h.1-.1c-.9-.8-1.9-1.7-2.8-2.5L34.5 1.4l20.9 12.1c-1.5 1.3-3.2 2.9-4 3.7l-.1.1 2.2 1.4c.3 0 .6.1 1 .2 1.1-1.2 2.4-2.6 3.4-3.8l9.8 5.7v38.5zM20 29.2c.1 0 2.7.2 2.7 2.4v18.7c-.1.1-.2.2-.2.4 0 .1 0 .2.1.2.4.3 1.5 1.8 1.5 2h.2c0-.1.6-.9.9-1.4.5-.6.6-.8.6-.9 0-.1-.1-.3-.2-.4V44h4.2v6.3c-.1.1-.2.2-.2.4 0 .1 0 .2.1.3.4.3 1.5 1.8 1.5 2h.1c0-.1.7-1.1 1.3-2 .2-.1.2-.2.2-.4 0-.1-.1-.3-.2-.4V44h4.2v6.3c-.1.1-.2.2-.2.4 0 .1 0 .2.1.3.4.3 1.5 1.8 1.5 2h.1c0-.1.5-.8.8-1.2.5-.8.7-1 .7-1.1 0-.1-.1-.3-.2-.4V44h4.2v6.3c-.1.1-.2.2-.2.4 0 .1 0 .2.1.3.4.3 1.5 1.8 1.5 2h.1c0-.1.5-.7.8-1.2.5-.8.7-1 .7-1.1 0-.1-.1-.3-.2-.4V31.6c0-2.2 2.6-2.4 2.7-2.4H49v-2.3H20v2.3zm19.3 0h4.2v5.1h-4.2v-5.1zm0 7.9h4.2v4.2h-4.2v-4.2zm-6.9-7.9h4.2v5.1h-4.2v-5.1zm0 7.9h4.2v4.2h-4.2v-4.2zm-2.7 4.2h-4.2v-4.2h4.2v4.2zm-4.2-12.1h4.2v5.1h-4.2v-5.1zm33-4l-3-4.5c-.5-.7-1.3-1.1-2.1-1.1h-.1l-3.9-2.4c-.1-.9-.6-1.7-1.4-2.1l-5-2.5c-.3-.2-.7-.3-1.1-.3-.6 0-1.2.2-1.7.6-.2-.1-.3-.1-.5-.1l-5.7-.4h-.3c-.5-.5-1.1-.8-1.8-.8-.2 0-.4 0-.5.1L26 13c-1 .2-1.7 1-1.9 1.8l-4.4 1.6c-.2.1-.3.2-.5.3-.3-.1-.6-.2-1-.2-.7 0-1.4.3-1.9.9l-3.6 4.1c-.6.7-.8 1.7-.5 2.5L10 28.6v.4c-.8.3-1.4.9-1.6 1.7l-1.6 5.2c-.3 1 0 2 .7 2.6-.1.2-.1.5-.1.7l.6 5.2c-.5.7-.7 1.7-.4 2.5l2.1 5c.3.8 1 1.3 1.8 1.5 0 .1.1.3.2.4l2.6 4.3c-.2.9 0 1.8.7 2.5l4 3.7c.5.4 1.1.7 1.7.7.4 0 .8-.1 1.2-.3.1.1.3.2.5.2l4.9 1.3c.4.6 1.1 1.1 1.9 1.2l5.4.6h.3c.6 0 1.2-.2 1.7-.6h.3l5.4-.7c.2 0 .4-.1.5-.2.4.3.9.5 1.5.5.5 0 1-.2 1.5-.5l4.4-3.2c.8-.6 1.1-1.5 1-2.3l3.2-4c.1-.1.1-.2.2-.3.9 0 1.6-.4 2.1-1.2l3-4.5c.4-.6.5-1.3.4-1.9 0-.2-.1-.4-.2-.6l1.5-4.8c.1-.3.1-.6 0-.9.3-.2.6-.4.8-.7.4-.5.6-1.2.4-1.9l-.9-5.4c-.1-.8-.7-1.5-1.4-1.9 0-.1 0-.3-.1-.4l-1.6-4.8c.4-.7.4-1.7-.1-2.5zm-6.1-2.8h.4c.4-.1.7-.3.9-.7.2-.3.2-.5.2-.8.2.1.5.3.6.5l3 4.5c.1.2.2.5.2.7-.4-.2-.8-.2-1.2-.1-.4.1-.7.4-.9.8-.1.2-.1.4-.2.6-.1-.1-.3-.2-.4-.4L52 23c-.1-.2-.2-.4-.2-.6h.6zm-11.2-7.8c0-.3 0-.5-.2-.8.2-.2.5-.3.8-.3.2 0 .4 0 .6.1l4.9 2.4c.2.1.4.3.5.4h-.5c-.4.1-.7.3-1 .7-.2.3-.3.8-.2 1.2 0 .1.1.2.1.3-.1 0-.2-.1-.2-.1l-4.9-2.4c-.2-.1-.4-.3-.6-.5.5-.2.7-.6.7-1zm-14.9-.5l5.3-1.2h.3c.3 0 .6.1.8.3-.2.3-.3.6-.3.9 0 .4.1.9.4 1.2l.1.1c-.2.2-.4.3-.7.4L26.9 17h-.3c.1-.1.1-.2.1-.2.2-.4.2-.8 0-1.2-.2-.5-.7-.9-1.2-1 .3-.3.5-.5.8-.5zm-12.7 8.1l3.6-4.1c.3-.3.7-.5 1.1-.5.2 0 .3 0 .4.1 0 .2 0 .4.1.7.1.4.4.7.8.9h.1c0 .3-.1.5-.3.7l-3.6 4.1c-.1.1-.3.2-.4.3 0-.2 0-.4-.1-.6-.1-.4-.4-.7-.8-.9-.4-.2-.8-.2-1.2-.1.1-.1.2-.4.3-.6zm-5.7 14L9.4 31c.1-.4.4-.7.8-.9.1.2.3.4.6.5.2.1.4.1.7.1.2 0 .4 0 .5-.1v.1c.2.3.2.7.1 1.1L10.5 37c-.1.4-.4.7-.7.9-.3-.2-.7-.3-1.1-.3-.2 0-.3.1-.4.1-.4-.3-.6-.9-.4-1.5zm5.5 15.3s0 .1 0 0c0 .1 0 .1 0 0-.4 0-.8 0-1.2.2-.2.1-.4.3-.5.6-.4-.1-.7-.4-.9-.8l-2.1-5c-.1-.2-.1-.5-.1-.7.3.2.6.3.9.3h.2c.4 0 .8-.3 1-.6.1-.2.2-.3.3-.5.1.1.2.3.3.4l2.1 5c.1.4.1.8 0 1.1zm8.7 10.7c-.4.2-.6.5-.7.9-.1.2-.1.5 0 .7-.2.1-.4.1-.6.1-.4 0-.7-.1-1-.4l-4-3.7c-.2-.2-.3-.4-.4-.6h.4c.3 0 .5-.1.8-.2.3-.2.6-.6.7-1 0-.2.1-.4 0-.6.2.1.3.2.4.3l4 3.7c.2.3.4.5.4.8zM35.5 65c-.2.3-.4.7-.3 1.1 0 .3.1.5.3.7-.2.1-.4.1-.6.1h-.2l-5.4-.6c-.2 0-.3-.1-.5-.1.3-.2.6-.5.7-.9.1-.4 0-.8-.2-1.2-.1-.2-.3-.4-.4-.5.2-.1.4-.1.6-.1h.2l5.4.6c.4 0 .7.2.9.5-.2.1-.3.3-.5.4zm14-2.4l-4.4 3.2c-.2.2-.5.3-.8.3-.3 0-.5-.1-.7-.2.1-.2.1-.4.1-.7 0-.4-.2-.8-.6-1H43c.1-.3.3-.5.5-.6l4.4-3.2c.1-.1.3-.2.5-.2-.1.2-.1.4-.1.6 0 .4.2.8.6 1 .3.2.6.3.9.3h.2l-.5.5zm2.6-7.4l-.1.1-2.9 3.6h-.4c-.5 0-1 .2-1.5.5l-4.4 3.2c-.5.3-.8.8-.9 1.3l-4.7.6c-.1-.1-.2-.3-.3-.4-.4-.5-1-.9-1.7-1l-5.4-.6h-.3c-.7 0-1.4.3-1.9.8L23.3 62c-.1-.5-.3-1-.8-1.4l-4-3.7c-.5-.4-1.1-.7-1.7-.7h-.1l-2.4-4c.1-.1.1-.2.2-.3.3-.6.3-1.3 0-2l-2.1-5c-.3-.6-.8-1.1-1.4-1.4l-.5-4.5v-.1c.6-.3 1-.9 1.2-1.5l1.6-5.2c.2-.7.1-1.4-.2-2-.1-.1-.1-.2-.2-.3l2-4.2c.7 0 1.3-.4 1.8-.9l3.6-4.1c.4-.4.6-.9.6-1.5l4.5-1.6c.4.2.8.4 1.3.4.2 0 .4 0 .6-.1l5.3-1.2c.7-.1 1.2-.5 1.6-1.1l5.5.3h.1c.2.5.7.9 1.2 1.2l4.9 2.4c.4.2.7.3 1.1.3.3 0 .6-.1.9-.2l3.2 2c-.1.6 0 1.3.4 1.9l3 4.5c.4.6 1 1 1.6 1.1l1.4 4.4c-.1.1-.2.2-.2.3-.4.6-.6 1.2-.4 1.9l.9 5.4c.1.7.5 1.2.9 1.6 0 0 0 .1-.1.2L57 47.3c-.7.1-1.2.5-1.6 1.1l-3 4.5c-.4.7-.5 1.5-.3 2.3zm6.6-4.6l-3 4.5c-.2.4-.6.6-1.1.6-.1-.3-.3-.5-.5-.7-.3-.2-.6-.3-1-.3-.1-.4 0-.8.2-1.1l3-4.6c.1-.1.2-.3.4-.4 0 .2.1.4.2.6.2.4.5.6.9.8.2 0 .3.1.5.1s.5-.1.7-.2c-.1.3-.1.5-.3.7zm.1-16c.2 0 .3 0 .5-.1.3-.1.5-.2.6-.4.3.2.6.6.7 1l.9 5.4c.1.4 0 .7-.2 1.1-.1.2-.3.4-.6.5-.1-.1-.2-.1-.3-.1-.4-.1-.7-.1-1 0-.3-.2-.6-.6-.6-1l-.9-5.4c-.1-.4.1-.8.3-1.1.1.1.3.1.6.1z"/></svg><svg width="73" height="85" viewBox="-2 -2 73 85" y="192"><path fill="#7d6d70" d="M36.9 3.4v1.4h-1v4.9c.1.2.2.3.2.5 0 .9.2 2.1.5 2.6h3.2s.1 0 .4-.4V12h2.3v4.1h-2.3v-.3l-.1-.1c-.1-.1-.2-.3-.3-.3h-2.1v.3h-.6v7.1H37c-.9-.1-1.7-.2-2.5-.2-.9 0-1.7.1-2.6.2h-.1v-7.1h-.4v-.3h-2.1l-.3.3-.1.1v.4h-2.4V12h2.2v.3l.1.1c.2.2.3.3.4.3h3.2c.3-.4.5-1.7.5-2.6 0-.2.1-.4.2-.5V4.7h-1V3.3l-31 17.9v38.5L32.7 78c-.8-2.7-.8-5.9-.8-6.1v-9.8c.9-.4 1.8-.7 2.6-.8.8.1 1.6.3 2.5.7v9.8c0 .2 0 3.4-.8 6.1l31.5-18.2V21.2L36.9 3.4zm-2.4 20.2c5 0 8.4 2.2 10.5 4 2.3 2.1 3.3 4.1 3.4 4.3 0 .1.2.3.5.4.5.3 1.1.6 1.4 1.4.2.6.2 1.9.2 3.2 0 1.4 0 2.8.2 3.7.1.5.3 1 .5 1.5.4 1.2.9 2.5.6 4.1-.3 2.2-3.1 3.5-3.1 3.5s-.2 0-.3-.1c-.1-.1-.2-.3-.2-.5 0-.3.2-.6.5-1.1.4-.6.8-1.3.8-1.9 0-.6-.4-1.4-1-1.7-.6-.3-1.4-.2-2.3.4-2.5 1.5-2.7 2.8-2.8 4V50c0 1.2 0 2.4-.3 2.7-.1.1-.1.1-.2.1h-.3c-.7.1-1.1 0-1.4-2.1-.4-2.5-2.9-4-6.5-4-3.7 0-6.2 1.5-6.5 4-.3 1.9-.7 2.1-1.1 2.1h-.6c-.1 0-.1 0-.2-.1-.3-.3-.3-1.3-.3-2.5v-.6c.2-.1.3-.3.5-.4.2-.1.5-.4.7-.6-.1.1-.2.1-.3.2-.1.1-.2.1-.3.2-.1 0-.2.1-.2.2-.1 0-.2.1-.2.2l-.1.1v-.7c0-.8-.2-1.7-1-2.6h.1s.1 0 .1-.1l.1-.1h-.1c-.1 0-.2.1-.3.1v.1l-.1-.1c-.4-.4-1-.9-1.6-1.3-.3-.2-.6-.3-.9-.4-.2-.1-.3-.1-.5-.1h-.1c-.7 0-1.1.4-1.4.8 0 0-.1 0-.1.1v.1h.1v.1c-.1.2-.2.5-.2.8 0 .6.4 1.3.8 1.9.3.5.5.8.5 1.1 0 .2-.1.4-.2.5-.1.1-.3.1-.3.1s-1.6-.7-2.5-2.1h-.1l-.2-.3h.3v-.2c-.1 0-.1-.1-.1-.3h-.1l.1-.1s-.1 0-.1-.1.1-.1.1-.1v-.1l.1-.1v-.1s.1-.1.2-.1h.1c.1 0 .1-.1.2-.1.1-.1.1-.1.2-.1h.1v.2h.1l-.1-.1c.1 0 .1-.1.2-.1.1-.1.2-.1.3-.2.1 0 .2-.1.3-.2l.3-.3s.1 0 .1-.1.1-.2.2-.3c0 0 0-.1.1-.1v-.1c-.1 0-.2 0-.2.1l-.1.1c-.2.3-.5.4-.7.6-.3.2-.7.4-1.2.4h-.1c-.2 0-.3 0-.3-.2l-.1.1s-.1 0-.1-.1v-.1l.1-.1s-.1 0-.1-.1 0-.1.1-.1c0 0 .1-.1.1-.2 0 0 0-.1.1-.1 0-.1.1-.1.2-.2l.2-.2s0-.1.1-.1c-.1 0-.1 0-.2.1-.1.2-.2.2-.2.2h-.1v.1h-.1c0-.2.1-.3.1-.6v-.2c.1-.5.3-.9.4-1.4.2-.5.3-1 .5-1.5.2-.9.2-2.3.2-3.7 0-1.3 0-2.5.2-3.2.1 0 .2-.1.3-.1 0 0 .1 0 .1-.1l.1-.1c.3-.1.6-.3.9-.4.3-.1.6-.3.8-.5h.1l.3-.3.3-.3.1-.1.3-.3s.1-.1 0-.2h-.2c-.1.1-.2.2-.3.2-.2.1-.4.3-.6.5-.1 0-.1 0-.2.1-.1 0-.3.1-.4.2l-.1.1c-.1.1-.2.2-.4.2-.2.1-.3.2-.5.3-.1 0-.2.1-.3.2-.1.1-.2.1-.3.2l-.2.1.1-.2c.3-.6.9-1 1.3-1.2.3-.1.5-.3.5-.4 0 0 0-.1.1-.1h.1c.2-.2.4-.3.5-.5l.1-.1s0-.1.1-.1c-.1-.1 0-.1 0-.2 0 0 .1-.1.1 0 .1 0 .2 0 .3-.2h-.1c-.1.1-.1.1-.2.1s-.2.1-.3.1l-.2.1.1-.1c.9-2.6 5-7.6 12.6-7.6zM23.2 51c-.1-.4-.1-.6-.1-.8 0-.8 0-1.9.6-1.9 0 0 .9.1 1.1 2.1-.1.1-.3.2-.4.3l-.1.1c-.2.2-.3.2-.4.2h-.1l-.6.3-.1.1v-.3c.2-.2.5-.4.7-.6-.2.1-.4.3-.6.5zm6.2 19.8l-4.8-.9c-.2 0-.3-.1-.5-.2-.4.3-.8.4-1.2.4-.6.1-1.3-.1-1.8-.5L17 66.3c-.7-.6-1-1.5-.9-2.4l-2.9-4c-.1-.1-.1-.2-.2-.3-.8-.1-1.5-.6-1.9-1.3l-2.4-4.7c-.3-.9-.2-1.8.3-2.6l-.9-4.8v-.7c-.3-.2-.5-.4-.6-.7-.4-.6-.5-1.2-.3-1.9l1.1-5.2c.2-.8.7-1.5 1.5-1.8 0-.1 0-.2.1-.3l1.8-4.6c-.4-.9-.3-1.8.3-2.5l3.2-4.2c.4-.6 1.1-.9 1.8-1 .3 0 .6 0 1 .1.1-.1.3-.2.4-.3l4.1-1.9c.2-1 .8-1.7 1.7-2l5.1-1.5h.1v1.2l-4.8 1.5c-.2.1-.5.2-.6.5.5.1 1 .4 1.2.9.2.4.2 1-.1 1.4.1 0 .2 0 .3-.1l4-1.2v1.2l-3.7.9c-.2.1-.4.1-.6.1-.4 0-.9-.1-1.3-.3l-4.2 1.9c0 .6-.2 1.1-.5 1.5L16 31.5c-.4.5-1 .9-1.7 1l-1.6 4.2c.5.6.7 1.4.6 2.2L12.1 44c-.1.6-.5 1.2-1.1 1.6l.8 4.4c.7.2 1.2.7 1.5 1.3l2.4 4.7c.3.6.4 1.3.1 1.9 0 .1-.1.2-.1.2s0 .1-.1.1l2.6 3.6h.1c.6-.1 1.3.1 1.8.5l4.1 3.3c.4.3.7.8.8 1.3l4.2.8v3.1zm5.1-10.7c-2.4.2-4.2 1.4-5.6 2.4-.1.1-.2.2-.3.2h-.4v-.1c0-.1 0-.1.1-.1H28c-.1 0-.2 0-.3-.1-.1-.1-.1-.1-.2-.1s-.2.1-.2.1l-.1.1H27c-.1-.1-.1-.2-.1-.3 0-.1 0-.2.1-.3l.1-.1.1-.1s.1 0 .1-.1c.1-.1.2-.1.4-.2l.1-.1.2-.2c0-.1.1-.2 0-.2 0-.1-.1-.1-.2-.1h-.4c-.1.1-.2.1-.3.1v-.1c.1-.1.2-.1.4-.1.3-.1.6-.3.8-.4h.1c.1 0 .2-.1.3-.1.1-.1.2-.1.3-.1l.1-.1c.1 0 .1-.1.2-.1.1-.1.2-.1.3-.2.1-.1.2-.1.3-.2.1-.1.2-.1.3-.2l.1-.1c.1 0 .1-.1.2-.1.2-.1.4-.2.6-.4.1-.1.2-.1.3-.2.2-.1.2-.1.1-.3v-.1c-.1 0-.3 0-.4.1H31c-.1 0-.2.1-.2.1-.3.1-.6.3-.9.4-.1 0-.1.1-.2.1-.2.2-.4.3-.6.3H29c-.4.2-.8.5-1.1.7-.1.1-.3.1-.4.2-.3.2-.6.2-.9.2-.3 0-.5.1-.7.3l-.1.1v-.1c0-.1 0-.1-.1-.1h-.2c-.1 0-.1.1-.2.1-.2.1-.4.2-.6.2h-.2l-.5.3v-.1c0-.1-.1-.2-.1-.3v-.1h.2l.1-.1s0-.1.1-.1h.2l.1-.1c.1 0 .1-.1.2-.1h-.1c-.1 0-.2.1-.3.1-.1 0-.2 0-.2.1H24l-.1.1h-.1v-.1c-.3-1.3-.5-2.7-.5-3.5 0-.8-.1-2.2-.2-3.6 0-.4 0-.7-.1-1.1.1-.1.3-.2.4-.4.2-.2.4-.3.6-.5.2-.2.4-.3.6-.5h.1v1.2c-.1 3.5.1 5.2.4 5.5.2.2.6.3 1 .2.3-.1.4-.3.5-.7.1-1.1 1.9-2.8 3.3-3.4.3-.1.5-.2.8-.3 1.1-.4 2.1-.8 3.8-.8 1.6 0 2.7.4 3.8.8.2.1.5.2.8.3 1.3.4 3.1 2.1 3.3 3.4.1.5.4.7.6.7.3.1.7 0 .9-.2.4-.4.5-2.5.4-5.5-.1-3.4 1.1-3.6 1.1-3.6.3 0 .5.2.6.7.1.4.1.8.1 1.2 0 .4-.1 1.6-.1 2.9-.1 1.4-.1 2.9-.2 3.8 0 1.5-.5 4.7-1.4 5.5-.6.5-1.3 1.1-2.1 1.1-.4 0-.9-.1-1.4-.5-.2-.1-.4-.3-.6-.4-1.6-1-3.3-2.2-5.8-2.5zm27-15.2c-.2.3-.4.5-.8.8.1.3.1.6.1.8l-1.1 4.8c.5.8.5 1.8.1 2.5l-2.6 4.6c-.4.8-1.2 1.2-2 1.3 0 .1 0 .1-.1.2L52.3 64c.2.9-.1 1.8-.8 2.4l-4.1 3.4c-.4.3-.9.5-1.4.6-.5 0-1.1-.1-1.5-.4-.1.1-.3.2-.4.2l-4.4.9v-3l3.8-.8c.1-.6.4-1 .8-1.4l4.1-3.4c.4-.3.9-.5 1.4-.6h.4l2.5-3.7.1-.1c-.3-.7-.3-1.5.1-2.2l2.6-4.6c.3-.6.9-1 1.5-1.2l1-4.3v-.1c-.6-.4-.9-.9-1.1-1.5l-1.2-5.1c-.2-.7 0-1.3.3-1.9 0-.1.1-.1.2-.2l.1-.1-1.7-4.1c-.7-.1-1.3-.4-1.7-.9l-3.3-4.2c-.4-.5-.6-1.2-.5-1.8l-3.2-1.6c-.3.1-.6.2-.9.2-.4 0-.8 0-1.1-.2l-4.2-1.7v-1.2l4.6 1.9h.2c-.3-.4-.3-1-.1-1.4.3-.5.8-.8 1.3-.8-.1-.2-.3-.3-.5-.4l-4.9-2c-.2-.1-.4-.1-.6-.1h-.1v-1.2h.1c.4 0 .8 0 1.1.2l4.9 2c.8.3 1.4 1.1 1.5 2l3.9 2h.2c.8-.1 1.7.3 2.2 1l3.3 4.2c.6.7.7 1.6.3 2.5l1.9 4.6v.2c.8.3 1.4 1 1.6 1.8l1.2 5.2c.2.6.1 1.3-.3 1.8z"/><path fill="#fff" d="M69 20.6L36.9 2v-.8h-.4c-.6 0-1.1-.3-1.4-.8L35 .3l-.4-.3-.4.2-.1.1c-.3.5-.9.9-1.5.9h-.5V2L.3 20.4l-.3.2v39.9l33.4 19.3c.2.5.5.9.8 1.2 0 0 .2.1.3.1.1 0 .4-.1.4-.1.3-.3.6-.7.8-1.2L69 60.4V20.6zm-1.1 39.2L36.3 78c.8-2.7.8-5.9.8-6.1v-9.8c-.9-.4-1.7-.7-2.5-.7-.9.1-1.7.3-2.6.8V72c0 .2.1 3.4.8 6.1L1.1 59.8V21.2l31-17.9v1.4h1v4.9c0 .2-.1.3-.1.5 0 .9-.2 2.1-.5 2.6h-3.2s-.2-.1-.4-.3l-.1-.1V12h-2.2v4.1H29v-.4l.1-.1.3-.3h2.1v.3h.4v7.1h.1c.9-.1 1.7-.2 2.6-.2.8 0 1.6.1 2.5.2h.1v-7.1h.6v-.3h2.1c.1 0 .2.3.3.3l.1.1v.3h2.3v-4h-2.3v.3c-.3.3-.4.3-.4.4h-3.2c-.3-.4-.5-1.6-.5-2.6 0-.2-.1-.4-.2-.5V4.7h1V3.3l31 17.9v38.6zm-27.1 3.1c.5.3 1 .5 1.4.5.9 0 1.6-.5 2.1-1.1.9-.9 1.4-4 1.4-5.5 0-.8.1-2.4.2-3.8.1-1.3.1-2.5.1-2.9 0-.4 0-.9-.1-1.2-.1-.4-.3-.7-.6-.7 0 0-1.2.2-1.1 3.6.1 3 0 5.1-.4 5.5-.2.2-.5.3-.9.2-.2-.1-.5-.2-.6-.7-.3-1.2-2.1-2.9-3.3-3.4-.3-.1-.5-.2-.8-.3-1.1-.4-2.1-.8-3.8-.8-1.6 0-2.7.4-3.8.8-.2.1-.5.2-.8.3-1.4.5-3.2 2.3-3.3 3.4-.1.4-.2.6-.5.7-.4.1-.8 0-1-.2-.4-.3-.5-2-.4-5.5v-1.2h-.1c-.2.2-.4.3-.6.5-.2.2-.4.3-.6.5-.1.1-.3.2-.4.4 0 .3 0 .7.1 1.1.1 1.4.1 2.8.2 3.6 0 .8.2 2.2.5 3.5v.1h.1s.1 0 .1-.1h.2c.1 0 .2-.1.2-.1.1 0 .2-.1.3-.1h.1c-.1 0-.1.1-.2.1s-.1 0-.1.1h-.2c-.1 0-.1.1-.1.1s0 .1-.1.1h-.2v.1c0 .1.1.2.1.3v.1h.3c.2 0 .4-.1.6-.2.1 0 .1-.1.2-.1h.2l.1.1v.1l.1-.1c.2-.1.4-.3.7-.3.3 0 .6 0 .9-.2.1-.1.3-.1.4-.2.4-.2.8-.4 1.1-.7h.1l.6-.3c0-.1.1-.1.2-.1.3-.1.6-.2.9-.4.1 0 .2-.1.2-.1h.1c.1-.1.3-.1.4-.1v.1c.1.2.1.2-.1.3-.1.1-.2.1-.3.2-.2.1-.4.3-.6.4-.1 0-.1.1-.2.1l-.1.1c-.1.1-.2.1-.3.2-.1.1-.2.1-.3.2-.1.1-.2.1-.3.2-.1 0-.1.1-.2.1s-.1.1-.1.1c-.1 0-.2.1-.3.1-.1.1-.2.1-.3.1h-.1c-.2.1-.5.3-.8.4-.1 0-.3.1-.4.1v.1c.1 0 .2-.1.3-.1h.4c.1 0 .2 0 .2.1v.2c0 .1-.1.1-.2.2l-.1.1c-.1 0-.3.1-.4.2 0 0-.1 0-.1.1l.3.1-.1.1c-.1 0-.1.1-.1.3 0 .1 0 .2.1.3h.2l.1-.1c.1-.1.1-.1.2-.1s.2 0 .2.1c.1.1.2.1.3.1h.3l-.1.1v.1h.4c.1-.1.2-.1.3-.2 1.4-1 3.2-2.2 5.6-2.4 2.4.2 4.2 1.4 5.6 2.4.4 0 .6.1.8.2zM23.4 53l.2-.2h.1s0 .1.1.1c-.2 0-.3 0-.4.1zm.7 6zm0 0zm2.4-.5zm0 0zm0 .1zm1.2-.9zm.6-.2zm0 1.6zm0 0zm-6.9-28.4l-.1.1.1-.1h.4c.1 0 .1 0 .2-.1h.1c-.1.1-.1.2-.3.2h-.1v.2s0 .1-.1.1c0 0 0 .1-.1.1l-.5.5h-.1c0 .1-.1.1-.1.1 0 .1-.2.3-.5.4-.4.2-1 .5-1.3 1.2l-.1.2.2-.1c.1 0 .2-.1.3-.2.1-.1.2-.1.3-.2.2-.1.4-.2.5-.3.1-.1.2-.2.4-.2l.1-.1c.1-.1.3-.2.4-.2 0-.1.1-.1.2-.1.2-.2.4-.3.6-.5.1-.1.2-.2.3-.2h.2v.2l-.3.3c-.1 0-.1 0-.1.1l-.3.3-.3.3h-.1c-.2.2-.5.4-.8.5-.3.1-.6.3-.9.4l-.1.1s-.1 0-.1.1c-.1 0-.2.1-.3.1-.2.6-.2 1.9-.2 3.2 0 1.4 0 2.8-.2 3.7-.1.5-.3 1-.5 1.5-.2.4-.3.9-.4 1.4v.2c-.1.2-.1.4-.1.6h.1v-.1h.1s.2 0 .2-.2c0-.1.1-.1.2-.1 0 0 0 .1-.1.1 0 .1-.1.2-.2.2l-.2.2s0 .1-.1.1c0 .1-.1.1-.1.2l-.1.1.1.1-.1.1c-.1 0-.1.1 0 .1l.1.1c.1 0 .1 0 .1-.1.1.1.2.2.3.2h.1c.5 0 .9-.2 1.2-.4.2-.2.5-.4.7-.6l.1-.1c.1-.1.1-.2.2-.1v.1s0 .1-.1.1c-.1.1-.2.2-.2.3l-.1.1-.3.3c0 .1-.2.1-.3.2 0 .1-.2.2-.3.2-.1 0-.1.1-.2.1 0 .1 0 .1.1.1h-.1v-.2h-.1c-.1 0-.1.1-.2.1-.1.1-.1.1-.2.1h-.1c-.1 0-.1 0-.2.1v.1l-.1.1v.1l-.1.1c0 .1.1.1.1.1l-.1.1h.1c0 .2.1.2.1.3v.2h-.3l.2.3h.1c.9 1.3 2.5 2.1 2.5 2.1s.2 0 .3-.1c.1-.1.2-.3.2-.5 0-.3-.2-.6-.5-1.1-.4-.6-.8-1.3-.8-1.9 0-.3.1-.5.2-.8v-.1h-.1v-.1c.1 0 .1 0 .1-.1.2-.4.6-.8 1.4-.8h.1c.2 0 .3 0 .5.1.3.1.6.2.9.4.7.4 1.2.8 1.6 1.3l.1.1v-.1c0-.1.2-.1.3-.1h.1l-.1.1s-.1 0-.1.1h-.1c.8.9 1 1.8 1 2.6v.7l.1-.1c.1 0 .2-.1.2-.2s.1-.1.2-.2.2-.1.3-.2c.1-.1.2-.2.3-.2-.1.2-.4.4-.7.6-.2.1-.3.3-.5.4v.6c0 1.1 0 2.2.3 2.5.1.1.1.1.2.1h.6c.4 0 .9-.3 1.1-2.1.4-2.5 2.9-4 6.5-4 3.7 0 6.2 1.5 6.5 4 .3 2.1.8 2.2 1.4 2.1h.3c.1 0 .1 0 .2-.1.3-.3.3-1.6.3-2.7v-1.2c.1-1.2.3-2.5 2.8-4 .9-.6 1.7-.7 2.3-.4.6.3 1 1.1 1 1.7 0 .6-.4 1.3-.8 1.9-.3.5-.5.8-.5 1.1 0 .2.1.4.2.5.1.1.3.1.3.1s2.8-1.2 3.1-3.5c.2-1.6-.2-2.9-.6-4.1-.2-.5-.3-1-.5-1.5-.2-.9-.2-2.3-.2-3.7 0-1.3 0-2.6-.2-3.2-.3-.8-.9-1.2-1.4-1.4-.3-.1-.5-.3-.5-.4-.1-.2-1.1-2.3-3.4-4.3-2-1.8-5.5-4-10.5-4-7.1.4-11.2 5.4-12.6 7.5zm-3.1 12.4zm-.1 4.3H18h.2c-.1-.1-.1-.1 0 0-.1-.1 0-.1 0 0zm0-.6s0-.1 0 0c0-.1 0-.1 0 0 0-.1 0-.1 0 0 0-.1 0-.1 0 0 0-.1 0-.1 0 0zm.6-.8v.1h-.1l-.1.1c-.1 0-.1.1-.1.2v-.2c.1 0 .2 0 .2-.1.1 0 .1-.1.1-.1.1-.1.1-.1 0 0 0-.1 0-.1.1-.1 0 0 0 .1-.1.1zm.2-.4zm.7-.1s0 .1-.1.1l.1-.1h-.2c-.1 0-.1 0-.1.1s0 .1-.1.1-.1.1-.1.1h-.1.1c.1-.1.2-.1.2-.3 0-.1 0-.2.2-.2h.2v.1c-.2 0-.2 0-.1.1 0-.1 0 0 0 0zm-.2-10.3c-.1.1-.1.1 0 0-.1.1-.1 0 0 0zm.8 8.8s-.1-.1 0 0v-.1h.1l-.1.1zm.2-2.5l-.1.1-.5.5c-.3.2-.6.4-1 .7.1-.1.2-.1.2-.2.3-.3.6-.5.9-.7.1-.1.2-.1.2-.2l.1-.1s.1 0 .1-.1c.1 0 .2-.1.2-.2h.1c-.1 0-.1.1-.2.2zm.3-.3l.1-.1h.1c-.1 0-.1 0-.2.1zm5.3 9c-.1-.1-.1-.1 0 0-.1-.1-.1-.1 0 0zm-3-19.2c0 .1 0 .1 0 0 0 .1 0 .1 0 0zm-.1 0s.1 0 0 0c0 .1 0 .1 0 0 0 .1 0 .1 0 0zm-.3.3c.1-.1.1-.1 0 0 .1-.1.1-.1 0 0 .1 0 .1 0 .1.1h-.1v-.1zm-1.5 9.5c0 .1 0 .1 0 0 0 .1 0 .1 0 0-.1 0-.1 0 0 0zm.3 0s-.1 0 0 0c-.1 0-.1 0 0 0-.1-.1-.1-.1 0 0v-.1.1c0-.1 0-.1 0 0zm.2-.3c0 .1 0 .1 0 0 0 .1 0 0 0 0zm.3 3.2c0-.1.1-.1.2-.2 0 .1-.1.2-.2.2zm.3.5l.1-.1c-.1 0-.1.1-.1.1zm.2-.2zm1.6-3.1c-.1 0-.1-.1-.1-.1v-.2l.2-.2-.1.1v.1c.1.1.2.1.2 0 .1 0 .1 0 .2-.1h.1s0 .1-.1.1-.2.1-.3.1l-.1.2zm.2.2l-.1.1c0-.1 0-.1.1-.1zm.4-.1s-.1 0-.1.1c-.1 0-.1.1-.2 0l.1-.1c.1-.1.1-.1.2 0 0-.1 0-.1 0 0zm0-.6l-.1-.1v-.1c.1 0 .1.1.1.2zm0 4.3zm.6-3.8c0-.1-.1-.1-.1-.1.1 0 .1 0 .1.1zm.1 4s-.1.1-.1.2v.1c0-.1 0-.2.1-.3zm.4.2l-.3.3v.1c0 .1-.1.1-.1.2 0 0-.1.1-.2.1.2-.1.2-.2.1-.4v-.1l.1-.1c.2-.2.3-.2.4-.1 0-.1 0-.1 0 0 .1-.1.1-.1 0 0zm-.1-.6c.1 0 .1 0 0 0 .1.1.1.1 0 0 .1.1.1.1 0 0 .1 0 .1 0 0 0zm-.5-5.3c0-.1 0-.1.1-.2.1 0 .1 0 .2-.1.2-.1.3-.1.5-.2.1 0 .2 0 .3-.1-.4.3-.7.4-1.1.6zm1.2 2.1s-.1.1 0 0c-.1.1-.2.1-.2.1v-.2c0-.1 0-.1-.1-.1 0-.1.1-.1.1-.2v-.1h.1c.1 0 .1 0 .1.1l-.1.1s-.1 0-.1.1c.1.2.1.2.2.2zm0-1.2c-.1 0-.1.1-.2.1.1-.1.2-.1.2-.1.1-.1.1-.1 0 0 .1-.1.1-.1 0 0 .1-.1.1-.1 0 0 .1 0 .1 0 0 0zm.2 4zm.2 5.3c.1 0 .1-.1.1-.1h.1c0 .1-.1.1-.2.1zm.2-8.9h-.4c0-.1 0-.2.1-.2.3 0 .4-.1.6-.3 0 .2-.1.4-.3.5zm.1-1.3h.3c0 .1 0 .1-.1.1-.2.1-.2 0-.2-.1zm.2 11.5zm.1-10.8l-.1-.1c.1 0 .1 0 .1.1zm.1 10.8h-.1c.1-.1 0-.3 0-.4v-.1s.1 0 .1-.1c0 .1 0 .2.1.3.1.2.1.2-.1.3zM29 48c-.1.1-.2.2-.3.2l-.3.3c-.2.1-.2.1-.4 0h.2c.1 0 .1-.1.1-.2l.1-.1c.1-.1.3-.2.4-.3v.2c0-.2.1-.1.2-.1zm-1-8.4s0-.1 0 0c.1 0 .1 0 .1-.1h.1v.1s0 .1-.1.1c0 0 0 .1-.1 0 .1 0 .1 0 0-.1zm10.3-8.4c.1-.1.3-.2.6-.2 1.1 0 5.4.9 6.6 1.6 1.2.8 2.4 1.8 2.1 3.8 0 0 0 .5-.2.9-.2.6-.6.9-1.1.9-1.4.1-5.9-.7-6.7-1.1-.7-.4-1.4-.9-1.4-3.2 0-.5 0-.9-.1-1.3.1-.6 0-1.1.2-1.4zm-6.7 8.1c0-1.7 1.5-5.6 3-5.6 1.4 0 2.9 3.8 3 5.6 0 1.1-.2 2.5-.9 2.8-.4.2-.9 0-1.5-.5 0 0-.1-.2-.3-.2-.2 0-.4 0-.7.2-.7.5-1.2.6-1.6.4-1-.5-1-2.2-1-2.7zm-1.5-8.2c.3 0 .5.1.6.2.2.2.2.7.1 1.6 0 .4 0 .8-.1 1.3-.1 2.3-.7 2.8-1.4 3.2-.4.2-1.7.5-3.3.8h-.1c-.1 0-.2.1-.2.1-.2.1-.4.2-.7.3-.1 0-.1.1-.1.1s-.1 0-.1.1c-.2.1-.3.2-.5.3-.1.1-.3.1-.4.2-.2.1-.4.2-.6.4-.1.1-.2.2-.4.2 0 .1 0 .1-.1.1h-.2c-.2-.1-.2.1-.3.1v.1c-.1 0-.1.1-.1.1-.1.1-.2.1-.3.2.1-.1.2-.2.2-.4 0-.1.1-.1.1-.1h.1v-.1s0-.1.1-.1v.1c.1-.1.3-.2.5-.3 0 0 .1 0 .1-.1h.1c.1 0 .2-.1.3-.2.1-.1.2-.2.3-.2h.1c.1-.1.3-.2.5-.3.1 0 .2-.1.3-.2.2-.1.4-.2.6-.4v-.1c-1.2.2-2.2.3-2.7.3s-.9-.3-1.1-.9c-.2-.5-.2-.9-.2-.9-.4-2 .8-3.1 2.1-3.8 1.4-.8 5.7-1.7 6.8-1.7zm-7.4 8.2l.1-.1c.1 0 0 0-.1.1.1 0 .1 0 0 0zm.4-.2c0-.1 0-.1 0 0 0-.1 0-.1 0 0 0-.1 0 0 0 0zm0 12c.2-.2.5-.4.7-.6-.2.1-.5.3-.7.5v.1-.9c0-.8 0-1.9.6-1.9 0 0 .9.1 1.1 2.1-.1.1-.3.2-.4.3l-.1.1c-.2.2-.3.2-.4.2h-.1l-.6.3-.1.1v-.3zm16.6-33.7l-.1 1.2h.1c.2 0 .4 0 .6.1l4.9 2c.2.1.3.2.5.4-.5 0-1.1.3-1.3.8-.2.4-.2 1 .1 1.4h-.2l-4.6-1.9v1.2l4.2 1.7c.4.1.7.2 1.1.2.3 0 .6-.1.9-.2l3.2 1.6c-.1.7.1 1.3.5 1.8l3.3 4.2c.4.5 1 .9 1.7.9l1.7 4.1-.1.1c-.1 0-.2.1-.2.1-.4.6-.5 1.3-.3 1.9l1.2 5.1c.1.6.5 1.1 1.1 1.5v.1L57 50c-.7.2-1.2.6-1.5 1.2L52.8 56c-.4.7-.4 1.5-.1 2.2 0 0-.1 0-.1.1L50.1 62h-.4c-.5 0-1 .2-1.4.6L44.2 66c-.4.3-.7.8-.8 1.4l-3.8.8v3l4.4-.9c.2 0 .3-.1.4-.2.5.3 1 .4 1.5.4s1-.2 1.4-.6l4.1-3.4c.7-.6 1-1.5.8-2.4L55 60c0-.1.1-.1.1-.2.9-.1 1.6-.6 2-1.3l2.6-4.6c.4-.8.4-1.7-.1-2.5l1.1-4.8c.1-.3 0-.5-.1-.8.3-.2.6-.5.8-.8.4-.6.5-1.3.3-1.9l-1.2-5.2c-.2-.8-.8-1.4-1.6-1.8 0-.1 0-.2-.1-.4l-1.9-4.6c.4-.9.2-1.8-.3-2.5l-3.3-4.2c-.5-.7-1.4-1-2.2-1h-.2l-3.9-2c-.1-.9-.7-1.7-1.5-2l-4.9-2c-.2.1-.6 0-.9 0zm11 48.2l-4 3.4c-.2.2-.5.3-.8.3-.2 0-.5 0-.7-.2.1-.2.1-.4 0-.6-.1-.4-.3-.7-.7-1 .1-.3.2-.5.4-.7l4.1-3.4c.1-.1.3-.2.5-.2-.1.6.1 1.2.6 1.5.3.2.7.3 1.1.2-.2.3-.3.5-.5.7zm8.1-12.3l-2.6 4.6c-.2.4-.6.6-1 .7-.1-.3-.3-.5-.5-.7-.2-.2-.5-.2-.8-.2h-.1c-.1-.4-.1-.8.1-1.1l2.6-4.6c.1-.1.2-.3.3-.4.1.6.5 1.1 1.1 1.2.4.1.8 0 1.1-.2 0 .3-.1.5-.2.7zM57 37.7c.4.1.8.1 1.1 0 .2-.1.4-.2.6-.4.4.2.7.5.8.9l1.2 5.1c.1.6-.2 1.2-.7 1.5h-.1s-.1-.1-.2-.1c-.3-.1-.6 0-1 .1-.4-.2-.6-.5-.7-.9l-1.2-5.1c-.1-.4 0-.8.2-1.1zm-5.2-12.1c.1-.2.2-.5.1-.8.3.1.5.2.7.4l3.3 4.2.3.6c-.4-.1-.8-.1-1.1 0-.6.2-.9.8-.9 1.4-.2-.1-.3-.2-.4-.3L50.4 27c-.1-.2-.2-.4-.2-.6.6.1 1.3-.2 1.6-.8zm-27.5 40l-4.1-3.3c-.5-.4-1.1-.6-1.8-.5h-.1l-2.6-3.6s0-.1.1-.1c0-.1.1-.1.1-.2.2-.6.2-1.3-.1-1.9l-2.4-4.7c-.3-.6-.8-1-1.5-1.3l-.9-4.4c.6-.4 1-.9 1.1-1.6l1.1-5.2c.2-.8-.1-1.5-.6-2.2l1.6-4.2c.7-.1 1.3-.4 1.7-1l3.2-4.2c.3-.4.5-.9.5-1.5l4.2-1.9c.4.2.9.3 1.3.3.2 0 .4 0 .6-.1l3.7-1.1v-1.2l-4 1.2c-.2.1-.3.1-.4.1.3-.4.3-.9.1-1.4-.2-.5-.7-.8-1.2-.9.2-.2.4-.4.6-.5l4.8-1.5v-1.2h-.1L24.1 19c-.9.3-1.6 1-1.7 2l-4.1 1.9c-.1.1-.3.2-.4.3-.3-.1-.7-.2-1-.1-.7.1-1.4.4-1.8 1l-3.2 4.2c-.5.7-.6 1.7-.3 2.5l-1.8 4.6c0 .1-.1.2-.1.3-.8.3-1.3 1-1.5 1.8l-1.1 5.2c-.1.7 0 1.3.3 1.9.2.2.4.5.6.7 0 .2-.1.4 0 .7l1 5c-.5.8-.6 1.7-.2 2.5l2.4 4.7c.4.7 1.1 1.2 1.9 1.3 0 .1.1.2.2.3l2.9 4c-.1.9.2 1.8.9 2.4l4.1 3.3c.5.4 1.1.6 1.8.5.4 0 .8-.2 1.2-.4.2.1.3.2.5.2l4.8.9v-3l-4.3-.7c-.2-.6-.5-1-.9-1.4zM12.9 29.1l3.2-4.2c.2-.3.6-.5 1-.5h.4c0 .2 0 .4.1.6.2.4.5.6.9.8 0 .3-.1.5-.2.7L15 30.8c-.1.1-.2.3-.4.3 0-.6-.4-1.2-.9-1.4-.2-.1-.3-.1-.5-.1s-.4 0-.6.1c0-.2.1-.4.3-.6zM9.3 44.4c-.2 0-.3.1-.4.2-.4-.3-.7-.9-.6-1.4L9.4 38c.1-.4.4-.7.7-.9.2.2.4.4.6.4.4.1.8.1 1.1 0 .2.3.3.7.3 1.1L11 43.7c-.1.4-.3.7-.6.9-.2-.2-.5-.2-.8-.2h-.3zm5.4 13.2c-.4-.1-.8 0-1.1.3-.2.1-.3.3-.5.6-.4-.1-.8-.3-.9-.7L9.9 53c-.1-.2-.1-.4-.1-.7.3.2.7.3 1.1.2.6-.1 1-.6 1.2-1.2.1.1.2.3.3.4l2.4 4.7c.1.4.1.8-.1 1.2zm8.7 10.6v.6c-.2.1-.4.2-.6.2-.3 0-.7-.1-1-.3l-4.1-3.3c-.2-.1-.3-.3-.4-.6.4.1.8 0 1.1-.3.5-.3.7-1 .6-1.6.2.1.3.1.5.2l4.1 3.3c.2.2.3.4.4.7-.3.3-.5.7-.6 1.1z"/></svg><svg width="34" height="36" viewBox="-2 -2 34 36" x="331" y="160"><path fill="#fff" d="M14.2 0h1.7c6.1.4 11.7 4.9 13.4 10.8 1.2 5.1.4 10.5.6 15.7h-5.5V32h-3.9v-1.5h-1.3V32h-3.5v-1.5h-1.3V32h-3.5v-1.5H9.6V32h-4v-5.1H0c.1-4.6-.2-9.2.2-13.8.7-7 7-12.8 14-13.1z"/></svg><svg width="72" height="72" viewBox="-2 -2 55 55" x="297"><path fill="#fefefe" d="M0 0h24.03C14.09.62 4.99 7.87 2.41 17.52c-1.84 8.32-.55 16.95-.94 25.4 2.98.01 5.96.01 8.95.01V51H0V0z"/><path d="M24.03 0h3.18c9.73.75 18.63 7.78 21.29 17.21 2 8.18.62 16.72 1.02 25.05h-8.76V51h-6.22c-.05-.83-.1-1.66-.14-2.49-.52.05-1.57.14-2.09.18L32.27 51h-5.63c-.02-.59-.07-1.77-.09-2.36-.53.01-1.59.02-2.12.02L24.39 51h-5.64c-.02-.59-.06-1.76-.07-2.35-.54 0-1.6 0-2.14.01-.01.58-.02 1.75-.03 2.34h-6.09v-8.07c-2.99 0-5.97 0-8.95-.01.39-8.45-.9-17.08.94-25.4C4.99 7.87 14.09.62 24.03 0z"/><path fill="#fefefe" d="M27.21 0H51v51H40.76v-8.74h8.76c-.4-8.33.98-16.87-1.02-25.05C45.84 7.78 36.94.75 27.21 0zm-4.97 12.48c1.11-1.51 2.08-3.11 2.97-4.76.64 1.74 1.46 3.47 2.97 4.64-.59.1-1.78.3-2.38.41.05 4.45.01 8.91-.01 13.36.21 1.31-.7 2.3-1.36 3.31-.12-5.58-.09-11.15-.07-16.72l-2.12-.24zm-5.54 3.74c.83-1.52 1.67-3.03 2.6-4.49.52 1.82 1.75 3.29 2.72 4.88-.54.02-1.62.07-2.16.09.06 2.38.05 4.76-.12 7.14-1.67-1.83-1.41-4.27-1.32-6.53-.43-.27-1.29-.82-1.72-1.09z"/><path fill="#fefefe" d="M28.15 16.5c1.15-1.5 2.16-3.11 2.88-4.86.69 1.77 1.7 3.39 3.03 4.76-.58.09-1.73.28-2.31.37-.02 2.73.63 5.78-1.34 8.04-.16-2.69-.16-5.38-.11-8.08-.54-.06-1.61-.17-2.15-.23z"/><path fill="#fefefe" d="M9.94 13.43c4.71 5.93 9.61 11.7 14.48 17.49-1.51 1.64-2.81 3.47-3.69 5.54.39.81.79 1.62 1.21 2.42.15-.84.46-2.53.61-3.37 6.31-7.16 12.47-14.48 18.38-21.98-1.92 4.42-3.71 8.9-5.2 13.49 2.94-2.31 5.52-5.1 7.13-8.5-.39 3.35-1.2 6.62-1.62 9.96.68-.92 2.05-2.74 2.74-3.65-.28 3.36-.41 7.5-3.54 9.58-6.4 3.53-14.44 4.87-19.37 10.62.14-1.91.25-3.83.46-5.74-3.69-1.56-7.68-2.57-11.03-4.84-2.9-2.25-3.26-6.17-3.4-9.56.84 1.11 1.68 2.22 2.6 3.26-.19-3.25-1.31-6.35-1.55-9.6 1.61 3.39 4.19 6.16 7.11 8.46-1.53-4.61-3.23-9.18-5.32-13.58z"/><path fill="#fefefe" d="M26.6 41.78c.77-.37 2.31-1.1 3.08-1.47.04 1.57.1 3.15.19 4.72a15.27 15.27 0 0 0-3.27-3.25zm-10.06 6.88c.54-.01 1.6-.01 2.14-.01.01.59.05 1.76.07 2.35h-2.24c.01-.59.02-1.76.03-2.34zm7.89 0c.53 0 1.59-.01 2.12-.02.02.59.07 1.77.09 2.36h-2.25l.04-2.34zm7.88.03c.52-.04 1.57-.13 2.09-.18.04.83.09 1.66.14 2.49h-2.27l.04-2.31z"/></svg><svg width="34" height="36" viewBox="-2 -2 34 36" x="297" y="232"><path fill="#fff" d="M29.3 10.8C27.6 4.9 22 .4 15.9 0h-1.7C7.2.3.9 6.1.2 13.1c-.4 4.6-.1 9.2-.2 13.8h5.6V32h4v-1.5h1.3V32h3.5v-1.5h1.3V32h3.5v-1.5h1.3V32h3.9v-5.5h5.5c-.2-5.2.6-10.6-.6-15.7zM15.4 3.2l9.1 9.1.2.2h-5.3l-.2-.2-3.8-3.8V3.2zM22 16l.2.2-2.7 2.7-.2-.2L22 16zm-2.8 2.4v-5.3l2.7 2.7-2.7 2.6zm2.8-2.8l-2.7-2.7.1-.1h5.3l-.2.2-2.5 2.6zM15.4 17l3.6-3.6v5.2l.1.1-3.7 3.7V17zM5.1 13.8l2.3 2.3-2.3 2.3v-4.6zm3 2l2.7-2.7v5.3l-2.7-2.6zm2.5 2.8l-.2.2-2.7-2.7.3-.1 2.6 2.6zm0-5.7L8 15.6l-2.5-2.5-.2-.2h5.3zM5.1 24.1v-4.7l2.3 2.3-2.3 2.4zm0-5v-.3l2.5-2.5 2.7 2.7-2.7 2.7-2.5-2.6zm9.5 9.5l-6.8-6.8 2.7-2.7 4.2 4.2v5.3zm0-6.3L11 18.6l.1-.1v-5.2l3.6 3.6v5.4zm0-13.8l-3.8 3.8-.2.2H5.2l.2-.2 9.1-9.1v5.3zm.8 20.1v-5.3l4.2-4.2 2.7 2.7-6.9 6.8zm9.5-4.5l-2.3-2.3 2.3-2.3v4.6zm0-5l-2.5 2.5-2.7-2.6 2.7-2.7 2.5 2.5v.3zm0-.7l-2.3-2.3 2.3-2.3v4.6z"/></svg><svg width="34" height="36" viewBox="-2 -2 34 36" x="164" y="96"><path fill="#fff" d="M22.4 8.6c.1 3.2.4 6.5-.5 9.7-1.4 2.8-3.9 4.7-6.2 6.7l-.6.4.1-20.3c2.4 1.1 4.8 2.4 7.2 3.5zm7.5 17.9h-5.5V32h-3.9v-1.5h-1.3V32h-3.5v-1.5h-1.3V32h-3.5v-1.5H9.6V32h-4v-5.1H0c.1-4.6-.2-9.2.2-13.8.7-7 7-12.8 14-13.1h1.7c6.1.4 11.7 4.9 13.4 10.8 1.2 5.1.4 10.5.6 15.7zM23.4 8.3c-2.8-1.3-5.5-2.7-8.3-4-2.9 1.3-5.7 2.7-8.6 4-.1 2.3-.1 4.6 0 6.9.1 1.8.2 3.7 1.2 5.2 1.9 2.8 4.8 4.8 7.3 6.9.3-.2.3-.2.7-.5 2.6-2.2 5.5-4.4 7.1-7.6 1-3.5.7-7.2.6-10.9z"/></svg><svg width="34" height="36" viewBox="-2 -2 34 36" y="277"><path fill="#fff" d="M29.3 10.8C27.6 4.9 22 .4 15.9 0h-1.7C7.2.3.9 6.1.2 13.1c-.4 4.6-.1 9.2-.2 13.8h5.6V32h4v-1.5h1.3V32h3.5v-1.5h1.3V32h3.5v-1.5h1.3V32h3.9v-5.5h5.5c-.2-5.2.6-10.6-.6-15.7zm-7.6 7.7h-1.4c1.2 1.2 2.5 2.4 3.7 3.6-2 .1-4 .1-5.9.2-.3-.3-.6-.5-.8-.8v5.6c-1.5-1.4-2.9-2.9-4.3-4.4-.5-.4-.2-1.1-.3-1.6-1.4 1-2.4 2.4-3.8 3.5 0-2-.1-4-.1-5.9.3-.3.5-.6.8-.9H3.9c1.6-1.5 3.1-3 4.7-4.5H10c-1.2-1.2-2.5-2.4-3.7-3.7 2-.1 4-.1 5.9-.2l.8.8V4.5c1.3 1.2 2.4 2.5 3.6 3.7.4.4.9.8 1 1.4C18.9 8.4 20 7.2 21.3 6c0 2.3.1 4.6.1 6.8-.3.3-.5.6-.8.8h5.7c-1.5 1.9-3 3.4-4.6 4.9zm-2.9-1.7c-.7.4-1.5.7-2.2 1-1 .3-1.6 1.3-2.4 1.9-.4-1-.8-1.9-1.3-2.9-.5-.6-1.1-1.1-1.6-1.7 1-.5 2-.9 3-1.4.6-.5 1.1-1.1 1.7-1.6.4.9.8 1.9 1.3 2.9.3.7.9 1.2 1.5 1.8z"/></svg><svg width="34" height="36" viewBox="-2 -2 34 36" x="136" y="313"><path fill="#fff" d="M29.3 10.8C27.6 4.9 22 .4 15.9 0h-1.7C7.2.3.9 6.1.2 13.1c-.4 4.6-.1 9.2-.2 13.8h5.6V32h4v-1.5h1.3V32h3.5v-1.5h1.3V32h3.5v-1.5h1.3V32h3.9v-5.5h5.5c-.2-5.2.6-10.6-.6-15.7zM19.1 9.7h1.8v5.7h-1.8V9.7zm-3.3 0h1.8v5.7h-1.1l-.7-1V9.7zm-1.4-5.8h1.3v4.2h-1.3V3.9zm1.1 11.7v1.8H9.2v-1.8h6.3zm-3-5.9h1.8v4.9h-1.8V9.7zM4.2 22.2L3.7 21l3.9-1.6.5 1.2-3.9 1.6zm3.4-10l-3.9-1.6.5-1.2L8.1 11l-.5 1.2zm1.6-2.5H11v4.9H9.2V9.7zm6.6 17.8h-1.3v-4.2h1.3v4.2zm5.1-9.2v3.3H9.2v-3.3h7.6v-1.8h4.1v1.8zm5.1 3.9l-3.9-1.6.5-1.2 3.9 1.6-.5 1.2zm-3.4-10l-.5-1.2L26 9.4l.5 1.2-3.9 1.6z"/></svg><svg width="34" height="36" viewBox="-2 -2 34 36" x="170" y="313"><path fill="#fff" d="M21.4 16.4c.5 2.7-.7 5.8-3.3 7-2.9 1.6-6.9.2-8.3-2.8-1.6-3.1-.1-7.2 3.1-8.5 2-.9 4.3-.4 6.1.7.3-.3.9-1 1.2-1.3v3.7h-3.5c.4-.4 1.1-1.1 1.4-1.5-1.4-.7-3.1-1.1-4.6-.4-2.8 1-3.8 4.6-2.5 7.1 1.8 3.2 6.8 3.2 8.6-.1.6-1.2.6-2.6.4-3.9.5-.1 1.1-.1 1.4 0zm8.5 10.1h-5.5V32h-3.9v-1.5h-1.3V32h-3.5v-1.5h-1.3V32h-3.5v-1.5H9.6V32h-4v-5.1H0c.1-4.6-.2-9.2.2-13.8.7-7 7-12.8 14-13.1h1.7c6.1.4 11.7 4.9 13.4 10.8 1.2 5.1.4 10.5.6 15.7zM12.6 7.8h5.7V5h-5.7v2.8zM8.8 5c.4 1 .8 1.9 1.2 2.8h1.9V5H8.8zm14.1 8.1c-1.6-1.4-2.5-3.5-4.5-4.6h-6c-1.9 1.1-2.8 3.3-4.4 4.6-.1 2.9 0 5.8 0 8.7l3.3 3.9h8.5l3.3-3.9c-.2-2.8-.2-5.8-.2-8.7z"/></svg><svg width="34" height="36" viewBox="-2 -2 34 36" x="204" y="313"><path fill="#fff" d="M16.1 16H14c.1-.3.3-.6.4-.8 0-.1.1-.2.1-.3.2-.4.4-.7.5-1.1.3.7.7 1.4 1.1 2.2zm13.8 10.5h-5.5V32h-3.9v-1.5h-1.3V32h-3.5v-1.5h-1.3V32h-3.5v-1.5H9.6V32h-4v-5.1H0c.1-4.6-.2-9.2.2-13.8.7-7 7-12.8 14-13.1h1.7c6.1.4 11.7 4.9 13.4 10.8 1.2 5.1.4 10.5.6 15.7zm-5.2-1.6c-.9-1.2-1.7-2.3-2.7-3.5 1.5-1.7 2.5-3.9 2.5-6.4 0-5.2-4.3-9.5-9.5-9.5-2.4 0-4.6.9-6.3 2.4-1.2-1-2.4-2-3.7-3 1 1.3 2 2.5 3 3.8-1.5 1.7-2.5 3.9-2.5 6.3 0 5.2 4.3 9.5 9.5 9.5 2.4 0 4.6-.9 6.3-2.4 1.1 1 2.2 1.9 3.4 2.8zm-4.5-3.8l.7.7C19.3 23.2 17.3 24 15 24c-5 0-9-4-9-9 0-2.3.9-4.4 2.3-6l.7.7c-.5.6-1 1.3-1.3 2l4.3 1.8c.1-.2.2-.3.3-.4l.4.4c-.2.3-.4.7-.5 1.1v1c.2 1.2 1.1 2.1 2.3 2.3h1c.4-.1.8-.2 1.1-.4l.4.4c-.1.1-.3.2-.4.2l1.8 4.3c.6-.4 1.2-.8 1.8-1.3zM7.5 17.8l4.3-1.8c-.1-.3-.2-.7-.2-1 0-.4.1-.7.2-1l-4.3-1.8C7.2 13.1 7 14 7 15c0 1 .2 1.9.5 2.8zm4.2 4.5l1.8-4.3c-.6-.3-1.2-.8-1.5-1.5l-4.3 1.8c.8 1.8 2.2 3.2 4 4zm6.1.2L16 18.2c-.3.1-.7.2-1 .2-.4 0-.7-.1-1-.2l-1.8 4.3c.9.3 1.8.5 2.8.5s1.9-.2 2.8-.5zM24 15c0 2.3-.9 4.4-2.3 6l-.7-.7c.5-.6 1-1.3 1.3-2L18 16.5c-.1.2-.2.3-.3.4l-.4-.4c.1-.1.1-.2.2-.3.1-.1.1-.3.2-.5 0-.1.1-.3.1-.4v-1c0-.1-.1-.3-.1-.4-.1-.2-.1-.3-.2-.5-.3-.5-.7-.9-1.2-1.2-.3-.1-.5-.2-.8-.3h-1c-.1 0-.3.1-.4.1-.2.1-.3.1-.5.2-.1 0-.2.1-.2.2L13 12c.1-.1.3-.2.4-.2l-1.8-4.3c-.6.5-1.2.9-1.8 1.4l-.7-.7C10.7 6.8 12.7 6 15 6c5 0 9 4 9 9zm-6.2-7.5C16.9 7.2 16 7 15 7s-1.9.2-2.8.5l1.8 4.3c.3-.1.7-.2 1-.2s.7.1 1 .2l1.8-4.3zm4.5 4.2c-.8-1.8-2.2-3.2-4-4L16.5 12c.6.3 1.2.8 1.5 1.5l4.3-1.8zm.2 6.1c.3-.9.5-1.8.5-2.8 0-1-.2-1.9-.5-2.8L18.2 14c.1.3.2.7.2 1 0 .4-.1.7-.2 1l4.3 1.8z"/></svg><svg width="34" height="36" viewBox="-2 -2 34 36" x="331" y="124"><path fill="#fff" d="M29.3 10.8C27.6 4.9 22 .4 15.9 0h-1.7C7.2.3.9 6.1.2 13.1c-.4 4.6-.1 9.2-.2 13.8h5.6V32h3.8v-1.5h1.3V32h3.5v-1.5h1.3V32H19v-1.5h1.3V32h3.9v-5.5h5.5c0-5.2.8-10.6-.4-15.7zM8.5 20.9c.8-.9 1.7-1.9 2.5-2.8.9.9 1.7 1.8 2.6 2.7-.9.9-1.7 1.9-2.6 2.8-.8-.9-1.7-1.8-2.5-2.7zm6.2 6.1L12 24.3l2.7-2.7 2.7 2.7c-1 .9-1.8 1.8-2.7 2.7zm3.6-3.4c-.9-.9-1.7-1.8-2.6-2.8.9-.9 1.7-1.8 2.6-2.7.9.9 1.7 1.8 2.6 2.7-.9 1-1.7 1.9-2.6 2.8zm4.2-10.1c-.2.9-.5 1.7-.7 2.6H7.6c-.2-.9-.5-1.7-.7-2.6-.7-2-1.2-4-.3-6 .4.7.8 1.4 1.3 2.2-.2.5-.4.9-.6 1.4 1.6 1.5 3.9.9 5.7.2.4-.9.2-1.8.2-2.7-.2-.1-.6-.2-.8-.3.8-1.5 1.5-2.9 2.3-4.4.7 1.5 1.5 2.9 2.3 4.4l-.8.4c0 .9-.1 1.8.1 2.7 1.8.7 4.1 1.3 5.8-.2-.2-.5-.4-.9-.6-1.4.4-.7.9-1.5 1.4-2.2.8 1.8.2 3.9-.4 5.9z"/></svg><svg width="34" height="36" viewBox="-2 -2 34 36" x="297" y="160"><path fill="#fff" d="M29.3 10.8C27.6 4.9 22 .4 15.9 0h-1.7C7.2.3.9 6.1.2 13.1c-.4 4.6-.1 9.2-.2 13.8h5.6V32h4v-1.5h1.3V32h3.5v-1.5h1.3V32h3.5v-1.5h1.3V32h3.9v-5.5h5.5c-.2-5.2.6-10.6-.6-15.7zM18.2 27h-6.9L8 12l3.2-6.2h6.9l3.2 6.2-3.1 15zM11.6 6.4l-3 5.7 3.1 14.3h6l3.1-14.3-3-5.7h-6.2zm5.6 19.4h-5L9.3 12.2 12 7h5.5l2.7 5.2-3 13.6z"/></svg><svg width="72" height="72" viewBox="-2 -2 55 55" x="146" y="192"><path fill="#fff" d="M0 0h23.75C14.87.83 7.18 6.88 3.55 14.91 2.36 16.66 1.1 18.36 0 20.16V0z"/><path d="M23.75 0h4.63c10.19 1.06 19.25 9.02 21.17 19.15 1.11 7.68.29 15.47.57 23.2-2.89.05-5.79.07-8.68.06 0 2.86-.04 5.73-.06 8.59h-6.13c-.3-.78-.9-2.35-1.19-3.13-.53 1.04-1.06 2.07-1.54 3.13h-5.31c1.52-3.53-4.48-3.01-1.93 0h-5.57c-.71-1.03-1.37-2.09-2.04-3.14l-.6 3.14h-6.22c-.02-2.62-.08-5.24-.07-7.86-2.92.02-5.83 0-8.74-.06.3-9.37-1.24-19.04 1.51-28.17C7.18 6.88 14.87.83 23.75 0z"/><path fill="#fff" d="M28.38 0H51v51h-9.62c.02-2.86.06-5.73.06-8.59 2.89.01 5.79-.01 8.68-.06-.28-7.73.54-15.52-.57-23.2C47.63 9.02 38.57 1.06 28.38 0z"/><path fill="#eaeaea" d="M17.65 5.35c4.96 3.14 11.73 3.15 16.7.03-1.44 2.14-2.62 4.45-3.75 6.77 1.49.9 2.93 1.89 4.4 2.85 1.44-1.82 2.74-3.75 3.67-5.88-.16 5.8 2.57 11.71 7.65 14.72-2.49-.12-4.97-.07-7.46-.01a91.16 91.16 0 0 1-.93 5.45c2.37.98 4.81 1.83 7.34 2.27-6.04 1.17-10.29 6.27-12.26 11.85-.14-2.54-.9-4.98-1.77-7.35a16.12 16.12 0 0 1-10.47 0c-.86 2.38-1.63 4.79-1.96 7.31-1.65-5.81-6.3-10.46-12.13-12.05 2.57-.18 5.01-1.02 7.36-2.01-.33-1.82-.65-3.64-.89-5.47-2.49-.06-4.99-.11-7.48.04 5.11-3.03 7.77-8.96 7.7-14.77.91 2.14 2.16 4.1 3.63 5.9 1.46-.96 2.9-1.95 4.4-2.86-1.13-2.33-2.32-4.63-3.75-6.79z"/><path d="M20.64 8.07c3.55.93 7.22.88 10.78.02-1.2 2.46-2.42 4.91-3.89 7.23.83.46 1.74.73 2.69.81 1.36.64 2.65 1.42 3.78 2.4 1.16-1.94 2.5-3.75 3.89-5.53.53 3.7 2.29 6.98 4.98 9.55-4 .14-8.01.39-12.02.16a7.368 7.368 0 0 1 2.79-2.96c-2.64-.46-5.21-3.47-7.86-1.97-1.99-1.28-3.51 1.21-5.26 1.86-2.21-1.29 1.38-2.94 1.93-3.95l.79 1.38c.44-1.25.74-2.54 1.01-3.83l-.91.93c-.77-2.09-1.72-4.11-2.7-6.1zm-6.55 4.95c2.41 3.15 4.78 6.34 7.07 9.57-3.87.43-7.76.11-11.64-.02 2.22-2.82 4.1-5.92 4.57-9.55z"/><path fill="#ededed" d="M0 20.16c1.1-1.8 2.36-3.5 3.55-5.25-2.75 9.13-1.21 18.8-1.51 28.17 2.91.06 5.82.08 8.74.06-.01 2.62.05 5.24.07 7.86H9.8c-2.96-2.2-6.36-3.67-9.8-4.94v-25.9z"/><path d="M26.45 20.11c.33 2.08 1.73 3.49 3.66 4.19-2.02.46-3.19 2.03-3.81 3.9-.3-2.13-1.78-3.54-3.84-3.98 2.18-.4 3.54-2 3.99-4.11zm-9.32 3.84c3.67-.67 1.31 4.76 5.11 4.53-1.41 3.58-2.56 7.26-3.85 10.88-1.71-3.32-4.35-5.98-7.7-7.64 2.64-.98 5.54-1.48 7.98-2.93-.21-1.67-1.19-3.18-1.54-4.84zm16.36.03l2.17.24c-.49 1.59-.34 3.92-2.6 3.91.12-1.38.27-2.77.43-4.15zm-3.59 4.03c3.82 1.03 7.51 2.47 11.27 3.68-3.23 1.78-5.87 4.37-7.55 7.68-1.32-3.76-2.72-7.5-3.72-11.36zm-7.61 4.46l.4-1.89c2.19.58 4.44.72 6.68.39l.52 1.73c-2.53.54-5.11.44-7.6-.23z"/><path fill="#fff" d="M0 46.06C3.44 47.33 6.84 48.8 9.8 51H0v-4.94z"/><path fill="#eaeaea" d="M17.67 47.86c.67 1.05 1.33 2.11 2.04 3.14h-2.64l.6-3.14zM25.28 51c-2.55-3.01 3.45-3.53 1.93 0h-1.93zm7.24 0c.48-1.06 1.01-2.09 1.54-3.13.29.78.89 2.35 1.19 3.13h-2.73z"/></svg><svg width="34" height="36" viewBox="-2 -2 34 36" x="297" y="196"><path fill="#fff" d="M29.3 10.8C27.6 4.9 22 .4 15.9 0h-1.7C7.2.3.9 6.1.2 13.1c-.4 4.6-.1 9.2-.2 13.8h5.6V32h4v-1.5h1.3V32h3.5v-1.5h1.3V32h3.5v-1.5h1.3V32h3.9v-5.5h5.5c-.2-5.2.6-10.6-.6-15.7zm-2.7 4.9c-.9.3-2.9.5-3.7.1-.6-.1-1.1-.4-1.7-.3-.3.6-1.7-.3-2.1.4 0 .1.1.2.2.3.8.7.9 1.9 1.1 2.9.3 0 .5.5.4.8.2-.1.5.3.4.5.2-.1.5.3.4.5.7.5 1.3 1.1 1.9 1.7.4 0 .2.5-.1.5.1.6.4 1.1.5 1.7.2-.2.1.3.1.5-.4.1-.7-.3-.6-.7-.4-.2-.6-.8-.5-1.2-.3 0-.4-.4-.2-.6-.7-.6-1.5-1.2-1.8-2.1-.5-.2-.8-.9-.9-1.4 0-.1-.1-.2-.1-.3-.2.1-.4-.3-.2-.5-.1-.2-.3-.3-.3-.6-.2.1-.4-.3-.2-.5-.4-.1-.5-1.6-.9-.8 0 0 .1.1.1.2.2 0 .4.4.2.6.1.3.2.5.3.8.7 1 .5 2.9-.5 3.8-.2.4-.5.7-.8 1 .2.2-.1.6-.4.5-.1.2-.2.3-.3.5-.2.4-.5.9-.9.9l-.3.3c-.2.3-.7.4-.8 0-.1 0-.2-.1-.2-.1-.6-.2-1-.7-1.3-1.3l-.1-.1c-.4-.3-.8-.7-.9-1.2-1-.9-1.7-2.7-.9-4 0-.1.1-.2.1-.3l.1-.1c-.1-.2 0-.6.2-.6.1-.2.1-.5.3-.6.2-.6-.1-.4-.5-.2.1.2 0 .7-.2.7-.2.4-.3.7-.5 1-.1.4-.3 1-.6 1.2l-.1.1c0 .4-.3.8-.6 1l-.1.1c.1.2-.2.5-.4.4-.1.5-.6.8-.9 1.2-.4.4-.3 1.1-.8 1.4-.1.4-.7 1.5-.8.8.1-.7.7-1.4.3-2-.2-.2.1-.5.3-.4.5-.6 1-1.3 1.7-1.6.1-.1.2-.3.3-.4.1-.4.3-.9.7-1-.2-.2 0-.6.2-.5 0-.4.2-1.2.4-1.3-.1-.2-.1-.8.2-.8-.1-.3.2-.7.5-.8-.2-.8-1.2-.3-1.8-.4.2.2-.3.1-.4.1-.4-.3-.8 0-1.2.1-1.2.5-3.1.4-4.3 0-.2.1-.2-.5.1-.4 1.3-.1 2.9-.2 4.5-.5.1-.6.9-.1 1.3-.2.8-.2 1.9.7 2.5-.1.1-.3-.3-.3-.3-.5-.7-.4-1.6-.5-2.5-.3-.4-.2-1.2 0-1.1-.7-.5-.2-1.2-.5-1.1-1.2-.5-.1-.6-.8-.8-1.1-.1-.1-.2-.2-.2-.3-.2.1-.6-.3-.4-.5-.1-.1-.2-.3-.3-.5-.5-.1-.2-1.2.1-.5.2.2.4.4.5.7.3.1.6.4.7.7.1.1.2.2.3.2.8.4 1.3 1.1 1.6 1.9.4-.1.8.1 1.2.1l.2-.2c.2-.3.8.9 1.4.3-.2-.3.5-.4.3 0 .3.3 1 .7.7 0-.3.1-.7-.3-.7-.6-.3-.3-.6-.9-.6-1.4-.1-.2-.2-.3-.3-.5-.7-.6-.8-1.9-.1-2.5 0-.1.1-.2.2-.2.1-.3.2-.9.6-1.1-.2-.2 0-.6.2-.5 0-.3-.1-1 .3-1-.1-.7-.1-1.6.4-2.2.8-.3.2 1 .3 1.4-.3.9-.1 2.2-.7 2.8.2.2 0 .6-.2.5.1.3-.1.7-.4.8-.4 1 .5 1.6.7 2.5.3-.3.3-1.1 1.1-1 .1 0 .2-.1.2-.1.3-.3.7-.4 1-.4.1.4-.4.6-.8.6-.1.1-.3.1-.4.2-.1.2-.4.7 0 .7 0 0 .1-.1.2-.1 0-.5.8-.2 1.1-.4.7-.2 1.9 0 2.4.3.1 0 .2.1.3.2.3 0 .4-.1.4-.4 0 0-.1-.1-.1-.2-.2.1-.5-.1-.5-.3-.3.1-.8-.1-.8-.5 0 .1 1.1 0 1 .2.3.1.7.1.8.4h.1c-.4 1.1.3.5.6.4-.2-.1 0-.6.2-.5 0-.2.2-.3.3-.4 0-.4.1-.9 0-1.3-.2-.2-.4-.4-.4-.6-.2.1-.4-.3-.2-.5-.6-1-.7-2.6-.7-3.8-.5 0 0-1.1.4-.4v.1c.4.6.4 1.5.4 2.2.4.2.5 1 .5 1.4.4.1.5.7.5 1 .6.3.8 1.6.2 2-.1.2-.2.4-.4.5 0 .1 0 .2-.1.2 0 .6-.5 1-.6 1.6.1.1.3.2.3.3.3 1.1 1.1-.6 1.7.1h.9c.2-.1.3-.2.5-.3 0-.5.4-1.2.9-1.2.4-.5.9-1.1 1.4-1.4.1-.1.1-.3.2-.4 0-.3.3-.6.6-.5 0 .3.1.6-.3.7.2.2 0 .6-.2.5 0 .2-.2.3-.3.4 0 .4-.3.6-.6.8-.3.4-.5.8-.7 1.2.1.5-.5.7-.9.8-.7 1.1-2.2.3-3.3.8 0 .4-.8.4-.6.9 1.2.4 2.3-.2 3.5 0 1.5.7 3.2.5 4.8.7.1.2.3.8 0 .7z"/></svg><svg width="34" height="36" viewBox="-2 -2 34 36" x="331" y="196"><path fill="#fff" d="M5.9 8.8c0-.1.1-.2.1-.3l1.5-1.7c.2-.1.3-.2.5-.2h.2v.3c.1.2.2.3.3.5 0 .1 0 .2-.1.3L6.9 9.4c-.1 0-.2.1-.2.1v-.3c0-.2-.1-.3-.3-.4-.2-.1-.3-.1-.5 0zm-1.7 6.4c.1-.1.3-.2.3-.4l.7-2.2c.1-.2.1-.4 0-.5h-.5c-.2 0-.3-.1-.3-.2-.1.1-.3.2-.3.4l-.6 2.2c-.1.2 0 .5.2.6h.2c.2 0 .4 0 .3.1zm.7 3c0 .1-.1.1-.1.2-.1.1-.3.3-.4.3h-.1c-.1 0-.3 0-.4-.1v.3l.9 2.1c.1.2.2.3.4.3 0-.1.1-.2.2-.3h.5v-.5L5 18.4s-.1-.1-.1-.2zm2.9 5.4s-.1-.1-.2-.1v.3c0 .2-.2.3-.3.4-.1 0-.2.1-.3.1h-.2c0 .1.1.2.2.3l1.7 1.6c.1.1.3.2.4.2h.3v-.3c0-.2.1-.3.3-.4 0-.1-.1-.2-.2-.3l-1.7-1.8zm3.8-17.9c.1.2.1.3 0 .5v.1h.1l2.3-.5c.1 0 .2-.1.3-.2-.2-.2-.3-.4-.3-.5 0-.1 0-.3.1-.4-.1-.1-.2-.1-.3-.1h-.1l-2.3.5c-.1 0-.2.1-.3.2.2 0 .4.2.5.4zm12 5.1c0 .1.1.1.2.2 0-.1 0-.2.1-.3.1-.2.2-.3.4-.3h.5c0-.1 0-.2-.1-.3l-1.3-1.9c0-.1-.2-.2-.3-.2 0 .1 0 .2-.1.3-.1.2-.2.3-.4.3h-.5c0 .1 0 .2.1.3l1.4 1.9zM12.9 26.1h-.3l.2.2c.1.2.1.3.1.5s-.2.3-.3.4h.2l2.3.3h.4c-.1-.1-.1-.2-.1-.3 0-.2 0-.3.1-.5.1 0 .1-.1.2-.2-.1-.1-.2-.2-.4-.2l-2.4-.2zm7-19.2l.1-.1c0-.2 0-.4.1-.5.1-.2.3-.3.4-.3h.2l-.2-.2-2.1-1h-.3c-.1 0-.3 0-.3.1.1.1.1.2.1.3-.1.2-.2.4-.4.5.1.1.2.2.3.2l2.1 1zm5.8 6.7c0 .1-.1.1-.3.2h-.5c-.1.1-.2.3-.1.5l.4 2.3c0 .2.1.3.3.4h.5c.1 0 .2-.1.3-.2.1-.2.1-.3.1-.5L26 14c0-.2-.2-.3-.3-.4zm4.2 12.9h-5.5V32h-3.9v-1.5h-1.3V32h-3.5v-1.5h-1.3V32h-3.5v-1.5H9.6V32h-4v-5.1H0c.1-4.6-.2-9.2.2-13.8.7-7 7-12.8 14-13.1h1.7c6.1.4 11.7 4.9 13.4 10.8 1.2 5.1.4 10.5.6 15.7zm-3-10.3l-.4-2.3c0-.3-.3-.6-.6-.8v-.2l-.7-2c.2-.3.2-.7 0-1.1l-1.3-1.9c-.2-.3-.6-.5-.9-.5l-1.7-1c0-.4-.3-.7-.6-.9l-2.1-1.1c-.1-.1-.3-.1-.5-.1-.3 0-.5.1-.7.3h-.2l-2.4-.2h-.1c-.3-.3-.6-.4-.9-.4h-.2l-2.3.6c-.4.1-.7.4-.8.8L8.6 6c-.1 0-.1.1-.2.1H8c-.3 0-.6.1-.8.4L5.6 8.2c-.2.3-.3.7-.2 1.1l-.9 2v.2c-.3.1-.6.4-.7.7l-.7 2.2c-.1.4 0 .9.3 1.1v.3l.2 2.2c-.2.3-.3.7-.2 1.1l.9 2.1c.1.3.4.6.8.6 0 0 0 .1.1.2l1.1 1.8c-.1.4 0 .8.3 1.1l1.7 1.6c.2.2.5.3.7.3s.3 0 .5-.1c0 0 .1.1.2.1l2.1.6c.2.3.5.5.8.5l2.4.1h.1c.3 0 .5-.1.7-.3h.1l2.3-.3c.1 0 .2 0 .2-.1.2.1.4.2.6.2s.4-.1.6-.2l1.9-1.4c.3-.3.5-.6.4-1l1.4-1.7s0-.1.1-.1c.4 0 .7-.2.9-.5l1.3-1.9c.2-.3.2-.6.2-.8 0-.1 0-.2-.1-.3l.6-2v-.4c.1-.1.3-.2.3-.3.3-.1.4-.4.3-.7zm-2.1.3c.1.3.2.5.4.7v.1l-.7 1.9c-.3.1-.5.2-.7.5l-1.4 1.9c-.1.3-.2.7-.1 1l-1.2 1.5h-.2c-.2 0-.4.1-.6.2l-1.9 1.4c-.2.2-.4.4-.4.6l-2 .3c0-.1-.1-.2-.1-.2-.1-.2-.4-.4-.7-.4l-2.3-.3h-.1c-.3 0-.6.1-.8.3l-2-.6c0-.2-.1-.4-.3-.6L8 23.2c-.2-.2-.4-.3-.7-.3l-1-1.7c.1 0 .1-.1.1-.1.1-.3.1-.6 0-.9l-.9-2.1c-.1-.3-.3-.5-.6-.6l-.2-1.9c.2-.1.4-.3.5-.6l.7-2.2c.1-.3 0-.6-.1-.9-.1 0-.1-.1-.1-.1l.9-1.8c.3 0 .5-.2.7-.4l1.5-1.8c.2-.1.3-.3.3-.6l1.8-.6c.2.1.4.2.6.2h.3l2.3-.5c.3-.1.5-.2.7-.5l2.3.1c.1.2.3.4.5.5l2.1 1c.2.1.3.1.5.1.1 0 .3-.1.4-.1l1.4.9c-.1.2 0 .5.1.7l1.3 1.9c.2.3.4.5.7.5l.6 1.9c-.1 0-.1.1-.1.1-.2.2-.3.5-.2.8l.4 2.3zM13 10.9h3.9V9H13v1.9zM10.4 9c.3.7.5 1.3.8 1.9h1.3V9h-2.1zm9.7 11.4c-.1-1.9-.1-4-.1-5.9-1.1-.9-1.7-2.4-3-3.1h-4.1c-1.3.7-1.9 2.2-3 3.1-.1 2 0 3.9 0 5.9l2.2 2.6h5.7l2.3-2.6zm.9 5c-.2-.1-.3-.3-.3-.4v-.3c-.1 0-.2 0-.2.1l-1.9 1.4c-.1 0-.2.1-.2.3.2.1.3.3.3.4v.3c.1 0 .2.1.3.1s.3 0 .3-.1l1.9-1.4.2-.2h-.1c0-.1-.1-.2-.3-.2zm3.8-5.1c-.2-.1-.3-.2-.4-.3 0-.1-.1-.2-.1-.3-.1 0-.1.1-.2.2l-1.3 2c-.1.1-.1.3-.1.5.2 0 .3 0 .4.1.1.1.2.2.2.3.2 0 .4-.1.5-.3l1.3-1.9c.1-.1.1-.2.1-.3-.1 0-.2.1-.3.1.1 0 0-.1-.1-.1z"/></svg><svg width="72" height="72" viewBox="-2 -2 55 55" x="218" y="192"><path fill="#fff" d="M0 0h24.13C12.94.57 2.92 9.77 1.73 20.95c-.57 7.31-.1 14.65-.26 21.97 2.98.01 5.96.01 8.94.01 0 2.69.01 5.38.01 8.07H0V0z"/><path d="M24.13 0h2.98c9.76.69 18.71 7.74 21.38 17.19 2.01 8.19.64 16.73 1.03 25.07-2.92 0-5.84 0-8.76.01V51h-6.25c-.02-.59-.05-1.76-.07-2.35-.53.01-1.6.01-2.13.01-.01.58-.02 1.75-.03 2.34h-5.64c-.03-.59-.07-1.77-.09-2.36-.53.01-1.6.02-2.13.03 0 .58-.02 1.75-.02 2.33h-5.64c-.03-.59-.08-1.77-.11-2.36l-2.11.04c-.01.58-.02 1.74-.02 2.32h-6.1c0-2.69-.01-5.38-.01-8.07-2.98 0-5.96 0-8.94-.01.16-7.32-.31-14.66.26-21.97C2.92 9.77 12.94.57 24.13 0z"/><path fill="#fff" d="M27.11 0H51v51H40.76v-8.73c2.92-.01 5.84-.01 8.76-.01-.39-8.34.98-16.88-1.03-25.07C45.82 7.74 36.87.69 27.11 0z"/><path fill="#dbdbdb" d="M24.59 6.1c.67 0 2.03.01 2.71.02.01 5.3.01 10.6.03 15.9-.91 1.02-1.82 2.02-2.75 3.01-.06-6.31-.01-12.62.01-18.93z"/><path fill="#f8f8f8" d="M8.44 9.45c5.77 3.46 10.83 7.87 15.28 12.89.1.64.28 1.92.38 2.56-1.39 1.85-2.1 4.02-2.39 6.29-2.93-1.35-6.06-2.39-8.74-4.24-2.51-1.82-3.16-5.09-4.36-7.76.89.65 2.68 1.95 3.57 2.6-1.33-2.66-2.75-5.28-4.28-7.83 2.85 2.38 5.77 4.71 9.01 6.56-2.3-4.06-5.15-7.79-8.47-11.07z"/><path fill="#f7f7f7" d="M23.72 27.71c5.72-6.96 11.93-13.7 19.82-18.24a51.447 51.447 0 0 0-8.46 11.06c3.24-1.86 6.16-4.19 9.03-6.56-1.53 2.54-2.95 5.15-4.27 7.8.89-.64 2.66-1.94 3.55-2.58-1.17 2.67-1.76 6.04-4.41 7.72-3.66 2.12-7.78 3.36-11.35 5.66-.47 1.9-.29 3.89-.36 5.83.77.03 2.3.1 3.06.13-1.22 2.75-2.66 5.41-4.35 7.9-1.68-2.47-3.26-5.04-4.33-7.85.74-.06 2.21-.19 2.95-.26-.02-1.1-.07-3.29-.09-4.39-.67.68-2.02 2.03-2.7 2.7.5-2.96.01-6.38 1.91-8.92z"/><path fill="#d5d5d5" d="M29.98 35.53c-2.05 1.37-2.83-3.96-.31-2.62.08.66.24 1.97.31 2.62z"/><path fill="#fff" d="M16.54 48.68l2.11-.04c.03.59.08 1.77.11 2.36h-2.24c0-.58.01-1.74.02-2.32zm7.88-.01c.53-.01 1.6-.02 2.13-.03.02.59.06 1.77.09 2.36H24.4c0-.58.02-1.75.02-2.33zm7.89-.01c.53 0 1.6 0 2.13-.01.02.59.05 1.76.07 2.35h-2.23c.01-.59.02-1.76.03-2.34z"/></svg><svg width="34" height="36" viewBox="-2 -2 34 36" x="331" y="232"><path fill="#fff" d="M29.3 10.8C27.6 4.9 22 .4 15.9 0h-1.7C7.2.3.9 6.1.2 13.1c-.4 4.6-.1 9.2-.2 13.8h5.6V32h4v-1.5h1.3V32h3.5v-1.5h1.3V32h3.5v-1.5h1.3V32h3.9v-5.5h5.5c-.2-5.2.6-10.6-.6-15.7zM23 21.4c-5.3.1-10.7.1-16 0v-.7h16.1l-.1.7zm.5-2.7l-.5 1.7H7c-.1-.4-.3-1.3-.5-1.7-.6-2.2-1.7-4.5-.6-6.8.4.8.9 1.5 1.4 2.3-.9.6-.5 2 .5 2.1 1.8.3 3.7.3 5.3-.7.4-.9.4-1.8 0-2.8l-.1.2c-.1-.2-.3-.7-.4-.9L15 7.9l2.4 4.2-.4.8-.2-.2c-.4.9-.4 1.9 0 2.8 1.6.9 3.5 1 5.2.7 1.1-.1 1.5-1.5.6-2.2.5-.8 1-1.5 1.4-2.3 1.1 2.5.1 4.8-.5 7z"/></svg><svg width="34" height="36" viewBox="-2 -2 34 36" x="238" y="313"><path fill="#fff" d="M29.3 10.8C27.6 4.9 22 .4 15.9 0h-1.7C7.2.3.9 6.1.2 13.1c-.4 4.6-.1 9.2-.2 13.8h5.6V32h4v-1.5h1.3V32h3.5v-1.5h1.3V32h3.5v-1.5h1.3V32h3.9v-5.5h5.5c-.2-5.2.6-10.6-.6-15.7zM5 21.6c-2.7-3.9-2.1-9.7 1.3-13 2-2.2 5-3 7.9-3.1-4.5.9-8.4 4.6-8.7 9.3-.8 5.4 3.5 10.7 8.8 11.4-3.6.1-7.3-1.5-9.3-4.6zm10 2.1c-1.9-1.3-3.9-2.6-5.2-4.6-.3-2.8 0-5.7-.1-8.6h10.6c-.1 2.8.2 5.7-.1 8.6-1.2 2-3.3 3.3-5.2 4.6zm10.4-2.9c-1.8 3.5-5.8 5.4-9.6 5.7.2-1.1 1.9-.8 2.7-1.2 5.1-2.1 7.4-8.7 5.1-13.6-1.4-3.3-4.6-5.4-8-6.2 2.7.2 5.6.9 7.6 2.8 3.6 3.1 4.5 8.5 2.2 12.5zm-14.3-8.5c0 1.8-.1 3.7.3 5.5.7 1.6 2.2 2.6 3.5 3.7 1.3-1.1 2.9-2.1 3.7-3.7.4-1.8.3-3.7.3-5.5-2.6-.8-5.2-.9-7.8 0zm6.9 5.5c-.7 1.3-2 2.1-3 3.1V12c1.1.2 2.2.4 3.3.7-.1 1.6.1 3.4-.3 5.1z"/></svg><svg width="34" height="36" viewBox="-2 -2 34 36" x="164" y="132"><path fill="#fff" d="M29.3 10.8C27.6 4.9 22 .4 15.9 0h-1.7C7.2.3.9 6.1.2 13.1c-.4 4.6-.1 9.2-.2 13.8h5.6V32h4v-1.5h1.3V32h3.5v-1.5h1.3V32h3.5v-1.5h1.3V32h3.9v-5.5h5.5c-.2-5.2.6-10.6-.6-15.7zm-11.9 7.3c-2.7 2.8-5.5 5.5-8.2 8.2-1.2-.7-3.5-2.7-4.5-4.6 2.7-2.7 5.4-5.5 8.1-8.3-2.4-2.5-4.8-5.1-7-7.8 2.6 2.3 5.1 4.7 7.6 7 .8-.6 1.8-.9 2.8-1.3 2.6-2.1 5.1-4.8 8.6-5.3-.4 1.5-1 2.9-1.9 4.2-.9 1.3-1.9 2.6-3 3.7-.8 1-.9 2.4-1.8 3.4 2.3 2.6 4.7 5.1 7 7.7-2.6-2-5.1-4.5-7.7-6.9z"/></svg><svg width="34" height="36" viewBox="-2 -2 34 36" x="297" y="124"><path fill="#fff" d="M29.3 10.8C27.6 4.9 22 .4 15.9 0h-1.7C7.2.3.9 6.1.2 13.1c-.4 4.6-.1 9.2-.2 13.8h5.6V32h4v-1.5h1.3V32h3.5v-1.5h1.3V32h3.5v-1.5h1.3V32h3.9v-5.5h5.5c-.2-5.2.6-10.6-.6-15.7zm-4.9 11l-6-1.3.2 6.1-3.6-4.8-3.7 4.8.2-6.1-6 1.3 4.1-4.5-5.4-2.8 6-.8L8 8l5.2 3.2L15 5.4l1.9 5.8L22 8l-2.3 5.6 6 .8-5.4 2.8 4.1 4.6z"/></svg><svg width="34" height="36" viewBox="-2 -2 34 36" x="34" y="277"><path fill="#fff" d="M10.3 20.5c.2-1.3-.8-2.4-2-2.6.4.5 1.1.8 1.1 1.5.2 1-.7 2.2-1.8 2-1.3-.1-1.7-1.9-1.1-2.8.7-1.3 2.8-1.5 3.8-.4.7.7.6 1.8.4 2.7-.4 1.2-1.8 1.9-3 1.7l-.4-.2c1.3.5 2.8-.5 3-1.9zm11.8-1.9c-.3-.5-.4-1-.7-1.5-.3.3-.6.6-.9.8-.5.3-1 .4-1.5.7.3.3.6.5.8.9.3.5.4 1 .7 1.5.4-.3.7-.8 1.2-1 .4-.2.8-.3 1.2-.5-.3-.3-.6-.5-.8-.9zM17.4 6.5l-.9-.5c.2.6.4 1.1.7 1.6.1-.3.2-.7.2-1.1zM13 11.4c-.3.7-.1 1.6.4 2.2-.9-.3-1.8-.9-2.3-1.7-.7-1.1-.7-2.6-.3-3.8.1-.2.2-.5.3-.7l-5.4 3.2V14c.4-.2.7-.4 1.1-.5 1-.2 2.2-.3 3.1.2-1.5-.1-3 0-4.2.9v1.2c.1-.1.3-.2.4-.3 1.6-.9 3.7-.8 5.2.4 1.2.9 2 2.4 1.9 3.9 0 1.8-1 3.5-2.5 4.5l4.4 2.5 5.6-3.3-.9-.9c-.2-.2-.1-.6-.1-.8-.7.5-1.3 1.3-2 1.8 0-1-.1-2.1-.1-3.1.1-.2.3-.3.4-.4h-3c.8-.8 1.6-1.6 2.5-2.4h.7l-1.9-1.9c1-.1 2.1-.1 3.1-.1l.4.4v-3c.7.6 1.3 1.3 1.9 1.9.2.2.5.4.5.8.7-.6 1.3-1.3 1.9-1.9 0 1.2.1 2.4.1 3.6l-.4.4h.4v-7.5L18.1 7c.3.6.5 1.2.8 1.8.4 1 .2 2.1-.2 3-.5 1.1-1.7 1.7-2.8 1.9.7-.6.9-1.6.5-2.5-.5-.9-1.1-1.8-1.7-2.6-.6.9-1.3 1.8-1.7 2.8zm11.3 9.7v-.7h-.7l.7.7zm-12.6-2.7c.6 1.5.1 3.3-1.1 4.4-.4.3-.9.6-1.4.7l.3.2c2-.9 3.2-3.3 2.2-5.3zM22 22.8l.6-.3h-.1l-.4-.4c-.1.2-.1.4-.1.7zM5 14.4v-4.2l.3-.2 6.5-3.8c.5-.7 1.1-1.3 1.7-1.8.5-.4 1-.9 1.6-1.3L15 3 3.8 9.5v6c.3-.4.7-.8 1.2-1.1zm20 7v.4c.2.2.4.3.5.5-.5 0-1 0-1.5.1l-2 1.2V25l4.2-2.4v-3.9c-.4.4-.8.8-1.2 1.1v1.6zm4.9 5.1h-5.5V32h-3.9v-1.5h-1.3V32h-3.5v-1.5h-1.3V32h-3.5v-1.5H9.6V32h-4v-5.1H0c.1-4.6-.2-9.2.2-13.8.7-7 7-12.8 14-13.1h1.7c6.1.4 11.7 4.9 13.4 10.8 1.2 5.1.4 10.5.6 15.7zm-3-17.4l-.4-.2-10-5.9c.1-.4.2-.7.3-1.1-.4.2-.7.4-1 .7l-.5-.3-.3-.2-.4.2L3.4 8.9l-.3.2v7.4c-.3.5-.5 1-.6 1.6-.3 1.4-.1 3 .6 4.2v.6l.4.2.5.4c.7.7 1.5 1.2 2.4 1.4l8.2 4.8.4.2.4-.2 11.2-6.5.4-.2V9.1zM16.3 5v.1l1.2.7v-.1c0 .1.1.1.1.2l7.1 4.1.4.2V18h1.2V9.5l-9.8-5.7c-.2.4-.2.8-.2 1.2zm-.9 22.5l-.4.2-.4-.2-4.8-2.8c-.5.2-1.1.3-1.7.4l6.8 4 7-4.1-.9-.9-5.6 3.4zm-7.3-3.8h-.4c-1.7 0-3.3-1.3-3.7-2.9-.4-1.5 0-3.2 1-4.3v-1.2c-.5.5-.9 1.1-1.2 1.7v4.5c.8 1.6 2.6 2.7 4.4 2.5h.4l-.5-.3z"/></svg><svg width="34" height="36" viewBox="-2 -2 34 36" x="68" y="277"><path fill="#fff" d="M5 18.4l.9 2.1v.5h-.5c-.1.1-.2.2-.2.3-.2 0-.3-.1-.4-.3l-.9-2.1v-.3c.1.1.3.1.4.1h.1c.1 0 .3-.2.4-.3 0-.1.1-.1.1-.2 0 .1.1.2.1.2zm-.8-3.2c.1-.1.3-.2.3-.4l.7-2.2c.1-.2.1-.4 0-.5h-.5c-.2 0-.3-.1-.3-.2-.1.1-.3.2-.3.4l-.6 2.2c-.1.2 0 .5.2.6h.2c.2 0 .4 0 .3.1zM21 25.4c-.2-.1-.3-.3-.3-.4v-.3c-.1 0-.2 0-.2.1l-1.9 1.4c-.1 0-.2.1-.2.3.2.1.3.3.3.4v.3c.1 0 .2.1.3.1.1 0 .3 0 .3-.1l1.9-1.4.2-.2h-.1c0-.1-.1-.2-.3-.2zm-8.1.7h-.3l.2.2c.1.2.1.3.1.5s-.2.3-.3.4h.2l2.3.3h.4c-.1-.1-.1-.2-.1-.3 0-.2 0-.3.1-.5.1 0 .1-.1.2-.2-.1-.1-.2-.2-.4-.2l-2.4-.2zM11.6 5.7c.1.2.1.3 0 .5v.1h.1l2.3-.5c.1 0 .2-.1.3-.2-.2-.2-.3-.4-.3-.5 0-.1 0-.3.1-.4-.1-.1-.2-.1-.3-.1h-.1l-2.3.5c-.1 0-.2.1-.3.2.2 0 .4.2.5.4zm8.3 1.2h.1v-.1c0-.2 0-.4.1-.5.1-.2.3-.3.4-.3h.2l-.2-.2-2.1-1h-.3c-.1 0-.3 0-.3.1.1.1.1.2.1.3-.1.2-.2.4-.4.5.1.1.2.2.3.2l2.1 1zm3.7 3.9c0 .1.1.1.2.2 0-.1 0-.2.1-.3.1-.2.2-.3.4-.3h.5c0-.1 0-.2-.1-.3l-1.3-1.9c0-.1-.2-.2-.3-.2 0 .1 0 .2-.1.3-.1.2-.2.3-.4.3h-.5c0 .1 0 .2.1.3l1.4 1.9zm1.2 9.5c-.2-.1-.3-.2-.4-.3 0-.1-.1-.2-.1-.3-.1 0-.1.1-.2.2l-1.3 2c-.1.1-.1.3-.1.5.2 0 .3 0 .4.1.1.1.2.2.2.3.2 0 .4-.1.5-.3l1.3-1.9c.1-.1.1-.2.1-.3-.1 0-.2.1-.4 0 .2.1.1 0 0 0zM6.4 8.8c.2.1.3.2.3.4v.3s.1-.1.2-.1l1.5-1.7c.1-.1.1-.2.1-.3-.1-.2-.2-.3-.3-.5v-.3H8c-.2 0-.3.1-.5.2L6 8.5c0 .1-.1.2-.1.3.2-.1.3-.1.5 0zm1.4 14.8s-.1-.1-.2-.1v.3c0 .2-.2.3-.3.4-.1 0-.2.1-.3.1h-.2c0 .1.1.2.2.3l1.7 1.6c.1.1.3.2.4.2h.3v-.3c0-.2.1-.3.3-.4 0-.1-.1-.2-.2-.3l-1.7-1.8zm22.1 2.9h-5.5V32h-3.9v-1.5h-1.3V32h-3.5v-1.5h-1.3V32h-3.5v-1.5H9.6V32h-4v-5.1H0c.1-4.6-.2-9.2.2-13.8.7-7 7-12.8 14-13.1h1.7c6.1.4 11.7 4.9 13.4 10.8 1.2 5.1.4 10.5.6 15.7zm-3-10.3l-.4-2.3c0-.3-.3-.6-.6-.8v-.2l-.7-2c.2-.3.2-.7 0-1.1l-1.3-1.9c-.2-.3-.6-.5-.9-.5l-1.7-1c0-.4-.3-.7-.6-.9l-2.1-1.1c-.1-.1-.3-.1-.5-.1-.3 0-.5.1-.7.3h-.2l-2.4-.2h-.1c-.3-.3-.6-.4-.9-.4h-.2l-2.3.6c-.4.1-.7.4-.8.8L8.6 6c-.1 0-.1.1-.2.1H8c-.3 0-.6.1-.8.4L5.6 8.2c-.2.3-.3.7-.2 1.1l-.9 2v.2c-.3.1-.6.4-.7.7l-.7 2.2c-.1.4 0 .9.3 1.1v.3l.2 2.2c-.2.3-.3.7-.2 1.1l.9 2.1c.1.3.4.6.8.6 0 0 0 .1.1.2l1.1 1.8c-.1.4 0 .8.3 1.1l1.7 1.6c.2.2.5.3.7.3.2 0 .3 0 .5-.1 0 0 .1.1.2.1l2.1.6c.2.3.5.5.8.5l2.4.1h.1c.3 0 .5-.1.7-.3h.1l2.3-.3c.1 0 .2 0 .2-.1.2.1.4.2.6.2s.4-.1.6-.2l1.9-1.4c.3-.3.5-.6.4-1l1.4-1.7s0-.1.1-.1c.4 0 .7-.2.9-.5l1.3-1.9c.2-.3.2-.6.2-.8 0-.1 0-.2-.1-.3l.6-2v-.4c.1-.1.3-.2.3-.3.3-.1.4-.4.3-.7zm-2.1.3c.1.3.2.5.4.7v.1l-.7 1.9c-.3.1-.5.2-.7.5l-1.4 1.9c-.1.3-.2.7-.1 1l-1.2 1.5h-.2c-.2 0-.4.1-.6.2l-1.9 1.4c-.2.2-.4.4-.4.6l-2 .3c0-.1-.1-.2-.1-.2-.1-.2-.4-.4-.7-.4l-2.3-.3h-.1c-.3 0-.6.1-.8.3l-2-.6c0-.2-.1-.4-.3-.6L8 23.2c-.2-.2-.4-.3-.7-.3l-1-1.7c.1 0 .1-.1.1-.1.1-.3.1-.6 0-.9l-.9-2.1c-.1-.3-.3-.5-.6-.6l-.2-1.9c.2-.1.4-.3.5-.6l.7-2.2c.1-.3 0-.6-.1-.9-.1 0-.1-.1-.1-.1l.9-1.8c.3 0 .5-.2.7-.4l1.5-1.8c.2-.1.3-.3.3-.6l1.8-.6c.2.1.4.2.6.2h.3l2.3-.5c.3-.1.5-.2.7-.5l2.3.1c.1.2.3.4.5.5l2.1 1c.2.1.3.1.5.1.1 0 .3-.1.4-.1l1.4.9c-.1.2 0 .5.1.7l1.3 1.9c.2.3.4.5.7.5l.6 1.9c-.1 0-.1.1-.1.1-.2.2-.3.5-.2.8l.4 2.3zm-14.3 2.6l-.3-.8-2.5 1 .3.8 2.5-1zm0-6.1L8 12l-.3.8 2.5 1 .3-.8zm4.9 2.2l.4.6h.7v-3.6h-1.1v3zm-.8-4h.8V8.5h-.8v2.7zm-1.3 4.1h1.1v-3.1h-1.1v3.1zm-2.1 0h1.1v-3.1h-1.1v3.1zm0 1.8h4V16h-4v1.1zm4.2 3.7h-.8v2.7h.8v-2.7zm3.3-4.3h-2.6v1.1h-4.8v2.1h7.4v-3.2zm0-4.3h-1.1v3.6h1.1v-3.6zm3.5 7.2l-2.5-1-.3.8 2.5 1 .3-.8zm0-6.6l-.3-.8-2.5 1 .3.8 2.5-1zm3.5.8c0 .1-.1.1-.3.2h-.5c-.1.1-.2.3-.1.5l.4 2.3c0 .2.1.3.3.4h.5c.1 0 .2-.1.3-.2.1-.2.1-.3.1-.5L26 14c0-.2-.2-.3-.3-.4z"/></svg><svg width="34" height="36" viewBox="-2 -2 34 36" x="102" y="277"><path fill="#fff" d="M29.3 10.8C27.6 4.9 22 .4 15.9 0h-1.7C7.2.3.9 6.1.2 13.1c-.4 4.6-.1 9.2-.2 13.8h5.6V32h4v-1.5h1.3V32h3.5v-1.5h1.3V32h3.5v-1.5h1.3V32h3.9v-5.5h5.5c-.2-5.2.6-10.6-.6-15.7zM14.7 25.1c-5.5 0-10-4.5-10-10s4.5-10 10-10 10 4.5 10 10-4.5 10-10 10zM17.6 11c-1.5.3-2.7 1.4-3 2.8-.3-1.4-1.4-2.5-3-2.8 1.5-.3 2.7-1.4 3-2.8.3 1.4 1.5 2.5 3 2.8zm-4.9 6.8c-1.5.3-2.7 1.4-3 2.8-.3-1.4-1.4-2.5-3-2.8 1.5-.3 2.7-1.4 3-2.8.3 1.4 1.5 2.6 3 2.8zm9.9 0c-1.5.3-2.7 1.4-3 2.8-.3-1.4-1.4-2.5-3-2.8 1.5-.3 2.7-1.4 3-2.8.3 1.4 1.5 2.6 3 2.8z"/></svg><svg width="34" height="36" viewBox="-2 -2 34 36" x="136" y="277"><path fill="#fff" d="M14 13.6c-.3.3-.5.7-.9 1-.3-.5-.6-1-.9-1.4 0-.1.2-.3.4-.2.2-.2.3-.4.5-.6.3.3.6.8.9 1.2zm1.9-2.6v-.3c-.2-.3-.5-.6-.6-.9-.1-.1-.1-.3-.2-.4-.1.5-.5.9-.7 1.4.3.4.5.9.9 1.3.1-.4.3-.8.6-1.1zm-2 4.7c.3.5.5.9.7 1.4.1.5.4 1 .4 1.6h.1c0-.5.3-1 .4-1.5h.1c.2-.5.6-1 .8-1.5-.5-.2-.9-.6-1.3-.9-.4.3-.7.7-1.2.9zm16 10.8h-5.5V32h-3.9v-1.5h-1.3V32h-3.5v-1.5h-1.3V32h-3.5v-1.5H9.6V32h-4v-5.1H0c.1-4.6-.2-9.2.2-13.8.7-7 7-12.8 14-13.1h1.7c6.1.4 11.7 4.9 13.4 10.8 1.2 5.1.4 10.5.6 15.7zM25 9.4c-.1-.1-.2-.3-.4-.1-.1.2-.2 0-.4 0-.2.2-.5.3-.8.5 0-.2.2-.3.3-.4-.2 0-.3.1-.5.2-.1.1-.4.3-.5.1-.8.6-1.7 1.1-2.5 1.7-.3.3-.6.6-1 .9-.3-.3-.5-.7-.7-1.1-.5-.3-.6-.8-.5-1.3V9c-.1-.4-.1-.7-.2-1.1-.1-.2 0-.5 0-.8 0-.3-.1-.6-.1-.9 0-.3-.1-.6 0-.8v-.1c0-.1-.1-.2-.1-.3v.3c.1.2.1.3 0 .5-.1.4-.1.8-.3 1.1-.1.7-.2 1.4-.3 2l-.1.1c-.2-.3-.3-.6-.5-.9-.4-.6-.5-1.4-.8-2.1-.1-.7-.1-1.5-.3-2.2-.1-.2 0-.5 0-.7 0-.2.1-.6-.2-.5-.1.8-.1 1.5-.3 2.3.1.2.1.3 0 .5-.1.7-.4 1.4-.6 2-.2.5-.5.9-.7 1.4h-.1c-.4-1-.3-2.2-.5-3.2-.1-.1-.1-.3-.1-.5v-.2c0 .1-.1.2-.1.3 0 .6-.1 1.2-.2 1.8v.8c0 .3-.1.5-.2.7v.1c0 .9.3 2.1-.5 2.7-.2.2-.4.5-.7.7-.3-.2-.5-.5-.7-.7-.3-.3-.6-.6-1-.9-.6-.3-1.2-.7-1.8-1-.4-.2-.5.2-.7 0-.3-.1-.5-.1-.8-.2-.4-.1-.7-.5-1.1-.4.4.3 1 .5 1.3.9.5.1.8.5 1.1.9 0 .1 0 .3-.1.4-.3 0-.4-.4-.6-.5-.2-.2-.4-.1-.7-.1 0 .4.5.6.7.9.1.1 0 .2-.1.2.3.4.7.6.9 1.1.3.3.5.6.7.9.3.4.6.7.9 1.1.3.4.6.8.9 1.3 0 0 0 .1.1.1.4.7.8 1.4 1.3 2.1.3.5.5.9.8 1.4l.1.1c.1.1.1.2.1.3l.1.1c.2.3.3.5.4.8.1.1.1.2.1.4.1.2.1.4.2.6 0 .1 0 .1.1.2.1.4.3.9.4 1.3.1.1.1.3.1.5.3.9.4 1.8.5 2.8v.4c0 .1.1.3.1.4.1.1.1.3.1.5v.6c0 .1 0 .3.1.4.2-.1.1-.5.2-.7v-.9h.1v1.2c.1.3 0 .7.1 1v.1c0-.3.1-.5.1-.8 0-.7.1-1.5.3-2.2.1-.4.1-.9.2-1.3.1-.3.2-.6.2-.9 0-.1 0-.3.1-.4l.3-.9c0-.2.1-.3.2-.5 0-.1.1-.2.1-.4s.1-.3.1-.4c0-.1.1-.3.1-.4 0-.1.1-.2.1-.4 0 0 0-.1.1-.1.2-.4.5-.9.8-1.3l.1-.1c.3-.6.7-1.1 1-1.7.1-.1.1-.2.2-.3.1-.1.2-.3.3-.4.4-.6.8-1.3 1.3-1.8.1-.2.3-.4.4-.5l.3-.3c.2-.3.5-.5.7-.8.5-.6.9-1.2 1.5-1.6 0 0 0-.1-.1-.1v-.1l.6-.6c-.2-.1 0-.4-.3-.4-.1.1-.2.2-.4.2.1-.2.1-.3 0-.5.3-.3.6-.4.9-.7.4-.3.6-.4.8-.5zm-8.5 4c.5.1.4.7.7 1 0 .1 0 .3.2.2l.9-1.2c-.3-.3-.7-.6-1.1-1-.3.3-.5.6-.7 1z"/></svg><svg width="34" height="36" viewBox="-2 -2 34 36" x="170" y="277"><path fill="#fff" d="M3.9 15.1h-.2c-.2-.1-.3-.4-.2-.6l.6-2.2c0-.2.2-.3.3-.4 0 .1.1.2.3.2h.5c.1.1.1.3 0 .5l-.7 2.2c0 .2-.2.3-.3.4.1-.1-.1-.1-.3-.1zm2.5-6.3c.2.1.3.2.3.4v.3s.1-.1.2-.1l1.5-1.7c.1-.1.1-.2.1-.3-.1-.2-.2-.3-.3-.5v-.3H8c-.2 0-.3.1-.5.2L6 8.5c0 .1-.1.2-.1.3.2-.1.3-.1.5 0zM5 18.4s-.1-.1-.1-.2c0 .1-.1.1-.1.2-.1.1-.3.3-.4.3h-.1c-.1 0-.3 0-.4-.1v.3l.9 2.1c.1.2.2.3.4.3 0-.1.1-.2.2-.3h.5v-.5L5 18.4zm2.8 5.2s-.1-.1-.2-.1v.3c0 .2-.2.3-.3.4-.1 0-.2.1-.3.1h-.2c0 .1.1.2.2.3l1.7 1.6c.1.1.3.2.4.2h.3v-.3c0-.2.1-.3.3-.4 0-.1-.1-.2-.2-.3l-1.7-1.8zm15.8-12.8c0 .1.1.1.2.2 0-.1 0-.2.1-.3.1-.2.2-.3.4-.3h.5c0-.1 0-.2-.1-.3l-1.3-1.9c0-.1-.2-.2-.3-.2 0 .1 0 .2-.1.3-.1.2-.2.3-.4.3h-.5c0 .1 0 .2.1.3l1.4 1.9zm-6.1-5.1c.1.1.2.2.3.2l2.1 1h.1v-.1c0-.2 0-.4.1-.5.1-.2.3-.3.4-.3h.2l-.2-.2-2.1-1h-.3c-.1 0-.3 0-.3.1.1.1.1.2.1.3-.1.2-.2.4-.4.5zm-5.9 0c.1.2.1.3 0 .5v.1h.1l2.3-.5c.1 0 .2-.1.3-.2-.2-.2-.3-.4-.3-.5 0-.1 0-.3.1-.4-.1-.1-.2-.1-.3-.1h-.1l-2.3.5c-.1 0-.2.1-.3.2.2 0 .4.2.5.4zm13.2 14.6c-.2-.1-.3-.2-.4-.3 0-.1-.1-.2-.1-.3-.1 0-.1.1-.2.2l-1.3 2c-.1.1-.1.3-.1.5.2 0 .3 0 .4.1.1.1.2.2.2.3.2 0 .4-.1.5-.3l1.3-1.9c.1-.1.1-.2.1-.3-.1 0-.2.1-.3.1.1 0 0-.1-.1-.1zM26 14c0-.2-.2-.3-.3-.4 0 .1-.1.1-.3.2h-.5c-.1.1-.2.3-.1.5l.4 2.3c0 .2.1.3.3.4h.5c.1 0 .2-.1.3-.2.1-.2.1-.3.1-.5L26 14zm3.9 12.5h-5.5V32h-3.9v-1.5h-1.3V32h-3.5v-1.5h-1.3V32h-3.5v-1.5H9.6V32h-4v-5.1H0c.1-4.6-.2-9.2.2-13.8.7-7 7-12.8 14-13.1h1.7c6.1.4 11.7 4.9 13.4 10.8 1.2 5.1.4 10.5.6 15.7zm-3-10.3l-.4-2.3c0-.3-.3-.6-.6-.8v-.2l-.7-2c.2-.3.2-.7 0-1.1l-1.3-1.9c-.2-.3-.6-.5-.9-.5l-1.7-1c0-.4-.3-.7-.6-.9l-2.1-1.1c-.1-.1-.3-.1-.5-.1-.3 0-.5.1-.7.3h-.2l-2.4-.2h-.1c-.3-.3-.6-.4-.9-.4h-.2l-2.3.6c-.4.1-.7.4-.8.8L8.6 6c-.1 0-.1.1-.2.1H8c-.3 0-.6.1-.8.4L5.6 8.2c-.2.3-.3.7-.2 1.1l-.9 2v.2c-.3.1-.6.4-.7.7l-.7 2.2c-.1.4 0 .9.3 1.1v.3l.2 2.2c-.2.3-.3.7-.2 1.1l.9 2.1c.1.3.4.6.8.6 0 0 0 .1.1.2l1.1 1.8c-.1.4 0 .8.3 1.1l1.7 1.6c.2.2.5.3.7.3.2 0 .3 0 .5-.1 0 0 .1.1.2.1l2.1.6c.2.3.5.5.8.5l2.4.1h.1c.3 0 .5-.1.7-.3h.1l2.3-.3c.1 0 .2 0 .2-.1.2.1.4.2.6.2.2 0 .4-.1.6-.2l1.9-1.4c.3-.3.5-.6.4-1l1.4-1.7s0-.1.1-.1c.4 0 .7-.2.9-.5l1.3-1.9c.2-.3.2-.6.2-.8 0-.1 0-.2-.1-.3l.6-2v-.4c.1-.1.3-.2.3-.3.3-.1.4-.4.3-.7zM21 25.4c-.2-.1-.3-.3-.3-.4v-.3c-.1 0-.2 0-.2.1l-1.9 1.4c-.1 0-.2.1-.2.3.2.1.3.3.3.4v.3c.1 0 .2.1.3.1.1 0 .3 0 .3-.1l1.9-1.4.2-.2h-.1c0-.1-.1-.2-.3-.2zm2.8-5.7c.2-.3.4-.4.7-.5l.7-1.9v-.1c-.2-.2-.3-.4-.4-.7l-.4-2.3c-.1-.3 0-.6.2-.8 0 0 0-.1.1-.1l-.6-1.9c-.3 0-.5-.2-.7-.5L22.1 9c-.1-.2-.2-.5-.1-.7l-1.4-.9c-.1 0-.3.1-.4.1-.2 0-.3 0-.5-.1l-2.1-1c-.2-.1-.4-.3-.5-.5l-2.3-.1c-.2.3-.4.4-.7.5l-2.3.5h-.3c-.2 0-.4-.1-.6-.2l-1.8.6c0 .3-.1.5-.3.6L7.3 9.6c-.2.2-.4.4-.7.4l-.9 1.8s0 .1.1.1c.1.3.2.6.1.9L5.2 15c-.1.3-.3.5-.5.6l.2 1.9c.3.1.5.3.6.6l.9 2.1c.1.3.1.6 0 .9 0 0 0 .1-.1.1l1 1.7c.3 0 .5.1.7.3l1.7 1.6c.2.2.3.4.3.6l2 .6c.2-.2.5-.3.8-.3h.1l2.3.3c.3 0 .6.2.7.4 0 0 .1.1.1.2l2-.3c0-.2.2-.4.4-.6l1.9-1.4c.2-.1.4-.2.6-.2h.2l1.2-1.5c-.1-.3 0-.7.1-1l1.4-1.9zm-10.9 6.4h-.3l.2.2c.1.2.1.3.1.5s-.2.3-.3.4h.2l2.3.3h.4c-.1-.1-.1-.2-.1-.3 0-.2 0-.3.1-.5.1 0 .1-.1.2-.2-.1-.1-.2-.2-.4-.2l-2.4-.2z"/></svg><svg width="34" height="36" viewBox="-2 -2 34 36" x="204" y="277"><path fill="#fff" d="M29.3 10.8C27.6 4.9 22 .4 15.9 0h-1.7C7.2.3.9 6.1.2 13.1c-.4 4.6-.1 9.2-.2 13.8h5.6V32h4v-1.5h1.3V32h3.5v-1.5h1.3V32h3.5v-1.5h1.3V32h3.9v-5.5h5.5c-.2-5.2.6-10.6-.6-15.7zM17.9 26.1H12V10.8l3-6.5 2.9 6.5v15.3z"/></svg><svg width="34" height="36" viewBox="-2 -2 34 36" x="238" y="277"><path fill="#fff" d="M29.3 10.8C27.6 4.9 22 .4 15.9 0h-1.7C7.2.3.9 6.1.2 13.1c-.4 4.6-.1 9.2-.2 13.8h5.6V32h4v-1.5h1.3V32h3.5v-1.5h1.3V32h3.5v-1.5h1.3V32h3.9v-5.5h5.5c-.2-5.2.6-10.6-.6-15.7zm-6.8 12.8c-1 2.1-3.2 3.2-5.4 3.7 1.3-1.1 1.7-3.2 1-4.7-.9-1.8-2.1-3.4-3.3-5-1.2 1.7-2.5 3.4-3.4 5.4-.6 1.4-.2 3 .8 4.2-1.8-.6-3.5-1.6-4.5-3.3-1.3-2.2-1.3-4.9-.5-7.2 1-2.9 3.1-5.2 5.3-7.2 2-1.7 4.1-3.2 6.3-4.5-.6 1.9-1.2 3.8-1 5.8.3 1.8.8 3.5 1.8 5 .3-1.3.4-2.6.5-3.8 1 1.9 1.9 4 2.8 6 .8 1.6.4 3.8-.4 5.6z"/></svg><svg width="34" height="36" viewBox="-2 -2 34 36" x="272" y="277"><path fill="#fff" d="M29.3 10.8C27.6 4.9 22 .4 15.9 0h-1.7C7.2.3.9 6.1.2 13.1c-.4 4.6-.1 9.2-.2 13.8h5.6V32h4v-1.5h1.3V32h3.5v-1.5h1.3V32h3.5v-1.5h1.3V32h3.9v-5.5h5.5c-.2-5.2.6-10.6-.6-15.7zm-15.3.6v13.7H8.9V11.4l2.6-5.3 2.5 5.3zm7.1 0v13.7H16V11.4l2.6-5.3 2.5 5.3z"/></svg><svg width="34" height="36" viewBox="-2 -2 34 36" x="306" y="277"><path fill="#fff" d="M3.9 15.1h-.2c-.2-.1-.3-.4-.2-.6l.6-2.2c0-.2.2-.3.3-.4 0 .1.1.2.3.2h.5c.1.1.1.3 0 .5l-.7 2.2c0 .2-.2.3-.3.4.1-.1-.1-.1-.3-.1zm19.7-4.3c0 .1.1.1.2.2 0-.1 0-.2.1-.3.1-.2.2-.3.4-.3h.5c0-.1 0-.2-.1-.3l-1.3-1.9c0-.1-.2-.2-.3-.2 0 .1 0 .2-.1.3-.1.2-.2.3-.4.3h-.5c0 .1 0 .2.1.3l1.4 1.9zM7.8 23.6s-.1-.1-.2-.1v.3c0 .2-.2.3-.3.4-.1 0-.2.1-.3.1h-.2c0 .1.1.2.2.3l1.7 1.6c.1.1.3.2.4.2h.3v-.3c0-.2.1-.3.3-.4 0-.1-.1-.2-.2-.3l-1.7-1.8zm-2.9-5.4c0 .1-.1.1-.1.2-.1.1-.3.3-.4.3h-.1c-.1 0-.3 0-.4-.1v.3l.9 2.1c.1.2.2.3.4.3 0-.1.1-.2.2-.3h.5v-.5L5 18.4s-.1-.1-.1-.2zm8 7.9h-.3l.2.2c.1.2.1.3.1.5s-.2.3-.3.4h.2l2.3.3h.4c-.1-.1-.1-.2-.1-.3 0-.2 0-.3.1-.5.1 0 .1-.1.2-.2-.1-.1-.2-.2-.4-.2l-2.4-.2zm7-19.2c.1-.3.1-.5.2-.6.1-.2.3-.3.4-.3h.2l-.2-.2-2.1-1h-.3c-.1 0-.3 0-.3.1.1.1.1.2.1.3-.1.2-.2.4-.4.5.1.1.2.2.3.2l2.1 1zM6.4 8.8c.2.1.3.2.3.4v.3s.1-.1.2-.1l1.5-1.7c.1-.1.1-.2.1-.3-.1-.2-.2-.3-.3-.5v-.3H8c-.2 0-.3.1-.5.2L6 8.5c0 .1-.1.2-.1.3.2-.1.3-.1.5 0zm5.2-3.1c.1.2.1.3 0 .5v.1h.1l2.3-.5c.1 0 .2-.1.3-.2-.2-.2-.3-.4-.3-.5 0-.1 0-.3.1-.4-.1-.1-.2-.1-.3-.1h-.1l-2.3.5c-.1 0-.2.1-.3.2.2 0 .4.2.5.4zm14.1 7.9c0 .1-.1.1-.3.2h-.5c-.1.1-.2.3-.1.5l.4 2.3c0 .2.1.3.3.4h.5c.1 0 .2-.1.3-.2.1-.2.1-.3.1-.5L26 14c0-.2-.2-.3-.3-.4zM21 25.4c-.2-.1-.3-.3-.3-.4v-.3c-.1 0-.2 0-.2.1l-1.9 1.4c-.1 0-.2.1-.2.3.2.1.3.3.3.4v.3c.1 0 .2.1.3.1.1 0 .3 0 .3-.1l1.9-1.4.2-.2h-.1c0-.1-.1-.2-.3-.2zm3.8-8.9c.1.3.2.5.4.7v.1l-.7 1.9c-.3.1-.5.2-.7.5l-1.4 1.9c-.1.3-.2.7-.1 1l-1.2 1.5h-.2c-.2 0-.4.1-.6.2l-1.9 1.4c-.2.2-.4.4-.4.6l-2 .3c0-.1-.1-.2-.1-.2-.1-.2-.4-.4-.7-.4l-2.3-.3h-.1c-.3 0-.6.1-.8.3l-2-.6c0-.2-.1-.4-.3-.6L8 23.2c-.2-.2-.4-.3-.7-.3l-1-1.7c.1 0 .1-.1.1-.1.1-.3.1-.6 0-.9l-.9-2.1c-.1-.3-.3-.5-.6-.6l-.2-1.9c.2-.1.4-.3.5-.6l.7-2.2c.1-.3 0-.6-.1-.9-.1 0-.1-.1-.1-.1l.9-1.8c.3 0 .5-.2.7-.4l1.5-1.8c.2-.1.3-.3.3-.6l1.8-.6c.2.1.4.2.6.2h.3l2.3-.5c.3-.1.5-.2.7-.5l2.3.1c.1.2.3.4.5.5l2.1 1c.2.1.3.1.5.1.1 0 .3-.1.4-.1l1.4.9c-.1.2 0 .5.1.7l1.3 1.9c.2.3.4.5.7.5l.6 1.9c-.1 0-.1.1-.1.1-.2.2-.3.5-.2.8l.4 2.3zm-3.6 1.2c.3-4.1-3.6-6.5-6-9.2v3.3c-1.1-1-2.2-1.9-3.3-2.9v3.2c-1.1-.9-2.1-1.8-3.2-2.7.1 3.1-.2 6.3.1 9.4.3 2.5 2.6 4.6 5.2 4.6 1.9 0 4.1.4 5.9-.5 1.9-1.1 1.2-3.5 1.3-5.2zm3.6 2.6c-.2-.1-.3-.2-.4-.3 0-.1-.1-.2-.1-.3-.1 0-.1.1-.2.2l-1.3 2c-.1.1-.1.3-.1.5.2 0 .3 0 .4.1.1.1.2.2.2.3.2 0 .4-.1.5-.3l1.3-1.9c.1-.1.1-.2.1-.3-.1 0-.2.1-.4 0 .2.1.1 0 0 0zm5.1 6.2h-5.5V32h-3.9v-1.5h-1.3V32h-3.5v-1.5h-1.3V32h-3.5v-1.5H9.6V32h-4v-5.1H0c.1-4.6-.2-9.2.2-13.8.7-7 7-12.8 14-13.1h1.7c6.1.4 11.7 4.9 13.4 10.8 1.2 5.1.4 10.5.6 15.7zm-3-10.3l-.4-2.3c0-.3-.3-.6-.6-.8v-.2l-.7-2c.2-.3.2-.7 0-1.1l-1.3-1.9c-.2-.3-.6-.5-.9-.5l-1.7-1c0-.4-.3-.7-.6-.9l-2.1-1.1c-.1-.1-.3-.1-.5-.1-.3 0-.5.1-.7.3h-.2l-2.4-.2h-.1c-.3-.3-.6-.4-.9-.4h-.2l-2.3.6c-.4.1-.7.4-.8.8L8.6 6c-.1 0-.1.1-.2.1H8c-.3 0-.6.1-.8.4L5.6 8.2c-.2.3-.3.7-.2 1.1l-.9 2v.2c-.3.1-.6.4-.7.7l-.7 2.2c-.1.4 0 .9.3 1.1v.3l.2 2.2c-.2.3-.3.7-.2 1.1l.9 2.1c.1.3.4.6.8.6 0 0 0 .1.1.2l1.1 1.8c-.1.4 0 .8.3 1.1l1.7 1.6c.2.2.5.3.7.3.2 0 .3 0 .5-.1 0 0 .1.1.2.1l2.1.6c.2.3.5.5.8.5l2.4.1h.1c.3 0 .5-.1.7-.3h.1l2.3-.3c.1 0 .2 0 .2-.1.2.1.4.2.6.2.2 0 .4-.1.6-.2l1.9-1.4c.3-.3.5-.6.4-1l1.4-1.7s0-.1.1-.1c.4 0 .7-.2.9-.5l1.3-1.9c.2-.3.2-.6.2-.8 0-.1 0-.2-.1-.3l.6-2v-.4c.1-.1.3-.2.3-.3.3-.1.4-.4.3-.7zm-10-3.8v3c-1.1-1-2.2-1.9-3.3-2.9v3.2c-1.1-.9-2.1-1.8-3.2-2.7.2 2.9-.9 7 2.3 8.6 2.2.5 4.7.8 6.8-.2.3-1.8.3-3.7 0-5.4-.6-1.5-1.7-2.5-2.6-3.6z"/></svg><svg width="34" height="36" viewBox="-2 -2 34 36" y="313"><path fill="#fff" d="M15.6 21.6c-1.6 0-3-.6-4.2-1.5l9.1-9.1c1 1.1 1.5 2.6 1.5 4.2.1 3.5-2.8 6.4-6.4 6.4zM10 18.3l-.3.3-.9.9-.4.4c.4.6.9 1.2 1.5 1.7l1.6-1.6c-.7-.4-1.1-1-1.5-1.7zm19.9 8.2h-5.5V32h-3.9v-1.5h-1.3V32h-3.5v-1.5h-1.3V32h-3.5v-1.5H9.6V32h-4v-5.1H0c.1-4.6-.2-9.2.2-13.8.7-7 7-12.8 14-13.1h1.7c6.1.4 11.7 4.9 13.4 10.8 1.2 5.1.4 10.5.6 15.7zM25.4 6l-1.6-1.6-3.4 3.4-1.6 1.6-8.8 8.9-.3-.6c-.4-.8-.6-1.7-.6-2.7 0-.8.1-1.5.4-2.2.3-.7.7-1.4 1.2-2 .4-.5.9-.9 1.4-1.2.6-.4 1.3-.7 2.1-.9v2.9c1-1 1.9-1.9 2.9-2.8l1.1-1.1L17 6.5c-.9-.9-1.8-1.8-2.7-2.8l-.1 2.7h-.1c-.2 0-.5.1-.7.2C9.7 7.6 7 11 7 15c0 1.8.5 3.5 1.5 4.8l-3.6 3.6L6.5 25l3.5-3.5c1.5 1.4 3.5 2.2 5.7 2.2 4.8 0 8.7-3.9 8.7-8.7 0-2.2-.8-4.2-2.2-5.7L25.4 6z"/></svg><svg width="34" height="36" viewBox="-2 -2 34 36" x="34" y="313"><path fill="#fff" d="M29.3 10.8C27.6 4.9 22 .4 15.9 0h-1.7C7.2.3.9 6.1.2 13.1c-.4 4.6-.1 9.2-.2 13.8h5.6V32h4v-1.5h1.3V32h3.5v-1.5h1.3V32h3.5v-1.5h1.3V32h3.9v-5.5h5.5c-.2-5.2.6-10.6-.6-15.7zm-6.9 13.1c-3 3.2-8 4.3-12 2.5-3.5-1.6-6-5.3-5.9-9.1 0-3 1.5-5.8 3.8-7.6 2.8-2.2 6.9-2.4 9.9-.7 3.4 1.9 5.1 6.2 3.9 9.9-.9 3.1-3.9 5.5-7.2 5.6-2 .2-3.9-.6-5.5-1.7-2.3-2.1-3.1-5.5-2.1-8.4C5.1 19 9 25.1 14.1 25.2c4.5.5 8.8-3.1 9.4-7.5.5-3.9-1.3-8-4.4-10.3-2.3-1.8-5.4-2.1-8.3-1.8 1.8-1 4-.8 6-.4 4.1 1.1 7.4 4.6 8.3 8.7.8 3.4-.1 7.4-2.7 10zm-13-4.7c-.4-1.7-.5-3.7.7-5.1 1.9-2.2 5.9-1.9 7.3.7 1.2 1.9.5 5.3-2.1 5.4-2.1.4-3.7-1.8-3.4-3.8 0-1.4 1.3-2.1 2.1-2.9-2.3.3-4.4 2.5-3.9 4.9.3 2.8 3.6 4.8 6.1 3.5.4-.1.8-.3 1.2-.4-2.5 2.2-6.8.7-8-2.3z"/></svg><svg width="34" height="36" viewBox="-2 -2 34 36" x="68" y="313"><path fill="#FFF" d="M29.3 10.8C27.6 4.9 22 .4 15.9 0h-1.7C7.2.3.9 6.1.2 13.1c-.4 4.6-.1 9.2-.2 13.8h5.6V32h4v-1.5h1.3V32h3.5v-1.5h1.3V32h3.5v-1.5h1.3V32h3.9v-5.5h5.5c-.2-5.2.6-10.6-.6-15.7zm-18.5 7.6l-5.7 5.7v-5.3l5.7-5.7v5.3zm3.8-9.9l-3.8 3.8H5.5l9.1-9.1v5.3zm10.3 10.6l-9.5 9.5v-5.3l9.5-9.5v5.3zm-.4-6l-9.1 9.1V17l3.8-3.8.4-.4-.4-.4-3.8-3.8V3.2l9.1 9.1.4.4-.4.4z"/></svg><svg width="34" height="36" viewBox="-2 -2 34 36" x="102" y="313"><path fill="#fff" d="M29.3 10.8C27.6 4.9 22 .4 15.9 0h-1.7C7.2.3.9 6.1.2 13.1c-.4 4.6-.1 9.2-.2 13.8h5.6V32h4v-1.5h1.3V32h3.5v-1.5h1.3V32h3.5v-1.5h1.3V32h3.9v-5.5h5.5c-.2-5.2.6-10.6-.6-15.7zm-6.2-1.3c0 .4-.1.8-.1 1.2v.9c-.2.2-.4.3-.6.5v.7c-.2 1.1-1.6 1.8-2.3 2.7-.1.6 0 1.2-.1 1.8h-.5c-.2-1.5-1.4-2.6-2-4 .4-.1.8 0 1.2-.2.8-.4 1.2-1.2.4-1.8-.7.1-1.5.2-2.2.4-.9 1-1.4 2.4-2.7 3.1-1.7 3.2-3.1 6.5-4.7 9.8-.1.2-.1.4 0 .6.6 1.2-.7 1.5-1.4 2.1-.2.2-.4.4-.7.3 0-.2 0-.5-.1-.7-.1-.3-.1-.6-.1-.9v-.8c.3-.2.6-.3.9-.5 1.5-3.1 3-6.2 4.4-9.3.5-.6-.5-1.5.3-1.8.6-.2.3-.9.4-1.4 0-.8.3-1.6 0-2.3-.7-.7-1.6-1.4-2.3-2.1-.1-.2-.4-.1-.6 0-.3.1-.6.1-.8-.1.2-.4.6-.6.9-.9 1.4.1 2.6-.8 3.9-1h.8c.2.6.3 1.2.6 1.7.4-.3.9-.6 1.2-1.1-.3-.2-.7-.1-.5-.5.9-.4 1.8-.9 2.8-1.2h1.3c.8.7 1.3 1.9 2.1 2.7.2.2.5.1.7.1h1.3c-.4.6-1.6 1-1.5 2z"/></svg><svg width="86" height="86" viewBox="-2 -2 86 86" x="204" y="96"><path fill="#7D6D70" d="M62.6 23.4L41 1.8c-6.2 6.1-12.3 12.3-18.5 18.5L1.8 41l18.5 18.5L41 80.2l18.6-18.6L80.2 41 62.6 23.4z"/><path fill="#FFF" d="M78.7 37.7C66.1 25.1 53.6 12.5 41 0L8.6 32.4 0 41l41 41 41-41-3.3-3.3zM59.6 61.6L41 80.2 20.3 59.5 1.8 41l20.7-20.7C28.7 14.1 34.8 7.9 41 1.8l21.6 21.6L80.2 41c-6.9 6.9-13.8 13.7-20.6 20.6zM40.7 18.8h.7v6.8c1.8 1.2 3.7 2.3 5.5 3.5-.1.2-.2.4-.4.6-1.8-1.1-3.7-2.3-5.5-3.5-1.8 1.1-3.7 2.3-5.5 3.5-.1-.2-.2-.4-.4-.6 1.8-1.2 3.7-2.3 5.6-3.5v-6.8zm-14.5 7.4h.7V33c1.8 1.1 3.7 2.3 5.5 3.5l-.3.6c-1.8-1.1-3.6-2.2-5.4-3.4-.1-.1-.3 0-.4.1-1.8 1.1-3.5 2.2-5.3 3.3-.1-.2-.2-.4-.4-.6 1.9-1.2 3.7-2.3 5.6-3.5.1-2.3 0-4.5 0-6.8zm28.9 0h.7V33c1.8 1.1 3.7 2.3 5.5 3.5-.1.2-.2.4-.4.6-1.5-1-3.1-1.9-4.6-2.9-.3-.2-.6-.4-.9-.5-1.9 1.1-3.7 2.3-5.5 3.4l-.3-.6c1.9-1.2 3.7-2.3 5.6-3.5-.1-2.3-.1-4.6-.1-6.8zm-14.4 8.4c0-.4.4-.2.7-.2v6.8c1.8 1.2 3.7 2.3 5.5 3.5l-.3.6c-1.9-1.1-3.7-2.3-5.5-3.5-1.9 1.1-3.7 2.3-5.5 3.5l-.3-.6c1.9-1.2 3.7-2.3 5.6-3.5-.2-2.2-.2-4.4-.2-6.6zm-14.5 7.1h.7v6.8c1.8 1.2 3.7 2.3 5.5 3.5-.1.2-.2.4-.3.5-1.9-1.1-3.7-2.3-5.5-3.4-.3.1-.5.3-.8.5-1.6 1-3.1 2-4.7 2.9-.1-.2-.2-.4-.3-.5 1.8-1.2 3.7-2.3 5.6-3.5-.2-2.3-.2-4.5-.2-6.8zm28.9 0h.7v6.8c1.8 1.2 3.7 2.3 5.5 3.5-.1.2-.2.4-.3.5-1.4-.8-2.7-1.7-4.1-2.6-.5-.3-.9-.6-1.4-.9-1.9 1.1-3.7 2.3-5.5 3.4-.1-.2-.2-.4-.3-.5 1.8-1.2 3.7-2.3 5.6-3.5-.2-2.2-.2-4.4-.2-6.7zm-14.4 8.2h.7v6.8c1.8 1.1 3.7 2.3 5.5 3.4l-.3.6c-1.9-1.1-3.7-2.3-5.5-3.5-1.9 1.1-3.7 2.3-5.5 3.5l-.3-.6c1.9-1.2 3.7-2.3 5.6-3.5-.2-2.1-.2-4.4-.2-6.7z"/></svg><svg width="54" height="52" viewBox="-2 -2 54 52" x="297" y="72"><path fill="#515251" d="M25 48L0 24 25 0l25 24z"/><path d="M25 37L11.4 24 25 11l13.6 13z"/><path fill="#FFF" d="M25 35.5L13 24l12-11.5L37 24z"/></svg><svg width="102" height="96" viewBox="-2 -2 102 96" x="102"><path fill="#7d6d70" d="M67.9 25.7l20 20.3-20 20.3c-.3-.7-.6-1.4-.9-2 4.7-4.6 7.5-11.1 7.6-17.7.8-.2 1.7-.3 2.5-.5.3.1.3-.3 0-.4-.8-.2-1.7-.3-2.5-.5-.2-6.5-2.9-12.9-7.5-17.6.2-.6.5-1.3.8-1.9zM23.4 46.6c-.8-.2-1.7-.3-2.5-.5-.2 0-.3-.4 0-.5.8-.2 1.7-.3 2.5-.5.2-6.6 2.9-13 7.5-17.6-.2-.5-.4-.9-.6-1.4-6.6 6.7-13.1 13.3-19.7 19.9 6.6 6.6 13.1 13.3 19.7 19.9.2-.5.5-1.1.7-1.6-4.7-4.6-7.4-11.1-7.6-17.7zm24.9-26.7c.2-.9.2-1.8.5-2.6h.4c.2.8.3 1.7.5 2.6 5.6.2 11.1 2.2 15.4 5.8.7-.3 1.3-.6 2-.9-5.9-6-11.8-12-17.8-17.9-6 6-12 12.1-17.9 18.1.5.2 1 .5 1.5.7 4.3-3.6 9.8-5.7 15.4-5.8zm16.5 46.4c-4.3 3.4-9.7 5.3-15.1 5.5-.2.8-.2 1.8-.5 2.6h-.4c-.3-.8-.3-1.8-.6-2.6-5.4-.2-10.8-2.1-15-5.5-.5.3-1.1.5-1.7.8 5.9 6 11.9 12 17.8 18 5.9-5.9 11.8-11.9 17.6-17.8-.7-.4-1.4-.7-2.1-1z"/><path fill="#fff" d="M37.9 82c1.8 3 2.1 6.6 2.4 10-1.3-1.3-2.6-2.6-4-3.8-1.2-1.1-2.3-2.4-2.8-4-.6-2-.6-4.2-.6-6.4 1.7 1.3 3.8 2.3 5 4.2zm-8.8-7.8c-1.8-1.7-3.5-3.5-5.3-5.3L1.2 46l26.4-26.7c1-1 2.2-1.8 2.8-3.2.9-2.1.7-4.3.5-6.5l-2.1 2.7c-.6.8-1.2 1.7-1.3 2.7-.2 1 0 2 .1 3-.2.3-.4.5-.6.7L0 46c9.2 9.3 18.4 18.6 27.5 27.9.1.8-.2 1.5-.1 2.3 0 1.2.5 2.3 1.2 3.2.8 1 1.6 2 2.3 3 .1-1.7.3-3.4-.1-5.1-.3-1.2-.8-2.3-1.7-3.1zm36.1-60c-.1-2.1 0-4.3-.6-6.4-.5-1.6-1.6-2.9-2.8-4-1.4-1.3-2.7-2.5-4-3.8.2 3.4.5 7 2.4 10 1.2 1.9 3.3 2.9 5 4.2zM38.9 7.9c.9-2.5 1.1-5.2 1.3-7.9-.9 1-1.9 1.9-2.9 2.8-1.5 1.4-3.1 2.7-3.8 4.8-.7 2.1-.6 4.4-.7 6.6 1-.6 2-1.3 3-2 1.5-1.1 2.5-2.6 3.1-4.3zM62 33c-1.8.2-3.3 1.4-4.6 2.6-2.8 2.8-5.6 5.7-8.4 8.5-2.9-3-5.9-6-8.8-8.9-1.2-1.1-2.6-2.1-4.2-2.2.1 2.5 2.2 4.2 4 5.7 2.3 2.4 4.7 4.8 7.1 7.2-1.2 1.3-2.5 2.6-3.8 3.9-.7-.2-1-.8-1.5-1.2-.3-.2-.1-.6-.2-.9l-.6-.6-1.5 1.5.7.7c.3.1.6 0 .8.2l1.6 1.6c-.1.5-.4.9-.7 1.3-1.1 1.5-2.5 2.7-3.7 4l-.5-.5c-.4.5-.8.9-1.2 1.3.4.4.5 1 .4 1.5.5-.1 1 0 1.4.3l1.2-1.2-.5-.5 3-3c.7-.5 1.3-1.2 2.2-1.4.5.6 1 1.1 1.5 1.6.2.2.1.6.2.9l.6.6 1.5-1.5-.6-.6c-.3 0-.6.1-.8 0-.6-.4-1.1-.9-1.4-1.6 1.2-1.3 2.5-2.6 3.8-3.9 1.2 1.3 2.5 2.6 3.8 3.9-.2.6-.7 1-1.2 1.5-.2.2-.6.1-.9.1l-.6.6 1.5 1.5.6-.6c0-.3 0-.6.1-.8.5-.6 1.1-1.1 1.6-1.7.9.2 1.5.9 2.2 1.4l3 3-.5.5 1.2 1.2c.4-.3.9-.4 1.4-.3-.1-.5.1-1.1.4-1.5L60.4 56l-.5.5-3-3c-.5-.7-1.2-1.3-1.4-2.2.6-.5 1.1-1.1 1.6-1.6.2-.3.5-.2.8-.2l.7-.7-1.5-1.5-.6.6c0 .3.1.7-.1.9-.5.4-.9 1-1.5 1.2-1.2-1.3-2.5-2.6-3.8-3.9 2.4-2.4 4.8-4.9 7.2-7.3 1.6-1.6 3.5-3.3 3.7-5.8zm36 13c-9.2-9.3-18.4-18.6-27.6-28 .2-1.6.4-3.3-.5-4.7-.8-1.3-1.9-2.5-2.8-3.8-.2 1.7-.3 3.4 0 5 .2 1.3.8 2.5 1.7 3.3 1.9 1.7 3.6 3.5 5.3 5.2 7.5 7.7 15.1 15.3 22.7 23-8.8 8.9-17.6 17.8-26.4 26.6-.9 1-2.2 1.8-2.8 3.2-.9 2-.7 4.3-.5 6.5.5-.8 1.1-1.6 1.7-2.3.7-.8 1.3-1.6 1.6-2.6.3-1.1.1-2.3 0-3.5L98 46zM60.1 82c-1.8 3-2.1 6.6-2.4 10 1.3-1.3 2.6-2.5 3.9-3.7 1.1-1 2.2-2.1 2.7-3.5.8-2.3.7-4.7.8-7-1.7 1.3-3.8 2.3-5 4.2zm30.3-36C76.7 59.8 63 73.7 49.3 87.6 35.6 73.7 21.9 59.8 8.2 46 21.9 32.1 35.6 18.3 49.3 4.4 63 18.3 76.7 32.1 90.4 46zM67.9 66.3l20-20.3c-6.7-6.8-13.3-13.6-20-20.3-.3.6-.6 1.3-.8 1.9 4.6 4.7 7.3 11.1 7.5 17.6.8.2 1.7.3 2.5.5.3.1.3.5 0 .4-.8.2-1.7.3-2.5.5-.1 6.6-2.9 13.1-7.6 17.7.3.7.6 1.3.9 2zm2.5-21.6c-.4-5.4-2.8-10.6-6.7-14.3-.6.4-1.3.9-2 1.3-.1 0-.2-.1-.3-.1v-.2c.4-.8.9-1.4 1.3-2.1-3.8-3.2-8.7-5-13.7-5s-9.9 1.8-13.7 5c.4.7.9 1.4 1.3 2.1 0 .1-.1.2-.2.3-.8-.4-1.5-1-2.2-1.4-4.4 4.1-6.9 10.2-6.7 16.3.2 5.8 2.8 11.5 7 15.4.7-.4 1.2-.9 1.9-1.2 0 .1.1.2.2.3-.3.6-.7 1.2-1.1 1.8 3.6 3 8.3 4.7 13.1 4.8 5 .1 10-1.6 13.9-4.6-.3-.5-.6-.9-.9-1.4-.2-.2-.4-.6 0-.7.7.3 1.3.8 1.9 1.2 4.7-4.4 7.4-11 6.9-17.5zm-7.4 19c-3.6 2.9-8.1 4.6-12.7 4.9-.1.7-.3 1.4-.4 2.1 5.2-.1 10.2-2 14.2-5.3-.3-.6-.7-1.1-1.1-1.7zm-15.4 4.9c-4.6-.2-9.1-2-12.7-4.9-.4.5-.7 1.1-1.1 1.7 4.1 3.3 9.1 5.2 14.2 5.3-.1-.7-.3-1.4-.4-2.1zM24.5 46.9c.2 6.3 2.9 12.4 7.4 16.8.6-.4 1.2-.8 1.7-1.2-4.1-3.9-6.7-9.5-7-15.2-.7-.1-1.4-.3-2.1-.4zm2.1-2.3c.3-5.6 2.8-11 6.8-14.9l-1.8-1.2c-4.3 4.4-6.9 10.4-7.1 16.5.7-.1 1.4-.3 2.1-.4zm8.2-16.2c3.6-3 8.2-4.9 12.9-5.1.1-.7.3-1.4.4-2.1-5.3.2-10.4 2.1-14.4 5.5.3.5.7 1.1 1.1 1.7zm15.5-5.1c4.7.3 9.3 2.1 12.9 5.1.4-.5.7-1.1 1.1-1.7-4-3.4-9.1-5.3-14.4-5.5.1.7.3 1.4.4 2.1zm21.1 21.3c.7.2 1.4.3 2.1.4-.2-6.1-2.8-12.1-7.1-16.5l-1.8 1.2c4 3.9 6.5 9.3 6.8 14.9zm-7.1 17.9l1.8 1.2c4.5-4.4 7.2-10.5 7.3-16.8-.7.1-1.4.3-2.1.4-.3 5.7-2.8 11.3-7 15.2zM31.4 25c.5.2 1 .5 1.5.7 4.3-3.6 9.8-5.7 15.4-5.8.2-.9.2-1.8.5-2.6h.4c.2.8.3 1.7.5 2.6 5.6.2 11.1 2.2 15.4 5.8.7-.3 1.3-.6 2-.9-5.9-6-11.8-12-17.8-17.9-6 6-12 12.1-17.9 18.1zm-1.1 40.9c.2-.5.5-1.1.7-1.6-4.7-4.6-7.4-11.1-7.6-17.7-.8-.2-1.7-.3-2.5-.5-.2 0-.3-.4 0-.5.8-.2 1.7-.3 2.5-.5.2-6.6 2.9-13 7.5-17.6-.2-.5-.4-.9-.6-1.4-6.6 6.7-13.1 13.3-19.7 19.9 6.6 6.6 13.1 13.3 19.7 19.9zm36.6 1.4c-.7-.3-1.4-.7-2.1-1-4.3 3.4-9.7 5.3-15.1 5.5-.2.8-.2 1.8-.5 2.6h-.4c-.3-.8-.3-1.8-.6-2.6-5.4-.2-10.8-2.1-15-5.5-.5.3-1.1.5-1.7.8 5.9 6 11.9 12 17.8 18 5.9-5.9 11.8-11.9 17.6-17.8z"/></svg><svg width="82" height="96" viewBox="-2 -2 82 96" x="82" y="96"><path fill="#7d6d70" d="M39 7.9C28 14.2 17.1 20.6 6.2 27v38.2C17.1 71.5 28 77.9 39 84.2c11-6.4 21.9-12.7 32.9-19.1V26.9c-11-6.3-22-12.7-32.9-19zm18.5 53.6c0 2.6-2.1 4.5-4 6-4.4 3.4-9.5 5.9-14.5 8.2-5.1-2.3-10.3-4.8-14.7-8.3-1.8-1.5-3.7-3.3-3.8-5.8v-38h37v37.9z"/><path fill="#fff" d="M22.4 4.4c1.9-1.6 4.1-2.8 6-4.4-.7 3.2-1.4 6.5-3.5 9.1-1.4 1.8-3.6 2.5-5.5 3.5.5-2.8.7-6.2 3-8.2zM49.6 0c1.9 1.5 4.1 2.7 5.9 4.3 2.3 2.1 2.6 5.4 3.1 8.3-2-1-4.2-1.8-5.6-3.6-2-2.6-2.7-5.9-3.4-9zM39 6.1c-11.5 6.7-22.9 13.3-34.4 20v40C16.1 72.7 27.5 79.3 39 86c11.4-6.7 22.9-13.3 34.3-20V26.1C61.9 19.4 50.5 12.8 39 6.1zm32.8 59C60.9 71.5 50 77.9 39 84.2 28 77.9 17.1 71.5 6.2 65.1V26.9C17.1 20.6 28 14.2 39 7.9 49.9 14.2 60.9 20.6 71.8 27v38.1zm-58-50.5c.1-2.8 2.3-4.5 4.4-5.9-.5 2.1-.8 4.8-3 5.9C10.3 17.3 5.5 20.2.7 23v46.1c4.9 2.9 9.9 5.7 14.8 8.5 2 1.2 2.2 3.7 2.7 5.7-2.1-1.4-4.4-3-4.4-5.8-4.5-2.6-9.2-5.3-13.8-8V22.6c4.6-2.7 9.2-5.4 13.8-8zm46-5.9c2.1 1.4 4.4 3.1 4.4 5.8 4.6 2.7 9.2 5.4 13.9 8v46.9c-4.6 2.7-9.3 5.3-13.9 8.1 0 2.8-2.3 4.5-4.4 5.8.5-2.1.8-4.8 3-5.9 4.9-2.7 9.7-5.6 14.5-8.4V22.9c-4.9-2.8-9.8-5.7-14.7-8.5-2.1-1-2.3-3.6-2.8-5.7zm-39.3 15v38c0 2.5 2 4.3 3.8 5.8 4.4 3.5 9.6 6 14.7 8.3 5.1-2.3 10.1-4.8 14.5-8.2 1.9-1.5 4-3.4 4-6V23.8c-12.3-.1-24.7-.1-37-.1zm35.6 37.8c0 2-1.7 3.4-3.1 4.7-4.2 3.3-9.1 5.7-13.9 8-4.8-2.2-9.5-4.5-13.6-7.7-1.7-1.4-3.7-3.1-3.4-5.6V25.2h34.1c-.1 12-.1 24.2-.1 36.3zM23.6 26.7h30.7v4.4H23.6v-4.4zm0 7.3v27h30.7V34H23.6zm26.9 2.6c-2.4 3-4.7 6.1-7.1 9.1-1.5-1.9-2.9-3.8-4.4-5.6-1.5 1.9-2.9 3.8-4.4 5.6-2.4-3-4.7-6.1-7.1-9.1h23zm-7.8 11c-1.2 1.6-2.5 3.2-3.7 4.8-1.3-1.6-2.5-3.2-3.7-4.8 1.3-1.6 2.5-3.2 3.7-4.8 1.3 1.5 2.5 3.1 3.7 4.8zM27.5 58.5c2.4-3 4.7-6.1 7.1-9.1 1.5 1.9 2.9 3.8 4.4 5.6 1.5-1.9 2.9-3.8 4.4-5.6 2.4 3 4.7 6.1 7.1 9.1h-23zM25 64.1c9.3-.1 18.6 0 28 0-4 3.8-9 6.2-14 8.5-4.9-2.3-10-4.7-14-8.5zm-5.6 15.4c1.9 1 4 1.7 5.4 3.4 2.1 2.6 2.9 5.9 3.5 9.1-2-1.5-4.2-2.7-6.1-4.4-2.1-2.1-2.3-5.3-2.8-8.1zM53.1 83c1.4-1.8 3.6-2.5 5.5-3.5-.5 2.8-.7 6.1-3 8.2-1.9 1.6-4 2.9-6 4.3.7-3.1 1.4-6.4 3.5-9z"/></svg></svg>