<svg xmlns="http://www.w3.org/2000/svg" width="84" height="120" viewBox="0 0 84 120"><path fill="#fff" d="M0 0v120h84V0H0zm3 97h78v20H3V97zm0-3V74.8c11.8-5.8 25-9.2 39-9.2s27.2 3.4 39 9.3V94H3zm78-20.3c-11.8-5.8-25-9-39-9s-27.2 3.3-39 9V3h78v70.7zm-26.5 36.4h4.1v1.4H53v-8.8h1.5v7.4zm17.6-7.4h1.6l-3.1 5.5v3.3H69v-3.3l-3.1-5.5h1.8l2.2 3.9 2.2-3.9zm-31.1 0h1.6v8.8H41v-8.8zm-13 0h-.9l-3 8.8h1.6l.7-2.2h2.8l.7 2.2h1.6l-2.9-8.8H28zm-1.1 5.2l1-3.2 1 3.2h-2zm.5-66.6c.1.2.2.3.4.4-.3-1.3-.8-2.6-.9-3.8.2.6.4 1.4.6 2.1.1.2.2.5.3.7.1.3.1.5.2.8.1.4.2.8.5 1h.1V42c0 .1.1.2.1.3.1.2.2.5.3.7h.1c.4 0 .4.2.7.4l.1.1c0-.1.1-.1.1-.2 0 0 0 .1.1.1s.1.1.2.1c0-.1.1-.1.1-.2-.1-.4-.1-.8-.6-1-.1-.1-.3-.2-.4-.3v-.1c.1 0 .3.1.5.2 0-.1 0-.2-.1-.3-.2-.7-.3-1.4-.5-2.2-.1-.3-.2-.5-.4-.6-.1-.1-.2-.2-.2-.3.1.1.3.2.4.3h.1c-.4-1.6-.3-3.2 0-4.8 0 .4 0 .8-.1 1.2 0 .6.1 1.2.4 1.8v.2c-.2.2-.1.4.1.4.1 0 .1.1.3.2-.3.2-.1.4-.1.7.2.6.2 1.2.4 1.8.4 1.3 1 2.4 1.8 3.3.3.3.5.6.9.9.4.2.6.6.9.9v.1c0 .5.4.8.6 1.2.2.2.4.4.6.4s.3.1.2.3v.2c-.1.3.1.6.5.6.3 0 .7.2.9-.2 0 0 .1 0 .2.1 0 0 0 .1.1.2.5.3.9.8 1.7.6.1 0 .3 0 .3.1.1.3.4.3.6.4.1-.3.2-.7.3-1 0-.1.2-.2.3-.3h.1c.2 0 .3-.2.4-.1.1 0 .2.2.3.3 0-.5 0-.6.6-.6.5 0 1-.1 1.6-.1.3 0 .6-.1.9-.1.2 0 .3-.2.3-.4 0-.3.1-.6.2-.9 0-.1.1-.2.3-.2.2.1.2 0 .3-.2.1-.3.1-.5.2-.8.1 0 .2.1.3.1.4.1.7-.2.8-.5.1-.5.3-1 .4-1.4.1-.4.1-.9.1-1.3 0-.2.1-.5.2-.7 0 .3 0 .6.1.9 0 .1.1.2.2.2s.1-.1.2-.1c.1-.5.1-1 .2-1.5h.1c0 .5 0 .9.1 1.4.5-.1.6-.2.7-.8 0 .7 0 1.5.1 2.2 0 .2 0 .4-.1.6-.2.4-.1.9 0 1.3 0 .3.1.4.4.2.5-.3 1-.7 1.4-1.2s.4-1 .5-1.5c0-.1 0-.2.1-.4.2.4-.1.9 0 1.4.2-.2.3-.4.5-.6h.1c0 .2-.1.4-.1.6.1-.1.2-.1.2-.2.8-1.1 1.5-2.2 2.3-3.4.2-.3.4-.5.5-.8.5-.9.7-2 .7-3 0-.2.1-.4.1-.6.2-.7.3-1.4.2-2.1v-1.2c0-.2 0-.4-.1-.6 0-.1-.2-.2-.3-.3l-.2-.2c.1-.7.1-1.4.2-2.1h.1c0 .4.1.8.1 1.2 0 .2.1.4.2.5.2.4.4.7.4 1.1.1 1.5 0 3 0 4.5 0 .4-.1.9-.2 1.3-.1.3-.3.5-.5.8-.2.2-.3.6-.4.8-.1.3-.1.5-.3.7-.1.1-.2.3-.1.4.2.4 0 .8-.3 1.1s-.4.7-.5 1.1c0 .3-.2.6-.5.8-.1.1-.2.3-.3.4-.1.2-.2.5-.4.8-.2.3-.4.7-.6.9-.3.4-.7.7-1 1.1-.5.5-1.1.9-1.6 1.4l-.6.3c-.2.1-.4.2-.5.4-.1.2-.2.3-.4.5.4-.1.6-.2.9-.3-.2-.3-.2-.4.3-.5.3-.1.5-.3.7-.4l.1-.1c.5-.1.7-.5 1.1-.7.2-.1.5-.2.7-.3.1 0 .3-.1.4-.1-.3.2-.6.4-1 .5-.4.2-.5.5-.7.8 1-.4 3.8-2.9 4.2-3.7-.5-.2-.7.3-1 .4.1-.1.2-.2.2-.3.1-.1.1-.2.1-.4 0-.1 0-.2.1-.3.3-.6.6-1.1.9-1.6.1-.1.2-.3.3-.4-.3.6-.6 1.2-1 1.8h.1l1-1c.2-.2.3-.3.4-.5.1-.2 0-.4-.3-.4-.1 0-.1 0-.3-.1.3-.5.7-1.1 1-1.6.1-.2.1-.4.2-.6.1-.3.1-.5.4-.6.1 0 .1-.2.1-.2 0-.1-.1-.1-.2-.2.1-.1.1-.2.2-.4l.1-.1c0-.5.3-.4.6-.3h.2c-.1-.2-.4-.1-.3-.4 0-.3.2-.3.3-.3-.1-.1-.2-.2-.3-.4l.2-.2c.1-.2.2-.3.3-.5 0-.1.1-.2.1-.3s0-.2.1-.4v-1.7c-.1-.6-.1-1.2-.2-1.9 0-1-.4-2.2-.9-3.4-.2-.4-.4-.9-.6-1.4-2.6-4.4-6.5-7.2-11.7-8.1-.5-.1-1.1-.1-1.6-.2h-1.8c-.6.1-1.2.1-1.8.2-4.8.9-8.4 3.3-11 7.4-.2.2-.2.6-.3.8l-.1-.1c-.5.8-1.4 3.1-1.5 3.8.1-.1.2-.1.3-.2-.7 1-.7 2.2-.8 3.3v1.4c.1.6.1 1.1.2 1.7.2 1.4.6 2.8 1.2 4.1zm17.3 0c0-.2.1-.3.1-.5h.1c.1.6.1 1.3.2 2 0 .4 0 .8-.5 1.2 0-.1-.1-.2-.1-.3.2-.8 0-1.6.2-2.4zm-10.1 4.1c-.1-.1-.3-.2-.3-.3-.1-.2-.2-.5-.3-.7 0 0 .1 0 .1-.1.4.3.6.6.9 1.1h-.4zm-.7-15.1h.4c.2 0 .3-.1.4-.3.1-.3.2-.6.4-.9 0 .9-.1 1.7-.2 2.5-.1-.3-.1-.6-.2-.9-.5.3-.7.7-.9 1.1h-.1c0-.1-.1-.1 0-.2 0-.1.1-.2.1-.3v-.4c-.1 0-.3 0-.4.1-.1 0-.1.1-.2.2-.1-.3-.1-.7-.2-1 .2 0 .6.1.9.1zM28.3 43c-.1 0-.2 0-.2-.1-.1-.3-.2-.5-.4-.8h.1c.2.2.4.5.5.7v.2zm11.6 7.8c.1 0 .1 0 .3.2-2.3-.2-4.4-1-6.4-2.3 1.5.6 3.1 1.3 4.6 1.9v-.1c-.4-.3-.9-.5-1.3-.8v-.1c.6 0 1.1.1 1.6.5.3.3.7.6 1.2.7zm-7.4-3.4c.3.4.4.4.4.8-1.9-1.3-3.5-3-4.6-5l1.1 1.1V44c.5-.1.7 0 .8.3.1-.1.1-.1.1-.2.3.1.3.4.5.6v.1h-.6c.1.1.3.1.4.2.4.2.7.5.9.9.3.5.6 1 1 1.5zm-15.2 59.1c-.1-1.3-.4-2.2-1-2.8-.4-.4-.9-.6-1.5-.8-.1 0-.1 0-.2-.1-.1 0-.2 0-.4-.1h-3.9v8.8h3.9c.1 0 .2 0 .4-.1.1 0 .1 0 .2-.1.6-.2 1.2-.4 1.5-.8.6-.6.9-1.5 1-2.8v-1.2zm-2.1 2.9c-.3.5-1.1.7-2.1.7h-1.3v-6h1.3c1 0 1.8.2 2.1.7.3.5.5 1.3.5 2.3s-.2 1.8-.5 2.3z"/></svg>