<svg xmlns="http://www.w3.org/2000/svg" width="105" height="150" viewBox="0 0 105 150"><path fill="#fff" d="M0 0v150h105V0H0zm3.8 121.2h97.5v25H3.8v-25zm0-3.7v-24C18.5 86.2 35 82 52.5 82s34 4.2 48.8 11.6v23.9H3.8zm97.4-25.4C86.5 84.9 70 80.9 52.5 80.9S18.5 85 3.8 92.1V3.8h97.5v88.3zm-33.1 45.5h5.1v1.8h-7v-11h1.9v9.2zm22-9.2h2l-3.9 6.9v4.1h-2v-4.1l-3.9-6.9h2.3l2.7 4.9 2.8-4.9zm-38.9 0h2v11h-2v-11zm-16.2 0h-1.1l-3.8 11h2l.9-2.8h3.5l.9 2.8h2l-3.6-11H35zm-1.4 6.5l1.2-4 1.2 4h-2.4zm.6-83.3c.1.2.2.4.5.5-.4-1.6-1-3.2-1.1-4.8.2.8.5 1.8.8 2.6.1.2.2.6.4.9.1.4.1.6.2 1 .1.5.2 1 .6 1.2h.1v-.6c0 .1.1.2.1.4.1.2.2.6.4.9h.1c.5 0 .5.2.9.5l.1.1c0-.1.1-.1.1-.2 0 0 0 .1.1.1s.1.1.2.1c0-.1.1-.1.1-.3-.1-.5-.1-1-.8-1.2-.1-.1-.4-.2-.5-.4v-.1c.1 0 .4.1.6.2 0-.1 0-.2-.1-.4-.2-.9-.4-1.8-.6-2.8-.1-.4-.2-.6-.5-.7-.1-.1-.2-.2-.2-.4.1.1.4.2.5.4h.1c-.5-2-.4-4 0-6 0 .5 0 1-.1 1.5 0 .7.1 1.5.5 2.2v.2c-.3.3-.1.5.1.5.1 0 .1.1.4.2-.4.3-.1.5-.1.9.3.7.3 1.5.5 2.2.5 1.6 1.2 3 2.2 4.1.4.4.6.7 1.1 1.1.5.2.7.7 1.1 1.1v.1c0 .6.5 1 .8 1.5.2.2.5.5.7.5s.4.1.2.4v.2c-.1.4.1.8.6.8.4 0 .9.2 1.1-.3 0 0 .1 0 .2.1 0 0 0 .1.1.2.6.4 1.1 1 2.1.8.1 0 .4 0 .4.1.1.4.5.4.7.5.1-.4.2-.9.4-1.2 0-.1.2-.2.4-.4h.1c.2 0 .4-.2.5-.1.1 0 .2.3.4.4 0-.6 0-.7.8-.7.6 0 1.2-.1 2-.1.4 0 .8-.1 1.1-.1.2 0 .4-.3.4-.5 0-.4.1-.7.3-1.1 0-.1.1-.2.4-.2.2.1.2 0 .4-.3.1-.4.1-.6.2-1 .1 0 .3.1.4.1.5.1.9-.2 1-.6.1-.6.4-1.2.5-1.8.1-.5.1-1.1.1-1.6 0-.2.1-.6.2-.9 0 .4 0 .7.1 1.1 0 .1.1.2.2.2s.1-.1.2-.1c.1-.6.1-1.2.3-1.9h.1c0 .6 0 1.1.1 1.8.6-.1.7-.2.9-1 0 .9 0 1.9.1 2.8 0 .2 0 .5-.1.7-.3.5-.1 1.1 0 1.6 0 .4.1.5.5.2.6-.4 1.2-.9 1.8-1.5.5-.6.5-1.2.6-1.9 0-.1 0-.2.1-.5.2.5-.1 1.1 0 1.8.2-.2.4-.5.6-.7h.1c0 .2-.1.5-.1.7.1-.1.2-.1.2-.2 1-1.4 1.9-2.8 2.9-4.3.2-.4.5-.6.6-1 .6-1.1.9-2.5.9-3.8 0-.3.1-.5.1-.8.2-.9.4-1.8.2-2.6v-1c0-.2 0-.5-.1-.7 0-.1-.2-.3-.4-.4l-.2-.3c.1-.9.1-1.8.2-2.6h.1c0 .5.1 1 .1 1.5 0 .3.1.5.2.6.2.5.5.9.5 1.4.1 1.9 0 3.8 0 5.6 0 .5-.1 1.1-.2 1.6-.1.4-.4.6-.6 1-.2.2-.4.7-.5 1-.1.4-.1.6-.4.9-.1.1-.2.4-.1.5.2.5 0 1-.4 1.4s-.5.9-.6 1.4c0 .4-.2.7-.6 1-.1.1-.2.4-.4.5-.1.2-.2.6-.5 1-.2.4-.5.9-.8 1.1-.4.5-.9.9-1.2 1.4-.6.6-1.4 1.1-2 1.8l-.1.3c-.2.1-.5.2-.6.5-.1.3-.3.4-.5.6.5-.1.8-.2 1.1-.4-.2-.4-.2-.5.4-.6.4-.1.6-.4.9-.5l.1-.1c.6-.1.9-.6 1.4-.9.3-.1.6-.2.9-.4.1 0 .4-.1.5-.1-.4.2-.8.5-1.3.6-.5.2-.6.6-.9 1 1.2-.5 4.7-3.6 5.3-4.6-.6-.2-.9.4-1.2.5.1-.1.2-.2.2-.4.1-.1.1-.2.1-.5 0-.1 0-.3.1-.4.4-.8.8-1.4 1.1-2 .1-.1.2-.4.4-.5-.4.8-.7 1.5-1.2 2.2h.1l1.2-1.2c.2-.2.4-.4.5-.6s0-.5-.4-.5c-.1 0-.1 0-.4-.1.4-.6.9-1.4 1.2-2 .1-.2.1-.5.2-.7.1-.4.1-.6.5-.8.1 0 .1-.2.1-.2 0-.1-.1-.1-.2-.2.1-.1.1-.2.2-.5l.3-.2c0-.6.4-.5.8-.4h.2c-.1-.2-.5-.1-.4-.5 0-.4.2-.4.4-.4-.1-.1-.2-.2-.4-.5l.2-.2c.1-.2.2-.4.4-.6 0-.1.1-.2.1-.4 0-.1 0-.2.1-.5v-2.1c-.1-.8-.1-1.5-.2-2.4 0-1.2-.5-2.8-1.1-4.2-.3-.5-.5-1.1-.8-1.8-3.2-5.5-8.1-9-14.6-10.1-.6-.1-1.4-.1-2-.2h-2.2c-.8.1-1.5.1-2.2.2-6 1.1-10.5 4.1-13.8 9.2-.2.2-.2.8-.4 1L35 34c-.6 1-1.8 3.9-1.9 4.8.1-.1.2-.1.4-.2-.9 1.2-.9 2.8-1 4.1v1.8c.1.8.1 1.4.2 2.1.3 1.6.8 3.4 1.5 5zm21.7 0c0-.3.1-.4.1-.6h.1c.1.7.1 1.6.3 2.5 0 .5 0 1-.6 1.5 0-.1-.1-.2-.1-.4.2-1-.1-2 .2-3zm-12.7 5.2c-.1-.1-.4-.2-.4-.4-.1-.3-.2-.6-.4-.9 0 0 .1 0 .1-.1.5.4.7.7 1.1 1.4h-.4zm-.8-18.9h.5c.2 0 .4-.1.5-.4.1-.4.2-.8.5-1.1 0 1.1-.1 2.1-.2 3.1-.1-.4-.1-.8-.2-1.1-.6.4-.9.9-1.1 1.4h-.1c0-.1-.1-.1 0-.2 0-.1.1-.2.1-.4v-.5c-.1 0-.4 0-.5.1-.1 0-.1.1-.3.2-.1-.4-.1-.9-.2-1.2.1 0 .6.1 1 .1zm-7 15.9c-.1 0-.2 0-.2-.1-.1-.4-.3-.6-.5-1h.1c.2.2.5.6.6.9v.2zm14.5 9.7c.1 0 .1 0 .4.2-2.9-.2-5.5-1.2-8-2.9 1.9.8 3.9 1.6 5.7 2.4v-.1c-.5-.4-1.1-.6-1.6-1V62c.7 0 1.4.1 2 .6.4.4.9.8 1.5.9zm-9.3-4.2c.4.5.5.5.5 1-2.4-1.6-4.4-3.8-5.8-6.2l1.4 1.4V55c.6-.1.9 0 1 .4.1-.1.1-.1.1-.2.4.1.4.5.6.7v.1h-.8c.1.1.4.1.5.3.5.2.9.6 1.1 1.1.6.6.9 1.2 1.4 1.9zm-19 73.8c-.1-1.6-.5-2.8-1.3-3.5-.5-.5-1.1-.8-1.9-1-.1 0-.1 0-.2-.1-.1 0-.2 0-.5-.1h-4.8v11h4.8c.1 0 .2 0 .5-.1.1 0 .1 0 .2-.1.8-.2 1.5-.5 1.9-1 .8-.8 1.1-1.9 1.3-3.5v-1.6zm-2.6 3.7c-.4.6-1.4.9-2.6.9h-1.6v-7.5h1.6c1.2 0 2.2.2 2.6.9.4.6.6 1.6.6 2.9s-.2 2.1-.6 2.8z"/></svg>