<svg xmlns="http://www.w3.org/2000/svg" width="83" height="103" viewBox="0 0 83 103"><path fill="#fff" d="M27.8 43c-.1 0-.2 0-.2-.1-.1-.3-.2-.5-.4-.8h.1c.2.2.4.5.5.7v.2zm29.7-9.1v1.7c-.1.2-.1.3-.1.4 0 .1-.1.2-.1.3-.1.2-.2.3-.3.5l-.2.2c.1.2.2.3.3.4-.1 0-.3 0-.3.3-.1.3.2.2.3.4h-.2c-.3-.1-.6-.2-.6.3l-.1.1c-.1.2-.1.3-.2.4.1.1.2.1.2.2 0 0 0 .2-.1.2-.3.1-.3.3-.4.6-.1.2-.1.4-.2.6-.3.5-.7 1.1-1 1.6.2.1.2.1.3.1.3 0 .4.2.3.4-.1.2-.2.3-.4.5l-1 1h-.1c.4-.6.7-1.2 1-1.8-.1.1-.2.3-.3.4-.3.5-.6 1-.9 1.6-.1.1-.1.2-.1.3 0 .2 0 .3-.1.4 0 .1-.1.2-.2.3.3-.1.5-.6 1-.4-.4.8-3.2 3.3-4.2 3.7.2-.3.3-.6.7-.8.4-.1.7-.3 1-.5-.1 0-.3.1-.4.1-.2.1-.5.2-.7.3-.4.2-.6.6-1.1.7l-.1.1c-.2.1-.4.3-.7.4-.5.1-.5.2-.3.5-.3.1-.5.2-.9.3.2-.2.3-.3.4-.5.1-.2.3-.3.5-.4l.6-.3c.5-.5 1.1-.9 1.6-1.4.3-.4.7-.7 1-1.1.2-.2.4-.6.6-.9.2-.3.3-.6.4-.8.1-.1.2-.3.3-.4.3-.2.5-.5.5-.8.1-.4.2-.8.5-1.1.3-.3.5-.7.3-1.1-.1-.1 0-.3.1-.4.2-.2.2-.4.3-.7.1-.2.2-.6.4-.8.2-.3.4-.5.5-.8.1-.4.2-.9.2-1.3 0-1.5.1-3 0-4.5 0-.4-.2-.7-.4-1.1-.1-.1-.2-.3-.2-.5 0-.4-.1-.8-.1-1.2h-.1c-.1.7-.1 1.4-.2 2.1l.2.2c.1.1.3.2.3.3.1.2.1.4.1.6V34c.1.7 0 1.4-.2 2.1 0 .2-.1.4-.1.6 0 1-.2 2.1-.7 3-.1.3-.3.5-.5.8-.8 1.2-1.5 2.3-2.3 3.4 0 .1-.1.1-.2.2 0-.2.1-.4.1-.6h-.1c-.2.2-.3.4-.5.6-.1-.5.2-1 0-1.4-.1.2-.1.3-.1.4-.1.5-.1 1-.5 1.5s-.9.9-1.4 1.2c-.3.2-.4.1-.4-.2-.1-.4-.2-.9 0-1.3.1-.2.1-.4.1-.6-.1-.7-.1-1.5-.1-2.2-.1.6-.2.7-.7.8-.1-.5-.1-.9-.1-1.4h-.1c-.1.5-.1 1-.2 1.5-.1 0-.1.1-.2.1s-.2-.1-.2-.2c-.1-.3-.1-.6-.1-.9-.1.2-.2.5-.2.7 0 .4 0 .9-.1 1.3s-.3.9-.4 1.4c-.1.3-.4.6-.8.5-.1 0-.2-.1-.3-.1-.1.3-.1.5-.2.8-.1.2-.1.3-.3.2-.2 0-.3.1-.3.2-.1.3-.2.6-.2.9 0 .2-.1.4-.3.4-.3 0-.6.1-.9.1-.6 0-1.1.1-1.6.1-.6 0-.6.1-.6.6-.1-.1-.2-.3-.3-.3-.1-.1-.2.1-.4.1h-.1c-.1.1-.3.2-.3.3-.1.3-.2.7-.3 1-.2-.1-.5-.1-.6-.4 0-.1-.2-.1-.3-.1-.8.2-1.2-.3-1.7-.6-.1-.1-.1-.2-.1-.2-.1-.1-.2-.1-.2-.1-.2.4-.6.2-.9.2-.4 0-.6-.3-.5-.6v-.2c.1-.2 0-.3-.2-.3s-.4-.2-.6-.4c-.2-.4-.6-.7-.6-1.2v-.1c-.3-.3-.5-.7-.9-.9-.4-.3-.6-.6-.9-.9-.8-.9-1.4-2-1.8-3.3-.2-.6-.2-1.2-.4-1.8 0-.3-.2-.5.1-.7-.2-.1-.2-.2-.3-.2-.2 0-.3-.2-.1-.4v-.2c-.3-.6-.4-1.2-.4-1.8.1-.4.1-.8.1-1.2-.3 1.6-.4 3.2 0 4.8h-.1c-.1-.1-.3-.2-.4-.3 0 .1.1.2.2.3.2.1.3.3.4.6.2.8.3 1.5.5 2.2.1.1.1.2.1.3-.2-.1-.4-.2-.5-.2v.1c.1.1.3.2.4.3.5.2.5.6.6 1 0 .1-.1.1-.1.2-.1 0-.1-.1-.2-.1s-.1-.1-.1-.1c0 .1-.1.1-.1.2l-.1-.1c-.3-.2-.3-.4-.7-.4h-.1c-.1-.2-.2-.5-.3-.7 0-.1-.1-.2-.1-.3v.5H28c-.3-.2-.4-.6-.5-1-.1-.3-.1-.5-.2-.8-.1-.2-.2-.5-.3-.7-.2-.7-.4-1.5-.6-2.1.1 1.2.6 2.5.9 3.8-.2-.1-.3-.2-.4-.4-.6-1.3-1-2.7-1.2-4.1-.1-.6-.1-1.1-.2-1.7v-1.4c.1-1.1.1-2.3.8-3.3-.1.1-.2.1-.3.2.1-.7 1-3 1.5-3.8l.1.1c.1-.2.1-.6.3-.8 2.6-4.1 6.2-6.5 11-7.4.6-.1 1.2-.1 1.8-.2h1.8c.5.1 1.1.1 1.6.2 5.2.9 9.1 3.7 11.7 8.1.2.5.4 1 .6 1.4.5 1.2.9 2.4.9 3.4.1.7.1 1.3.2 1.9zM28 40.4c-.1-.1-.2-.1-.3-.1-.1.3 0 .7.3.9v-.8zm2.5-10.5c-.2.2-.3.4-.5.6.3.1.4-.1.5-.6zm4 15.5c-.3-.5-.5-.8-.9-1.1 0 .1-.1.1-.1.1.1.2.2.5.3.7 0 .1.2.2.3.3h.4zm.1-16.3c-.2.3-.3.6-.4.9-.1.2-.2.3-.4.3h-.4c-.3 0-.7-.1-.9-.1.1.3.1.7.2 1 .1-.1.1-.2.2-.2.1-.1.3-.1.4-.1v.4c0 .1-.1.2-.1.3-.1.1 0 .1 0 .2h.1c.2-.4.4-.8.9-1.1.1.3.1.6.2.9.1-.8.2-1.6.2-2.5zm.3-1.3c-.2.2-.4.4-.3.7-.1-.1-.1 0 0 0 .1-.3.2-.5.3-.7zm3.8 9.6c-.7-.3-1-1-1.7-1.2.4.5 1.5 1.3 1.7 1.2zm.6.4c-.2-.1-.3-.2-.5-.3l-.1.1c.2.1.3.2.5.3l.1-.1zm5.3 5c-.1-.7-.1-1.4-.2-2h-.1c0 .2-.1.3-.1.5-.2.8 0 1.6-.2 2.4 0 .1.1.2.1.3.5-.4.5-.8.5-1.2zm-6.4 7.3c-.5-.4-1-.5-1.6-.5v.1c.4.3.9.5 1.3.8v.1c-1.5-.6-3.1-1.3-4.6-1.9 2 1.3 4.1 2.1 6.4 2.3-.2-.2-.2-.2-.3-.2-.5-.1-.9-.4-1.2-.7zM31 45.9c-.2-.4-.5-.7-.9-.9-.1-.1-.3-.1-.4-.2h.6v-.1c-.2-.2-.2-.5-.5-.6 0 .1 0 .1-.1.2-.1-.3-.3-.4-.8-.3v.3l-1.1-1.1c1.1 2 2.7 3.7 4.6 5 0-.4-.1-.4-.4-.8-.4-.5-.7-1-1-1.5z"/><path fill="#fff" d="M0 0v103h83V0H0zm80 74.9V100H3V74.8c11.6-5.8 24.7-9.2 38.5-9.2S68.4 69 80 74.9zm0-1.2c-11.6-5.8-24.7-9-38.5-9S14.6 68 3 73.7V3h77v70.7z"/></svg>