<svg xmlns="http://www.w3.org/2000/svg" width="295" height="103" viewBox="0 0 295 103"><path fill="#fff" d="M27.8 43c-.1 0-.2 0-.2-.1-.1-.3-.2-.5-.4-.8h.1c.2.2.4.5.5.7v.2zm29.7-9.1v1.7c-.1.2-.1.3-.1.4 0 .1-.1.2-.1.3-.1.2-.2.3-.3.5l-.2.2c.1.2.2.3.3.4-.1 0-.3 0-.3.3-.1.3.2.2.3.4h-.2c-.3-.1-.6-.2-.6.3l-.1.1c-.1.2-.1.3-.2.4.1.1.2.1.2.2 0 0 0 .2-.1.2-.3.1-.3.3-.4.6-.1.2-.1.4-.2.6-.3.5-.7 1.1-1 1.6.2.1.2.1.3.1.3 0 .4.2.3.4-.1.2-.2.3-.4.5l-1 1h-.1c.4-.6.7-1.2 1-1.8-.1.1-.2.3-.3.4-.3.5-.6 1-.9 1.6-.1.1-.1.2-.1.3 0 .2 0 .3-.1.4 0 .1-.1.2-.2.3.3-.1.5-.6 1-.4-.4.8-3.2 3.3-4.2 3.7.2-.3.3-.6.7-.8.4-.1.7-.3 1-.5-.1 0-.3.1-.4.1-.2.1-.5.2-.7.3-.4.2-.6.6-1.1.7l-.1.1c-.2.1-.4.3-.7.4-.5.1-.5.2-.3.5-.3.1-.5.2-.9.3.2-.2.3-.3.4-.5.1-.2.3-.3.5-.4l.6-.3c.5-.5 1.1-.9 1.6-1.4.3-.4.7-.7 1-1.1.2-.2.4-.6.6-.9.2-.3.3-.6.4-.8.1-.1.2-.3.3-.4.3-.2.5-.5.5-.8.1-.4.2-.8.5-1.1s.5-.7.3-1.1c-.1-.1 0-.3.1-.4.2-.2.2-.4.3-.7.1-.2.2-.6.4-.8.2-.3.4-.5.5-.8.1-.4.2-.9.2-1.3 0-1.5.1-3 0-4.5 0-.4-.2-.7-.4-1.1-.1-.1-.2-.3-.2-.5 0-.4-.1-.8-.1-1.2h-.1c-.1.7-.1 1.4-.2 2.1l.2.2c.1.1.3.2.3.3.1.2.1.4.1.6V34c.1.7 0 1.4-.2 2.1 0 .2-.1.4-.1.6 0 1-.2 2.1-.7 3-.1.3-.3.5-.5.8-.8 1.2-1.5 2.3-2.3 3.4 0 .1-.1.1-.2.2 0-.2.1-.4.1-.6h-.1c-.2.2-.3.4-.5.6-.1-.5.2-1 0-1.4-.1.2-.1.3-.1.4-.1.5-.1 1-.5 1.5s-.9.9-1.4 1.2c-.3.2-.4.1-.4-.2-.1-.4-.2-.9 0-1.3.1-.2.1-.4.1-.6-.1-.7-.1-1.5-.1-2.2-.1.6-.2.7-.7.8-.1-.5-.1-.9-.1-1.4h-.1c-.1.5-.1 1-.2 1.5-.1 0-.1.1-.2.1s-.2-.1-.2-.2c-.1-.3-.1-.6-.1-.9-.1.2-.2.5-.2.7 0 .4 0 .9-.1 1.3s-.3.9-.4 1.4c-.1.3-.4.6-.8.5-.1 0-.2-.1-.3-.1-.1.3-.1.5-.2.8-.1.2-.1.3-.3.2-.2 0-.3.1-.3.2-.1.3-.2.6-.2.9 0 .2-.1.4-.3.4-.3 0-.6.1-.9.1-.6 0-1.1.1-1.6.1-.6 0-.6.1-.6.6-.1-.1-.2-.3-.3-.3-.1-.1-.2.1-.4.1h-.1c-.1.1-.3.2-.3.3-.1.3-.2.7-.3 1-.2-.1-.5-.1-.6-.4 0-.1-.2-.1-.3-.1-.8.2-1.2-.3-1.7-.6-.1-.1-.1-.2-.1-.2-.1-.1-.2-.1-.2-.1-.2.4-.6.2-.9.2-.4 0-.6-.3-.5-.6v-.2c.1-.2 0-.3-.2-.3s-.4-.2-.6-.4c-.2-.4-.6-.7-.6-1.2v-.1c-.3-.3-.5-.7-.9-.9-.4-.3-.6-.6-.9-.9-.8-.9-1.4-2-1.8-3.3-.2-.6-.2-1.2-.4-1.8 0-.3-.2-.5.1-.7-.2-.1-.2-.2-.3-.2-.2 0-.3-.2-.1-.4v-.2c-.3-.6-.4-1.2-.4-1.8.1-.4.1-.8.1-1.2-.3 1.6-.4 3.2 0 4.8h-.1c-.1-.1-.3-.2-.4-.3 0 .1.1.2.2.3.2.1.3.3.4.6.2.8.3 1.5.5 2.2.1.1.1.2.1.3-.2-.1-.4-.2-.5-.2v.1c.1.1.3.2.4.3.5.2.5.6.6 1 0 .1-.1.1-.1.2-.1 0-.1-.1-.2-.1s-.1-.1-.1-.1c0 .1-.1.1-.1.2l-.1-.1c-.3-.2-.3-.4-.7-.4h-.1c-.1-.2-.2-.5-.3-.7 0-.1-.1-.2-.1-.3v.5H28c-.3-.2-.4-.6-.5-1-.1-.3-.1-.5-.2-.8-.1-.2-.2-.5-.3-.7-.2-.7-.4-1.5-.6-2.1.1 1.2.6 2.5.9 3.8-.2-.1-.3-.2-.4-.4-.6-1.3-1-2.7-1.2-4.1-.1-.6-.1-1.1-.2-1.7v-1.4c.1-1.1.1-2.3.8-3.3-.1.1-.2.1-.3.2.1-.7 1-3 1.5-3.8l.1.1c.1-.2.1-.6.3-.8 2.6-4.1 6.2-6.5 11-7.4.6-.1 1.2-.1 1.8-.2h1.8c.5.1 1.1.1 1.6.2 5.2.9 9.1 3.7 11.7 8.1.2.5.4 1 .6 1.4.5 1.2.9 2.4.9 3.4.1.7.1 1.3.2 1.9zM28 40.4c-.1-.1-.2-.1-.3-.1-.1.3 0 .7.3.9v-.8zm2.5-10.5c-.2.2-.3.4-.5.6.3.1.4-.1.5-.6zm4 15.5c-.3-.5-.5-.8-.9-1.1 0 .1-.1.1-.1.1.1.2.2.5.3.7 0 .1.2.2.3.3h.4zm.1-16.3c-.2.3-.3.6-.4.9-.1.2-.2.3-.4.3h-.4c-.3 0-.7-.1-.9-.1.1.3.1.7.2 1 .1-.1.1-.2.2-.2.1-.1.3-.1.4-.1v.4c0 .1-.1.2-.1.3-.1.1 0 .1 0 .2h.1c.2-.4.4-.8.9-1.1.1.3.1.6.2.9.1-.8.2-1.6.2-2.5zm.3-1.3c-.2.2-.4.4-.3.7-.1-.1-.1 0 0 0 .1-.3.2-.5.3-.7zm3.8 9.6c-.7-.3-1-1-1.7-1.2.4.5 1.5 1.3 1.7 1.2zm.6.4c-.2-.1-.3-.2-.5-.3l-.1.1c.2.1.3.2.6.2zm5.3 5c-.1-.7-.1-1.4-.2-2h-.1c0 .2-.1.3-.1.5-.2.8 0 1.6-.2 2.4 0 .1.1.2.1.3.5-.4.5-.8.5-1.2zm-6.4 7.3c-.5-.4-1-.5-1.6-.5v.1c.4.3.9.5 1.3.8v.1c-1.5-.6-3.1-1.3-4.6-1.9 2 1.3 4.1 2.1 6.4 2.3-.2-.2-.2-.2-.3-.2-.5-.1-.9-.4-1.2-.7zM31 45.9c-.2-.4-.5-.7-.9-.9-.1-.1-.3-.1-.4-.2h.6v-.1c-.2-.2-.2-.5-.5-.6 0 .1 0 .1-.1.2-.1-.3-.3-.4-.8-.3v.3l-1.1-1.1c1.1 2 2.7 3.7 4.6 5 0-.4-.1-.4-.4-.8-.4-.5-.7-1-1-1.5z"/><path fill="#fff" d="M83 0H0v103h295V0H83zm-3 100H3V74.8c11.6-5.8 24.7-9.2 38.5-9.2S68.4 69 80 74.9V100zm0-26.3c-11.6-5.8-24.7-9-38.5-9S14.6 68 3 73.7V3h77v70.7zM292 100H83V67h209v33zm0-36H83V3h209v61z"/><path fill="#fff" d="M112.6 25.7H107v16.5h5.6c1.7 0 3-.3 4.1-.8 2.1-1.1 3.1-3.6 3.1-7.5 0-3-.6-5.2-1.8-6.4-1.2-1.2-3-1.8-5.4-1.8zm4.2 13.6c-.9 1.1-2.5 1.6-4.8 1.6h-3.4V27h4c2.1 0 3.6.6 4.4 1.8.8 1.1 1.1 2.8 1.1 5.1.1 2.5-.4 4.3-1.3 5.4zm19.3 1.7h9.3v1.3h-11V25.7h10.8V27H136v5.8h8v1.3h-8l.1 6.9zm35.3-5.2c.3.6.5 1.3.5 2 0 1.5-.5 2.6-1.6 3.4s-2.6 1.3-4.4 1.3c-1.1 0-2.2-.2-3.1-.6-1.2-.5-2-1.2-2.6-2.1-.3-.5-.6-1.1-.7-1.8l1.4-.6c.7 2.4 2.4 3.7 5.1 3.7.9 0 1.7-.1 2.4-.4.8-.3 1.3-.8 1.6-1.5.2-.3.2-.8.2-1.3s-.1-1-.4-1.5c-.1-.2-.3-.4-.6-.6-.3-.2-.5-.3-.6-.4-.2-.1-.8-.4-1.9-.8-.2-.1-.6-.2-1.2-.4-.1 0-.2 0-.2-.1-.7-.2-1.2-.4-1.5-.6-.3-.1-.7-.3-1.2-.6-.5-.2-.8-.5-1.1-.7-.2-.2-.5-.5-.7-.8s-.3-.7-.4-1.1v-.6c0-1.4.6-2.4 1.7-3.1 1-.7 2.3-1 3.8-1 2.6 0 4.5.9 5.7 2.8l-1.2.9c-.4-.8-1-1.4-1.8-1.8-.7-.4-1.6-.6-2.5-.6-1.2 0-2.2.2-2.9.7s-1.1 1.1-1.1 2c0 .7.3 1.2.8 1.7.5.4 1.1.7 1.9 1 .1 0 .4.1 1 .3s.9.3 1.1.4c.5.2.9.4 1.2.5.8.3 1.5.7 2 1 .6.3 1 .7 1.3 1.3zm13.7-10.1h12.3V27h-5.3v15.2h-1.7V27h-5.3v-1.3zm26.5 0h1.6v16.5h-1.6V25.7zm28.5 0h1.4v16.5H240l-10.4-14.5v14.6h-1.5V25.7h1.8l10.1 14 .1-14zm26.9 0L261.3 36v6.2h-1.6V36L254 25.7h1.8l4.8 8.8 4.8-8.8h1.6zM159.8 79H157v8h2.7c.8 0 1.5-.1 2-.4 1-.5 1.5-1.7 1.5-3.6 0-1.5-.3-2.5-.9-3.1-.5-.6-1.4-.9-2.5-.9zm2 6.6c-.4.5-1.2.8-2.4.8h-1.7v-6.8h2c1 0 1.8.3 2.1.9.4.6.6 1.4.6 2.5.1 1.2-.1 2.1-.6 2.6zm13.7-6.6l-2.7 8h.8l.7-2.2h3.3l.7 2.2h.8l-2.7-8h-.9zm-1 5.2l.9-2.9c0-.1.1-.4.3-.9l.3-.9c.2.5.4 1.1.6 1.8l.9 2.9h-3zm15.6-5.2h.8v8h-.8v-8zm11.9 7.4h4.1v.6h-4.9v-8h.8v7.4zm20-7.4l-2.8 5v3h-.8v-3l-2.8-5h.9l2.4 4.3 2.4-4.3h.7z"/><path fill="#fff" d="M219.6 87.4H218v-3.3l-3.1-5.5h1.8l2.2 3.9 2.2-3.9h1.6l-3.1 5.5v3.3zm-.8-.8v-2.7l-2.6-4.6 2.5 4.5v2.8zm-12.3.8h-5.6v-8.8h1.5V86h4.1v1.4zm-4.9-.8v-7.2 7.2zm-10.3.8h-1.6v-8.8h1.6v8.8zm-.8-.8l.1-7.2h-.1v7.2zm-10.9.8H178l-.7-2.2h-2.8l-.7 2.2h-1.6l3-8.8h.7l.1-.2.1.2h.6l2.9 8.8zm-1-.8l-.1-.2.1.2zm-5.3 0l.1-.2-.1.2zm1.7-2.8h2l-.8-2.4c-.1-.3-.2-.5-.2-.8-.2.5-.2.7-.2.7v.1l-.8 2.4zm-15.3 3.6h-3.1v-8.8h3.2c1.2 0 2.2.4 2.8 1 .7.7 1 1.8 1 3.3 0 2-.6 3.4-1.7 3.9-.5.4-1.2.6-2.2.6zm-1.6-1.4h1.3c1 0 1.8-.2 2.1-.7.4-.4.6-1.2.5-2.3 0-1-.2-1.8-.5-2.3-.2-.5-.9-.7-1.8-.7h-1.6v6zm3.9-5.8c0 .1.1.1.1.2.4.6.6 1.5.6 2.7.1-1.5-.1-2.4-.7-2.9zm3.9-37.3c-1.2 0-2.3-.2-3.3-.6-1.2-.5-2.1-1.2-2.8-2.2-.3-.5-.6-1.2-.8-2v-.3l2.1-.9.1.4c.7 2.3 2.3 3.4 4.7 3.4.9 0 1.7-.1 2.3-.4.7-.3 1.1-.7 1.4-1.3.2-.3.2-.7.2-1.2s-.1-.9-.3-1.3c-.1-.1-.2-.3-.5-.5-.1-.1-.2-.1-.3-.2-.1-.1-.2-.1-.3-.2-.5-.2-1.1-.5-1.8-.8-.2-.1-.3-.1-.6-.2-.2 0-.3-.1-.6-.2-.2 0-.3-.1-.4-.2-.6-.2-1.1-.4-1.4-.6-.3-.1-.7-.3-1.2-.6-.4-.1-.6-.4-.9-.5-.1-.1-.2-.1-.2-.2-.3-.3-.6-.6-.8-.9-.2-.4-.3-.8-.5-1.2v-.7c0-1.5.6-2.6 1.9-3.4 1-.7 2.3-1.1 4-1.1 2.7 0 4.8 1 6 3l.2.3-1.8 1.4-.2-.4c-.4-.7-.9-1.3-1.6-1.6-.6-.4-1.5-.6-2.3-.6-1.2 0-2.1.2-2.7.6-.7.5-.9 1-.9 1.7 0 .5.2.9.7 1.4.4.3.9.6 1.7.9.2 0 .4.1 1 .3.6.2.9.3 1.1.4.2.1.4.2.6.2.2.1.4.2.6.2.8.3 1.5.7 2.1 1 .7.3 1.1.8 1.4 1.5.2.5.5 1.3.5 2.2 0 1.6-.6 2.8-1.8 3.7-1.2 1.2-2.8 1.7-4.6 1.7zm-6-4.7c.1.5.4 1 .6 1.4.6.9 1.4 1.5 2.4 1.9.8.4 1.9.6 3 .6 1.6 0 3.1-.4 4.2-1.2 1-.7 1.4-1.7 1.4-3.1 0-.8-.2-1.4-.5-1.8-.3-.5-.6-.9-1.1-1.1-.5-.3-1.2-.7-2-1-.2-.1-.4-.1-.6-.3-.2-.1-.4-.2-.6-.2-.2-.1-.5-.2-1.1-.4-.5-.2-.8-.3-.9-.3h-.1c-.9-.3-1.5-.7-2-1.1-.5-.5-.9-1.1-.9-2 0-1 .4-1.7 1.3-2.3.7-.5 1.7-.8 3.1-.8 1 0 2 .2 2.7.6.7.4 1.3.9 1.7 1.6l.6-.4c-1.1-1.6-2.8-2.3-5.2-2.3-1.5 0-2.7.3-3.6.9-1 .7-1.5 1.6-1.5 2.8v.6l.3.9c.2.3.5.6.7.7l.2.2c.2.2.4.3.8.5.5.3.9.5 1.2.6h.1c.3.2.7.4 1.4.6l.3.1c.2.1.4.1.5.2.3.1.5.2.7.2.7.3 1.4.5 1.9.8l.1.1.2.2c.1.1.2.1.3.2.4.2.6.5.7.7.3.5.4 1 .4 1.7 0 .5 0 1.1-.3 1.5-.3.8-.9 1.3-1.8 1.6-.7.3-1.5.4-2.5.4-2.7 0-4.5-1.2-5.3-3.6l-.8.3zm70.1 4.5h-2.2V25.3h2.4l9.5 13.2V25.3h2.2v17.2h-2.1L230 28.9v13.8zm-1.5-.8h.8V26.5l11 15.3h.9V26.1h-.8v14.8l-10.7-14.8h-1.2v15.8zm-82.7.8H134V25.3h11.6v2h-9.2v5h8v2.1h-8v6.1h9.4v2.2zm-11-.8H145v-.5h-9.4v-7.6h8v-.6h-8v-6.5h9.2v-.5h-10.1v15.7zm126.9.7h-2.3v-6.5l-6-10.8h2.7l4.6 8.4 4.6-8.4h2.5l-6 10.8v6.5zm-1.6-.8h.8v-5.9l5.4-9.8h-.7l-5 9.2-5-9.2h-.9l5.4 9.9v5.8zm-46.5.8h-2.4V25.3h2.4v17.3zm-1.6-.8h.9V26.1h-.9v15.7zm-19.5.8H190V27.4h-5.3v-2h13.1v2h-5.3v15.2zm-1.7-.8h.9V26.6h5.3v-.5h-11.6v.5h5.3v15.2zm-78.2.8h-6V25.3h6c2.5 0 4.4.6 5.7 1.9s1.9 3.5 1.9 6.7c0 4.1-1.1 6.7-3.3 7.8-1.3.6-2.7.9-4.3.9zm-5.2-.8h5.2c1.5 0 2.8-.3 3.9-.8 1.9-1 2.9-3.4 2.9-7.2 0-2.9-.6-5-1.7-6.1-1.1-1.1-2.8-1.7-5.1-1.7h-5.2v15.8zm4.6-.5h-3.8V26.6h4.4c2.3 0 3.8.7 4.7 2 .8 1.1 1.2 2.8 1.2 5.3.1 2.5-.4 4.4-1.4 5.6-1 1.2-2.6 1.8-5.1 1.8zm-3-.8h3c2.2 0 3.7-.5 4.5-1.5.9-1.1 1.3-2.9 1.2-5.1 0-2.4-.3-3.9-1-4.9-.7-1.1-2.1-1.6-4.1-1.6H109v13.1z"/></svg>